<?xml version="1.0" encoding="UTF-8" standalone="no"?>
<!-- Created with Inkscape (http://www.inkscape.org/) -->

<svg
   xmlns:ns0="http://www.iki.fi/pav/software/textext/"
   xmlns:dc="http://purl.org/dc/elements/1.1/"
   xmlns:cc="http://creativecommons.org/ns#"
   xmlns:rdf="http://www.w3.org/1999/02/22-rdf-syntax-ns#"
   xmlns:svg="http://www.w3.org/2000/svg"
   xmlns="http://www.w3.org/2000/svg"
   xmlns:sodipodi="http://sodipodi.sourceforge.net/DTD/sodipodi-0.dtd"
   xmlns:inkscape="http://www.inkscape.org/namespaces/inkscape"
   width="744.09448819"
   height="1052.3622047"
   id="svg2"
   version="1.1"
   inkscape:version="0.48.2 r9819"
   sodipodi:docname="grid_dep2.svg">
  <sodipodi:namedview
     id="base"
     pagecolor="#ffffff"
     bordercolor="#666666"
     borderopacity="1.0"
     inkscape:pageopacity="0.0"
     inkscape:pageshadow="2"
     inkscape:zoom="1.28"
     inkscape:cx="210.99169"
     inkscape:cy="900.75958"
     inkscape:document-units="px"
     inkscape:current-layer="layer1"
     showgrid="false"
     inkscape:window-width="1600"
     inkscape:window-height="848"
     inkscape:window-x="-8"
     inkscape:window-y="-8"
     inkscape:window-maximized="1"
     showguides="false"
     inkscape:guide-bbox="true"
     inkscape:object-paths="true"
     inkscape:snap-intersection-paths="true"
     inkscape:object-nodes="true"
     inkscape:snap-smooth-nodes="false">
    <sodipodi:guide
       orientation="1,0"
       position="274.97572,956.32138"
       id="guide3816" />
  </sodipodi:namedview>
  <defs
     id="defs4"><inkscape:path-effect
   effect="interpolate"
   id="path-effect6752"
   is_visible="true"
   trajectory="m 667.1875,675.01843 -278.125,-7.03125"
   equidistant_spacing="true"
   steps="4" />
<inkscape:path-effect
   is_visible="true"
   id="path-effect6563"
   effect="spiro" />
<inkscape:path-effect
   effect="interpolate"
   id="path-effect3827"
   is_visible="true"
   trajectory="m 553.3509,679.88868 -150.73118,8.07621"
   equidistant_spacing="true"
   steps="3" />
<inkscape:path-effect
   effect="interpolate"
   id="path-effect5153"
   is_visible="true"
   trajectory="m 494.34693,220.57967 -438.742421,0.7617"
   equidistant_spacing="true"
   steps="9" />
<inkscape:path-effect
   effect="interpolate"
   id="path-effect5146"
   is_visible="true"
   trajectory="m 282.23017,346.78676 1.07722,-244.52767"
   equidistant_spacing="true"
   steps="7" />
<marker
   inkscape:stockid="Arrow2Lstart"
   orient="auto"
   refY="0.0"
   refX="0.0"
   id="Arrow2Lstart"
   style="overflow:visible">
  <path
     id="path3776"
     style="font-size:12.0;fill-rule:evenodd;stroke-width:0.62500000;stroke-linejoin:round"
     d="M 8.7185878,4.0337352 L -2.2072895,0.016013256 L 8.7185884,-4.0017078 C 6.9730900,-1.6296469 6.9831476,1.6157441 8.7185878,4.0337352 z "
     transform="scale(1.1) translate(1,0)" />
</marker>
<marker
   inkscape:stockid="Arrow2Lend"
   orient="auto"
   refY="0.0"
   refX="0.0"
   id="Arrow2Lend"
   style="overflow:visible;">
  <path
     id="path3779"
     style="font-size:12.0;fill-rule:evenodd;stroke-width:0.62500000;stroke-linejoin:round;"
     d="M 8.7185878,4.0337352 L -2.2072895,0.016013256 L 8.7185884,-4.0017078 C 6.9730900,-1.6296469 6.9831476,1.6157441 8.7185878,4.0337352 z "
     transform="scale(1.1) rotate(180) translate(1,0)" />
</marker>
<marker
   inkscape:stockid="TriangleOutL"
   orient="auto"
   refY="0.0"
   refX="0.0"
   id="TriangleOutL"
   style="overflow:visible">
  <path
     id="path3901"
     d="M 5.77,0.0 L -2.88,5.0 L -2.88,-5.0 L 5.77,0.0 z "
     style="fill-rule:evenodd;stroke:#000000;stroke-width:1.0pt;marker-start:none"
     transform="scale(0.8)" />
</marker>
<marker
   inkscape:stockid="Arrow1Lend"
   orient="auto"
   refY="0.0"
   refX="0.0"
   id="Arrow1Lend"
   style="overflow:visible;">
  <path
     id="path3761"
     d="M 0.0,0.0 L 5.0,-5.0 L -12.5,0.0 L 5.0,5.0 L 0.0,0.0 z "
     style="fill-rule:evenodd;stroke:#000000;stroke-width:1.0pt;marker-start:none;"
     transform="scale(0.8) rotate(180) translate(12.5,0)" />
</marker>
<marker
   inkscape:stockid="Arrow1Lstart"
   orient="auto"
   refY="0.0"
   refX="0.0"
   id="Arrow1Lstart"
   style="overflow:visible">
  <path
     id="path3758"
     d="M 0.0,0.0 L 5.0,-5.0 L -12.5,0.0 L 5.0,5.0 L 0.0,0.0 z "
     style="fill-rule:evenodd;stroke:#000000;stroke-width:1.0pt;marker-start:none"
     transform="scale(0.8) translate(12.5,0)" />
</marker>
<marker
   inkscape:stockid="Arrow2Lstart"
   orient="auto"
   refY="0"
   refX="0"
   id="Arrow2Lstart-1"
   style="overflow:visible">
  <path
     inkscape:connector-curvature="0"
     id="path3776-7"
     style="font-size:12px;fill-rule:evenodd;stroke-width:0.625;stroke-linejoin:round"
     d="M 8.7185878,4.0337352 -2.2072895,0.01601326 8.7185884,-4.0017078 c -1.7454984,2.3720609 -1.7354408,5.6174519 -6e-7,8.035443 z"
     transform="matrix(1.1,0,0,1.1,1.1,0)" />
</marker>
<marker
   inkscape:stockid="Arrow2Lend"
   orient="auto"
   refY="0"
   refX="0"
   id="Arrow2Lend-4"
   style="overflow:visible">
  <path
     inkscape:connector-curvature="0"
     id="path3779-0"
     style="font-size:12px;fill-rule:evenodd;stroke-width:0.625;stroke-linejoin:round"
     d="M 8.7185878,4.0337352 -2.2072895,0.01601326 8.7185884,-4.0017078 c -1.7454984,2.3720609 -1.7354408,5.6174519 -6e-7,8.035443 z"
     transform="matrix(-1.1,0,0,-1.1,-1.1,0)" />
</marker>









</defs>
  <metadata
     id="metadata7">
    <rdf:RDF>
      <cc:Work
         rdf:about="">
        <dc:format>image/svg+xml</dc:format>
        <dc:type
           rdf:resource="http://purl.org/dc/dcmitype/StillImage" />
        <dc:title />
      </cc:Work>
    </rdf:RDF>
  </metadata>
  <g
     inkscape:label="Layer 1"
     inkscape:groupmode="layer"
     id="layer1">
    <path
       style="font-style:normal;font-variant:normal;font-weight:normal;font-stretch:normal;letter-spacing:normal;word-spacing:normal;text-anchor:start;fill:#959595;fill-opacity:1;fill-rule:nonzero;stroke:none"
       d="M 55.818739,305.89069 274.095,142.60006 l 220.25193,163.17546 0.0977,41.01124 -438.429442,0 z"
       id="rect4186"
       inkscape:connector-curvature="0"
       sodipodi:nodetypes="cccccc" />
    <path
       style="fill:none;stroke:#000000;stroke-width:1px;stroke-linecap:butt;stroke-linejoin:miter;stroke-opacity:1;marker-start:url(#Arrow2Lstart);marker-end:url(#Arrow2Lend)"
       d="m 549.43313,346.78676 -493.417982,0 0,-289.770675"
       id="path2985"
       inkscape:connector-curvature="0"
       sodipodi:nodetypes="ccc" />
    <path
       style="font-style:normal;font-variant:normal;font-weight:normal;font-stretch:normal;letter-spacing:normal;word-spacing:normal;text-anchor:start;fill:#000000;stroke:#000000;stroke-width:0;stroke-linecap:butt;stroke-linejoin:miter;stroke-miterlimit:10.43299961;stroke-opacity:1;stroke-dasharray:none;stroke-dashoffset:0"
       inkscape:connector-curvature="0"
       d="m 43.354373,348.93066 -0.195,0 -0.195,0 -0.195,0 -0.195,0 -0.156,0.039 -0.195,0 -0.195,0.039 -0.156,0.039 -0.195,0.039 -0.156,0.039 -0.195,0.039 -0.156,0.039 -0.195,0.039 -0.156,0.039 -0.156,0.078 -0.156,0.078 -0.156,0.039 -0.156,0.078 -0.156,0.078 -0.156,0.078 -0.156,0.078 -0.156,0.078 -0.156,0.078 -0.117,0.117 -0.156,0.078 -0.156,0.117 -0.156,0.078 -0.117,0.117 -0.156,0.117 -0.117,0.117 -0.156,0.117 -0.117,0.117 c -2.262,2.184 -3.744,6.669 -3.744,11.193 0,4.251 1.287,8.775 3.12,10.959 1.443,1.716 3.432,2.613 5.655,2.613 v -0.975 c -3.315,0 -5.031,-4.173 -5.031,-12.246 0,-8.229 1.755,-12.519 5.07,-12.519 h 0 c 3.276,0 5.031,4.368 5.031,12.48 0,8.112 -1.716,12.285 -5.07,12.285 v 0.975 c 1.989,0 3.666,-0.663 5.07,-1.989 2.262,-2.145 3.744,-6.669 3.744,-11.349 0,-7.956 -3.549,-13.416 -8.658,-13.416 z"
       id="path5219" />
    <path
       style="font-style:normal;font-variant:normal;font-weight:normal;font-stretch:normal;letter-spacing:normal;word-spacing:normal;text-anchor:start;fill:#000000;stroke:#000000;stroke-width:0;stroke-linecap:butt;stroke-linejoin:miter;stroke-miterlimit:10.43299961;stroke-opacity:1;stroke-dasharray:none;stroke-dashoffset:0"
       inkscape:connector-curvature="0"
       d="m 48.717926,227.59397 -0.819,0.975 c -1.131,1.443 -1.833,2.067 -2.379,2.067 -0.312,0 -0.585,-0.312 -0.585,-0.624 0,-0.273 0,-0.273 0.507,-2.418 l 2.223,-8.034 c 0.195,-0.78 0.351,-1.638 0.351,-2.184 0,-1.404 -1.053,-2.379 -2.574,-2.379 -2.457,0 -4.914,2.34 -8.931,8.541 l 2.613,-8.463 -0.117,-0.078 c -2.106,0.429 -2.925,0.585 -6.318,1.209 v 0.624 c 1.989,0.039 2.496,0.273 2.496,1.053 0,0.234 -0.039,0.468 -0.078,0.663 l -3.705,13.572 h 2.886 c 1.833,-6.123 2.184,-6.981 3.9,-9.633 2.34,-3.549 4.329,-5.499 5.772,-5.499 0.546,0 0.936,0.429 0.936,1.131 0,0.468 -0.273,1.716 -0.546,2.925 l -1.716,6.435 c -0.507,1.95 -0.624,2.496 -0.624,2.886 0,1.482 0.546,2.106 1.833,2.106 1.716,0 2.73,-0.819 5.421,-4.407 z"
       id="path5221" />
    <path
       style="font-style:normal;font-variant:normal;font-weight:normal;font-stretch:normal;letter-spacing:normal;word-spacing:normal;text-anchor:start;fill:#000000;stroke:#000000;stroke-width:0;stroke-linecap:butt;stroke-linejoin:miter;stroke-miterlimit:10.43299961;stroke-opacity:1;stroke-dasharray:none;stroke-dashoffset:0"
       inkscape:connector-curvature="0"
       d="m 286.19699,372.23277 -0.039,0.078 -0.078,0.078 -0.078,0.117 -0.078,0.078 0,0.039 -0.039,0.039 -0.039,0.039 -0.039,0 -0.039,0.039 0,0.039 -0.039,0.039 -0.039,0.039 0,0.039 -0.039,0.039 -0.039,0 0,0.039 -0.039,0.039 0,0.039 -0.039,0 0,0.039 -0.039,0.039 0,0 -0.039,0.039 0,0 -0.039,0.039 0,0 0,0.039 0,0 c -1.092,1.404 -1.911,2.067 -2.496,2.067 -0.312,0 -0.507,-0.234 -0.507,-0.624 0,-0.195 0.156,-0.819 0.39,-1.755 l 2.613,-9.75 c 0.039,-0.156 0.117,-0.858 0.117,-1.092 0,-1.404 -0.936,-2.418 -2.262,-2.418 -0.741,0 -1.521,0.273 -2.457,0.819 -1.911,1.248 -3.51,3.12 -6.201,7.41 0.975,-2.964 1.56,-5.187 1.56,-5.928 0,-1.326 -0.897,-2.301 -2.223,-2.301 -2.34,0 -5.07,2.535 -8.658,8.19 l 2.262,-8.112 -0.117,-0.078 c -2.184,0.468 -3.003,0.585 -6.201,1.209 v 0.585 h 0.936 c 1.014,0 1.521,0.273 1.521,0.858 0,0.429 -0.897,3.978 -2.301,8.892 -0.897,3.198 -0.975,3.588 -1.482,5.538 h 2.886 c 1.872,-6.162 2.457,-7.605 3.783,-9.594 2.184,-3.315 4.524,-5.499 5.85,-5.499 0.507,0 0.741,0.351 0.741,0.975 0,0.351 -1.209,5.07 -3.666,14.118 h 2.925 c 1.521,-6.045 2.301,-7.995 4.29,-10.725 1.911,-2.652 3.861,-4.368 4.992,-4.368 0.429,0 0.78,0.39 0.78,0.819 0,0.195 -0.078,0.663 -0.273,1.365 l -2.262,8.931 c -0.351,1.443 -0.507,2.184 -0.507,2.574 0,1.17 0.546,1.755 1.56,1.755 1.833,0 3.549,-1.248 5.577,-4.134 l 0.195,-0.273 z"
       id="path5223" />
    <path
       style="font-style:normal;font-variant:normal;font-weight:normal;font-stretch:normal;letter-spacing:normal;word-spacing:normal;text-anchor:start;fill:#000000;stroke:#000000;stroke-width:0;stroke-linecap:butt;stroke-linejoin:miter;stroke-miterlimit:10.43299961;stroke-opacity:1;stroke-dasharray:none;stroke-dashoffset:0"
       inkscape:connector-curvature="0"
       d="m 294.65571,132.75289 -0.078,0.117 -0.117,0.117 -0.078,0.078 -0.078,0.117 -0.078,0.117 -0.117,0.078 -0.156,0.234 -0.156,0.156 -0.117,0.195 -0.156,0.156 -0.117,0.156 -0.156,0.156 -0.117,0.156 -0.117,0.117 -0.117,0.117 -0.078,0.117 -0.117,0.078 -0.078,0.117 -0.117,0.078 -0.078,0.078 -0.078,0.078 -0.078,0.078 -0.078,0.039 -0.078,0.078 -0.078,0.039 -0.078,0.039 -0.039,0.039 -0.078,0.039 -0.039,0 -0.078,0.039 -0.078,0 -0.039,0.039 -0.078,0 -0.039,0 -0.078,0 c -0.273,0 -0.429,-0.234 -0.429,-0.663 0,-0.234 0,-0.234 0.741,-3.003 l 3.081,-11.622 h -2.886 c -2.184,6.006 -2.457,6.63 -4.251,9.477 -2.34,3.705 -4.251,5.655 -5.499,5.655 -0.468,0 -0.819,-0.39 -0.819,-0.975 0,-0.156 0,-0.234 0.039,-0.351 l 3.549,-14.079 -0.117,-0.078 c -2.223,0.507 -3.627,0.78 -5.85,1.053 v 0.546 c 1.482,0 1.56,0.039 1.911,0.234 0.234,0.078 0.429,0.429 0.429,0.702 0,0.312 -0.195,1.287 -0.546,2.574 l -1.443,5.538 c -0.702,2.73 -0.975,4.056 -0.975,4.758 0,1.404 0.702,2.145 2.067,2.145 2.769,0 4.836,-2.106 9.321,-9.594 -1.131,4.173 -1.755,6.825 -1.755,7.644 0,1.17 0.702,1.872 1.872,1.872 1.794,0 2.691,-0.78 5.343,-4.563 z"
       id="path5225" />
    <path
       style="font-style:normal;font-variant:normal;font-weight:normal;font-stretch:normal;letter-spacing:normal;word-spacing:normal;text-anchor:start;fill:#000000;stroke:#000000;stroke-width:0;stroke-linecap:butt;stroke-linejoin:miter;stroke-miterlimit:10.43299961;stroke-opacity:1;stroke-dasharray:none;stroke-dashoffset:0"
       inkscape:connector-curvature="0"
       d="m 314.8967,143.71189 -0.078,0.039 -0.039,0.078 -0.039,0.039 -0.039,0.078 -0.039,0 0,0.039 -0.039,0.039 -0.039,0 0,0.039 -0.039,0.039 0,0 -0.039,0.039 0,0 -0.039,0.039 0,0.039 0,0 -0.039,0.039 0,0 -0.039,0.039 0,0 0,0 -0.039,0.039 0,0 0,0.039 0,0 -0.039,0 0,0.039 0,0 c -0.78,0.975 -1.326,1.443 -1.755,1.443 -0.195,0 -0.351,-0.156 -0.351,-0.429 0,-0.156 0.117,-0.585 0.273,-1.248 l 1.872,-6.786 c 0,-0.117 0.078,-0.624 0.078,-0.78 0,-0.975 -0.702,-1.677 -1.599,-1.677 -0.546,0 -1.092,0.156 -1.716,0.585 -1.326,0.858 -2.457,2.145 -4.329,5.148 0.663,-2.067 1.092,-3.627 1.092,-4.134 0,-0.936 -0.624,-1.599 -1.56,-1.599 -1.638,0 -3.549,1.755 -6.045,5.694 l 1.56,-5.655 -0.078,-0.039 c -1.521,0.312 -2.067,0.429 -4.329,0.819 v 0.429 h 0.663 c 0.702,0 1.053,0.195 1.053,0.585 0,0.312 -0.624,2.769 -1.599,6.24 -0.624,2.223 -0.702,2.496 -1.053,3.861 h 2.028 c 1.326,-4.29 1.716,-5.304 2.652,-6.708 1.521,-2.301 3.159,-3.822 4.056,-3.822 0.351,0 0.546,0.234 0.546,0.663 0,0.234 -0.858,3.51 -2.574,9.867 h 2.028 c 1.092,-4.212 1.638,-5.577 3.042,-7.488 1.326,-1.872 2.691,-3.042 3.471,-3.042 0.273,0 0.546,0.273 0.546,0.546 0,0.156 -0.078,0.468 -0.195,0.975 l -1.599,6.201 c -0.234,1.014 -0.351,1.521 -0.351,1.794 0,0.819 0.39,1.248 1.092,1.248 1.287,0 2.496,-0.897 3.939,-2.886 l 0.117,-0.195 z"
       id="path5229" />
    <path
       transform="translate(2.2851148,-2.28513)"
       d="m 274.97572,226.29247 a 2.6659696,3.4276752 0 1 1 -5.33194,0 2.6659696,3.4276752 0 1 1 5.33194,0 z"
       sodipodi:ry="3.4276752"
       sodipodi:rx="2.6659696"
       sodipodi:cy="226.29247"
       sodipodi:cx="272.30975"
       id="path5256"
       style="font-style:normal;font-variant:normal;font-weight:normal;font-stretch:normal;letter-spacing:normal;word-spacing:normal;text-anchor:start;fill:#000000;fill-opacity:1;stroke:#000000;stroke-width:0.5;stroke-linecap:round;stroke-linejoin:miter;stroke-miterlimit:4;stroke-opacity:1;stroke-dasharray:none;stroke-dashoffset:0"
       sodipodi:type="arc" />
    <path
       d="m 510.84809,353.95876 h -7.0185 l -14.16386,20.71723 -2.3253,-20.71723 h -7.65276 v 0.63425 c 2.11404,0.16883 3.1287,0.59167 3.1287,1.56435 0,0.33766 -0.16884,0.97192 -0.42284,1.73348 -0.0913,0.16884 -0.21142,0.63426 -0.38025,1.26852 -0.0456,0.12168 -0.0913,0.29659 -0.12168,0.46542 l -4.4395,15.64364 c -1.3111,4.39706 -1.9449,5.24274 -4.14335,5.49644 v 0.63426 h 8.32914 v -0.63426 c -2.15632,-0.16883 -2.95956,-0.67685 -2.95956,-1.86034 0,-0.42283 0.16883,-1.52206 0.38025,-2.24089 l 4.9469,-18.22279 2.57901,22.95812 h 0.71943 l 15.89734,-23.59223 -5.45415,19.78715 c -0.67684,2.24074 -1.52206,2.87499 -4.22808,3.17098 v 0.63426 h 11.50029 v -0.63426 c -2.87515,-0.25401 -3.25571,-0.50801 -3.25571,-1.81805 0,-0.71944 0.0913,-1.26852 0.46543,-2.57916 l 5.15817,-18.64548 c 0.7605,-2.53688 0.97192,-2.7483 3.46697,-3.1287 z"
       id="path5487"
       inkscape:connector-curvature="0"
       style="font-style:normal;font-variant:normal;font-weight:normal;font-stretch:normal;letter-spacing:normal;word-spacing:normal;text-anchor:start;fill:#000000;stroke:#000000;stroke-width:0;stroke-linecap:butt;stroke-linejoin:miter;stroke-miterlimit:10.43299961;stroke-opacity:1;stroke-dasharray:none;stroke-dashoffset:0" />
    <g
       style="font-style:normal;font-variant:normal;font-weight:normal;font-stretch:normal;letter-spacing:normal;word-spacing:normal;text-anchor:start;fill:none;stroke:#000000;stroke-linecap:butt;stroke-linejoin:miter;stroke-miterlimit:10.43299961;stroke-opacity:1;stroke-dasharray:none;stroke-dashoffset:0"
       id="g5551"
       transform="matrix(4.228014,0,0,-4.228014,-926.11088,3103.7794)"
       xml:space="preserve"
       stroke-miterlimit="10.433"
       font-style="normal"
       font-variant="normal"
       font-weight="normal"
       font-stretch="normal"
       font-size-adjust="none"
       letter-spacing="normal"
       word-spacing="normal"
       ns0:text="$N$ $M$\n"
       ns0:preamble="C:\\Users\\Uranix\\Documents\\header.inc ">
<path
   style="fill:#000000;stroke-width:0"
   inkscape:connector-curvature="0"
   d="m 230.93,713.62 h -1.99 v -0.15 c 0.57,-0.06 0.7,-0.15 0.7,-0.51 0,-0.12 -0.02,-0.24 -0.09,-0.44 -0.01,-0.03 -0.02,-0.07 -0.02,-0.08 l -1.01,-3.78 -2.08,4.96 h -1.6 v -0.15 c 0.47,-0.05 0.67,-0.18 0.86,-0.56 l -1.19,-4.15 c -0.38,-1.28 -0.46,-1.4 -1.03,-1.48 v -0.15 h 1.98 v 0.15 c -0.51,0.04 -0.7,0.15 -0.7,0.43 0,0.13 0.03,0.33 0.09,0.54 l 1.13,4.2 2.3,-5.47 h 0.18 l 1.43,5 c 0.37,1.29 0.41,1.35 1.04,1.49 z"
   id="path5553" />

</g>    <path
       style="font-style:normal;font-variant:normal;font-weight:normal;font-stretch:normal;letter-spacing:normal;word-spacing:normal;text-anchor:start;fill:none;stroke:#000000;stroke-width:1px;stroke-linecap:butt;stroke-linejoin:miter;stroke-miterlimit:10.43299961;stroke-opacity:1;stroke-dasharray:none;stroke-dashoffset:0;marker-start:url(#Arrow2Lstart);marker-end:url(#Arrow2Lend)"
       d="m 441.31392,176.7656 53.03301,0"
       id="path5708"
       inkscape:connector-curvature="0" />
    <path
       style="font-style:normal;font-variant:normal;font-weight:normal;font-stretch:normal;letter-spacing:normal;word-spacing:normal;text-anchor:start;fill:none;stroke:#000000;stroke-width:1px;stroke-linecap:butt;stroke-linejoin:miter;stroke-miterlimit:10.43299961;stroke-opacity:1;stroke-dasharray:none;stroke-dashoffset:0;marker-start:url(#Arrow2Lstart);marker-end:url(#Arrow2Lend)"
       d="m 451.33303,223.16949 0,-38.66991"
       id="path5708-9"
       inkscape:connector-curvature="0"
       sodipodi:nodetypes="cc" />
    <path
       style="font-style:normal;font-variant:normal;font-weight:normal;font-stretch:normal;letter-spacing:normal;word-spacing:normal;text-anchor:start;fill:#000000;stroke:#000000;stroke-width:0;stroke-linecap:butt;stroke-linejoin:miter;stroke-miterlimit:10.43299961;stroke-opacity:1;stroke-dasharray:none;stroke-dashoffset:0"
       inkscape:connector-curvature="0"
       id="path6160"
       d="m 473.03497,194.01116 h -10.12484 c -3.09463,0 -5.24745,3.66652 -5.5839,4.30564 h 0.3696 c 0.2023,-0.23575 1.58093,-1.8836 3.33008,-1.8836 h 3.76752 l -2.22005,7.23205 c -0.33614,1.11033 -0.5719,2.08544 -0.5719,2.79179 0,1.44647 0.77419,2.65749 2.42189,2.65749 0.77419,0 1.74915,-0.20229 1.74915,-1.41301 0,-1.88375 -1.68192,-1.71553 -1.68192,-3.33007 0,-0.33614 0.0304,-0.70575 0.20229,-1.21072 l 2.18644,-6.72738 h 5.38206 z" />
    <path
       style="font-style:normal;font-variant:normal;font-weight:normal;font-stretch:normal;letter-spacing:normal;word-spacing:normal;text-anchor:start;fill:#000000;stroke:#000000;stroke-width:0;stroke-linecap:butt;stroke-linejoin:miter;stroke-miterlimit:10.43299961;stroke-opacity:1;stroke-dasharray:none;stroke-dashoffset:0"
       inkscape:connector-curvature="0"
       id="path6162"
       d="m 475.49551,167.82988 -0.10647,0.10647 -0.0608,0.10647 -0.0608,0.10647 -0.10647,0.10647 -0.0608,0.10647 -0.0608,0.10647 -0.0608,0.0608 -0.0608,0.10647 -0.0608,0.0608 -0.0608,0.10647 -0.0608,0.0608 -0.0608,0.0608 -0.0608,0.10647 -0.0608,0.0608 -0.10647,0.13689 -0.13689,0.13689 -0.10647,0.10647 -0.10647,0.13689 -0.0608,0.10647 -0.10647,0.10647 -0.10647,0.0608 -0.0608,0.10647 -0.0608,0.0608 -0.0608,0.0608 -0.0608,0.0608 -0.0608,0.0304 -0.0608,0.0608 -0.0608,0.0304 -0.0608,0.0304 -0.0304,0.0304 -0.0608,0.0304 -0.0304,0.0304 -0.0608,0 -0.0304,0.0304 -0.0608,0 -0.0304,0 -0.0608,0.0304 -0.10647,0 c -0.30268,0 -0.53844,-0.30268 -0.53844,-0.60536 0,-0.33614 0.53844,-2.4555 1.11033,-4.20465 0.97496,-3.16185 1.6147,-5.65112 1.6147,-6.45832 0,-1.31262 -0.90804,-2.2202 -2.22021,-2.2202 -2.18644,0 -4.54094,2.18644 -7.66934,7.06398 l 4.03659,-15.00238 -0.16884,-0.16884 c -1.95098,0.43653 -3.26284,0.67229 -5.28106,0.90804 v 0.47151 h 0.87458 c 0.0304,0 0.0608,0 0.10647,-0.0304 0.47151,-0.16883 1.27764,0.3696 1.27764,0.84111 0,0.47151 -0.16884,1.31111 -0.47151,2.28744 -0.0304,0.0304 -0.13689,0.50497 -0.33615,1.24417 l -4.54094,17.12145 h 2.52273 c 1.34608,-5.14661 1.78276,-6.29025 3.12839,-8.30847 1.74915,-2.65734 4.00282,-4.74293 5.18007,-4.74293 0.50497,0 0.9415,0.40306 0.9415,0.84111 0,0.13689 -0.10647,0.5719 -0.23575,1.11033 l -1.85015,6.92937 c -0.43805,1.64816 -0.63882,2.69096 -0.63882,3.09463 0,0.84111 0.53844,1.41301 1.44647,1.41301 1.71554,0 2.89279,-0.90804 4.91101,-3.83459 z" />
    <path
       transform="translate(2.6183581,38.358993)"
       d="m 274.97572,226.29247 a 2.6659696,3.4276752 0 1 1 -5.33194,0 2.6659696,3.4276752 0 1 1 5.33194,0 z"
       sodipodi:ry="3.4276752"
       sodipodi:rx="2.6659696"
       sodipodi:cy="226.29247"
       sodipodi:cx="272.30975"
       id="path5256-1"
       style="font-style:normal;font-variant:normal;font-weight:normal;font-stretch:normal;letter-spacing:normal;word-spacing:normal;text-anchor:start;fill:#000000;fill-opacity:1;stroke:#000000;stroke-width:0.5;stroke-linecap:round;stroke-linejoin:miter;stroke-miterlimit:4;stroke-opacity:1;stroke-dasharray:none;stroke-dashoffset:0"
       sodipodi:type="arc" />
    <path
       transform="translate(-51.950707,38.775552)"
       d="m 274.97572,226.29247 a 2.6659696,3.4276752 0 1 1 -5.33194,0 2.6659696,3.4276752 0 1 1 5.33194,0 z"
       sodipodi:ry="3.4276752"
       sodipodi:rx="2.6659696"
       sodipodi:cy="226.29247"
       sodipodi:cx="272.30975"
       id="path5256-7"
       style="font-style:normal;font-variant:normal;font-weight:normal;font-stretch:normal;letter-spacing:normal;word-spacing:normal;text-anchor:start;fill:#000000;fill-opacity:1;stroke:#000000;stroke-width:0.5;stroke-linecap:round;stroke-linejoin:miter;stroke-miterlimit:4;stroke-opacity:1;stroke-dasharray:none;stroke-dashoffset:0"
       sodipodi:type="arc" />
    <path
       style="font-style:normal;font-variant:normal;font-weight:normal;font-stretch:normal;letter-spacing:normal;word-spacing:normal;text-anchor:start;fill:#000000;stroke:#000000;stroke-width:0;stroke-linecap:butt;stroke-linejoin:miter;stroke-miterlimit:10.43299961;stroke-opacity:1;stroke-dasharray:none;stroke-dashoffset:0"
       inkscape:connector-curvature="0"
       d="m 308.82905,122.02492 -0.55447,0.66534 c -0.73924,0.96104 -1.21976,1.36762 -1.55243,1.36762 -0.22191,0 -0.44355,-0.18486 -0.44355,-0.40658 0,-0.18486 0,-0.18486 0.36972,-1.62638 l 1.47849,-5.28563 c 0.11076,-0.51749 0.22191,-1.10888 0.22191,-1.44155 0,-0.961 -0.70231,-1.58937 -1.70028,-1.58937 -1.62634,0 -3.25272,1.55243 -5.914,5.65527 l 1.73722,-5.58137 -0.0741,-0.0741 c -1.40459,0.29562 -1.95901,0.40658 -4.17679,0.81319 v 0.40658 c 1.29371,0.0351 1.62638,0.18486 1.62638,0.70227 0,0.14781 0,0.29562 -0.0351,0.40662 l -2.4765,9.01882 h 1.92204 c 1.21976,-4.06586 1.44156,-4.62029 2.58738,-6.39451 1.55243,-2.36559 2.84614,-3.62232 3.80714,-3.62232 0.36972,0 0.62836,0.25856 0.62836,0.73924 0,0.29562 -0.18486,1.14586 -0.36972,1.95901 l -1.14585,4.21375 c -0.33267,1.33065 -0.40658,1.70029 -0.40658,1.95901 0,0.96104 0.36972,1.36762 1.21976,1.36762 1.14582,0 1.81116,-0.55443 3.58535,-2.92005 z"
       id="path3189" />
    <polygon
       style="font-style:normal;font-variant:normal;font-weight:normal;font-stretch:normal;letter-spacing:normal;word-spacing:normal;text-anchor:start;fill:#000000;stroke:#000000;stroke-width:0;stroke-linecap:butt;stroke-linejoin:miter;stroke-miterlimit:10.43299961;stroke-opacity:1;stroke-dasharray:none;stroke-dashoffset:0"
       points="235.9,712.33 235.9,712.72 234.31,712.72 234.31,714.29 233.92,714.29 233.92,712.72 232.33,712.72 232.33,712.33 233.92,712.33 233.92,710.74 234.31,710.74 234.31,712.33 "
       id="polygon3191"
       transform="matrix(3.6962525,0,0,-3.6962525,-547.297,2752.1304)" />
    <path
       style="font-style:normal;font-variant:normal;font-weight:normal;font-stretch:normal;letter-spacing:normal;word-spacing:normal;text-anchor:start;fill:#000000;stroke:#000000;stroke-width:0;stroke-linecap:butt;stroke-linejoin:miter;stroke-miterlimit:10.43299961;stroke-opacity:1;stroke-dasharray:none;stroke-dashoffset:0"
       inkscape:connector-curvature="0"
       d="m 333.74178,107.68345 -4.62033,2.32866 v 0.36971 c 0.29562,-0.14781 0.59139,-0.25856 0.70231,-0.29561 0.44355,-0.18487 0.88709,-0.25857 1.14582,-0.25857 0.55442,0 0.77622,0.36972 0.77622,1.18283 v 11.64317 c 0,0.85016 -0.22191,1.44156 -0.62837,1.66331 -0.36972,0.25857 -0.73925,0.33267 -1.81116,0.33267 v 0.40658 h 7.09679 v -0.40658 c -2.03291,0 -2.43953,-0.25857 -2.43953,-1.51546 v -15.41338 z"
       id="path3193" />
    <path
       transform="translate(2.6183581,-82.859286)"
       d="m 274.97572,226.29247 a 2.6659696,3.4276752 0 1 1 -5.33194,0 2.6659696,3.4276752 0 1 1 5.33194,0 z"
       sodipodi:ry="3.4276752"
       sodipodi:rx="2.6659696"
       sodipodi:cy="226.29247"
       sodipodi:cx="272.30975"
       id="path5256-0"
       style="font-style:normal;font-variant:normal;font-weight:normal;font-stretch:normal;letter-spacing:normal;word-spacing:normal;text-anchor:start;fill:#000000;fill-opacity:1;stroke:#000000;stroke-width:0.5;stroke-linecap:round;stroke-linejoin:miter;stroke-miterlimit:4;stroke-opacity:1;stroke-dasharray:none;stroke-dashoffset:0"
       sodipodi:type="arc" />
    <path
       transform="translate(2.6183581,-42.45318)"
       d="m 274.97572,226.29247 a 2.6659696,3.4276752 0 1 1 -5.33194,0 2.6659696,3.4276752 0 1 1 5.33194,0 z"
       sodipodi:ry="3.4276752"
       sodipodi:rx="2.6659696"
       sodipodi:cy="226.29247"
       sodipodi:cx="272.30975"
       id="path5256-9"
       style="font-style:normal;font-variant:normal;font-weight:normal;font-stretch:normal;letter-spacing:normal;word-spacing:normal;text-anchor:start;fill:#000000;fill-opacity:1;stroke:#000000;stroke-width:0.5;stroke-linecap:round;stroke-linejoin:miter;stroke-miterlimit:4;stroke-opacity:1;stroke-dasharray:none;stroke-dashoffset:0"
       sodipodi:type="arc" />
    <path
       transform="translate(-51.950707,-42.45318)"
       d="m 274.97572,226.29247 a 2.6659696,3.4276752 0 1 1 -5.33194,0 2.6659696,3.4276752 0 1 1 5.33194,0 z"
       sodipodi:ry="3.4276752"
       sodipodi:rx="2.6659696"
       sodipodi:cy="226.29247"
       sodipodi:cx="272.30975"
       id="path5256-4"
       style="font-style:normal;font-variant:normal;font-weight:normal;font-stretch:normal;letter-spacing:normal;word-spacing:normal;text-anchor:start;fill:#000000;fill-opacity:1;stroke:#000000;stroke-width:0.5;stroke-linecap:round;stroke-linejoin:miter;stroke-miterlimit:4;stroke-opacity:1;stroke-dasharray:none;stroke-dashoffset:0"
       sodipodi:type="arc" />
    <path
       transform="translate(-52.367262,-1.630554)"
       d="m 274.97572,226.29247 a 2.6659696,3.4276752 0 1 1 -5.33194,0 2.6659696,3.4276752 0 1 1 5.33194,0 z"
       sodipodi:ry="3.4276752"
       sodipodi:rx="2.6659696"
       sodipodi:cy="226.29247"
       sodipodi:cx="272.30975"
       id="path5256-8"
       style="font-style:normal;font-variant:normal;font-weight:normal;font-stretch:normal;letter-spacing:normal;word-spacing:normal;text-anchor:start;fill:#000000;fill-opacity:1;stroke:#000000;stroke-width:0.5;stroke-linecap:round;stroke-linejoin:miter;stroke-miterlimit:4;stroke-opacity:1;stroke-dasharray:none;stroke-dashoffset:0"
       sodipodi:type="arc" />
    <path
       transform="translate(-106.93633,-1.213995)"
       d="m 274.97572,226.29247 a 2.6659696,3.4276752 0 1 1 -5.33194,0 2.6659696,3.4276752 0 1 1 5.33194,0 z"
       sodipodi:ry="3.4276752"
       sodipodi:rx="2.6659696"
       sodipodi:cy="226.29247"
       sodipodi:cx="272.30975"
       id="path5256-82"
       style="font-style:normal;font-variant:normal;font-weight:normal;font-stretch:normal;letter-spacing:normal;word-spacing:normal;text-anchor:start;fill:#000000;fill-opacity:1;stroke:#000000;stroke-width:0.5;stroke-linecap:round;stroke-linejoin:miter;stroke-miterlimit:4;stroke-opacity:1;stroke-dasharray:none;stroke-dashoffset:0"
       sodipodi:type="arc" />
    <path
       transform="translate(-106.93633,39.19215)"
       d="m 274.97572,226.29247 a 2.6659696,3.4276752 0 1 1 -5.33194,0 2.6659696,3.4276752 0 1 1 5.33194,0 z"
       sodipodi:ry="3.4276752"
       sodipodi:rx="2.6659696"
       sodipodi:cy="226.29247"
       sodipodi:cx="272.30975"
       id="path5256-45"
       style="font-style:normal;font-variant:normal;font-weight:normal;font-stretch:normal;letter-spacing:normal;word-spacing:normal;text-anchor:start;fill:#000000;fill-opacity:1;stroke:#000000;stroke-width:0.5;stroke-linecap:round;stroke-linejoin:miter;stroke-miterlimit:4;stroke-opacity:1;stroke-dasharray:none;stroke-dashoffset:0"
       sodipodi:type="arc" />
    <path
       transform="translate(-51.950711,80.014776)"
       d="m 274.97572,226.29247 a 2.6659696,3.4276752 0 1 1 -5.33194,0 2.6659696,3.4276752 0 1 1 5.33194,0 z"
       sodipodi:ry="3.4276752"
       sodipodi:rx="2.6659696"
       sodipodi:cy="226.29247"
       sodipodi:cx="272.30975"
       id="path5256-5"
       style="font-style:normal;font-variant:normal;font-weight:normal;font-stretch:normal;letter-spacing:normal;word-spacing:normal;text-anchor:start;fill:#000000;fill-opacity:1;stroke:#000000;stroke-width:0.5;stroke-linecap:round;stroke-linejoin:miter;stroke-miterlimit:4;stroke-opacity:1;stroke-dasharray:none;stroke-dashoffset:0"
       sodipodi:type="arc" />
    <path
       transform="translate(2.6183581,80.014815)"
       d="m 274.97572,226.29247 a 2.6659696,3.4276752 0 1 1 -5.33194,0 2.6659696,3.4276752 0 1 1 5.33194,0 z"
       sodipodi:ry="3.4276752"
       sodipodi:rx="2.6659696"
       sodipodi:cy="226.29247"
       sodipodi:cx="272.30975"
       id="path5256-17"
       style="font-style:normal;font-variant:normal;font-weight:normal;font-stretch:normal;letter-spacing:normal;word-spacing:normal;text-anchor:start;fill:#000000;fill-opacity:1;stroke:#000000;stroke-width:0.5;stroke-linecap:round;stroke-linejoin:miter;stroke-miterlimit:4;stroke-opacity:1;stroke-dasharray:none;stroke-dashoffset:0"
       sodipodi:type="arc" />
    <path
       transform="translate(-51.950707,120.42088)"
       d="m 274.97572,226.29247 a 2.6659696,3.4276752 0 1 1 -5.33194,0 2.6659696,3.4276752 0 1 1 5.33194,0 z"
       sodipodi:ry="3.4276752"
       sodipodi:rx="2.6659696"
       sodipodi:cy="226.29247"
       sodipodi:cx="272.30975"
       id="path5256-11"
       style="font-style:normal;font-variant:normal;font-weight:normal;font-stretch:normal;letter-spacing:normal;word-spacing:normal;text-anchor:start;fill:#000000;fill-opacity:1;stroke:#000000;stroke-width:0.5;stroke-linecap:round;stroke-linejoin:miter;stroke-miterlimit:4;stroke-opacity:1;stroke-dasharray:none;stroke-dashoffset:0"
       sodipodi:type="arc" />
    <path
       transform="translate(2.6183581,120.42088)"
       d="m 274.97572,226.29247 a 2.6659696,3.4276752 0 1 1 -5.33194,0 2.6659696,3.4276752 0 1 1 5.33194,0 z"
       sodipodi:ry="3.4276752"
       sodipodi:rx="2.6659696"
       sodipodi:cy="226.29247"
       sodipodi:cx="272.30975"
       id="path5256-52"
       style="font-style:normal;font-variant:normal;font-weight:normal;font-stretch:normal;letter-spacing:normal;word-spacing:normal;text-anchor:start;fill:#000000;fill-opacity:1;stroke:#000000;stroke-width:0.5;stroke-linecap:round;stroke-linejoin:miter;stroke-miterlimit:4;stroke-opacity:1;stroke-dasharray:none;stroke-dashoffset:0"
       sodipodi:type="arc" />
    <path
       transform="translate(-107.35289,79.598217)"
       d="m 274.97572,226.29247 a 2.6659696,3.4276752 0 1 1 -5.33194,0 2.6659696,3.4276752 0 1 1 5.33194,0 z"
       sodipodi:ry="3.4276752"
       sodipodi:rx="2.6659696"
       sodipodi:cy="226.29247"
       sodipodi:cx="272.30975"
       id="path5256-76"
       style="font-style:normal;font-variant:normal;font-weight:normal;font-stretch:normal;letter-spacing:normal;word-spacing:normal;text-anchor:start;fill:#000000;fill-opacity:1;stroke:#000000;stroke-width:0.5;stroke-linecap:round;stroke-linejoin:miter;stroke-miterlimit:4;stroke-opacity:1;stroke-dasharray:none;stroke-dashoffset:0"
       sodipodi:type="arc" />
    <path
       transform="translate(-106.93633,120.42088)"
       d="m 274.97572,226.29247 a 2.6659696,3.4276752 0 1 1 -5.33194,0 2.6659696,3.4276752 0 1 1 5.33194,0 z"
       sodipodi:ry="3.4276752"
       sodipodi:rx="2.6659696"
       sodipodi:cy="226.29247"
       sodipodi:cx="272.30975"
       id="path5256-14"
       style="font-style:normal;font-variant:normal;font-weight:normal;font-stretch:normal;letter-spacing:normal;word-spacing:normal;text-anchor:start;fill:#000000;fill-opacity:1;stroke:#000000;stroke-width:0.5;stroke-linecap:round;stroke-linejoin:miter;stroke-miterlimit:4;stroke-opacity:1;stroke-dasharray:none;stroke-dashoffset:0"
       sodipodi:type="arc" />
    <path
       transform="translate(-161.92195,40.025229)"
       d="m 274.97572,226.29247 a 2.6659696,3.4276752 0 1 1 -5.33194,0 2.6659696,3.4276752 0 1 1 5.33194,0 z"
       sodipodi:ry="3.4276752"
       sodipodi:rx="2.6659696"
       sodipodi:cy="226.29247"
       sodipodi:cx="272.30975"
       id="path5256-2"
       style="font-style:normal;font-variant:normal;font-weight:normal;font-stretch:normal;letter-spacing:normal;word-spacing:normal;text-anchor:start;fill:#000000;fill-opacity:1;stroke:#000000;stroke-width:0.5;stroke-linecap:round;stroke-linejoin:miter;stroke-miterlimit:4;stroke-opacity:1;stroke-dasharray:none;stroke-dashoffset:0"
       sodipodi:type="arc" />
    <path
       transform="translate(-162.33851,79.598217)"
       d="m 274.97572,226.29247 a 2.6659696,3.4276752 0 1 1 -5.33194,0 2.6659696,3.4276752 0 1 1 5.33194,0 z"
       sodipodi:ry="3.4276752"
       sodipodi:rx="2.6659696"
       sodipodi:cy="226.29247"
       sodipodi:cx="272.30975"
       id="path5256-3"
       style="font-style:normal;font-variant:normal;font-weight:normal;font-stretch:normal;letter-spacing:normal;word-spacing:normal;text-anchor:start;fill:#000000;fill-opacity:1;stroke:#000000;stroke-width:0.5;stroke-linecap:round;stroke-linejoin:miter;stroke-miterlimit:4;stroke-opacity:1;stroke-dasharray:none;stroke-dashoffset:0"
       sodipodi:type="arc" />
    <path
       transform="translate(-216.49102,80.431335)"
       d="m 274.97572,226.29247 a 2.6659696,3.4276752 0 1 1 -5.33194,0 2.6659696,3.4276752 0 1 1 5.33194,0 z"
       sodipodi:ry="3.4276752"
       sodipodi:rx="2.6659696"
       sodipodi:cy="226.29247"
       sodipodi:cx="272.30975"
       id="path5256-22"
       style="font-style:normal;font-variant:normal;font-weight:normal;font-stretch:normal;letter-spacing:normal;word-spacing:normal;text-anchor:start;fill:#000000;fill-opacity:1;stroke:#000000;stroke-width:0.5;stroke-linecap:round;stroke-linejoin:miter;stroke-miterlimit:4;stroke-opacity:1;stroke-dasharray:none;stroke-dashoffset:0"
       sodipodi:type="arc" />
    <path
       transform="translate(-216.49102,120.83744)"
       d="m 274.97572,226.29247 a 2.6659696,3.4276752 0 1 1 -5.33194,0 2.6659696,3.4276752 0 1 1 5.33194,0 z"
       sodipodi:ry="3.4276752"
       sodipodi:rx="2.6659696"
       sodipodi:cy="226.29247"
       sodipodi:cx="272.30975"
       id="path5256-16"
       style="font-style:normal;font-variant:normal;font-weight:normal;font-stretch:normal;letter-spacing:normal;word-spacing:normal;text-anchor:start;fill:#000000;fill-opacity:1;stroke:#000000;stroke-width:0.5;stroke-linecap:round;stroke-linejoin:miter;stroke-miterlimit:4;stroke-opacity:1;stroke-dasharray:none;stroke-dashoffset:0"
       sodipodi:type="arc" />
    <path
       transform="translate(-161.92196,120.83744)"
       d="m 274.97572,226.29247 a 2.6659696,3.4276752 0 1 1 -5.33194,0 2.6659696,3.4276752 0 1 1 5.33194,0 z"
       sodipodi:ry="3.4276752"
       sodipodi:rx="2.6659696"
       sodipodi:cy="226.29247"
       sodipodi:cx="272.30975"
       id="path5256-85"
       style="font-style:normal;font-variant:normal;font-weight:normal;font-stretch:normal;letter-spacing:normal;word-spacing:normal;text-anchor:start;fill:#000000;fill-opacity:1;stroke:#000000;stroke-width:0.5;stroke-linecap:round;stroke-linejoin:miter;stroke-miterlimit:4;stroke-opacity:1;stroke-dasharray:none;stroke-dashoffset:0"
       sodipodi:type="arc" />
    <path
       style="font-style:normal;font-variant:normal;font-weight:normal;font-stretch:normal;letter-spacing:normal;word-spacing:normal;text-anchor:start;fill:none;stroke:#000000;stroke-width:1;stroke-linecap:butt;stroke-linejoin:miter;stroke-miterlimit:10.43299961;stroke-opacity:1;stroke-dasharray:5.99999992, 0.99999999;stroke-dashoffset:0"
       d="M 274.095,142.60006 55.818739,305.89069"
       id="path3374"
       inkscape:connector-curvature="0" />
    <path
       id="path5150"
       style="fill:none;stroke:#000000;stroke-width:1px;stroke-linecap:butt;stroke-linejoin:miter;stroke-opacity:1"
       d="m 494.34693,345.49939 0,-249.839441 m -54.8428,249.934651 0,-249.839438 m -54.84281,249.934658 0,-249.839445 m -54.8428,249.934655 0,-249.839442 m -54.8428,249.934652 0,-249.83944 m -54.8428,249.93465 0,-249.839437 m -54.84281,249.934647 0,-249.839434 m -54.8428,249.934654 0,-249.839441 m -54.842801,249.934651 0,-249.839438"
       inkscape:path-effect="#path-effect5153"
       inkscape:original-d="m 494.34693,345.49939 0,-249.839442 M 55.604509,346.26109 l 0,-249.839436" />
    <path
       id="path5143"
       style="fill:none;stroke:#000000;stroke-width:0.5;stroke-linecap:butt;stroke-linejoin:miter;stroke-opacity:1;stroke-miterlimit:4;stroke-dasharray:none"
       d="m 54.937932,346.78676 454.584478,0 m -454.584477,-40.75461 454.943547,0 m -454.943546,-40.75461 455.302616,0 m -455.302616,-40.75462 455.661696,0 m -455.661695,-40.75461 456.020765,0 M 54.937936,143.0137 l 456.379834,0 m -456.379833,-40.75461 456.738903,0"
       inkscape:path-effect="#path-effect5146"
       inkscape:original-d="m 54.937934,346.78676 454.584476,0 M 54.937934,102.25909 l 456.738906,0" />
    <g
       id="g3679"
       transform="matrix(0.60085286,0,0,0.60085286,-60.451515,-174.06492)">
      <g
         word-spacing="normal"
         letter-spacing="normal"
         font-size-adjust="none"
         font-stretch="normal"
         font-weight="normal"
         font-variant="normal"
         font-style="normal"
         stroke-miterlimit="10.433"
         xml:space="preserve"
         transform="matrix(1.0629921,0,0,-1.0629921,-186.02362,789.27165)"
         id="g3681"
         style="font-style:normal;font-variant:normal;font-weight:normal;font-stretch:normal;letter-spacing:normal;word-spacing:normal;text-anchor:start;fill:none;stroke:#000000;stroke-width:1.66430092;stroke-linecap:butt;stroke-linejoin:miter;stroke-miterlimit:10.43299961;stroke-opacity:1;stroke-dasharray:none;stroke-dashoffset:0"><path
           id="path3683"
           d="m 472,394.25 0,0.02 0,0.03 0,0.01 0,0.02 0,0.01 -0.01,0.02 0,0.01 -0.01,0.02 -0.01,0.02 -0.01,0.02 -0.01,0.02 -0.02,0.03 -0.01,0.02 -0.02,0.03 -0.02,0.03 -0.03,0.03 -0.02,0.03 -0.03,0.04 -0.02,0.02 -0.01,0.02 -0.02,0.02 -0.02,0.02 -0.02,0.02 -0.02,0.03 -0.02,0.02 -0.02,0.02 -0.02,0.03 -0.03,0.02 -0.02,0.03 -0.03,0.03 -0.03,0.03 -0.02,0.03 -0.03,0.03 -0.03,0.03 -0.03,0.03 -0.03,0.03 -0.04,0.04 -0.03,0.03 -0.04,0.04 -0.03,0.03 -0.04,0.04 -0.04,0.04 c -6.22,6.28 -7.81,15.69 -7.81,23.31 0,8.67 1.89,17.35 8.01,23.56 0.64,0.61 0.64,0.71 0.64,0.86 0,0.35 -0.18,0.49 -0.48,0.49 -0.5,0 -4.98,-3.38 -7.92,-9.7 -2.55,-5.49 -3.14,-11.02 -3.14,-15.21 0,-3.89 0.54,-9.9 3.28,-15.54 2.98,-6.13 7.28,-9.36 7.78,-9.36 0.3,0 0.48,0.14 0.48,0.5 z"
           inkscape:connector-curvature="0"
           style="fill:#000000;stroke-width:0" /><path
           id="path3685"
           d="m 491.48,421.25 0.03,0.13 0.03,0.15 0.04,0.16 0.05,0.18 0.05,0.19 0.06,0.21 0.07,0.22 0.07,0.22 0.08,0.23 0.09,0.24 0.09,0.25 0.11,0.24 0.11,0.25 0.12,0.25 0.13,0.25 0.13,0.25 0.15,0.24 0.16,0.24 0.16,0.23 0.18,0.22 0.19,0.22 0.2,0.2 0.21,0.19 0.22,0.18 0.23,0.16 0.24,0.14 0.13,0.07 0.13,0.06 0.13,0.05 0.14,0.05 0.14,0.05 0.14,0.04 0.15,0.03 0.15,0.03 0.15,0.02 0.15,0.02 0.16,0.01 0.16,0 c 0.25,0 1.44,0 2.49,-0.64 -1.39,-0.25 -2.39,-1.5 -2.39,-2.69 0,-0.79 0.54,-1.75 1.89,-1.75 1.09,0 2.69,0.89 2.69,2.89 0,2.6 -2.94,3.28 -4.63,3.28 -2.89,0 -4.64,-2.64 -5.23,-3.78 -1.25,3.28 -3.94,3.78 -5.38,3.78 -5.19,0 -8.03,-6.42 -8.03,-7.67 0,-0.5 0.5,-0.5 0.61,-0.5 0.39,0 0.55,0.11 0.64,0.55 1.69,5.28 4.98,6.53 6.67,6.53 0.96,0 2.69,-0.44 2.69,-3.33 0,-1.54 -0.84,-4.89 -2.69,-11.86 -0.79,-3.09 -2.53,-5.18 -4.73,-5.18 -0.3,0 -1.44,0 -2.49,0.65 1.25,0.24 2.35,1.28 2.35,2.69 0,1.34 -1.1,1.73 -1.85,1.73 -1.5,0 -2.75,-1.29 -2.75,-2.89 0,-2.28 2.5,-3.28 4.69,-3.28 3.3,0 5.08,3.49 5.24,3.78 0.59,-1.84 2.39,-3.78 5.37,-3.78 5.14,0 7.98,6.42 7.98,7.67 0,0.5 -0.45,0.5 -0.6,0.5 -0.44,0 -0.55,-0.2 -0.65,-0.54 -1.64,-5.33 -5.03,-6.53 -6.62,-6.53 -1.95,0 -2.75,1.59 -2.75,3.29 0,1.1 0.3,2.19 0.86,4.38 z"
           inkscape:connector-curvature="0"
           style="fill:#000000;stroke-width:0" /><path
           id="path3687"
           d="m 547.26,417.65 0.16,0 0.16,0 0.16,0.01 0.07,0 0.08,0.01 0.08,0 0.07,0.01 0.07,0.01 0.08,0.01 0.07,0.02 0.06,0.02 0.07,0.02 0.06,0.02 0.06,0.02 0.06,0.03 0.06,0.03 0.05,0.04 0.05,0.03 0.05,0.05 0.04,0.04 0.04,0.05 0.02,0.03 0.01,0.03 0.02,0.03 0.01,0.03 0.02,0.03 0.01,0.03 0.01,0.04 0.01,0.03 0.01,0.04 0.01,0.04 0.01,0.04 0,0.04 0.01,0.04 0,0.04 0,0.05 0,0.04 c 0,1 -0.91,1 -1.75,1 h -26.95 c -0.84,0 -1.74,0 -1.74,-1 0,-1 0.9,-1 1.74,-1 z"
           inkscape:connector-curvature="0"
           style="fill:#000000;stroke-width:0" /><path
           id="path3689"
           d="m 580.87,421.25 0.03,0.13 0.04,0.15 0.04,0.16 0.04,0.18 0.06,0.19 0.06,0.21 0.06,0.22 0.08,0.22 0.08,0.23 0.08,0.24 0.1,0.25 0.1,0.24 0.11,0.25 0.12,0.25 0.13,0.25 0.14,0.25 0.15,0.24 0.15,0.24 0.17,0.23 0.18,0.22 0.18,0.22 0.2,0.2 0.21,0.19 0.22,0.18 0.23,0.16 0.25,0.14 0.13,0.07 0.13,0.06 0.13,0.05 0.13,0.05 0.14,0.05 0.15,0.04 0.14,0.03 0.15,0.03 0.15,0.02 0.16,0.02 0.16,0.01 0.16,0 c 0.25,0 1.44,0 2.48,-0.64 -1.39,-0.25 -2.39,-1.5 -2.39,-2.69 0,-0.79 0.55,-1.75 1.89,-1.75 1.1,0 2.69,0.89 2.69,2.89 0,2.6 -2.94,3.28 -4.63,3.28 -2.88,0 -4.63,-2.64 -5.23,-3.78 -1.25,3.28 -3.94,3.78 -5.37,3.78 -5.19,0 -8.03,-6.42 -8.03,-7.67 0,-0.5 0.5,-0.5 0.6,-0.5 0.4,0 0.55,0.11 0.65,0.55 1.68,5.28 4.98,6.53 6.67,6.53 0.95,0 2.68,-0.44 2.68,-3.33 0,-1.54 -0.84,-4.89 -2.68,-11.86 -0.8,-3.09 -2.54,-5.18 -4.74,-5.18 -0.3,0 -1.43,0 -2.48,0.65 1.25,0.24 2.34,1.28 2.34,2.69 0,1.34 -1.09,1.73 -1.84,1.73 -1.5,0 -2.75,-1.29 -2.75,-2.89 0,-2.28 2.5,-3.28 4.68,-3.28 3.3,0 5.08,3.49 5.24,3.78 0.59,-1.84 2.39,-3.78 5.38,-3.78 5.13,0 7.98,6.42 7.98,7.67 0,0.5 -0.45,0.5 -0.61,0.5 -0.44,0 -0.55,-0.2 -0.64,-0.54 -1.64,-5.33 -5.03,-6.53 -6.63,-6.53 -1.95,0 -2.75,1.59 -2.75,3.29 0,1.1 0.3,2.19 0.86,4.38 z"
           inkscape:connector-curvature="0"
           style="fill:#000000;stroke-width:0" /><path
           id="path3691"
           d="m 607.8,401.59 -0.01,-0.07 -0.02,-0.07 -0.02,-0.07 -0.02,-0.07 -0.01,-0.08 -0.02,-0.08 -0.04,-0.15 -0.04,-0.17 -0.04,-0.16 -0.04,-0.16 -0.02,-0.07 -0.02,-0.08 -0.02,-0.08 -0.02,-0.07 -0.02,-0.07 -0.01,-0.07 -0.02,-0.07 -0.01,-0.06 -0.02,-0.06 -0.01,-0.06 -0.01,-0.05 -0.01,-0.05 -0.01,-0.04 -0.01,-0.04 0,-0.04 -0.01,-0.03 0,-0.02 0,-0.02 c 0,-0.77 0.63,-1.11 1.17,-1.11 0.64,0 1.19,0.45 1.36,0.76 0.19,0.32 0.45,1.43 0.64,2.16 0.17,0.66 0.55,2.27 0.77,3.14 0.2,0.77 0.4,1.53 0.59,2.33 0.38,1.5 0.38,1.56 1.08,2.65 1.11,1.71 2.86,3.69 5.56,3.69 1.96,0 2.06,-1.61 2.06,-2.44 0,-2.09 -1.5,-5.95 -2.06,-7.42 -0.37,-0.98 -0.51,-1.29 -0.51,-1.89 0,-1.84 1.53,-2.98 3.31,-2.98 3.48,0 5.01,4.79 5.01,5.33 0,0.45 -0.45,0.45 -0.56,0.45 -0.48,0 -0.51,-0.2 -0.65,-0.59 -0.8,-2.79 -2.3,-4.22 -3.69,-4.22 -0.74,0 -0.88,0.48 -0.88,1.22 0,0.79 0.18,1.25 0.8,2.82 0.42,1.08 1.84,4.77 1.84,6.72 0,0.56 0,2.03 -1.28,3.03 -0.59,0.46 -1.61,0.94 -3.25,0.94 -3.12,0 -5.04,-2.05 -6.15,-3.51 -0.28,2.96 -2.77,3.51 -4.53,3.51 -2.9,0 -4.85,-1.76 -5.9,-3.16 -0.25,2.4 -2.29,3.16 -3.73,3.16 -1.5,0 -2.3,-1.08 -2.75,-1.87 -0.77,-1.29 -1.25,-3.29 -1.25,-3.46 0,-0.45 0.48,-0.45 0.59,-0.45 0.49,0 0.52,0.11 0.77,1.05 0.52,2.06 1.19,3.76 2.55,3.76 0.9,0 1.14,-0.76 1.14,-1.7 0,-0.67 -0.32,-1.95 -0.57,-2.89 -0.23,-0.95 -0.57,-2.38 -0.76,-3.14 l -1.11,-4.47 c -0.14,-0.44 -0.34,-1.31 -0.34,-1.42 0,-0.77 0.62,-1.11 1.18,-1.11 0.63,0 1.18,0.45 1.36,0.76 0.17,0.32 0.46,1.43 0.63,2.16 0.17,0.66 0.54,2.27 0.76,3.14 0.21,0.77 0.43,1.53 0.6,2.33 0.37,1.44 0.45,1.7 1.45,3.14 0.98,1.39 2.63,3.2 5.23,3.2 2.02,0 2.05,-1.78 2.05,-2.44 0,-0.87 -0.09,-1.32 -0.59,-3.28 z"
           inkscape:connector-curvature="0"
           style="fill:#000000;stroke-width:0" /><path
           id="path3693"
           d="m 644.99,418.65 0,0.37 0,0.39 -0.01,0.39 -0.02,0.41 -0.04,0.84 -0.06,0.88 -0.08,0.92 -0.11,0.95 -0.13,0.97 -0.16,1.01 -0.2,1.02 -0.23,1.03 -0.27,1.05 -0.3,1.06 -0.35,1.07 -0.39,1.07 -0.22,0.53 -0.22,0.53 -0.24,0.53 -0.25,0.53 c -2.98,6.12 -7.26,9.36 -7.76,9.36 -0.3,0 -0.5,-0.19 -0.5,-0.49 0,-0.15 0,-0.25 0.93,-1.15 4.89,-4.92 7.74,-12.85 7.74,-23.27 0,-8.51 -1.85,-17.28 -8.03,-23.56 -0.64,-0.59 -0.64,-0.7 -0.64,-0.84 0,-0.3 0.2,-0.5 0.5,-0.5 0.5,0 4.96,3.39 7.92,9.71 2.53,5.47 3.12,11 3.12,15.19 z"
           inkscape:connector-curvature="0"
           style="fill:#000000;stroke-width:0" /><path
           id="path3695"
           d="m 667.52,430.54 h -1.19 c -0.1,-0.76 -0.45,-2.83 -0.91,-3.17 -0.26,-0.2 -2.95,-0.2 -3.44,-0.2 h -6.42 c 3.66,3.23 4.88,4.2 6.97,5.84 2.58,2.06 4.99,4.22 4.99,7.53 0,4.22 -3.69,6.8 -8.16,6.8 -4.31,0 -7.25,-3.03 -7.25,-6.23 0,-1.79 1.5,-1.96 1.86,-1.96 0.83,0 1.84,0.6 1.84,1.85 0,0.62 -0.25,1.84 -2.06,1.84 1.08,2.47 3.45,3.23 5.09,3.23 3.49,0 5.3,-2.7 5.3,-5.53 0,-3.03 -2.16,-5.43 -3.28,-6.68 l -8.39,-8.3 c -0.36,-0.31 -0.36,-0.39 -0.36,-1.36 h 14.36 z"
           inkscape:connector-curvature="0"
           style="fill:#000000;stroke-width:0" /><path
           id="path3697"
           d="m 720.4,422.5 0.13,0 0.15,0 0.14,0 0.08,0.01 0.07,0 0.07,0.01 0.07,0.01 0.07,0.01 0.07,0.01 0.07,0.01 0.07,0.02 0.06,0.02 0.06,0.02 0.06,0.02 0.06,0.03 0.06,0.03 0.05,0.04 0.05,0.03 0.05,0.05 0.04,0.04 0.04,0.05 0.02,0.03 0.02,0.03 0.01,0.02 0.02,0.03 0.01,0.03 0.02,0.04 0.01,0.03 0.01,0.04 0.01,0.03 0.01,0.04 0.01,0.04 0,0.04 0.01,0.04 0,0.04 0,0.04 0,0.05 c 0,1 -0.95,1 -1.64,1 H 690.6 c -0.7,0 -1.64,0 -1.64,-1 0,-0.98 0.94,-0.98 1.69,-0.98 z"
           inkscape:connector-curvature="0"
           style="fill:#000000;stroke-width:0" /><path
           id="path3699"
           d="m 720.44,412.82 0.07,0 0.06,0 0.14,0.01 0.14,0 0.07,0 0.07,0.01 0.07,0.01 0.07,0 0.06,0.01 0.07,0.02 0.07,0.01 0.06,0.02 0.07,0.02 0.06,0.02 0.06,0.02 0.06,0.03 0.05,0.03 0.05,0.04 0.05,0.04 0.05,0.04 0.04,0.05 0.02,0.02 0.02,0.03 0.02,0.02 0.02,0.03 0.01,0.03 0.02,0.03 0.01,0.03 0.02,0.03 0.01,0.04 0.01,0.03 0.01,0.04 0.01,0.04 0.01,0.04 0,0.04 0.01,0.04 0,0.04 0,0.05 0,0.04 c 0,1 -0.95,1 -1.68,1 h -29.75 c -0.75,0 -1.69,0 -1.69,-1 0,-1 0.94,-1 1.64,-1 z"
           inkscape:connector-curvature="0"
           style="fill:#000000;stroke-width:0" /><path
           id="path3701"
           d="m 745.05,410.04 5.28,5.13 c 7.76,6.87 10.76,9.56 10.76,14.54 0,5.69 -4.48,9.68 -10.56,9.68 -5.64,0 -9.33,-4.6 -9.33,-9.03 0,-2.79 2.5,-2.79 2.64,-2.79 0.86,0 2.6,0.6 2.6,2.64 0,1.3 -0.89,2.6 -2.64,2.6 -0.39,0 -0.5,0 -0.64,-0.05 1.14,3.24 3.82,5.08 6.72,5.08 4.53,0 6.68,-4.05 6.68,-8.13 0,-3.98 -2.5,-7.92 -5.23,-11.01 l -9.56,-10.66 c -0.57,-0.54 -0.57,-0.64 -0.57,-1.84 h 18.49 l 1.4,8.67 h -1.25 c -0.25,-1.5 -0.59,-3.69 -1.09,-4.44 -0.36,-0.39 -3.64,-0.39 -4.73,-0.39 z"
           inkscape:connector-curvature="0"
           style="fill:#000000;stroke-width:0" /><path
           id="path3703"
           d="m 789.99,419.65 -0.29,-0.53 -0.28,-0.53 -0.26,-0.51 -0.25,-0.51 -0.23,-0.49 -0.22,-0.49 -0.21,-0.47 -0.19,-0.46 -0.18,-0.46 -0.17,-0.44 -0.15,-0.43 -0.15,-0.42 -0.13,-0.41 -0.12,-0.39 -0.11,-0.38 -0.11,-0.37 -0.09,-0.36 -0.08,-0.34 -0.08,-0.33 -0.07,-0.32 -0.06,-0.3 -0.05,-0.29 -0.04,-0.27 -0.04,-0.26 -0.04,-0.25 -0.02,-0.22 -0.03,-0.22 -0.01,-0.19 -0.01,-0.18 -0.01,-0.17 -0.01,-0.14 0,-0.13 c 0,-2.03 0.64,-2.24 1.44,-2.24 4.39,0 7.72,3.69 7.72,5.38 0,0.5 -0.39,0.59 -0.6,0.59 -0.39,0 -0.5,-0.19 -0.64,-0.59 -0.54,-1 -2.79,-1.99 -6.19,-2.05 -0.09,0.25 -0.2,0.56 -0.2,0.91 0,0.79 1.16,5.48 3.6,9.36 1,1.5 1.04,1.54 2.59,2.59 1.89,1.3 4.69,3.14 4.94,3.39 0.04,0.09 0.34,0.39 0.34,0.89 0,1.05 -1.09,1.3 -1.59,1.3 -1.21,0 -2.14,-0.64 -2.75,-1.05 l -19.08,-12.7 c 1.45,2.44 3.69,7.62 3.69,11.31 0,1.2 0,2.23 -1.39,2.23 -4.49,0 -7.72,-3.78 -7.72,-5.37 0,-0.3 0.19,-0.59 0.59,-0.59 0.39,0 0.5,0.25 0.7,0.59 0.4,0.89 2.74,2.05 6.13,2.05 0.14,-0.3 0.14,-0.75 0.14,-0.91 0,-2.69 -3.49,-10.2 -4.87,-11.16 -0.25,-0.14 -0.25,-0.2 -2,-1.29 l -3.29,-2.19 c -0.84,-0.59 -1.25,-0.84 -1.25,-1.59 0,-1.25 1.46,-1.3 1.6,-1.3 1.2,0 2.19,0.7 2.75,1.05 z"
           inkscape:connector-curvature="0"
           style="fill:#000000;stroke-width:0" /><path
           id="path3705"
           d="m 815.44,394.25 0,0.02 0,0.03 -0.01,0.01 0,0.02 0,0.01 -0.01,0.02 0,0.01 -0.01,0.02 -0.01,0.02 -0.01,0.02 -0.01,0.02 -0.01,0.03 -0.02,0.02 -0.02,0.03 -0.02,0.03 -0.02,0.03 -0.03,0.03 -0.03,0.04 -0.01,0.02 -0.02,0.02 -0.02,0.02 -0.02,0.02 -0.02,0.02 -0.02,0.03 -0.02,0.02 -0.02,0.02 -0.02,0.03 -0.02,0.02 -0.03,0.03 -0.02,0.03 -0.03,0.03 -0.03,0.03 -0.03,0.03 -0.03,0.03 -0.03,0.03 -0.03,0.03 -0.03,0.04 -0.04,0.03 -0.03,0.04 -0.04,0.03 -0.04,0.04 -0.04,0.04 c -6.21,6.28 -7.81,15.69 -7.81,23.31 0,8.67 1.89,17.35 8.02,23.56 0.64,0.61 0.64,0.71 0.64,0.86 0,0.35 -0.19,0.49 -0.49,0.49 -0.5,0 -4.98,-3.38 -7.92,-9.7 -2.55,-5.49 -3.14,-11.02 -3.14,-15.21 0,-3.89 0.55,-9.9 3.28,-15.54 2.99,-6.13 7.28,-9.36 7.78,-9.36 0.3,0 0.49,0.14 0.49,0.5 z"
           inkscape:connector-curvature="0"
           style="fill:#000000;stroke-width:0" /><path
           id="path3707"
           d="m 828.53,426.12 h 4.69 c 0.99,0 1.49,0 1.49,1 0,0.55 -0.5,0.55 -1.39,0.55 h -4.39 c 1.79,7.08 2.04,8.08 2.04,8.37 0,0.85 -0.59,1.35 -1.44,1.35 -0.15,0 -1.54,-0.05 -2,-1.8 l -1.93,-7.92 h -4.69 c -1,0 -1.5,0 -1.5,-0.94 0,-0.61 0.41,-0.61 1.41,-0.61 h 4.37 c -3.58,-14.14 -3.78,-14.98 -3.78,-15.89 0,-2.69 1.89,-4.58 4.58,-4.58 5.08,0 7.92,7.27 7.92,7.67 0,0.5 -0.39,0.5 -0.59,0.5 -0.46,0 -0.5,-0.15 -0.75,-0.7 -2.14,-5.17 -4.79,-6.37 -6.47,-6.37 -1.05,0 -1.55,0.65 -1.55,2.29 0,1.19 0.1,1.55 0.3,2.39 z"
           inkscape:connector-curvature="0"
           style="fill:#000000;stroke-width:0" /><path
           id="path3709"
           d="m 840.53,400.95 -0.01,-0.04 -0.02,-0.05 -0.01,-0.04 -0.01,-0.05 -0.02,-0.05 -0.01,-0.06 -0.02,-0.05 -0.01,-0.05 -0.03,-0.11 -0.03,-0.11 -0.03,-0.12 -0.02,-0.1 -0.02,-0.06 -0.01,-0.05 -0.01,-0.05 -0.01,-0.05 -0.01,-0.05 -0.01,-0.04 -0.01,-0.05 -0.01,-0.04 -0.01,-0.03 0,-0.04 -0.01,-0.03 0,-0.03 -0.01,-0.02 0,-0.02 0,-0.01 0,-0.01 0,-0.01 0,0 c 0,-0.77 0.62,-1.11 1.19,-1.11 0.62,0 1.17,0.45 1.35,0.76 0.18,0.32 0.46,1.43 0.63,2.16 0.17,0.66 0.55,2.27 0.77,3.14 0.2,0.77 0.42,1.53 0.59,2.33 0.37,1.44 0.45,1.7 1.45,3.14 0.99,1.39 2.63,3.2 5.24,3.2 2.01,0 2.04,-1.78 2.04,-2.44 0,-2.09 -1.48,-5.95 -2.04,-7.42 -0.39,-0.98 -0.53,-1.29 -0.53,-1.89 0,-1.84 1.54,-2.98 3.31,-2.98 3.48,0 5.01,4.79 5.01,5.33 0,0.45 -0.45,0.45 -0.54,0.45 -0.5,0 -0.53,-0.2 -0.68,-0.59 -0.79,-2.79 -2.29,-4.22 -3.68,-4.22 -0.74,0 -0.88,0.48 -0.88,1.22 0,0.79 0.17,1.25 0.8,2.82 0.42,1.08 1.86,4.77 1.86,6.72 0,3.39 -2.69,3.97 -4.53,3.97 -2.89,0 -4.85,-1.76 -5.89,-3.16 -0.25,2.4 -2.3,3.16 -3.74,3.16 -1.5,0 -2.29,-1.08 -2.75,-1.87 -0.76,-1.29 -1.25,-3.29 -1.25,-3.46 0,-0.45 0.49,-0.45 0.6,-0.45 0.48,0 0.51,0.11 0.76,1.05 0.52,2.06 1.19,3.76 2.55,3.76 0.9,0 1.14,-0.76 1.14,-1.7 0,-0.67 -0.31,-1.95 -0.56,-2.89 -0.24,-0.95 -0.58,-2.38 -0.77,-3.14 z"
           inkscape:connector-curvature="0"
           style="fill:#000000;stroke-width:0" /><path
           id="path3711"
           d="m 907.27,417.65 0.16,0 0.16,0 0.15,0.01 0.08,0 0.08,0.01 0.07,0 0.08,0.01 0.07,0.01 0.07,0.01 0.07,0.02 0.07,0.02 0.07,0.02 0.06,0.02 0.06,0.02 0.06,0.03 0.06,0.03 0.05,0.04 0.05,0.03 0.04,0.05 0.05,0.04 0.04,0.05 0.01,0.03 0.02,0.03 0.02,0.03 0.01,0.03 0.01,0.03 0.02,0.03 0.01,0.04 0.01,0.03 0.01,0.04 0.01,0.04 0,0.04 0.01,0.04 0,0.04 0.01,0.04 0,0.05 0,0.04 c 0,1 -0.91,1 -1.75,1 h -26.95 c -0.85,0 -1.74,0 -1.74,-1 0,-1 0.89,-1 1.74,-1 z"
           inkscape:connector-curvature="0"
           style="fill:#000000;stroke-width:0" /><path
           id="path3713"
           d="m 934.5,426.12 h 4.69 c 0.99,0 1.49,0 1.49,1 0,0.55 -0.5,0.55 -1.4,0.55 h -4.38 c 1.79,7.08 2.04,8.08 2.04,8.37 0,0.85 -0.59,1.35 -1.44,1.35 -0.15,0 -1.54,-0.05 -2,-1.8 l -1.93,-7.92 h -4.69 c -1,0 -1.5,0 -1.5,-0.94 0,-0.61 0.4,-0.61 1.4,-0.61 h 4.38 c -3.58,-14.14 -3.78,-14.98 -3.78,-15.89 0,-2.69 1.89,-4.58 4.58,-4.58 5.07,0 7.92,7.27 7.92,7.67 0,0.5 -0.39,0.5 -0.6,0.5 -0.45,0 -0.5,-0.15 -0.75,-0.7 -2.13,-5.17 -4.78,-6.37 -6.46,-6.37 -1.05,0 -1.55,0.65 -1.55,2.29 0,1.19 0.09,1.55 0.3,2.39 z"
           inkscape:connector-curvature="0"
           style="fill:#000000;stroke-width:0" /><path
           id="path3715"
           d="m 956.63,418.65 0,0.37 -0.01,0.39 -0.01,0.39 -0.01,0.41 -0.04,0.84 -0.06,0.88 -0.08,0.92 -0.11,0.95 -0.13,0.97 -0.17,1.01 -0.19,1.02 -0.23,1.03 -0.27,1.05 -0.31,1.06 -0.34,1.07 -0.4,1.07 -0.21,0.53 -0.22,0.53 -0.24,0.53 -0.25,0.53 c -2.99,6.12 -7.27,9.36 -7.77,9.36 -0.3,0 -0.5,-0.19 -0.5,-0.49 0,-0.15 0,-0.25 0.94,-1.15 4.89,-4.92 7.73,-12.85 7.73,-23.27 0,-8.51 -1.84,-17.28 -8.03,-23.56 -0.64,-0.59 -0.64,-0.7 -0.64,-0.84 0,-0.3 0.2,-0.5 0.5,-0.5 0.5,0 4.97,3.39 7.92,9.71 2.53,5.47 3.13,11 3.13,15.19 z"
           inkscape:connector-curvature="0"
           style="fill:#000000;stroke-width:0" /></g>    </g>
    <path
       style="font-style:normal;font-variant:normal;font-weight:normal;font-stretch:normal;letter-spacing:normal;word-spacing:normal;text-anchor:start;fill:none;stroke:#000000;stroke-width:1;stroke-linecap:butt;stroke-linejoin:miter;stroke-miterlimit:10.43299961;stroke-opacity:1;stroke-dasharray:5.99999992, 0.99999999;stroke-dashoffset:0"
       d="M 274.095,142.60006 494.34693,305.77552"
       id="path3374-7"
       inkscape:connector-curvature="0"
       sodipodi:nodetypes="cc" />
    <path
       transform="translate(57.48927,-42.345803)"
       d="m 274.97572,226.29247 a 2.6659696,3.4276752 0 1 1 -5.33194,0 2.6659696,3.4276752 0 1 1 5.33194,0 z"
       sodipodi:ry="3.4276752"
       sodipodi:rx="2.6659696"
       sodipodi:cy="226.29247"
       sodipodi:cx="272.30975"
       id="path5256-9-4"
       style="font-style:normal;font-variant:normal;font-weight:normal;font-stretch:normal;letter-spacing:normal;word-spacing:normal;text-anchor:start;fill:#000000;fill-opacity:1;stroke:#000000;stroke-width:0.5;stroke-linecap:round;stroke-linejoin:miter;stroke-miterlimit:4;stroke-opacity:1;stroke-dasharray:none;stroke-dashoffset:0"
       sodipodi:type="arc" />
    <path
       transform="translate(57.48927,-1.7424047)"
       d="m 274.97572,226.29247 a 2.6659696,3.4276752 0 1 1 -5.33194,0 2.6659696,3.4276752 0 1 1 5.33194,0 z"
       sodipodi:ry="3.4276752"
       sodipodi:rx="2.6659696"
       sodipodi:cy="226.29247"
       sodipodi:cx="272.30975"
       id="path5256-9-0"
       style="font-style:normal;font-variant:normal;font-weight:normal;font-stretch:normal;letter-spacing:normal;word-spacing:normal;text-anchor:start;fill:#000000;fill-opacity:1;stroke:#000000;stroke-width:0.5;stroke-linecap:round;stroke-linejoin:miter;stroke-miterlimit:4;stroke-opacity:1;stroke-dasharray:none;stroke-dashoffset:0"
       sodipodi:type="arc" />
    <path
       transform="translate(112.45577,-1.7424048)"
       d="m 274.97572,226.29247 a 2.6659696,3.4276752 0 1 1 -5.33194,0 2.6659696,3.4276752 0 1 1 5.33194,0 z"
       sodipodi:ry="3.4276752"
       sodipodi:rx="2.6659696"
       sodipodi:cy="226.29247"
       sodipodi:cx="272.30975"
       id="path5256-9-9"
       style="font-style:normal;font-variant:normal;font-weight:normal;font-stretch:normal;letter-spacing:normal;word-spacing:normal;text-anchor:start;fill:#000000;fill-opacity:1;stroke:#000000;stroke-width:0.5;stroke-linecap:round;stroke-linejoin:miter;stroke-miterlimit:4;stroke-opacity:1;stroke-dasharray:none;stroke-dashoffset:0"
       sodipodi:type="arc" />
    <path
       transform="translate(57.489271,39.137206)"
       d="m 274.97572,226.29247 a 2.6659696,3.4276752 0 1 1 -5.33194,0 2.6659696,3.4276752 0 1 1 5.33194,0 z"
       sodipodi:ry="3.4276752"
       sodipodi:rx="2.6659696"
       sodipodi:cy="226.29247"
       sodipodi:cx="272.30975"
       id="path5256-9-48"
       style="font-style:normal;font-variant:normal;font-weight:normal;font-stretch:normal;letter-spacing:normal;word-spacing:normal;text-anchor:start;fill:#000000;fill-opacity:1;stroke:#000000;stroke-width:0.5;stroke-linecap:round;stroke-linejoin:miter;stroke-miterlimit:4;stroke-opacity:1;stroke-dasharray:none;stroke-dashoffset:0"
       sodipodi:type="arc" />
    <path
       transform="translate(112.45577,38.860993)"
       d="m 274.97572,226.29247 a 2.6659696,3.4276752 0 1 1 -5.33194,0 2.6659696,3.4276752 0 1 1 5.33194,0 z"
       sodipodi:ry="3.4276752"
       sodipodi:rx="2.6659696"
       sodipodi:cy="226.29247"
       sodipodi:cx="272.30975"
       id="path5256-9-8"
       style="font-style:normal;font-variant:normal;font-weight:normal;font-stretch:normal;letter-spacing:normal;word-spacing:normal;text-anchor:start;fill:#000000;fill-opacity:1;stroke:#000000;stroke-width:0.5;stroke-linecap:round;stroke-linejoin:miter;stroke-miterlimit:4;stroke-opacity:1;stroke-dasharray:none;stroke-dashoffset:0"
       sodipodi:type="arc" />
    <path
       transform="translate(167.14606,38.860992)"
       d="m 274.97572,226.29247 a 2.6659696,3.4276752 0 1 1 -5.33194,0 2.6659696,3.4276752 0 1 1 5.33194,0 z"
       sodipodi:ry="3.4276752"
       sodipodi:rx="2.6659696"
       sodipodi:cy="226.29247"
       sodipodi:cx="272.30975"
       id="path5256-9-2"
       style="font-style:normal;font-variant:normal;font-weight:normal;font-stretch:normal;letter-spacing:normal;word-spacing:normal;text-anchor:start;fill:#000000;fill-opacity:1;stroke:#000000;stroke-width:0.5;stroke-linecap:round;stroke-linejoin:miter;stroke-miterlimit:4;stroke-opacity:1;stroke-dasharray:none;stroke-dashoffset:0"
       sodipodi:type="arc" />
    <path
       transform="translate(57.48927,79.740604)"
       d="m 274.97572,226.29247 a 2.6659696,3.4276752 0 1 1 -5.33194,0 2.6659696,3.4276752 0 1 1 5.33194,0 z"
       sodipodi:ry="3.4276752"
       sodipodi:rx="2.6659696"
       sodipodi:cy="226.29247"
       sodipodi:cx="272.30975"
       id="path5256-9-45"
       style="font-style:normal;font-variant:normal;font-weight:normal;font-stretch:normal;letter-spacing:normal;word-spacing:normal;text-anchor:start;fill:#000000;fill-opacity:1;stroke:#000000;stroke-width:0.5;stroke-linecap:round;stroke-linejoin:miter;stroke-miterlimit:4;stroke-opacity:1;stroke-dasharray:none;stroke-dashoffset:0"
       sodipodi:type="arc" />
    <path
       transform="translate(57.516182,120.49429)"
       d="m 274.97572,226.29247 a 2.6659696,3.4276752 0 1 1 -5.33194,0 2.6659696,3.4276752 0 1 1 5.33194,0 z"
       sodipodi:ry="3.4276752"
       sodipodi:rx="2.6659696"
       sodipodi:cy="226.29247"
       sodipodi:cx="272.30975"
       id="path5256-9-5"
       style="font-style:normal;font-variant:normal;font-weight:normal;font-stretch:normal;letter-spacing:normal;word-spacing:normal;text-anchor:start;fill:#000000;fill-opacity:1;stroke:#000000;stroke-width:0.5;stroke-linecap:round;stroke-linejoin:miter;stroke-miterlimit:4;stroke-opacity:1;stroke-dasharray:none;stroke-dashoffset:0"
       sodipodi:type="arc" />
    <path
       transform="translate(112.38613,120.49429)"
       d="m 274.97572,226.29247 a 2.6659696,3.4276752 0 1 1 -5.33194,0 2.6659696,3.4276752 0 1 1 5.33194,0 z"
       sodipodi:ry="3.4276752"
       sodipodi:rx="2.6659696"
       sodipodi:cy="226.29247"
       sodipodi:cx="272.30975"
       id="path5256-9-1"
       style="font-style:normal;font-variant:normal;font-weight:normal;font-stretch:normal;letter-spacing:normal;word-spacing:normal;text-anchor:start;fill:#000000;fill-opacity:1;stroke:#000000;stroke-width:0.5;stroke-linecap:round;stroke-linejoin:miter;stroke-miterlimit:4;stroke-opacity:1;stroke-dasharray:none;stroke-dashoffset:0"
       sodipodi:type="arc" />
    <path
       transform="translate(167.14607,120.49429)"
       d="m 274.97572,226.29247 a 2.6659696,3.4276752 0 1 1 -5.33194,0 2.6659696,3.4276752 0 1 1 5.33194,0 z"
       sodipodi:ry="3.4276752"
       sodipodi:rx="2.6659696"
       sodipodi:cy="226.29247"
       sodipodi:cx="272.30975"
       id="path5256-9-7"
       style="font-style:normal;font-variant:normal;font-weight:normal;font-stretch:normal;letter-spacing:normal;word-spacing:normal;text-anchor:start;fill:#000000;fill-opacity:1;stroke:#000000;stroke-width:0.5;stroke-linecap:round;stroke-linejoin:miter;stroke-miterlimit:4;stroke-opacity:1;stroke-dasharray:none;stroke-dashoffset:0"
       sodipodi:type="arc" />
    <path
       transform="translate(222.03718,120.41305)"
       d="m 274.97572,226.29247 a 2.6659696,3.4276752 0 1 1 -5.33194,0 2.6659696,3.4276752 0 1 1 5.33194,0 z"
       sodipodi:ry="3.4276752"
       sodipodi:rx="2.6659696"
       sodipodi:cy="226.29247"
       sodipodi:cx="272.30975"
       id="path5256-9-11"
       style="font-style:normal;font-variant:normal;font-weight:normal;font-stretch:normal;letter-spacing:normal;word-spacing:normal;text-anchor:start;fill:#000000;fill-opacity:1;stroke:#000000;stroke-width:0.5;stroke-linecap:round;stroke-linejoin:miter;stroke-miterlimit:4;stroke-opacity:1;stroke-dasharray:none;stroke-dashoffset:0"
       sodipodi:type="arc" />
    <path
       transform="translate(222.03718,79.975965)"
       d="m 274.97572,226.29247 a 2.6659696,3.4276752 0 1 1 -5.33194,0 2.6659696,3.4276752 0 1 1 5.33194,0 z"
       sodipodi:ry="3.4276752"
       sodipodi:rx="2.6659696"
       sodipodi:cy="226.29247"
       sodipodi:cx="272.30975"
       id="path5256-9-52"
       style="font-style:normal;font-variant:normal;font-weight:normal;font-stretch:normal;letter-spacing:normal;word-spacing:normal;text-anchor:start;fill:#000000;fill-opacity:1;stroke:#000000;stroke-width:0.5;stroke-linecap:round;stroke-linejoin:miter;stroke-miterlimit:4;stroke-opacity:1;stroke-dasharray:none;stroke-dashoffset:0"
       sodipodi:type="arc" />
    <path
       transform="translate(112.25526,79.41502)"
       d="m 274.97572,226.29247 a 2.6659696,3.4276752 0 1 1 -5.33194,0 2.6659696,3.4276752 0 1 1 5.33194,0 z"
       sodipodi:ry="3.4276752"
       sodipodi:rx="2.6659696"
       sodipodi:cy="226.29247"
       sodipodi:cx="272.30975"
       id="path5256-9-76"
       style="font-style:normal;font-variant:normal;font-weight:normal;font-stretch:normal;letter-spacing:normal;word-spacing:normal;text-anchor:start;fill:#000000;fill-opacity:1;stroke:#000000;stroke-width:0.5;stroke-linecap:round;stroke-linejoin:miter;stroke-miterlimit:4;stroke-opacity:1;stroke-dasharray:none;stroke-dashoffset:0"
       sodipodi:type="arc" />
    <path
       transform="translate(166.86985,80.29303)"
       d="m 274.97572,226.29247 a 2.6659696,3.4276752 0 1 1 -5.33194,0 2.6659696,3.4276752 0 1 1 5.33194,0 z"
       sodipodi:ry="3.4276752"
       sodipodi:rx="2.6659696"
       sodipodi:cy="226.29247"
       sodipodi:cx="272.30975"
       id="path5256-9-14"
       style="font-style:normal;font-variant:normal;font-weight:normal;font-stretch:normal;letter-spacing:normal;word-spacing:normal;text-anchor:start;fill:#000000;fill-opacity:1;stroke:#000000;stroke-width:0.5;stroke-linecap:round;stroke-linejoin:miter;stroke-miterlimit:4;stroke-opacity:1;stroke-dasharray:none;stroke-dashoffset:0"
       sodipodi:type="arc" />
  </g>
  <path
     style="fill:none;stroke:#000000;stroke-width:4;stroke-linecap:butt;stroke-linejoin:miter;stroke-miterlimit:4;stroke-opacity:1;stroke-dasharray:none"
     d="m 165.01777,346.78676 c 72.28811,-268.75 144.91547,-268.75 217.01214,0"
     id="path6754"
     inkscape:connector-curvature="0"
     sodipodi:nodetypes="cc" />
</svg>
