<?xml version="1.0" encoding="UTF-8" standalone="no"?>
<!-- Created with Inkscape (http://www.inkscape.org/) -->

<svg
   xmlns:dc="http://purl.org/dc/elements/1.1/"
   xmlns:cc="http://creativecommons.org/ns#"
   xmlns:rdf="http://www.w3.org/1999/02/22-rdf-syntax-ns#"
   xmlns:svg="http://www.w3.org/2000/svg"
   xmlns="http://www.w3.org/2000/svg"
   xmlns:sodipodi="http://sodipodi.sourceforge.net/DTD/sodipodi-0.dtd"
   xmlns:inkscape="http://www.inkscape.org/namespaces/inkscape"
   width="744.09448819"
   height="1052.3622047"
   id="svg2"
   version="1.1"
   inkscape:version="0.48.5 r10040"
   sodipodi:docname="grid.svg"
   inkscape:export-filename="/home/uranix/crec/Slides/03-Integration/images/grid.png"
   inkscape:export-xdpi="150"
   inkscape:export-ydpi="150">
  <sodipodi:namedview
     id="base"
     pagecolor="#ffffff"
     bordercolor="#666666"
     borderopacity="1.0"
     inkscape:pageopacity="0.0"
     inkscape:pageshadow="2"
     inkscape:zoom="1.0221459"
     inkscape:cx="93.116976"
     inkscape:cy="956.90032"
     inkscape:document-units="px"
     inkscape:current-layer="layer1"
     showgrid="false"
     inkscape:window-width="1598"
     inkscape:window-height="852"
     inkscape:window-x="0"
     inkscape:window-y="24"
     inkscape:window-maximized="0" />
  <defs
     id="defs4">
    <marker
       inkscape:stockid="Arrow2Lend"
       orient="auto"
       refY="0.0"
       refX="0.0"
       id="Arrow2Lend"
       style="overflow:visible;">
      <path
         id="path3780"
         style="fill-rule:evenodd;stroke-width:0.62500000;stroke-linejoin:round;"
         d="M 8.7185878,4.0337352 L -2.2072895,0.016013256 L 8.7185884,-4.0017078 C 6.9730900,-1.6296469 6.9831476,1.6157441 8.7185878,4.0337352 z "
         transform="scale(1.1) rotate(180) translate(1,0)" />
    </marker>
    <marker
       inkscape:stockid="Arrow1Lend"
       orient="auto"
       refY="0.0"
       refX="0.0"
       id="Arrow1Lend"
       style="overflow:visible;">
      <path
         id="path3762"
         d="M 0.0,0.0 L 5.0,-5.0 L -12.5,0.0 L 5.0,5.0 L 0.0,0.0 z "
         style="fill-rule:evenodd;stroke:#000000;stroke-width:1.0pt;"
         transform="scale(0.8) rotate(180) translate(12.5,0)" />
    </marker>
  </defs>
  <metadata
     id="metadata7">
    <rdf:RDF>
      <cc:Work
         rdf:about="">
        <dc:format>image/svg+xml</dc:format>
        <dc:type
           rdf:resource="http://purl.org/dc/dcmitype/StillImage" />
        <dc:title />
      </cc:Work>
    </rdf:RDF>
  </metadata>
  <g
     inkscape:label="Layer 1"
     inkscape:groupmode="layer"
     id="layer1">
    <path
       sodipodi:nodetypes="cccc"
       inkscape:connector-curvature="0"
       id="path2985"
       d="m 65.165679,86.112457 330.920961,0 m 4.12618,0 280.65617,0"
       style="fill:none;stroke:#000000;stroke-width:1.50000000000000000;stroke-linecap:butt;stroke-linejoin:miter;stroke-miterlimit:4;stroke-opacity:1;stroke-dasharray:none;marker-end:url(#Arrow2Lend)" />
    <path
       style="fill:none;stroke:#000000;stroke-width:1px;stroke-linecap:butt;stroke-linejoin:miter;stroke-opacity:1"
       d="m 78.648233,77.124087 0,19.100286"
       id="path4199"
       inkscape:connector-curvature="0" />
    <path
       inkscape:connector-curvature="0"
       id="path4201"
       d="m 231.98039,75.535153 0,19.100286"
       style="fill:none;stroke:#000000;stroke-width:1px;stroke-linecap:butt;stroke-linejoin:miter;stroke-opacity:1" />
    <path
       style="fill:none;stroke:#000000;stroke-width:1px;stroke-linecap:butt;stroke-linejoin:miter;stroke-opacity:1"
       d="m 312.22157,75.535153 0,19.100286"
       id="path4203"
       inkscape:connector-curvature="0" />
    <path
       inkscape:connector-curvature="0"
       id="path4205"
       d="m 450.45885,75.535153 0,19.100286"
       style="fill:none;stroke:#000000;stroke-width:1px;stroke-linecap:butt;stroke-linejoin:miter;stroke-opacity:1" />
    <path
       style="fill:none;stroke:#000000;stroke-width:1px;stroke-linecap:butt;stroke-linejoin:miter;stroke-opacity:1"
       d="m 624.44715,76.32962 0,19.100286"
       id="path4207"
       inkscape:connector-curvature="0" />
    <path
       style="font-style:normal;font-variant:normal;font-weight:normal;font-stretch:normal;letter-spacing:normal;word-spacing:normal;text-anchor:start;fill:#000000;stroke:#000000;stroke-width:0;stroke-linecap:butt;stroke-linejoin:miter;stroke-miterlimit:10.43299961;stroke-opacity:1;stroke-dasharray:none;stroke-dashoffset:0"
       inkscape:connector-curvature="0"
       d="m 82.429663,57.842174 -0.055,-0.10382 -0.055,-0.10382 -0.055,-0.0977 -0.055,-0.0977 -0.0611,-0.0977 -0.0611,-0.0977 -0.0672,-0.0916 -0.0672,-0.0855 -0.0672,-0.0916 -0.0733,-0.0794 -0.0733,-0.0855 -0.0733,-0.0794 -0.0794,-0.0733 -0.0794,-0.0733 -0.0855,-0.0672 -0.0855,-0.0672 -0.0855,-0.0672 -0.0916,-0.055 -0.0916,-0.0611 -0.0916,-0.0488 -0.0977,-0.0488 -0.10382,-0.0488 -0.10381,-0.0367 -0.10382,-0.0428 -0.10382,-0.0306 -0.10993,-0.0305 -0.11603,-0.0244 -0.11603,-0.0183 -0.11603,-0.0183 -0.12213,-0.0122 -0.12214,-0.006 -0.12825,0 0.0306,0.66565 c 1.97253,0 2.40002,2.49162 2.40002,2.66872 0,0.19543 -0.055,0.37252 -0.0855,0.5252 l -1.52673,5.96645 c -0.15267,0.54351 -0.15267,0.59848 -0.61068,1.12367 -1.33131,1.67329 -2.58323,2.15574 -3.43209,2.15574 -1.52062,0 -1.9481,-1.66719 -1.9481,-2.85803 0,-1.52063 0.971,-5.25805 1.67329,-6.66264 0.94046,-1.79544 2.31452,-2.91911 3.52979,-2.91911 l -0.0306,-0.66565 c -3.56033,0 -7.32829,4.46415 -7.32829,8.90998 0,2.86414 1.66718,4.86721 4.04277,4.86721 0.60459,0 2.13132,-0.12824 3.95117,-2.28399 0.25039,1.28246 1.30689,2.28399 2.76644,2.28399 1.0687,0 1.771,-0.69619 2.25345,-1.67329 0.51908,-1.09314 0.91603,-2.95575 0.91603,-3.01071 0,-0.30535 -0.27481,-0.30535 -0.36031,-0.30535 -0.30534,0 -0.33588,0.12214 -0.42748,0.54962 -0.51909,1.97865 -1.06871,3.76797 -2.31452,3.76797 -0.81832,0 -0.91603,-0.78779 -0.91603,-1.39848 0,-0.67176 0.0611,-0.90993 0.39083,-2.25345 0.3481,-1.27635 0.40306,-1.58169 0.67787,-2.7359 l 1.09314,-4.25652 c 0.21374,-0.84886 0.21374,-0.91603 0.21374,-1.03207 0,-0.52519 -0.36641,-0.83053 -0.8855,-0.83053 -0.72672,0 -1.18474,0.67787 -1.27635,1.34352 z"
       id="path4225" />
    <path
       style="font-style:normal;font-variant:normal;font-weight:normal;font-stretch:normal;letter-spacing:normal;word-spacing:normal;text-anchor:start;fill:#000000;stroke:#000000;stroke-width:0;stroke-linecap:butt;stroke-linejoin:miter;stroke-miterlimit:10.43299961;stroke-opacity:1;stroke-dasharray:none;stroke-dashoffset:0"
       inkscape:connector-curvature="0"
       d="m 624.60474,47.765197 0,0 0,-0.006 0,0 0,-0.006 0,-0.0122 0,-0.006 0,-0.0122 0,-0.0122 -0.006,-0.0122 0,-0.0122 0,-0.0122 -0.006,-0.0122 -0.006,-0.0122 -0.006,-0.0183 -0.006,-0.0122 -0.006,-0.0183 -0.0122,-0.0122 -0.006,-0.0183 -0.0122,-0.0122 -0.0122,-0.0122 -0.0122,-0.0183 -0.006,-0.006 -0.0122,-0.006 -0.006,-0.006 -0.006,-0.006 -0.0122,-0.006 -0.006,-0.006 -0.0122,-0.006 -0.0122,-0.006 -0.006,-0.006 -0.0122,-0.006 -0.0122,0 -0.0122,-0.006 -0.0122,-0.006 -0.0122,0 -0.0122,-0.006 -0.0122,-0.006 -0.0183,0 -0.0122,0 -0.0183,-0.006 -0.0122,0 -0.0183,0 -0.0183,-0.006 -0.0183,0 -0.0183,0 c -0.70229,0 -2.9191,0.25039 -3.70689,0.30535 -0.25039,0.0305 -0.58626,0.0611 -0.58626,0.61069 0,0.36642 0.28091,0.36642 0.73893,0.36642 1.45955,0 1.51452,0.20763 1.51452,0.51297 0,0.21985 -0.27482,1.25192 -0.42749,1.88704 l -2.49162,9.91762 c -0.36031,1.52673 -0.48855,2.01528 -0.48855,3.07178 0,2.88857 1.61222,4.78171 3.86567,4.78171 v -0.67176 c -1.03817,0 -2.0397,-0.81833 -2.0397,-3.07178 0,-0.58015 0,-1.1542 0.48244,-3.07178 l 0.67176,-2.80307 c 0.1771,-0.67175 0.1771,-0.72672 0.45802,-1.0626 1.48398,-1.97253 2.86414,-2.43055 3.65193,-2.43055 1.09924,0 1.91757,0.90382 1.91757,2.86414 0,1.78932 -1.00764,5.28248 -1.55116,6.4489 -1.00763,2.0336 -2.40611,3.12674 -3.59086,3.12674 v 0.67176 c 3.59086,0 7.3283,-4.53133 7.3283,-8.91609 0,-2.76643 -1.61223,-4.8611 -4.04278,-4.8611 -1.39848,0 -2.64429,0.87329 -3.56033,1.81986 z"
       id="path4227" />
    <path
       sodipodi:nodetypes="cc"
       inkscape:connector-curvature="0"
       id="path4251"
       d="m 396.90656,80.074855 c 2.60304,8.907369 -5.26552,3.658254 0.19861,11.917006"
       style="fill:none;stroke:#000000;stroke-width:1px;stroke-linecap:butt;stroke-linejoin:miter;stroke-opacity:1" />
    <path
       style="fill:none;stroke:#000000;stroke-width:1px;stroke-linecap:butt;stroke-linejoin:miter;stroke-opacity:1"
       d="m 400.93707,80.062807 c 2.60304,8.907369 -5.26552,3.658254 0.19861,11.917006"
       id="path4253"
       inkscape:connector-curvature="0"
       sodipodi:nodetypes="cc" />
    <g
       id="g4353"
       transform="matrix(0.56822867,0,0,0.56822867,-47.172577,2.8959548)">
      <path
         style="font-style:normal;font-variant:normal;font-weight:normal;font-stretch:normal;letter-spacing:normal;word-spacing:normal;text-anchor:start;fill:#000000;stroke:#000000;stroke-width:0;stroke-linecap:butt;stroke-linejoin:miter;stroke-miterlimit:10.43299961;stroke-opacity:1;stroke-dasharray:none;stroke-dashoffset:0"
         inkscape:connector-curvature="0"
         d="m 214.18694,190.53747 0.0319,-0.13819 0.0425,-0.15945 0.0425,-0.17008 0.0425,-0.19134 0.0638,-0.20197 0.0638,-0.22322 0.0638,-0.23386 0.0744,-0.23386 0.085,-0.24449 0.0957,-0.25512 0.10629,-0.26574 0.1063,-0.25512 0.11693,-0.26575 0.12756,-0.26575 0.13819,-0.26575 0.14882,-0.26575 0.15945,-0.25511 0.15945,-0.25512 0.18071,-0.24449 0.19133,-0.23386 0.19134,-0.23386 0.2126,-0.21259 0.22323,-0.20197 0.23386,-0.19134 0.24449,-0.17008 0.26574,-0.14882 0.12756,-0.0744 0.13819,-0.0638 0.14882,-0.0532 0.13819,-0.0531 0.14882,-0.0531 0.14882,-0.0425 0.15945,-0.0319 0.15945,-0.0319 0.15944,-0.0213 0.17008,-0.0213 0.17008,-0.0106 0.17008,0 c 0.26575,0 1.53071,0 2.63622,0.68032 -1.47756,0.26575 -2.54055,1.59449 -2.54055,2.85945 0,0.83976 0.58465,1.86023 2.00906,1.86023 1.16929,0 2.85944,-0.94606 2.85944,-3.07204 0,-2.76378 -3.12519,-3.48662 -4.92165,-3.48662 -3.07205,0 -4.93228,2.8063 -5.55945,4.01811 -1.32874,-3.48661 -4.18819,-4.01811 -5.70827,-4.01811 -5.51692,0 -8.54645,6.82441 -8.54645,8.15315 0,0.5315 0.53149,0.5315 0.64842,0.5315 0.41457,0 0.58465,-0.11693 0.68032,-0.58465 1.79645,-5.6126 5.30433,-6.94134 7.10079,-6.94134 1.00984,0 2.84881,0.46772 2.84881,3.53977 0,1.63701 -0.89291,5.19803 -2.84881,12.60708 -0.8504,3.28465 -2.7,5.5063 -5.03859,5.5063 -0.31889,0 -1.53071,0 -2.63622,-0.69094 1.32874,-0.25512 2.4874,-1.36063 2.4874,-2.85945 0,-1.42441 -1.15866,-1.83898 -1.9559,-1.83898 -1.59449,0 -2.92323,1.37126 -2.92323,3.07205 0,2.42362 2.65748,3.48661 4.9748,3.48661 3.50788,0 5.4,-3.70984 5.57008,-4.01811 0.62717,1.95591 2.54055,4.01811 5.70827,4.01811 5.46378,0 8.49331,-6.8244 8.49331,-8.15314 0,-0.5315 -0.47835,-0.5315 -0.64843,-0.5315 -0.46772,0 -0.58464,0.2126 -0.68031,0.57401 -1.74331,5.66575 -5.34685,6.94134 -7.04764,6.94134 -2.07284,0 -2.92323,-1.69015 -2.92323,-3.49724 0,-1.16929 0.3189,-2.32795 0.91417,-4.65591 z"
         id="path4275" />
      <path
         style="font-style:normal;font-variant:normal;font-weight:normal;font-stretch:normal;letter-spacing:normal;word-spacing:normal;text-anchor:start;fill:#000000;stroke:#000000;stroke-width:0;stroke-linecap:butt;stroke-linejoin:miter;stroke-miterlimit:10.43299961;stroke-opacity:1;stroke-dasharray:none;stroke-dashoffset:0"
         inkscape:connector-curvature="0"
         d="m 245.85347,202.63432 -0.0106,-0.75473 -0.0213,-0.72283 -0.0319,-0.70158 -0.0425,-0.68031 -0.0638,-0.65906 -0.0744,-0.63779 -0.0957,-0.60591 -0.11693,-0.59527 -0.13819,-0.58465 -0.15945,-0.56338 -0.18071,-0.54213 -0.20197,-0.5315 -0.22323,-0.52086 -0.25511,-0.51024 -0.27638,-0.4996 -0.14882,-0.24449 -0.15945,-0.24449 c -1.14803,-1.71142 -3.43346,-3.18898 -6.40984,-3.18898 v 1.04174 c 2.00905,0 3.93307,1.21181 4.60275,3.36968 0.59528,1.99843 0.62717,4.66654 0.62717,7.89803 0,2.73189 0,5.47441 -0.47835,7.80236 -0.74409,3.36969 -3.25275,4.18819 -4.75157,4.18819 h 0 c -1.69016,0 -3.95433,-0.99921 -4.69843,-4.03937 -0.51023,-2.17913 -0.51023,-5.21929 -0.51023,-7.95118 0,-2.71063 0,-5.53819 0.54212,-7.55787 0.78662,-2.92323 3.15709,-3.70984 4.66654,-3.70984 v -1.04174 c -8.58898,0 -8.58898,10.10906 -8.58898,12.7878 0,2.65748 0,12.55393 8.58898,12.55393 8.61023,0 8.61023,-9.89645 8.61023,-12.55393 z"
         id="path4277" />
    </g>
    <g
       id="g4357"
       transform="matrix(0.56822867,0,0,0.56822867,76.112198,3.982516)">
      <path
         style="font-style:normal;font-variant:normal;font-weight:normal;font-stretch:normal;letter-spacing:normal;word-spacing:normal;text-anchor:start;fill:#000000;stroke:#000000;stroke-width:0;stroke-linecap:butt;stroke-linejoin:miter;stroke-miterlimit:10.43299961;stroke-opacity:1;stroke-dasharray:none;stroke-dashoffset:0"
         inkscape:connector-curvature="0"
         d="m 268.27198,190.53747 0.0319,-0.13819 0.0319,-0.15945 0.0532,-0.17008 0.0425,-0.19134 0.0638,-0.20197 0.0638,-0.22322 0.0638,-0.23386 0.0744,-0.23386 0.085,-0.24449 0.0957,-0.25512 0.1063,-0.26574 0.1063,-0.25512 0.11693,-0.26575 0.12756,-0.26575 0.13819,-0.26575 0.14882,-0.26575 0.14882,-0.25511 0.17008,-0.25512 0.1807,-0.24449 0.18071,-0.23386 0.20197,-0.23386 0.2126,-0.21259 0.22323,-0.20197 0.23386,-0.19134 0.24448,-0.17008 0.26575,-0.14882 0.12756,-0.0744 0.13819,-0.0638 0.14882,-0.0532 0.13819,-0.0531 0.14882,-0.0531 0.14882,-0.0425 0.15945,-0.0319 0.15944,-0.0319 0.15945,-0.0213 0.17008,-0.0213 0.15945,-0.0106 0.18071,0 c 0.26575,0 1.52008,0 2.63622,0.68032 -1.47756,0.26575 -2.54055,1.59449 -2.54055,2.85945 0,0.83976 0.58464,1.86023 2.00905,1.86023 1.15866,0 2.85945,-0.94606 2.85945,-3.07204 0,-2.76378 -3.12519,-3.48662 -4.92165,-3.48662 -3.07205,0 -4.93228,2.8063 -5.55945,4.01811 -1.32874,-3.48661 -4.18819,-4.01811 -5.7189,-4.01811 -5.5063,0 -8.53582,6.82441 -8.53582,8.15315 0,0.5315 0.53149,0.5315 0.64842,0.5315 0.41457,0 0.58465,-0.11693 0.68032,-0.58465 1.79645,-5.6126 5.30433,-6.94134 7.09015,-6.94134 1.02048,0 2.85945,0.46772 2.85945,3.53977 0,1.63701 -0.89291,5.19803 -2.85945,12.60708 -0.83976,3.28465 -2.68937,5.5063 -5.02795,5.5063 -0.3189,0 -1.53071,0 -2.63622,-0.69094 1.32874,-0.25512 2.4874,-1.36063 2.4874,-2.85945 0,-1.42441 -1.15866,-1.83898 -1.9559,-1.83898 -1.59449,0 -2.92323,1.37126 -2.92323,3.07205 0,2.42362 2.65748,3.48661 4.9748,3.48661 3.50788,0 5.4,-3.70984 5.57008,-4.01811 0.62717,1.95591 2.54055,4.01811 5.70827,4.01811 5.46378,0 8.4933,-6.8244 8.4933,-8.15314 0,-0.5315 -0.48897,-0.5315 -0.64842,-0.5315 -0.46772,0 -0.58465,0.2126 -0.68032,0.57401 -1.7433,5.66575 -5.34685,6.94134 -7.04763,6.94134 -2.07284,0 -2.92323,-1.69015 -2.92323,-3.49724 0,-1.16929 0.3189,-2.32795 0.91417,-4.65591 z"
         id="path4279" />
      <path
         style="font-style:normal;font-variant:normal;font-weight:normal;font-stretch:normal;letter-spacing:normal;word-spacing:normal;text-anchor:start;fill:#000000;stroke:#000000;stroke-width:0;stroke-linecap:butt;stroke-linejoin:miter;stroke-miterlimit:10.43299961;stroke-opacity:1;stroke-dasharray:none;stroke-dashoffset:0"
         inkscape:connector-curvature="0"
         d="m 293.2204,190.88826 0,-0.0425 0,-0.0425 0,-0.0532 0,-0.0425 0,-0.0319 0,-0.0425 0,-0.0425 0,-0.0319 0,-0.0425 -0.0106,-0.0319 0,-0.0319 0,-0.0319 0,-0.0319 -0.0106,-0.0319 0,-0.0319 0,-0.0213 -0.0106,-0.0319 0,-0.0213 -0.0106,-0.0319 0,-0.0213 -0.0213,-0.0425 -0.0106,-0.0425 -0.0213,-0.0319 -0.0213,-0.0319 -0.0213,-0.0319 -0.0213,-0.0319 -0.0319,-0.0213 -0.0319,-0.0213 -0.0319,-0.0213 -0.0425,-0.0106 -0.0425,-0.0106 -0.0532,-0.0213 -0.0213,0 -0.0213,0 -0.0319,-0.0106 -0.0319,0 -0.0213,-0.0106 -0.0319,0 -0.0319,0 -0.0319,0 -0.0319,0 -0.0425,-0.0106 -0.0319,0 -0.0425,0 -0.0319,0 -0.0425,0 -0.0425,0 -0.0425,0 -0.0425,0 -0.0532,0 -0.0425,0 -0.0425,0 c -2.3811,2.33859 -5.74016,2.37048 -7.26024,2.37048 v 1.32874 c 0.89292,0 3.3378,0 5.35748,-1.03111 V 211.404 c 0,1.23307 0,1.71142 -3.69921,1.71142 h -1.39252 v 1.32874 c 0.65906,-0.0319 5.20866,-0.14882 6.59055,-0.14882 1.14804,0 5.81457,0.11693 6.62244,0.14882 v -1.32874 h -1.40314 c -3.70985,0 -3.70985,-0.47835 -3.70985,-1.71142 z"
         id="path4281" />
    </g>
    <g
       id="g4361"
       transform="matrix(0.56822867,0,0,0.56822867,126.00346,3.8158125)">
      <path
         style="font-style:normal;font-variant:normal;font-weight:normal;font-stretch:normal;letter-spacing:normal;word-spacing:normal;text-anchor:start;fill:#000000;stroke:#000000;stroke-width:0;stroke-linecap:butt;stroke-linejoin:miter;stroke-miterlimit:10.43299961;stroke-opacity:1;stroke-dasharray:none;stroke-dashoffset:0"
         inkscape:connector-curvature="0"
         d="m 322.22946,190.53747 0.0319,-0.13819 0.0425,-0.15945 0.0425,-0.17008 0.0425,-0.19134 0.0638,-0.20197 0.0638,-0.22322 0.0638,-0.23386 0.085,-0.23386 0.085,-0.24449 0.085,-0.25512 0.1063,-0.26574 0.1063,-0.25512 0.11693,-0.26575 0.12756,-0.26575 0.13819,-0.26575 0.14882,-0.26575 0.15945,-0.25511 0.15944,-0.25512 0.18071,-0.24449 0.19134,-0.23386 0.19134,-0.23386 0.2126,-0.21259 0.22323,-0.20197 0.23386,-0.19134 0.24448,-0.17008 0.26575,-0.14882 0.12756,-0.0744 0.13819,-0.0638 0.14882,-0.0532 0.13819,-0.0531 0.14882,-0.0531 0.14882,-0.0425 0.15944,-0.0319 0.15945,-0.0319 0.15945,-0.0213 0.17008,-0.0213 0.17008,-0.0106 0.17008,0 c 0.26575,0 1.53071,0 2.63622,0.68032 -1.47756,0.26575 -2.54055,1.59449 -2.54055,2.85945 0,0.83976 0.58464,1.86023 2.00905,1.86023 1.16929,0 2.85945,-0.94606 2.85945,-3.07204 0,-2.76378 -3.1252,-3.48662 -4.92165,-3.48662 -3.06142,0 -4.92166,2.8063 -5.55945,4.01811 -1.32874,-3.48661 -4.18819,-4.01811 -5.70827,-4.01811 -5.51693,0 -8.53583,6.82441 -8.53583,8.15315 0,0.5315 0.5315,0.5315 0.6378,0.5315 0.4252,0 0.58465,-0.11693 0.69094,-0.58465 1.78583,-5.6126 5.29371,-6.94134 7.09016,-6.94134 1.00984,0 2.84882,0.46772 2.84882,3.53977 0,1.63701 -0.89291,5.19803 -2.84882,12.60708 -0.85039,3.28465 -2.7,5.5063 -5.03858,5.5063 -0.3189,0 -1.52008,0 -2.63622,-0.69094 1.32874,-0.25512 2.4874,-1.36063 2.4874,-2.85945 0,-1.42441 -1.15866,-1.83898 -1.9559,-1.83898 -1.59449,0 -2.92323,1.37126 -2.92323,3.07205 0,2.42362 2.65748,3.48661 4.9748,3.48661 3.50787,0 5.4,-3.70984 5.57008,-4.01811 0.62716,1.95591 2.54055,4.01811 5.7189,4.01811 5.45315,0 8.48267,-6.8244 8.48267,-8.15314 0,-0.5315 -0.47834,-0.5315 -0.64842,-0.5315 -0.46772,0 -0.58465,0.2126 -0.68032,0.57401 -1.7433,5.66575 -5.34685,6.94134 -7.04763,6.94134 -2.07284,0 -2.92323,-1.69015 -2.92323,-3.49724 0,-1.16929 0.31889,-2.32795 0.91417,-4.65591 z"
         id="path4283" />
      <path
         style="font-style:normal;font-variant:normal;font-weight:normal;font-stretch:normal;letter-spacing:normal;word-spacing:normal;text-anchor:start;fill:#000000;stroke:#000000;stroke-width:0;stroke-linecap:butt;stroke-linejoin:miter;stroke-miterlimit:10.43299961;stroke-opacity:1;stroke-dasharray:none;stroke-dashoffset:0"
         inkscape:connector-curvature="0"
         d="m 353.48142,207.69416 h -1.26496 c -0.1063,0.8185 -0.48897,3.00827 -0.96732,3.38032 -0.27638,0.21259 -3.13583,0.21259 -3.65669,0.21259 h -6.82441 c 3.89055,-3.43346 5.1874,-4.46456 7.40905,-6.20787 2.74252,-2.20039 5.30433,-4.48583 5.30433,-8.01496 0,-4.4752 -3.92244,-7.21772 -8.67401,-7.21772 -4.5815,0 -7.70669,3.22087 -7.70669,6.62244 0,1.89213 1.59448,2.08347 1.97716,2.08347 0.88229,0 1.95591,-0.6378 1.95591,-1.96654 0,-0.65905 -0.26575,-1.9559 -2.18977,-1.9559 1.14803,-2.62559 3.66733,-3.4441 5.41063,-3.4441 3.70985,0 5.63386,2.88071 5.63386,5.87835 0,3.2315 -2.29606,5.78268 -3.48661,7.11142 l -8.91851,8.82283 c -0.38267,0.32953 -0.38267,0.41457 -0.38267,1.44567 h 15.26456 z"
         id="path4285" />
    </g>
    <g
       id="g4365"
       transform="matrix(0.56822867,0,0,0.56822867,233.54289,2.3935817)">
      <path
         style="font-style:normal;font-variant:normal;font-weight:normal;font-stretch:normal;letter-spacing:normal;word-spacing:normal;text-anchor:start;fill:#000000;stroke:#000000;stroke-width:0;stroke-linecap:butt;stroke-linejoin:miter;stroke-miterlimit:10.43299961;stroke-opacity:1;stroke-dasharray:none;stroke-dashoffset:0"
         inkscape:connector-curvature="0"
         d="m 376.3145,190.53747 0.0319,-0.13819 0.0425,-0.15945 0.0425,-0.17008 0.0425,-0.19134 0.0638,-0.20197 0.0638,-0.22322 0.0638,-0.23386 0.0744,-0.23386 0.085,-0.24449 0.0957,-0.25512 0.1063,-0.26574 0.1063,-0.25512 0.11693,-0.26575 0.12756,-0.26575 0.13819,-0.26575 0.14881,-0.26575 0.14882,-0.25511 0.17008,-0.25512 0.18071,-0.24449 0.19134,-0.23386 0.19134,-0.23386 0.2126,-0.21259 0.22323,-0.20197 0.23385,-0.19134 0.24449,-0.17008 0.26575,-0.14882 0.12756,-0.0744 0.13819,-0.0638 0.14882,-0.0532 0.13819,-0.0531 0.14881,-0.0531 0.14882,-0.0425 0.15945,-0.0319 0.15945,-0.0319 0.15945,-0.0213 0.17008,-0.0213 0.15945,-0.0106 0.18071,0 c 0.26574,0 1.52007,0 2.63622,0.68032 -1.47756,0.26575 -2.54055,1.59449 -2.54055,2.85945 0,0.83976 0.58464,1.86023 2.00905,1.86023 1.16929,0 2.85945,-0.94606 2.85945,-3.07204 0,-2.76378 -3.1252,-3.48662 -4.92165,-3.48662 -3.07205,0 -4.93229,2.8063 -5.55945,4.01811 -1.32874,-3.48661 -4.18819,-4.01811 -5.7189,-4.01811 -5.5063,0 -8.53583,6.82441 -8.53583,8.15315 0,0.5315 0.5315,0.5315 0.64843,0.5315 0.41457,0 0.58464,-0.11693 0.68031,-0.58465 1.79646,-5.6126 5.30433,-6.94134 7.10079,-6.94134 1.00984,0 2.84882,0.46772 2.84882,3.53977 0,1.63701 -0.89291,5.19803 -2.84882,12.60708 -0.85039,3.28465 -2.7,5.5063 -5.03858,5.5063 -0.3189,0 -1.53071,0 -2.63622,-0.69094 1.32874,-0.25512 2.4874,-1.36063 2.4874,-2.85945 0,-1.42441 -1.15866,-1.83898 -1.95591,-1.83898 -1.59448,0 -2.92322,1.37126 -2.92322,3.07205 0,2.42362 2.65748,3.48661 4.9748,3.48661 3.50787,0 5.4,-3.70984 5.57008,-4.01811 0.62716,1.95591 2.54055,4.01811 5.70826,4.01811 5.46378,0 8.49331,-6.8244 8.49331,-8.15314 0,-0.5315 -0.48898,-0.5315 -0.64842,-0.5315 -0.46772,0 -0.58465,0.2126 -0.68032,0.57401 -1.74331,5.66575 -5.34685,6.94134 -7.04764,6.94134 -2.07283,0 -2.92322,-1.69015 -2.92322,-3.49724 0,-1.16929 0.31889,-2.32795 0.91417,-4.65591 z"
         id="path4287" />
      <path
         style="font-style:normal;font-variant:normal;font-weight:normal;font-stretch:normal;letter-spacing:normal;word-spacing:normal;text-anchor:start;fill:#000000;stroke:#000000;stroke-width:0;stroke-linecap:butt;stroke-linejoin:miter;stroke-miterlimit:10.43299961;stroke-opacity:1;stroke-dasharray:none;stroke-dashoffset:0"
         inkscape:connector-curvature="0"
         d="m 393.37552,212.11621 -0.0106,0.0425 -0.0213,0.0532 -0.0106,0.0425 -0.0106,0.0531 -0.0213,0.0532 -0.0106,0.0638 -0.0213,0.0531 -0.0106,0.0531 -0.0319,0.11693 -0.0319,0.11693 -0.0319,0.12756 -0.0213,0.1063 -0.0213,0.0638 -0.0106,0.0531 -0.0106,0.0531 -0.0106,0.0532 -0.0106,0.0531 -0.0106,0.0425 -0.0106,0.0532 -0.0106,0.0425 -0.0106,0.0319 0,0.0425 -0.0106,0.0319 0,0.0319 -0.0106,0.0213 0,0.0213 0,0.0106 0,0.0106 0,0.0106 0,0 c 0,0.8185 0.65906,1.17992 1.25433,1.17992 0.66969,0 1.25433,-0.47835 1.44567,-0.80788 0.18071,-0.34015 0.48898,-1.52008 0.66969,-2.29606 0.1807,-0.70157 0.57401,-2.41299 0.80787,-3.33779 0.22323,-0.81851 0.45709,-1.62638 0.6378,-2.47678 0.3933,-1.5307 0.47834,-1.80708 1.54133,-3.33779 1.04174,-1.47756 2.79567,-3.40158 5.55945,-3.40158 2.14725,0 2.17914,1.89213 2.17914,2.5937 0,2.22166 -1.57323,6.32481 -2.17914,7.88741 -0.40393,1.04173 -0.56338,1.37126 -0.56338,2.00905 0,1.95591 1.64763,3.16772 3.52913,3.16772 3.69921,0 5.32559,-5.09173 5.32559,-5.66575 0,-0.47835 -0.47835,-0.47835 -0.58464,-0.47835 -0.5315,0 -0.56339,0.2126 -0.71221,0.62717 -0.83976,2.96575 -2.43425,4.48583 -3.91181,4.48583 -0.78661,0 -0.93543,-0.51024 -0.93543,-1.29686 0,-0.83976 0.18071,-1.32874 0.85039,-2.99763 0.44646,-1.14803 1.97717,-5.07048 1.97717,-7.14331 0,-3.60354 -2.85945,-4.22008 -4.81536,-4.22008 -3.08268,0 -5.15551,1.87087 -6.27165,3.35906 -0.26575,-2.55118 -2.43425,-3.35906 -3.96496,-3.35906 -1.59449,0 -2.44488,1.14803 -2.92323,1.9878 -0.8185,1.37126 -1.32874,3.49724 -1.32874,3.67795 0,0.47835 0.51024,0.47835 0.63779,0.47835 0.51024,0 0.54213,-0.11693 0.80788,-1.11615 0.55275,-2.18976 1.26496,-3.99685 2.71063,-3.99685 0.95669,0 1.21181,0.80788 1.21181,1.80709 0,0.71221 -0.34016,2.07284 -0.60591,3.07205 -0.24448,1.00984 -0.6059,2.52992 -0.80787,3.33779 z"
         id="path4289" />
      <path
         style="font-style:normal;font-variant:normal;font-weight:normal;font-stretch:normal;letter-spacing:normal;word-spacing:normal;text-anchor:start;fill:#000000;stroke:#000000;stroke-width:0;stroke-linecap:butt;stroke-linejoin:miter;stroke-miterlimit:10.43299961;stroke-opacity:1;stroke-dasharray:none;stroke-dashoffset:0"
         inkscape:connector-curvature="0"
         d="m 442.56016,206.06778 0.0532,0 0.0638,0 0.11693,0 0.12756,0 0.0638,-0.0106 0.0531,0 0.0638,-0.0106 0.0638,0 0.0638,-0.0106 0.0638,-0.0106 0.0532,-0.0106 0.0638,-0.0213 0.0532,-0.0106 0.0638,-0.0213 0.0532,-0.0213 0.0531,-0.0319 0.0425,-0.0213 0.0531,-0.0319 0.0425,-0.0425 0.0425,-0.0319 0.0425,-0.0425 0.0213,-0.0212 0.0106,-0.0213 0.0213,-0.0319 0.0106,-0.0213 0.0213,-0.0213 0.0106,-0.0319 0.0106,-0.0319 0.0106,-0.0213 0.0106,-0.0319 0.0106,-0.0319 0.0106,-0.0319 0.0106,-0.0319 0.0106,-0.0425 0,-0.0319 0.0106,-0.0425 0,-0.0319 0,-0.0425 0,-0.0425 c 0,-0.91417 -0.85039,-0.91417 -1.47756,-0.91417 h -22.07834 c -0.59528,0 -1.47756,0 -1.47756,0.88228 0,0.9248 0.85039,0.9248 1.47756,0.9248 z"
         id="path4291" />
      <path
         style="font-style:normal;font-variant:normal;font-weight:normal;font-stretch:normal;letter-spacing:normal;word-spacing:normal;text-anchor:start;fill:#000000;stroke:#000000;stroke-width:0;stroke-linecap:butt;stroke-linejoin:miter;stroke-miterlimit:10.43299961;stroke-opacity:1;stroke-dasharray:none;stroke-dashoffset:0"
         inkscape:connector-curvature="0"
         d="m 460.45032,190.88826 0,-0.0425 0,-0.0425 0,-0.0532 0,-0.0425 0,-0.0319 0,-0.0425 -0.0106,-0.0425 0,-0.0319 0,-0.0425 0,-0.0319 0,-0.0319 0,-0.0319 -0.0106,-0.0319 0,-0.0319 0,-0.0319 -0.0106,-0.0213 0,-0.0319 -0.0106,-0.0213 0,-0.0319 -0.0106,-0.0213 -0.0106,-0.0425 -0.0106,-0.0425 -0.0213,-0.0319 -0.0213,-0.0319 -0.0213,-0.0319 -0.0319,-0.0319 -0.0213,-0.0213 -0.0319,-0.0213 -0.0425,-0.0213 -0.0319,-0.0106 -0.0531,-0.0106 -0.0425,-0.0213 -0.0213,0 -0.0319,0 -0.0213,-0.0106 -0.0319,0 -0.0319,-0.0106 -0.0319,0 -0.0319,0 -0.0319,0 -0.0319,0 -0.0319,-0.0106 -0.0425,0 -0.0319,0 -0.0425,0 -0.0425,0 -0.0319,0 -0.0425,0 -0.0531,0 -0.0425,0 -0.0425,0 -0.0532,0 c -2.37047,2.33859 -5.72953,2.37048 -7.26024,2.37048 v 1.32874 c 0.90355,0 3.3378,0 5.36811,-1.03111 V 211.404 c 0,1.23307 0,1.71142 -3.69921,1.71142 h -1.40315 v 1.32874 c 0.66969,-0.0319 5.21929,-0.14882 6.60118,-0.14882 1.1374,0 5.81457,0.11693 6.62244,0.14882 v -1.32874 h -1.41378 c -3.69921,0 -3.69921,-0.47835 -3.69921,-1.71142 z"
         id="path4293" />
    </g>
    <g
       id="g4371"
       transform="matrix(0.56822867,0,0,0.56822867,344.31849,1.0910156)">
      <path
         style="font-style:normal;font-variant:normal;font-weight:normal;font-stretch:normal;letter-spacing:normal;word-spacing:normal;text-anchor:start;fill:#000000;stroke:#000000;stroke-width:0;stroke-linecap:butt;stroke-linejoin:miter;stroke-miterlimit:10.43299961;stroke-opacity:1;stroke-dasharray:none;stroke-dashoffset:0"
         inkscape:connector-curvature="0"
         d="m 489.58693,190.53747 0.0319,-0.13819 0.0425,-0.15945 0.0425,-0.17008 0.0531,-0.19134 0.0532,-0.20197 0.0638,-0.22322 0.0638,-0.23386 0.085,-0.23386 0.085,-0.24449 0.085,-0.25512 0.1063,-0.26574 0.1063,-0.25512 0.11693,-0.26575 0.12756,-0.26575 0.13818,-0.26575 0.14882,-0.26575 0.15945,-0.25511 0.15945,-0.25512 0.18071,-0.24449 0.19134,-0.23386 0.20197,-0.23386 0.20197,-0.21259 0.22322,-0.20197 0.23386,-0.19134 0.25512,-0.17008 0.25512,-0.14882 0.13819,-0.0744 0.13819,-0.0638 0.13818,-0.0532 0.14882,-0.0531 0.13819,-0.0531 0.15945,-0.0425 0.14882,-0.0319 0.15945,-0.0319 0.15945,-0.0213 0.17008,-0.0213 0.17008,-0.0106 0.17007,0 c 0.26575,0 1.53071,0 2.63622,0.68032 -1.47755,0.26575 -2.54055,1.59449 -2.54055,2.85945 0,0.83976 0.58465,1.86023 2.00906,1.86023 1.16929,0 2.85945,-0.94606 2.85945,-3.07204 0,-2.76378 -3.1252,-3.48662 -4.91103,-3.48662 -3.07204,0 -4.93228,2.8063 -5.57007,4.01811 -1.32874,-3.48661 -4.18819,-4.01811 -5.70827,-4.01811 -5.51693,0 -8.53583,6.82441 -8.53583,8.15315 0,0.5315 0.5315,0.5315 0.64843,0.5315 0.41456,0 0.57401,-0.11693 0.68031,-0.58465 1.78583,-5.6126 5.2937,-6.94134 7.09016,-6.94134 1.00984,0 2.85945,0.46772 2.85945,3.53977 0,1.63701 -0.90355,5.19803 -2.85945,12.60708 -0.8504,3.28465 -2.68937,5.5063 -5.03858,5.5063 -0.30827,0 -1.52008,0 -2.63622,-0.69094 1.32874,-0.25512 2.4874,-1.36063 2.4874,-2.85945 0,-1.42441 -1.15866,-1.83898 -1.95591,-1.83898 -1.59449,0 -2.92323,1.37126 -2.92323,3.07205 0,2.42362 2.65748,3.48661 4.98544,3.48661 3.49724,0 5.38937,-3.70984 5.55944,-4.01811 0.62717,1.95591 2.54056,4.01811 5.7189,4.01811 5.46378,0 8.48268,-6.8244 8.48268,-8.15314 0,-0.5315 -0.47835,-0.5315 -0.64843,-0.5315 -0.46771,0 -0.58464,0.2126 -0.68031,0.57401 -1.74331,5.66575 -5.34685,6.94134 -7.03701,6.94134 -2.08346,0 -2.92323,-1.69015 -2.92323,-3.49724 0,-1.16929 0.30827,-2.32795 0.90355,-4.65591 z"
         id="path4295" />
      <path
         style="font-style:normal;font-variant:normal;font-weight:normal;font-stretch:normal;letter-spacing:normal;word-spacing:normal;text-anchor:start;fill:#000000;stroke:#000000;stroke-width:0;stroke-linecap:butt;stroke-linejoin:miter;stroke-miterlimit:10.43299961;stroke-opacity:1;stroke-dasharray:none;stroke-dashoffset:0"
         inkscape:connector-curvature="0"
         d="m 506.64796,212.11621 -0.0106,0.0425 -0.0213,0.0532 -0.0106,0.0425 -0.0213,0.0531 -0.0106,0.0532 -0.0213,0.0638 -0.0106,0.0531 -0.0106,0.0531 -0.0319,0.11693 -0.0319,0.11693 -0.0319,0.12756 -0.0319,0.1063 -0.0106,0.0638 -0.0106,0.0531 -0.0106,0.0531 -0.0106,0.0532 -0.0106,0.0531 -0.0106,0.0425 -0.0106,0.0532 -0.0106,0.0425 -0.0106,0.0319 -0.0106,0.0425 0,0.0319 -0.0106,0.0319 0,0.0213 0,0.0213 0,0.0106 0,0.0106 0,0.0106 0,0 c 0,0.8185 0.65905,1.17992 1.25433,1.17992 0.66968,0 1.2437,-0.47835 1.44567,-0.80788 0.18071,-0.34015 0.48898,-1.52008 0.66968,-2.29606 0.18071,-0.70157 0.57402,-2.41299 0.80788,-3.33779 0.22323,-0.81851 0.44645,-1.62638 0.63779,-2.47678 0.39331,-1.5307 0.47835,-1.80708 1.54134,-3.33779 1.04173,-1.47756 2.78504,-3.40158 5.55945,-3.40158 2.14724,0 2.17913,1.89213 2.17913,2.5937 0,2.22166 -1.57322,6.32481 -2.17913,7.88741 -0.41457,1.04173 -0.56339,1.37126 -0.56339,2.00905 0,1.95591 1.64764,3.16772 3.52914,3.16772 3.69921,0 5.32559,-5.09173 5.32559,-5.66575 0,-0.47835 -0.47835,-0.47835 -0.58465,-0.47835 -0.53149,0 -0.56338,0.2126 -0.7122,0.62717 -0.83977,2.96575 -2.43425,4.48583 -3.92244,4.48583 -0.77599,0 -0.92481,-0.51024 -0.92481,-1.29686 0,-0.83976 0.18071,-1.32874 0.8504,-2.99763 0.44645,-1.14803 1.97716,-5.07048 1.97716,-7.14331 0,-3.60354 -2.85945,-4.22008 -4.82598,-4.22008 -3.07205,0 -5.14488,1.87087 -6.26102,3.35906 -0.26575,-2.55118 -2.43426,-3.35906 -3.96496,-3.35906 -1.59449,0 -2.44489,1.14803 -2.92323,1.9878 -0.81851,1.37126 -1.32874,3.49724 -1.32874,3.67795 0,0.47835 0.51023,0.47835 0.62716,0.47835 0.52087,0 0.55276,-0.11693 0.81851,-1.11615 0.54212,-2.18976 1.26496,-3.99685 2.71063,-3.99685 0.95669,0 1.21181,0.80788 1.21181,1.80709 0,0.71221 -0.34016,2.07284 -0.60591,3.07205 -0.24449,1.00984 -0.6059,2.52992 -0.80787,3.33779 z"
         id="path4297" />
    </g>
    <g
       id="g7047"
       transform="matrix(0.51819062,0,0,0.51819062,43.879734,-61.848766)">
      <path
         style="font-style:normal;font-variant:normal;font-weight:normal;font-stretch:normal;letter-spacing:normal;word-spacing:normal;text-anchor:start;fill:#000000;stroke:#000000;stroke-width:0;stroke-linecap:butt;stroke-linejoin:miter;stroke-miterlimit:10.43299961;stroke-opacity:1;stroke-dasharray:none;stroke-dashoffset:0"
         inkscape:connector-curvature="0"
         d="m 199.30589,231.485 -0.0425,-0.0638 -0.0319,-0.0638 -0.0319,-0.0531 -0.0213,-0.0532 -0.0319,-0.0531 -0.0319,-0.0532 -0.0319,-0.0531 -0.0213,-0.0425 -0.0319,-0.0425 -0.0319,-0.0425 -0.0213,-0.0425 -0.0319,-0.0319 -0.0319,-0.0425 -0.0319,-0.0319 -0.0319,-0.0319 -0.0319,-0.0319 -0.0319,-0.0213 -0.0425,-0.0319 -0.0425,-0.0213 -0.0319,-0.0213 -0.0532,-0.0213 -0.0425,-0.0106 -0.0531,-0.0213 -0.0425,-0.0106 -0.0638,-0.0106 -0.0531,-0.0106 -0.0638,-0.0106 -0.0638,-0.0106 -0.0744,0 -0.0744,-0.0106 -0.0744,0 -0.0425,0 -0.0425,0 c -0.90355,0 -0.99921,0.26575 -1.36063,0.94606 l -0.34016,4.34764 14.25472,28.60512 h -28.55196 l 14.29724,-28.60512 0.34016,-4.34764 -17.91142,35.90788 c -0.26575,0.47834 -0.26575,0.58464 -0.26575,0.62716 0,0.43583 0.3189,0.43583 1.16929,0.43583 h 36.75827 c 0.83976,0 1.15866,0 1.15866,-0.43583 0,-0.0425 0,-0.14882 -0.26575,-0.62716 z"
         id="path6944" />
      <path
         style="font-style:normal;font-variant:normal;font-weight:normal;font-stretch:normal;letter-spacing:normal;word-spacing:normal;text-anchor:start;fill:#000000;stroke:#000000;stroke-width:0;stroke-linecap:butt;stroke-linejoin:miter;stroke-miterlimit:10.43299961;stroke-opacity:1;stroke-dasharray:none;stroke-dashoffset:0"
         inkscape:connector-curvature="0"
         d="m 237.72242,252.45784 0.0319,-0.13819 0.0425,-0.15945 0.0425,-0.17008 0.0425,-0.19134 0.0638,-0.20197 0.0638,-0.22322 0.0638,-0.23386 0.0744,-0.23386 0.085,-0.24449 0.0957,-0.25512 0.1063,-0.26574 0.1063,-0.25512 0.11692,-0.26575 0.12756,-0.26575 0.13819,-0.26575 0.14882,-0.26575 0.14882,-0.25511 0.17008,-0.25512 0.18071,-0.24449 0.19134,-0.23386 0.19134,-0.23386 0.21259,-0.21259 0.22323,-0.20197 0.23386,-0.19134 0.24449,-0.17008 0.26575,-0.14882 0.12756,-0.0744 0.13818,-0.0638 0.14882,-0.0531 0.13819,-0.0532 0.14882,-0.0531 0.14882,-0.0425 0.15945,-0.0319 0.15945,-0.0319 0.15945,-0.0213 0.17008,-0.0213 0.15944,-0.0106 0.18071,0 c 0.26575,0 1.52008,0 2.63622,0.68032 -1.47756,0.26575 -2.54055,1.59449 -2.54055,2.85945 0,0.83976 0.58465,1.86023 2.00906,1.86023 1.16929,0 2.85945,-0.94606 2.85945,-3.07204 0,-2.76378 -3.1252,-3.48662 -4.92166,-3.48662 -3.07204,0 -4.93228,2.8063 -5.55945,4.01811 -1.32874,-3.48661 -4.18818,-4.01811 -5.71889,-4.01811 -5.5063,0 -8.53583,6.82441 -8.53583,8.15315 0,0.5315 0.5315,0.5315 0.64843,0.5315 0.41456,0 0.58464,-0.11693 0.68031,-0.58465 1.79646,-5.6126 5.30433,-6.94134 7.10079,-6.94134 1.00984,0 2.84882,0.46772 2.84882,3.53977 0,1.63701 -0.89292,5.19803 -2.84882,12.60708 -0.8504,3.28465 -2.7,5.5063 -5.03859,5.5063 -0.31889,0 -1.5307,0 -2.63622,-0.69094 1.32874,-0.25512 2.48741,-1.36063 2.48741,-2.85945 0,-1.42441 -1.15867,-1.83898 -1.95591,-1.83898 -1.59449,0 -2.92323,1.37126 -2.92323,3.07205 0,2.42362 2.65748,3.48661 4.97481,3.48661 3.50787,0 5.39999,-3.70984 5.57007,-4.01811 0.62717,1.95591 2.54055,4.01811 5.70827,4.01811 5.46378,0 8.49331,-6.8244 8.49331,-8.15314 0,-0.5315 -0.48898,-0.5315 -0.64843,-0.5315 -0.46771,0 -0.58464,0.2126 -0.68031,0.57401 -1.74331,5.66575 -5.34685,6.94134 -7.04764,6.94134 -2.07283,0 -2.92323,-1.69015 -2.92323,-3.49724 0,-1.16929 0.3189,-2.32795 0.91418,-4.65591 z"
         id="path6946" />
      <path
         style="font-style:normal;font-variant:normal;font-weight:normal;font-stretch:normal;letter-spacing:normal;word-spacing:normal;text-anchor:start;fill:#000000;stroke:#000000;stroke-width:0;stroke-linecap:butt;stroke-linejoin:miter;stroke-miterlimit:10.43299961;stroke-opacity:1;stroke-dasharray:none;stroke-dashoffset:0"
         inkscape:connector-curvature="0"
         d="m 269.38896,264.55469 -0.0106,-0.75473 -0.0213,-0.72283 -0.0319,-0.70158 -0.0425,-0.68031 -0.0638,-0.65906 -0.0744,-0.63779 -0.0957,-0.60591 -0.11693,-0.59527 -0.13819,-0.58465 -0.15945,-0.56338 -0.18071,-0.54213 -0.20196,-0.5315 -0.22323,-0.52086 -0.25512,-0.51024 -0.27638,-0.4996 -0.14882,-0.24449 -0.15945,-0.24449 c -1.14803,-1.71142 -3.43346,-3.18898 -6.40984,-3.18898 v 1.04174 c 2.00906,0 3.93307,1.21181 4.60276,3.36968 0.59527,1.99843 0.62716,4.66654 0.62716,7.89803 0,2.73189 0,5.47441 -0.47834,7.80236 -0.7441,3.36969 -3.25276,4.18819 -4.75158,4.18819 h 0 c -1.69016,0 -3.95433,-0.99921 -4.69842,-4.03937 -0.51024,-2.17913 -0.51024,-5.21929 -0.51024,-7.95118 0,-2.71063 0,-5.53819 0.54213,-7.55787 0.78661,-2.92323 3.15708,-3.70984 4.66653,-3.70984 v -1.04174 c -8.58898,0 -8.58898,10.10906 -8.58898,12.7878 0,2.65748 0,12.55393 8.58898,12.55393 8.61024,0 8.61024,-9.89645 8.61024,-12.55393 z"
         id="path6948" />
    </g>
    <g
       id="g7052"
       transform="matrix(0.51819062,0,0,0.51819062,105.2483,-61.171598)">
      <path
         style="font-style:normal;font-variant:normal;font-weight:normal;font-stretch:normal;letter-spacing:normal;word-spacing:normal;text-anchor:start;fill:#000000;stroke:#000000;stroke-width:0;stroke-linecap:butt;stroke-linejoin:miter;stroke-miterlimit:10.43299961;stroke-opacity:1;stroke-dasharray:none;stroke-dashoffset:0"
         inkscape:connector-curvature="0"
         d="m 297.52636,231.485 -0.0319,-0.0638 -0.0319,-0.0638 -0.0319,-0.0531 -0.0319,-0.0532 -0.0319,-0.0531 -0.0319,-0.0532 -0.0213,-0.0531 -0.0319,-0.0425 -0.0319,-0.0425 -0.0213,-0.0425 -0.0319,-0.0425 -0.0319,-0.0319 -0.0319,-0.0425 -0.0213,-0.0319 -0.0425,-0.0319 -0.0319,-0.0319 -0.0319,-0.0213 -0.0425,-0.0319 -0.0319,-0.0213 -0.0425,-0.0213 -0.0425,-0.0213 -0.0532,-0.0106 -0.0425,-0.0213 -0.0531,-0.0106 -0.0532,-0.0106 -0.0638,-0.0106 -0.0638,-0.0106 -0.0638,-0.0106 -0.0744,0 -0.0744,-0.0106 -0.0744,0 -0.085,0 c -0.89292,0 -0.99921,0.26575 -1.36063,0.94606 l -0.32953,4.34764 14.24409,28.60512 h -28.55196 l 14.30787,-28.60512 0.32953,-4.34764 -17.90079,35.90788 c -0.26575,0.47834 -0.26575,0.58464 -0.26575,0.62716 0,0.43583 0.30827,0.43583 1.15866,0.43583 h 36.75827 c 0.83976,0 1.15866,0 1.15866,-0.43583 0,-0.0425 0,-0.14882 -0.26575,-0.62716 z"
         id="path6950" />
      <path
         style="font-style:normal;font-variant:normal;font-weight:normal;font-stretch:normal;letter-spacing:normal;word-spacing:normal;text-anchor:start;fill:#000000;stroke:#000000;stroke-width:0;stroke-linecap:butt;stroke-linejoin:miter;stroke-miterlimit:10.43299961;stroke-opacity:1;stroke-dasharray:none;stroke-dashoffset:0"
         inkscape:connector-curvature="0"
         d="m 335.94289,252.45784 0.0319,-0.13819 0.0425,-0.15945 0.0425,-0.17008 0.0532,-0.19134 0.0531,-0.20197 0.0638,-0.22322 0.0638,-0.23386 0.085,-0.23386 0.085,-0.24449 0.085,-0.25512 0.1063,-0.26574 0.1063,-0.25512 0.11693,-0.26575 0.12755,-0.26575 0.13819,-0.26575 0.14882,-0.26575 0.15945,-0.25511 0.15945,-0.25512 0.18071,-0.24449 0.19134,-0.23386 0.20197,-0.23386 0.20196,-0.21259 0.22323,-0.20197 0.23386,-0.19134 0.25512,-0.17008 0.25512,-0.14882 0.13819,-0.0744 0.13818,-0.0638 0.13819,-0.0531 0.14882,-0.0532 0.13819,-0.0531 0.15945,-0.0425 0.14882,-0.0319 0.15945,-0.0319 0.15945,-0.0213 0.17008,-0.0213 0.17007,-0.0106 0.17008,0 c 0.26575,0 1.53071,0 2.63622,0.68032 -1.47756,0.26575 -2.54055,1.59449 -2.54055,2.85945 0,0.83976 0.58465,1.86023 2.00906,1.86023 1.16929,0 2.85945,-0.94606 2.85945,-3.07204 0,-2.76378 -3.1252,-3.48662 -4.91103,-3.48662 -3.07204,0 -4.93228,2.8063 -5.57008,4.01811 -1.32874,-3.48661 -4.17756,-4.01811 -5.70826,-4.01811 -5.51693,0 -8.53583,6.82441 -8.53583,8.15315 0,0.5315 0.5315,0.5315 0.6378,0.5315 0.42519,0 0.58464,-0.11693 0.69094,-0.58465 1.78583,-5.6126 5.2937,-6.94134 7.09016,-6.94134 1.00984,0 2.84882,0.46772 2.84882,3.53977 0,1.63701 -0.89292,5.19803 -2.84882,12.60708 -0.8504,3.28465 -2.68937,5.5063 -5.03859,5.5063 -0.30826,0 -1.52007,0 -2.63622,-0.69094 1.32874,-0.25512 2.48741,-1.36063 2.48741,-2.85945 0,-1.42441 -1.15867,-1.83898 -1.95591,-1.83898 -1.59449,0 -2.92323,1.37126 -2.92323,3.07205 0,2.42362 2.65748,3.48661 4.98543,3.48661 3.49725,0 5.4,-3.70984 5.55945,-4.01811 0.6378,1.95591 2.54055,4.01811 5.7189,4.01811 5.46378,0 8.48268,-6.8244 8.48268,-8.15314 0,-0.5315 -0.47835,-0.5315 -0.64843,-0.5315 -0.46771,0 -0.58464,0.2126 -0.68031,0.57401 -1.74331,5.66575 -5.34685,6.94134 -7.04764,6.94134 -2.07283,0 -2.92323,-1.69015 -2.92323,-3.49724 0,-1.16929 0.3189,-2.32795 0.92481,-4.65591 z"
         id="path6952" />
      <path
         style="font-style:normal;font-variant:normal;font-weight:normal;font-stretch:normal;letter-spacing:normal;word-spacing:normal;text-anchor:start;fill:#000000;stroke:#000000;stroke-width:0;stroke-linecap:butt;stroke-linejoin:miter;stroke-miterlimit:10.43299961;stroke-opacity:1;stroke-dasharray:none;stroke-dashoffset:0"
         inkscape:connector-curvature="0"
         d="m 360.89132,252.80863 0,-0.0425 0,-0.0425 0,-0.0531 0,-0.0425 0,-0.0319 0,-0.0425 0,-0.0425 0,-0.0319 -0.0106,-0.0425 0,-0.0319 0,-0.0319 0,-0.0319 0,-0.0319 -0.0106,-0.0319 0,-0.0319 0,-0.0213 -0.0106,-0.0319 0,-0.0213 -0.0106,-0.0319 0,-0.0213 -0.0213,-0.0425 -0.0106,-0.0425 -0.0213,-0.0319 -0.0213,-0.0319 -0.0213,-0.0319 -0.0213,-0.0319 -0.0319,-0.0213 -0.0319,-0.0213 -0.0425,-0.0213 -0.0319,-0.0106 -0.0425,-0.0106 -0.0531,-0.0213 -0.0213,0 -0.0319,0 -0.0213,-0.0106 -0.0319,0 -0.0213,-0.0106 -0.0319,0 -0.0319,0 -0.0319,0 -0.0425,0 -0.0319,-0.0106 -0.0319,0 -0.0425,0 -0.0425,0 -0.0319,0 -0.0425,0 -0.0425,0 -0.0425,0 -0.0532,0 -0.0425,0 -0.0532,0 c -2.37047,2.33859 -5.72952,2.37048 -7.2496,2.37048 v 1.32874 c 0.89291,0 3.33779,0 5.35748,-1.03111 v 18.88937 c 0,1.23307 0,1.71142 -3.69921,1.71142 h -1.39252 v 1.32874 c 0.65905,-0.0319 5.20866,-0.14882 6.59055,-0.14882 1.14803,0 5.81456,0.11693 6.62244,0.14882 v -1.32874 h -1.41378 c -3.69921,0 -3.69921,-0.47835 -3.69921,-1.71142 z"
         id="path6954" />
    </g>
    <g
       id="g7057"
       transform="matrix(0.51819062,0,0,0.51819062,307.88848,-62.140323)">
      <path
         style="font-style:normal;font-variant:normal;font-weight:normal;font-stretch:normal;letter-spacing:normal;word-spacing:normal;text-anchor:start;fill:#000000;stroke:#000000;stroke-width:0;stroke-linecap:butt;stroke-linejoin:miter;stroke-miterlimit:10.43299961;stroke-opacity:1;stroke-dasharray:none;stroke-dashoffset:0"
         inkscape:connector-curvature="0"
         d="m 395.61927,231.485 -0.0425,-0.0638 -0.0319,-0.0638 -0.0319,-0.0531 -0.0213,-0.0532 -0.0319,-0.0531 -0.0319,-0.0532 -0.0319,-0.0531 -0.0213,-0.0425 -0.0319,-0.0425 -0.0319,-0.0425 -0.0213,-0.0425 -0.0319,-0.0319 -0.0319,-0.0425 -0.0319,-0.0319 -0.0319,-0.0319 -0.0319,-0.0319 -0.0319,-0.0213 -0.0425,-0.0319 -0.0425,-0.0213 -0.0319,-0.0213 -0.0532,-0.0213 -0.0425,-0.0106 -0.0532,-0.0213 -0.0532,-0.0106 -0.0531,-0.0106 -0.0532,-0.0106 -0.0638,-0.0106 -0.0638,-0.0106 -0.0744,0 -0.0744,-0.0106 -0.0744,0 -0.085,0 c -0.90354,0 -0.99921,0.26575 -1.36063,0.94606 l -0.34016,4.34764 14.25473,28.60512 h -28.55197 l 14.29724,-28.60512 0.34016,-4.34764 -17.91142,35.90788 c -0.26575,0.47834 -0.26575,0.58464 -0.26575,0.62716 0,0.43583 0.3189,0.43583 1.1693,0.43583 h 36.75826 c 0.83977,0 1.15866,0 1.15866,-0.43583 0,-0.0425 0,-0.14882 -0.26574,-0.62716 z"
         id="path6956" />
      <path
         style="font-style:normal;font-variant:normal;font-weight:normal;font-stretch:normal;letter-spacing:normal;word-spacing:normal;text-anchor:start;fill:#000000;stroke:#000000;stroke-width:0;stroke-linecap:butt;stroke-linejoin:miter;stroke-miterlimit:10.43299961;stroke-opacity:1;stroke-dasharray:none;stroke-dashoffset:0"
         inkscape:connector-curvature="0"
         d="m 434.0358,252.45784 0.0319,-0.13819 0.0319,-0.15945 0.0532,-0.17008 0.0425,-0.19134 0.0638,-0.20197 0.0638,-0.22322 0.0638,-0.23386 0.0744,-0.23386 0.085,-0.24449 0.0957,-0.25512 0.1063,-0.26574 0.1063,-0.25512 0.11693,-0.26575 0.12756,-0.26575 0.13818,-0.26575 0.14882,-0.26575 0.14882,-0.25511 0.17008,-0.25512 0.18071,-0.24449 0.18071,-0.23386 0.20197,-0.23386 0.21259,-0.21259 0.22323,-0.20197 0.23386,-0.19134 0.24449,-0.17008 0.26575,-0.14882 0.12756,-0.0744 0.13819,-0.0638 0.14881,-0.0531 0.13819,-0.0532 0.14882,-0.0531 0.14882,-0.0425 0.15945,-0.0319 0.15945,-0.0319 0.15945,-0.0213 0.17008,-0.0213 0.15945,-0.0106 0.1807,0 c 0.26575,0 1.52008,0 2.63622,0.68032 -1.47755,0.26575 -2.54055,1.59449 -2.54055,2.85945 0,0.83976 0.58465,1.86023 2.00906,1.86023 1.16929,0 2.85945,-0.94606 2.85945,-3.07204 0,-2.76378 -3.1252,-3.48662 -4.92166,-3.48662 -3.07204,0 -4.93228,2.8063 -5.55945,4.01811 -1.32874,-3.48661 -4.18818,-4.01811 -5.71889,-4.01811 -5.5063,0 -8.53583,6.82441 -8.53583,8.15315 0,0.5315 0.5315,0.5315 0.64843,0.5315 0.41456,0 0.58464,-0.11693 0.68031,-0.58465 1.79646,-5.6126 5.30433,-6.94134 7.09016,-6.94134 1.02047,0 2.85945,0.46772 2.85945,3.53977 0,1.63701 -0.89292,5.19803 -2.85945,12.60708 -0.83977,3.28465 -2.68937,5.5063 -5.02795,5.5063 -0.3189,0 -1.53071,0 -2.63622,-0.69094 1.32874,-0.25512 2.4874,-1.36063 2.4874,-2.85945 0,-1.42441 -1.15866,-1.83898 -1.95591,-1.83898 -1.59449,0 -2.92323,1.37126 -2.92323,3.07205 0,2.42362 2.65748,3.48661 4.97481,3.48661 3.50787,0 5.4,-3.70984 5.57007,-4.01811 0.62717,1.95591 2.54056,4.01811 5.70827,4.01811 5.46378,0 8.49331,-6.8244 8.49331,-8.15314 0,-0.5315 -0.48898,-0.5315 -0.64843,-0.5315 -0.46771,0 -0.58464,0.2126 -0.68031,0.57401 -1.74331,5.66575 -5.34685,6.94134 -7.04764,6.94134 -2.07283,0 -2.92323,-1.69015 -2.92323,-3.49724 0,-1.16929 0.3189,-2.32795 0.91418,-4.65591 z"
         id="path6958" />
      <path
         style="font-style:normal;font-variant:normal;font-weight:normal;font-stretch:normal;letter-spacing:normal;word-spacing:normal;text-anchor:start;fill:#000000;stroke:#000000;stroke-width:0;stroke-linecap:butt;stroke-linejoin:miter;stroke-miterlimit:10.43299961;stroke-opacity:1;stroke-dasharray:none;stroke-dashoffset:0"
         inkscape:connector-curvature="0"
         d="m 451.09683,274.03658 -0.0106,0.0425 -0.0213,0.0532 -0.0106,0.0425 -0.0106,0.0531 -0.0213,0.0532 -0.0106,0.0638 -0.0213,0.0531 -0.0106,0.0532 -0.0319,0.11693 -0.0319,0.11693 -0.0319,0.12756 -0.0213,0.1063 -0.0213,0.0638 -0.0106,0.0532 -0.0106,0.0531 -0.0106,0.0532 -0.0106,0.0532 -0.0106,0.0425 -0.0106,0.0532 -0.0106,0.0425 -0.0106,0.0319 0,0.0425 -0.0106,0.0319 0,0.0319 -0.0106,0.0213 0,0.0213 0,0.0106 0,0.0106 0,0.0106 0,0 c 0,0.8185 0.65905,1.17992 1.25433,1.17992 0.66968,0 1.25433,-0.47835 1.44567,-0.80788 0.18071,-0.34015 0.48898,-1.52008 0.66968,-2.29606 0.18071,-0.70157 0.57402,-2.41299 0.80788,-3.33779 0.22323,-0.81851 0.45708,-1.62638 0.63779,-2.47678 0.39331,-1.5307 0.47835,-1.80708 1.54134,-3.33779 1.04173,-1.47756 2.79567,-3.40158 5.55945,-3.40158 2.14724,0 2.17913,1.89213 2.17913,2.5937 0,2.22166 -1.57322,6.32481 -2.17913,7.88741 -0.40394,1.04173 -0.56339,1.37126 -0.56339,2.00905 0,1.95591 1.64764,3.16772 3.52914,3.16772 3.69921,0 5.32559,-5.09173 5.32559,-5.66575 0,-0.47835 -0.47835,-0.47835 -0.58465,-0.47835 -0.53149,0 -0.56338,0.2126 -0.7122,0.62717 -0.83977,2.96575 -2.43425,4.48583 -3.91181,4.48583 -0.78662,0 -0.93544,-0.51024 -0.93544,-1.29686 0,-0.83976 0.18071,-1.32874 0.8504,-2.99763 0.44645,-1.14803 1.97716,-5.07048 1.97716,-7.14331 0,-3.60354 -2.85945,-4.22008 -4.81535,-4.22008 -3.08268,0 -5.15551,1.87087 -6.27165,3.35906 -0.26575,-2.55118 -2.43426,-3.35906 -3.96496,-3.35906 -1.59449,0 -2.44489,1.14803 -2.92323,1.9878 -0.81851,1.37126 -1.32874,3.49724 -1.32874,3.67795 0,0.47835 0.51023,0.47835 0.63779,0.47835 0.51024,0 0.54213,-0.11693 0.80788,-1.11615 0.55275,-2.18976 1.26496,-3.99685 2.71063,-3.99685 0.95669,0 1.21181,0.80788 1.21181,1.80709 0,0.71221 -0.34016,2.07284 -0.60591,3.07205 -0.24449,1.00984 -0.6059,2.52992 -0.80787,3.33779 z"
         id="path6960" />
      <path
         style="font-style:normal;font-variant:normal;font-weight:normal;font-stretch:normal;letter-spacing:normal;word-spacing:normal;text-anchor:start;fill:#000000;stroke:#000000;stroke-width:0;stroke-linecap:butt;stroke-linejoin:miter;stroke-miterlimit:10.43299961;stroke-opacity:1;stroke-dasharray:none;stroke-dashoffset:0"
         inkscape:connector-curvature="0"
         d="m 500.28147,267.98815 0.0531,0 0.0638,0 0.11693,0 0.12756,0 0.0638,-0.0106 0.0532,0 0.0638,-0.0106 0.0638,0 0.0638,-0.0106 0.0638,-0.0106 0.0531,-0.0106 0.0638,-0.0213 0.0531,-0.0106 0.0638,-0.0213 0.0532,-0.0213 0.0532,-0.0319 0.0425,-0.0213 0.0532,-0.0319 0.0425,-0.0425 0.0425,-0.0319 0.0425,-0.0425 0.0213,-0.0213 0.0106,-0.0213 0.0213,-0.0319 0.0106,-0.0213 0.0213,-0.0213 0.0106,-0.0319 0.0106,-0.0319 0.0106,-0.0213 0.0106,-0.0319 0.0106,-0.0319 0.0106,-0.0319 0.0106,-0.0319 0.0106,-0.0425 0,-0.0319 0,-0.0425 0.0106,-0.0319 0,-0.0425 0,-0.0425 c 0,-0.91417 -0.85039,-0.91417 -1.47756,-0.91417 h -22.07835 c -0.59527,0 -1.47755,0 -1.47755,0.88228 0,0.9248 0.85039,0.9248 1.47755,0.9248 z"
         id="path6962" />
      <path
         style="font-style:normal;font-variant:normal;font-weight:normal;font-stretch:normal;letter-spacing:normal;word-spacing:normal;text-anchor:start;fill:#000000;stroke:#000000;stroke-width:0;stroke-linecap:butt;stroke-linejoin:miter;stroke-miterlimit:10.43299961;stroke-opacity:1;stroke-dasharray:none;stroke-dashoffset:0"
         inkscape:connector-curvature="0"
         d="m 518.17163,252.80863 0,-0.0425 0,-0.0425 0,-0.0531 0,-0.0425 0,-0.0319 0,-0.0425 -0.0106,-0.0425 0,-0.0319 0,-0.0425 0,-0.0319 0,-0.0319 0,-0.0319 -0.0106,-0.0319 0,-0.0319 0,-0.0319 -0.0106,-0.0213 0,-0.0319 -0.0106,-0.0213 0,-0.0319 -0.0106,-0.0213 -0.0106,-0.0425 -0.0106,-0.0425 -0.0213,-0.0319 -0.0213,-0.0319 -0.0213,-0.0319 -0.0319,-0.0319 -0.0213,-0.0213 -0.0319,-0.0213 -0.0425,-0.0213 -0.0425,-0.0106 -0.0425,-0.0106 -0.0425,-0.0213 -0.0213,0 -0.0319,0 -0.0213,-0.0106 -0.0319,0 -0.0319,-0.0106 -0.0319,0 -0.0319,0 -0.0319,0 -0.0319,0 -0.0319,-0.0106 -0.0425,0 -0.0319,0 -0.0425,0 -0.0425,0 -0.0319,0 -0.0532,0 -0.0425,0 -0.0425,0 -0.0425,0 -0.0532,0 c -2.37048,2.33859 -5.72953,2.37048 -7.26024,2.37048 v 1.32874 c 0.90354,0 3.3378,0 5.36811,-1.03111 v 18.88937 c 0,1.23307 0,1.71142 -3.69921,1.71142 H 510.061 v 1.32874 c 0.66968,-0.0319 5.21929,-0.14882 6.60118,-0.14882 1.1374,0 5.80394,0.11693 6.62244,0.14882 v -1.32874 h -1.41378 c -3.69921,0 -3.69921,-0.47835 -3.69921,-1.71142 z"
         id="path6964" />
    </g>
  </g>
</svg>
