<?xml version="1.0" encoding="UTF-8" standalone="no"?>
<!-- Created with Inkscape (http://www.inkscape.org/) -->

<svg
   xmlns:dc="http://purl.org/dc/elements/1.1/"
   xmlns:cc="http://creativecommons.org/ns#"
   xmlns:rdf="http://www.w3.org/1999/02/22-rdf-syntax-ns#"
   xmlns:svg="http://www.w3.org/2000/svg"
   xmlns="http://www.w3.org/2000/svg"
   xmlns:sodipodi="http://sodipodi.sourceforge.net/DTD/sodipodi-0.dtd"
   xmlns:inkscape="http://www.inkscape.org/namespaces/inkscape"
   width="744.09448819"
   height="1052.3622047"
   id="svg4580"
   version="1.1"
   inkscape:version="0.48.5 r10040"
   sodipodi:docname="subgrid.svg"
   inkscape:export-filename="/home/uranix/crec/Slides/03-Integration/images/subgrid.png"
   inkscape:export-xdpi="150"
   inkscape:export-ydpi="150">
  <sodipodi:namedview
     id="base"
     pagecolor="#ffffff"
     bordercolor="#666666"
     borderopacity="1.0"
     inkscape:pageopacity="0.0"
     inkscape:pageshadow="2"
     inkscape:zoom="0.62935266"
     inkscape:cx="-27.271773"
     inkscape:cy="867.20476"
     inkscape:document-units="px"
     inkscape:current-layer="layer1"
     showgrid="false"
     inkscape:window-width="1598"
     inkscape:window-height="852"
     inkscape:window-x="0"
     inkscape:window-y="24"
     inkscape:window-maximized="0" />
  <defs
     id="defs4582">
    <marker
       style="overflow:visible"
       id="DotL"
       refX="0.0"
       refY="0.0"
       orient="auto"
       inkscape:stockid="DotL">
      <path
         transform="scale(0.8) translate(7.4, 1)"
         style="fill-rule:evenodd;stroke:#000000;stroke-width:1.0pt"
         d="M -2.5,-1.0 C -2.5,1.7600000 -4.7400000,4.0 -7.5,4.0 C -10.260000,4.0 -12.5,1.7600000 -12.5,-1.0 C -12.5,-3.7600000 -10.260000,-6.0 -7.5,-6.0 C -4.7400000,-6.0 -2.5,-3.7600000 -2.5,-1.0 z "
         id="path3820" />
    </marker>
    <marker
       style="overflow:visible"
       id="DotS"
       refX="0.0"
       refY="0.0"
       orient="auto"
       inkscape:stockid="DotS">
      <path
         transform="scale(0.2) translate(7.4, 1)"
         style="fill-rule:evenodd;stroke:#000000;stroke-width:1.0pt"
         d="M -2.5,-1.0 C -2.5,1.7600000 -4.7400000,4.0 -7.5,4.0 C -10.260000,4.0 -12.5,1.7600000 -12.5,-1.0 C -12.5,-3.7600000 -10.260000,-6.0 -7.5,-6.0 C -4.7400000,-6.0 -2.5,-3.7600000 -2.5,-1.0 z "
         id="path3826" />
    </marker>
  </defs>
  <metadata
     id="metadata4585">
    <rdf:RDF>
      <cc:Work
         rdf:about="">
        <dc:format>image/svg+xml</dc:format>
        <dc:type
           rdf:resource="http://purl.org/dc/dcmitype/StillImage" />
        <dc:title></dc:title>
      </cc:Work>
    </rdf:RDF>
  </metadata>
  <g
     inkscape:label="Layer 1"
     inkscape:groupmode="layer"
     id="layer1">
    <g
       transform="matrix(0.65448807,0,0,0.65448807,-106.21894,-46.606549)"
       id="g4702">
      <path
         id="path4596"
         d="m 315.87873,341.48623 0.0319,-0.13819 0.0425,-0.15945 0.0425,-0.17008 0.0425,-0.19134 0.0638,-0.20197 0.0638,-0.22322 0.0638,-0.23386 0.0744,-0.23386 0.085,-0.24449 0.0957,-0.25512 0.10629,-0.26574 0.1063,-0.25512 0.11693,-0.26575 0.12756,-0.26575 0.13819,-0.26575 0.14882,-0.26575 0.15945,-0.25511 0.15945,-0.25512 0.18071,-0.24449 0.19133,-0.23386 0.19134,-0.23386 0.2126,-0.21259 0.22323,-0.20197 0.23386,-0.19134 0.24449,-0.17008 0.26574,-0.14882 0.12756,-0.0744 0.13819,-0.0638 0.14882,-0.0532 0.13819,-0.0531 0.14882,-0.0532 0.14882,-0.0425 0.15945,-0.0319 0.15945,-0.0319 0.15944,-0.0213 0.17008,-0.0213 0.17008,-0.0106 0.17008,0 c 0.26575,0 1.53071,0 2.63622,0.68032 -1.47756,0.26575 -2.54055,1.59449 -2.54055,2.85945 0,0.83976 0.58465,1.86023 2.00906,1.86023 1.16929,0 2.85944,-0.94606 2.85944,-3.07204 0,-2.76378 -3.12519,-3.48662 -4.92165,-3.48662 -3.07205,0 -4.93228,2.8063 -5.55945,4.01811 -1.32874,-3.48661 -4.18819,-4.01811 -5.70827,-4.01811 -5.51692,0 -8.54645,6.82441 -8.54645,8.15315 0,0.5315 0.53149,0.5315 0.64842,0.5315 0.41457,0 0.58465,-0.11693 0.68032,-0.58465 1.79645,-5.6126 5.30433,-6.94134 7.10079,-6.94134 1.00984,0 2.84881,0.46772 2.84881,3.53977 0,1.63701 -0.89291,5.19803 -2.84881,12.60708 -0.8504,3.28465 -2.7,5.5063 -5.03859,5.5063 -0.31889,0 -1.53071,0 -2.63622,-0.69094 1.32874,-0.25512 2.4874,-1.36063 2.4874,-2.85945 0,-1.42441 -1.15866,-1.83898 -1.9559,-1.83898 -1.59449,0 -2.92323,1.37126 -2.92323,3.07205 0,2.42362 2.65748,3.48661 4.9748,3.48661 3.50788,0 5.4,-3.70984 5.57008,-4.01811 0.62717,1.95591 2.54055,4.01811 5.70827,4.01811 5.46378,0 8.49331,-6.8244 8.49331,-8.15314 0,-0.5315 -0.47835,-0.5315 -0.64843,-0.5315 -0.46772,0 -0.58464,0.2126 -0.68031,0.57401 -1.74331,5.66575 -5.34685,6.94134 -7.04764,6.94134 -2.07284,0 -2.92323,-1.69015 -2.92323,-3.49724 0,-1.16929 0.3189,-2.32795 0.91417,-4.65591 z"
         inkscape:connector-curvature="0"
         style="font-style:normal;font-variant:normal;font-weight:normal;font-stretch:normal;letter-spacing:normal;word-spacing:normal;text-anchor:start;fill:#000000;stroke:#000000;stroke-width:0;stroke-linecap:butt;stroke-linejoin:miter;stroke-miterlimit:10.43299961;stroke-opacity:1;stroke-dasharray:none;stroke-dashoffset:0" />
      <path
         id="path4598"
         d="m 340.43385,342.24095 0,-0.0532 -0.0106,-0.0638 0,-0.0531 -0.0106,-0.0638 -0.0106,-0.0532 -0.0213,-0.0638 -0.0106,-0.0531 -0.0213,-0.0638 -0.0319,-0.0638 -0.0213,-0.0531 -0.0319,-0.0638 -0.0319,-0.0532 -0.0319,-0.0638 -0.0425,-0.0531 -0.0319,-0.0532 -0.0532,-0.0532 -0.0425,-0.0532 -0.0531,-0.0531 -0.0532,-0.0425 -0.0532,-0.0532 -0.0638,-0.0425 -0.0638,-0.0319 -0.0638,-0.0425 -0.0638,-0.0319 -0.0744,-0.0319 -0.0744,-0.0319 -0.085,-0.0213 -0.085,-0.0213 -0.085,-0.0106 -0.085,-0.0106 -0.0957,-0.0106 -0.0957,0 c -0.99921,0 -2.07284,0.96733 -2.07284,2.04095 0,0.62716 0.47835,1.41378 1.48819,1.41378 1.063,0 2.08347,-1.05237 2.08347,-2.04095 z"
         inkscape:connector-curvature="0"
         style="font-style:normal;font-variant:normal;font-weight:normal;font-stretch:normal;letter-spacing:normal;word-spacing:normal;text-anchor:start;fill:#000000;stroke:#000000;stroke-width:0;stroke-linecap:butt;stroke-linejoin:miter;stroke-miterlimit:10.43299961;stroke-opacity:1;stroke-dasharray:none;stroke-dashoffset:0" />
      <path
         id="path4600"
         d="m 332.87597,361.05591 -0.0638,0.18071 -0.0531,0.18071 -0.0319,0.085 -0.0213,0.0957 -0.0319,0.085 -0.0213,0.0957 -0.0213,0.0957 -0.0213,0.0957 -0.0213,0.10629 -0.0106,0.0957 -0.0213,0.1063 0,0.0532 -0.0106,0.0532 0,0.0638 0,0.0532 0,0.0532 0,0.0638 c 0,1.74331 1.47756,3.13583 3.49724,3.13583 3.70984,0 5.34685,-5.09173 5.34685,-5.66575 0,-0.47835 -0.47835,-0.47835 -0.59528,-0.47835 -0.51023,0 -0.56338,0.2126 -0.7122,0.62717 -0.85039,2.96575 -2.47677,4.48583 -3.92244,4.48583 -0.7441,0 -0.9248,-0.47835 -0.9248,-1.29686 0,-0.83976 0.26574,-1.55196 0.59527,-2.37047 0.36142,-0.99921 0.77599,-1.98779 1.17992,-2.95512 0.32953,-0.89291 1.67953,-4.27322 1.82835,-4.71968 0.0957,-0.36142 0.2126,-0.80787 0.2126,-1.17992 0,-1.74331 -1.47756,-3.13583 -3.51851,-3.13583 -3.66732,0 -5.36811,5.02795 -5.36811,5.66575 0,0.47835 0.52087,0.47835 0.6378,0.47835 0.51024,0 0.54212,-0.18071 0.65905,-0.59528 0.96733,-3.18898 2.5937,-4.51772 3.95433,-4.51772 0.59528,0 0.92481,0.29764 0.92481,1.29685 0,0.83977 -0.2126,1.40315 -1.1374,3.69922 z"
         inkscape:connector-curvature="0"
         style="font-style:normal;font-variant:normal;font-weight:normal;font-stretch:normal;letter-spacing:normal;word-spacing:normal;text-anchor:start;fill:#000000;stroke:#000000;stroke-width:0;stroke-linecap:butt;stroke-linejoin:miter;stroke-miterlimit:10.43299961;stroke-opacity:1;stroke-dasharray:none;stroke-dashoffset:0" />
    </g>
    <g
       transform="matrix(0.65448807,0,0,0.65448807,366.18536,-45.101902)"
       id="g4707">
      <path
         id="path4602"
         d="m 363.84093,341.48623 0.0319,-0.13819 0.0425,-0.15945 0.0425,-0.17008 0.0425,-0.19134 0.0638,-0.20197 0.0638,-0.22322 0.0638,-0.23386 0.085,-0.23386 0.085,-0.24449 0.085,-0.25512 0.1063,-0.26574 0.1063,-0.25512 0.11693,-0.26575 0.12756,-0.26575 0.13818,-0.26575 0.14882,-0.26575 0.15945,-0.25511 0.15945,-0.25512 0.18071,-0.24449 0.19134,-0.23386 0.19134,-0.23386 0.2126,-0.21259 0.22322,-0.20197 0.23386,-0.19134 0.24449,-0.17008 0.26575,-0.14882 0.13819,-0.0744 0.13819,-0.0638 0.13819,-0.0532 0.13818,-0.0531 0.14882,-0.0532 0.15945,-0.0425 0.14882,-0.0319 0.15945,-0.0319 0.15945,-0.0213 0.17008,-0.0213 0.17008,-0.0106 0.17007,0 c 0.26575,0 1.53071,0 2.63622,0.68032 -1.47755,0.26575 -2.54055,1.59449 -2.54055,2.85945 0,0.83976 0.58465,1.86023 2.00906,1.86023 1.16929,0 2.85945,-0.94606 2.85945,-3.07204 0,-2.76378 -3.1252,-3.48662 -4.91103,-3.48662 -3.07204,0 -4.94291,2.8063 -5.57007,4.01811 -1.32874,-3.48661 -4.18819,-4.01811 -5.70827,-4.01811 -5.51693,0 -8.54646,6.82441 -8.54646,8.15315 0,0.5315 0.5315,0.5315 0.64843,0.5315 0.41456,0 0.58464,-0.11693 0.69094,-0.58465 1.78583,-5.6126 5.2937,-6.94134 7.09016,-6.94134 1.00984,0 2.84882,0.46772 2.84882,3.53977 0,1.63701 -0.89292,5.19803 -2.84882,12.60708 -0.85039,3.28465 -2.68937,5.5063 -5.03858,5.5063 -0.30827,0 -1.52008,0 -2.63622,-0.69094 1.32874,-0.25512 2.4874,-1.36063 2.4874,-2.85945 0,-1.42441 -1.15866,-1.83898 -1.95591,-1.83898 -1.59449,0 -2.92323,1.37126 -2.92323,3.07205 0,2.42362 2.65748,3.48661 4.98544,3.48661 3.49724,0 5.38937,-3.70984 5.55945,-4.01811 0.62716,1.95591 2.54055,4.01811 5.71889,4.01811 5.46378,0 8.48268,-6.8244 8.48268,-8.15314 0,-0.5315 -0.47835,-0.5315 -0.64843,-0.5315 -0.46771,0 -0.58464,0.2126 -0.68031,0.57401 -1.74331,5.66575 -5.34685,6.94134 -7.04764,6.94134 -2.07283,0 -2.92323,-1.69015 -2.92323,-3.49724 0,-1.16929 0.3189,-2.32795 0.91418,-4.65591 z"
         inkscape:connector-curvature="0"
         style="font-style:normal;font-variant:normal;font-weight:normal;font-stretch:normal;letter-spacing:normal;word-spacing:normal;text-anchor:start;fill:#000000;stroke:#000000;stroke-width:0;stroke-linecap:butt;stroke-linejoin:miter;stroke-miterlimit:10.43299961;stroke-opacity:1;stroke-dasharray:none;stroke-dashoffset:0" />
      <path
         id="path4604"
         d="m 388.39605,342.24095 -0.0106,-0.0532 0,-0.0638 -0.0106,-0.0531 -0.0106,-0.0638 -0.0106,-0.0532 -0.0106,-0.0638 -0.0213,-0.0531 -0.0213,-0.0638 -0.0213,-0.0638 -0.0213,-0.0531 -0.0319,-0.0638 -0.0319,-0.0532 -0.0319,-0.0638 -0.0425,-0.0531 -0.0425,-0.0532 -0.0425,-0.0532 -0.0425,-0.0532 -0.0532,-0.0531 -0.0532,-0.0425 -0.0531,-0.0532 -0.0638,-0.0425 -0.0638,-0.0319 -0.0638,-0.0425 -0.0744,-0.0319 -0.0638,-0.0319 -0.085,-0.0319 -0.0744,-0.0213 -0.085,-0.0213 -0.085,-0.0106 -0.085,-0.0106 -0.0957,-0.0106 -0.0957,0 c -0.99921,0 -2.07283,0.96733 -2.07283,2.04095 0,0.62716 0.47834,1.41378 1.48819,1.41378 1.06299,0 2.08346,-1.05237 2.08346,-2.04095 z"
         inkscape:connector-curvature="0"
         style="font-style:normal;font-variant:normal;font-weight:normal;font-stretch:normal;letter-spacing:normal;word-spacing:normal;text-anchor:start;fill:#000000;stroke:#000000;stroke-width:0;stroke-linecap:butt;stroke-linejoin:miter;stroke-miterlimit:10.43299961;stroke-opacity:1;stroke-dasharray:none;stroke-dashoffset:0" />
      <path
         id="path4606"
         d="m 380.83818,361.05591 -0.0638,0.18071 -0.0532,0.18071 -0.0319,0.085 -0.0213,0.0957 -0.0319,0.085 -0.0213,0.0957 -0.0319,0.0957 -0.0213,0.0957 -0.0106,0.10629 -0.0213,0.0957 -0.0106,0.1063 -0.0106,0.0532 0,0.0532 0,0.0638 -0.0106,0.0532 0,0.0532 0,0.0638 c 0,1.74331 1.47756,3.13583 3.50787,3.13583 3.69922,0 5.34685,-5.09173 5.34685,-5.66575 0,-0.47835 -0.47834,-0.47835 -0.59527,-0.47835 -0.52087,0 -0.56339,0.2126 -0.71221,0.62717 -0.85039,2.96575 -2.47677,4.48583 -3.92244,4.48583 -0.74409,0 -0.93543,-0.47835 -0.93543,-1.29686 0,-0.83976 0.26575,-1.55196 0.60591,-2.37047 0.36141,-0.99921 0.77598,-1.98779 1.17992,-2.95512 0.32952,-0.89291 1.66889,-4.27322 1.82834,-4.71968 0.0957,-0.36142 0.2126,-0.80787 0.2126,-1.17992 0,-1.74331 -1.47756,-3.13583 -3.5185,-3.13583 -3.67796,0 -5.36811,5.02795 -5.36811,5.66575 0,0.47835 0.51023,0.47835 0.62716,0.47835 0.52087,0 0.55276,-0.18071 0.66969,-0.59528 0.95669,-3.18898 2.5937,-4.51772 3.95433,-4.51772 0.59527,0 0.9248,0.29764 0.9248,1.29685 0,0.83977 -0.2126,1.40315 -1.14803,3.69922 z"
         inkscape:connector-curvature="0"
         style="font-style:normal;font-variant:normal;font-weight:normal;font-stretch:normal;letter-spacing:normal;word-spacing:normal;text-anchor:start;fill:#000000;stroke:#000000;stroke-width:0;stroke-linecap:butt;stroke-linejoin:miter;stroke-miterlimit:10.43299961;stroke-opacity:1;stroke-dasharray:none;stroke-dashoffset:0" />
      <path
         id="path4608"
         d="m 408.46534,357.01654 h 11.32087 c 0.48897,0 1.37126,0 1.37126,-0.89291 0,-0.91417 -0.8504,-0.91417 -1.37126,-0.91417 h -11.32087 v -11.37402 c 0,-0.48898 0,-1.36063 -0.90354,-1.36063 -0.9248,0 -0.9248,0.83976 -0.9248,1.36063 v 11.37402 h -11.36339 c -0.47835,0 -1.38189,0 -1.38189,0.88228 0,0.9248 0.85039,0.9248 1.38189,0.9248 H 406.637 v 11.38465 c 0,0.47834 0,1.36063 0.89291,1.36063 0.93543,0 0.93543,-0.8504 0.93543,-1.36063 z"
         inkscape:connector-curvature="0"
         style="font-style:normal;font-variant:normal;font-weight:normal;font-stretch:normal;letter-spacing:normal;word-spacing:normal;text-anchor:start;fill:#000000;stroke:#000000;stroke-width:0;stroke-linecap:butt;stroke-linejoin:miter;stroke-miterlimit:10.43299961;stroke-opacity:1;stroke-dasharray:none;stroke-dashoffset:0" />
      <path
         id="path4610"
         d="m 436.24133,341.83702 0,-0.0425 0,-0.0425 0,-0.0532 0,-0.0425 0,-0.0319 -0.0106,-0.0425 0,-0.0425 0,-0.0319 0,-0.0425 0,-0.0319 0,-0.0319 -0.0106,-0.0319 0,-0.0319 0,-0.0319 0,-0.0319 -0.0106,-0.0213 0,-0.0319 -0.0106,-0.0213 0,-0.0319 -0.0106,-0.0213 -0.0106,-0.0425 -0.0106,-0.0425 -0.0213,-0.0319 -0.0213,-0.0319 -0.0213,-0.0319 -0.0319,-0.0319 -0.0213,-0.0213 -0.0425,-0.0213 -0.0319,-0.0213 -0.0425,-0.0106 -0.0425,-0.0106 -0.0425,-0.0213 -0.0213,0 -0.0319,0 -0.0213,-0.0106 -0.0319,0 -0.0319,-0.0106 -0.0319,0 -0.0319,0 -0.0319,0 -0.0319,0 -0.0319,-0.0106 -0.0425,0 -0.0319,0 -0.0425,0 -0.0425,0 -0.0425,0 -0.0425,0 -0.0425,0 -0.0425,0 -0.0425,0 -0.0532,0 c -2.3811,2.33859 -5.72952,2.37048 -7.26023,2.37048 v 1.32874 c 0.89291,0 3.33779,0 5.36811,-1.03111 v 18.88937 c 0,1.23307 0,1.71142 -3.70984,1.71142 h -1.39252 v 1.32874 c 0.66968,-0.0319 5.21929,-0.14882 6.60118,-0.14882 1.1374,0 5.80393,0.11693 6.62244,0.14882 v -1.32874 h -1.41378 c -3.69921,0 -3.69921,-0.47835 -3.69921,-1.71142 z"
         inkscape:connector-curvature="0"
         style="font-style:normal;font-variant:normal;font-weight:normal;font-stretch:normal;letter-spacing:normal;word-spacing:normal;text-anchor:start;fill:#000000;stroke:#000000;stroke-width:0;stroke-linecap:butt;stroke-linejoin:miter;stroke-miterlimit:10.43299961;stroke-opacity:1;stroke-dasharray:none;stroke-dashoffset:0" />
    </g>
    <g
       transform="matrix(0.65448807,0,0,0.65448807,-202.49676,-145.94484)"
       id="g4714">
      <path
         id="path4612"
         d="m 465.37794,341.48623 0.0319,-0.13819 0.0425,-0.15945 0.0425,-0.17008 0.0425,-0.19134 0.0638,-0.20197 0.0638,-0.22322 0.0638,-0.23386 0.085,-0.23386 0.085,-0.24449 0.085,-0.25512 0.1063,-0.26574 0.1063,-0.25512 0.11693,-0.26575 0.12756,-0.26575 0.13819,-0.26575 0.14882,-0.26575 0.15945,-0.25511 0.15945,-0.25512 0.18071,-0.24449 0.19133,-0.23386 0.19134,-0.23386 0.2126,-0.21259 0.22323,-0.20197 0.23386,-0.19134 0.24449,-0.17008 0.26574,-0.14882 0.12756,-0.0744 0.13819,-0.0638 0.14882,-0.0532 0.13819,-0.0531 0.14882,-0.0532 0.14882,-0.0425 0.15945,-0.0319 0.15944,-0.0319 0.15945,-0.0213 0.17008,-0.0213 0.17008,-0.0106 0.17008,0 c 0.26575,0 1.53071,0 2.63622,0.68032 -1.47756,0.26575 -2.54055,1.59449 -2.54055,2.85945 0,0.83976 0.58464,1.86023 2.00905,1.86023 1.1693,0 2.85945,-0.94606 2.85945,-3.07204 0,-2.76378 -3.12519,-3.48662 -4.92165,-3.48662 -3.06142,0 -4.92165,2.8063 -5.55945,4.01811 -1.32874,-3.48661 -4.18819,-4.01811 -5.70827,-4.01811 -5.51693,0 -8.53582,6.82441 -8.53582,8.15315 0,0.5315 0.53149,0.5315 0.63779,0.5315 0.4252,0 0.58465,-0.11693 0.69095,-0.58465 1.78582,-5.6126 5.2937,-6.94134 7.09015,-6.94134 1.00985,0 2.84882,0.46772 2.84882,3.53977 0,1.63701 -0.89291,5.19803 -2.84882,12.60708 -0.85039,3.28465 -2.7,5.5063 -5.03858,5.5063 -0.3189,0 -1.52008,0 -2.63622,-0.69094 1.32874,-0.25512 2.4874,-1.36063 2.4874,-2.85945 0,-1.42441 -1.15866,-1.83898 -1.9559,-1.83898 -1.59449,0 -2.92323,1.37126 -2.92323,3.07205 0,2.42362 2.65748,3.48661 4.9748,3.48661 3.50788,0 5.4,-3.70984 5.57008,-4.01811 0.62717,1.95591 2.54055,4.01811 5.7189,4.01811 5.45315,0 8.48268,-6.8244 8.48268,-8.15314 0,-0.5315 -0.47835,-0.5315 -0.64843,-0.5315 -0.46772,0 -0.58465,0.2126 -0.68032,0.57401 -1.7433,5.66575 -5.34685,6.94134 -7.04763,6.94134 -2.07284,0 -2.92323,-1.69015 -2.92323,-3.49724 0,-1.16929 0.3189,-2.32795 0.91417,-4.65591 z"
         inkscape:connector-curvature="0"
         style="font-style:normal;font-variant:normal;font-weight:normal;font-stretch:normal;letter-spacing:normal;word-spacing:normal;text-anchor:start;fill:#000000;stroke:#000000;stroke-width:0;stroke-linecap:butt;stroke-linejoin:miter;stroke-miterlimit:10.43299961;stroke-opacity:1;stroke-dasharray:none;stroke-dashoffset:0" />
      <path
         id="path4614"
         d="m 497.04447,326.54056 -0.0106,-0.75473 -0.0213,-0.72283 -0.0319,-0.70157 -0.0425,-0.68032 -0.0638,-0.65905 -0.0744,-0.62717 -0.0957,-0.61654 -0.11693,-0.59527 -0.13819,-0.58465 -0.15945,-0.55275 -0.18071,-0.55276 -0.20197,-0.53149 -0.22323,-0.52087 -0.25511,-0.51024 -0.27638,-0.4996 -0.14882,-0.24449 -0.15945,-0.24449 c -1.1374,-1.71142 -3.43346,-3.18898 -6.40984,-3.18898 -8.58898,0 -8.58898,10.11969 -8.58898,12.7878 0,2.65748 0,12.55394 8.58898,12.55394 v -1.04174 c -1.69016,0 -3.95433,-0.99921 -4.69843,-4.03937 -0.51023,-2.1685 -0.51023,-5.20866 -0.51023,-7.95118 0,-2.71063 0,-5.52756 0.54212,-7.55787 0.78662,-2.92323 3.15709,-3.70984 4.66654,-3.70984 2.00905,0 3.9437,1.22244 4.60275,3.38031 0.59528,1.9878 0.62717,4.66654 0.62717,7.8874 0,2.74252 0,5.47441 -0.47835,7.80236 -0.74409,3.36969 -3.25275,4.18819 -4.75157,4.18819 h 0 v 1.04174 c 8.61023,0 8.61023,-9.89646 8.61023,-12.55394 z"
         inkscape:connector-curvature="0"
         style="font-style:normal;font-variant:normal;font-weight:normal;font-stretch:normal;letter-spacing:normal;word-spacing:normal;text-anchor:start;fill:#000000;stroke:#000000;stroke-width:0;stroke-linecap:butt;stroke-linejoin:miter;stroke-miterlimit:10.43299961;stroke-opacity:1;stroke-dasharray:none;stroke-dashoffset:0" />
      <path
         id="path4616"
         d="m 489.93306,348.10867 0,-0.0532 -0.0106,-0.0532 0,-0.0638 -0.0106,-0.0531 -0.0106,-0.0638 -0.0213,-0.0638 -0.0106,-0.0532 -0.0213,-0.0638 -0.0319,-0.0531 -0.0213,-0.0638 -0.0319,-0.0638 -0.0319,-0.0532 -0.0319,-0.0531 -0.0425,-0.0638 -0.0319,-0.0531 -0.0532,-0.0531 -0.0425,-0.0532 -0.0531,-0.0425 -0.0532,-0.0531 -0.0532,-0.0425 -0.0638,-0.0425 -0.0638,-0.0425 -0.0638,-0.0425 -0.0638,-0.0319 -0.0744,-0.0319 -0.0744,-0.0213 -0.085,-0.0213 -0.0744,-0.0213 -0.0957,-0.0213 -0.085,-0.0106 -0.0957,-0.0106 -0.0957,0 c -0.99922,0 -2.07284,0.96732 -2.07284,2.04094 0,0.6378 0.47835,1.41378 1.49882,1.41378 1.06299,0 2.07284,-1.04173 2.07284,-2.04094 z"
         inkscape:connector-curvature="0"
         style="font-style:normal;font-variant:normal;font-weight:normal;font-stretch:normal;letter-spacing:normal;word-spacing:normal;text-anchor:start;fill:#000000;stroke:#000000;stroke-width:0;stroke-linecap:butt;stroke-linejoin:miter;stroke-miterlimit:10.43299961;stroke-opacity:1;stroke-dasharray:none;stroke-dashoffset:0" />
      <path
         id="path4618"
         d="m 482.37518,366.92363 -0.0532,0.18071 -0.0638,0.18071 -0.0319,0.0957 -0.0213,0.085 -0.0319,0.0957 -0.0213,0.0957 -0.0213,0.085 -0.0213,0.1063 -0.0213,0.0957 -0.0106,0.1063 -0.0213,0.1063 0,0.0532 -0.0106,0.0531 0,0.0532 0,0.0532 0,0.0638 0,0.0531 c 0,1.7433 1.47755,3.14645 3.49724,3.14645 3.70984,0 5.34685,-5.10236 5.34685,-5.66574 0,-0.48898 -0.47835,-0.48898 -0.59528,-0.48898 -0.51023,0 -0.56338,0.22323 -0.7122,0.63779 -0.85039,2.95512 -2.47677,4.48583 -3.92244,4.48583 -0.7441,0 -0.9248,-0.48897 -0.9248,-1.29685 0,-0.85039 0.26574,-1.5626 0.59527,-2.3811 0.36142,-0.98858 0.77598,-1.9878 1.17992,-2.95512 0.32953,-0.89291 1.67953,-4.2626 1.82835,-4.71968 0.0957,-0.36142 0.2126,-0.80788 0.2126,-1.1693 0,-1.75393 -1.47756,-3.14645 -3.51851,-3.14645 -3.66732,0 -5.36811,5.03858 -5.36811,5.66575 0,0.47834 0.52087,0.47834 0.6378,0.47834 0.51023,0 0.54212,-0.18071 0.65905,-0.59527 0.96733,-3.18898 2.5937,-4.51772 3.95433,-4.51772 0.59528,0 0.92481,0.29764 0.92481,1.29685 0,0.85039 -0.2126,1.41378 -1.1374,3.69921 z"
         inkscape:connector-curvature="0"
         style="font-style:normal;font-variant:normal;font-weight:normal;font-stretch:normal;letter-spacing:normal;word-spacing:normal;text-anchor:start;fill:#000000;stroke:#000000;stroke-width:0;stroke-linecap:butt;stroke-linejoin:miter;stroke-miterlimit:10.43299961;stroke-opacity:1;stroke-dasharray:none;stroke-dashoffset:0" />
    </g>
    <g
       transform="matrix(0.65448807,0,0,0.65448807,-122.57954,-150.03562)"
       id="g4720">
      <path
         id="path4620"
         d="m 519.33542,341.48623 0.0319,-0.13819 0.0425,-0.15945 0.0425,-0.17008 0.0531,-0.19134 0.0531,-0.20197 0.0638,-0.22322 0.0638,-0.23386 0.085,-0.23386 0.085,-0.24449 0.085,-0.25512 0.1063,-0.26574 0.1063,-0.25512 0.11693,-0.26575 0.12756,-0.26575 0.13819,-0.26575 0.14882,-0.26575 0.15945,-0.25511 0.15945,-0.25512 0.1807,-0.24449 0.19134,-0.23386 0.20197,-0.23386 0.20197,-0.21259 0.22323,-0.20197 0.23386,-0.19134 0.25511,-0.17008 0.25512,-0.14882 0.13819,-0.0744 0.13819,-0.0638 0.13819,-0.0532 0.14882,-0.0531 0.13819,-0.0532 0.15945,-0.0425 0.14882,-0.0319 0.15944,-0.0319 0.15945,-0.0213 0.17008,-0.0213 0.17008,-0.0106 0.17008,0 c 0.26575,0 1.53071,0 2.63622,0.68032 -1.47756,0.26575 -2.54055,1.59449 -2.54055,2.85945 0,0.83976 0.58464,1.86023 2.00905,1.86023 1.16929,0 2.85945,-0.94606 2.85945,-3.07204 0,-2.76378 -3.12519,-3.48662 -4.91102,-3.48662 -3.07205,0 -4.93228,2.8063 -5.57008,4.01811 -1.32874,-3.48661 -4.17756,-4.01811 -5.70827,-4.01811 -5.51693,0 -8.53582,6.82441 -8.53582,8.15315 0,0.5315 0.53149,0.5315 0.64842,0.5315 0.41457,0 0.57402,-0.11693 0.68032,-0.58465 1.78582,-5.6126 5.2937,-6.94134 7.09015,-6.94134 1.00985,0 2.85945,0.46772 2.85945,3.53977 0,1.63701 -0.90354,5.19803 -2.85945,12.60708 -0.85039,3.28465 -2.68937,5.5063 -5.03858,5.5063 -0.30827,0 -1.52008,0 -2.63622,-0.69094 1.32874,-0.25512 2.4874,-1.36063 2.4874,-2.85945 0,-1.42441 -1.15866,-1.83898 -1.9559,-1.83898 -1.59449,0 -2.92323,1.37126 -2.92323,3.07205 0,2.42362 2.65748,3.48661 4.98543,3.48661 3.49724,0 5.38937,-3.70984 5.55945,-4.01811 0.63779,1.95591 2.54055,4.01811 5.7189,4.01811 5.46378,0 8.48267,-6.8244 8.48267,-8.15314 0,-0.5315 -0.47834,-0.5315 -0.64842,-0.5315 -0.46772,0 -0.58465,0.2126 -0.68032,0.57401 -1.7433,5.66575 -5.34685,6.94134 -7.037,6.94134 -2.08347,0 -2.92323,-1.69015 -2.92323,-3.49724 0,-1.16929 0.30827,-2.32795 0.91417,-4.65591 z"
         inkscape:connector-curvature="0"
         style="font-style:normal;font-variant:normal;font-weight:normal;font-stretch:normal;letter-spacing:normal;word-spacing:normal;text-anchor:start;fill:#000000;stroke:#000000;stroke-width:0;stroke-linecap:butt;stroke-linejoin:miter;stroke-miterlimit:10.43299961;stroke-opacity:1;stroke-dasharray:none;stroke-dashoffset:0" />
      <path
         id="path4622"
         d="m 544.28384,314.7945 0,-0.0425 0,-0.0425 0,-0.0425 0,-0.0425 0,-0.0425 0,-0.0425 0,-0.0425 0,-0.0319 -0.0106,-0.0425 0,-0.0319 0,-0.0319 0,-0.0319 0,-0.0319 -0.0106,-0.0319 0,-0.0319 0,-0.0213 -0.0106,-0.0319 0,-0.0213 -0.0106,-0.0213 0,-0.0319 -0.0213,-0.0425 -0.0106,-0.0425 -0.0213,-0.0319 -0.0213,-0.0319 -0.0213,-0.0319 -0.0213,-0.0319 -0.0319,-0.0213 -0.0319,-0.0213 -0.0319,-0.0106 -0.0425,-0.0213 -0.0425,-0.0106 -0.0531,-0.0106 -0.0213,-0.0106 -0.0213,0 -0.0319,-0.0106 -0.0319,0 -0.0213,0 -0.0319,-0.0106 -0.0319,0 -0.0319,0 -0.0425,0 -0.0319,0 -0.0319,-0.0106 -0.0425,0 -0.0319,0 -0.0425,0 -0.0425,0 -0.0425,0 -0.0425,0 -0.0531,0 -0.0425,0 -0.0532,0 c -2.37047,2.33859 -5.72953,2.37048 -7.24961,2.37048 v 1.32874 c 0.89292,0 3.3378,0 5.35748,-1.02048 v 18.87874 c 0,1.23307 0,1.71142 -3.69921,1.71142 h -1.39252 v 1.32874 c 0.65906,-0.0319 5.20866,-0.14882 6.59055,-0.14882 1.14804,0 5.81457,0.11693 6.62244,0.14882 v -1.32874 h -1.40315 c -3.70984,0 -3.70984,-0.47835 -3.70984,-1.71142 z"
         inkscape:connector-curvature="0"
         style="font-style:normal;font-variant:normal;font-weight:normal;font-stretch:normal;letter-spacing:normal;word-spacing:normal;text-anchor:start;fill:#000000;stroke:#000000;stroke-width:0;stroke-linecap:butt;stroke-linejoin:miter;stroke-miterlimit:10.43299961;stroke-opacity:1;stroke-dasharray:none;stroke-dashoffset:0" />
      <path
         id="path4624"
         d="m 543.89054,348.10867 -0.0106,-0.0532 0,-0.0532 -0.0106,-0.0638 0,-0.0531 -0.0213,-0.0638 -0.0106,-0.0638 -0.0213,-0.0532 -0.0213,-0.0638 -0.0213,-0.0531 -0.0213,-0.0638 -0.0319,-0.0638 -0.0319,-0.0532 -0.0319,-0.0531 -0.0425,-0.0638 -0.0425,-0.0531 -0.0425,-0.0531 -0.0425,-0.0532 -0.0531,-0.0425 -0.0531,-0.0531 -0.0532,-0.0425 -0.0638,-0.0425 -0.0638,-0.0425 -0.0638,-0.0425 -0.0744,-0.0319 -0.0638,-0.0319 -0.0744,-0.0213 -0.085,-0.0213 -0.085,-0.0213 -0.085,-0.0213 -0.085,-0.0106 -0.0957,-0.0106 -0.0957,0 c -0.99922,0 -2.07284,0.96732 -2.07284,2.04094 0,0.6378 0.47835,1.41378 1.48819,1.41378 1.06299,0 2.08347,-1.04173 2.08347,-2.04094 z"
         inkscape:connector-curvature="0"
         style="font-style:normal;font-variant:normal;font-weight:normal;font-stretch:normal;letter-spacing:normal;word-spacing:normal;text-anchor:start;fill:#000000;stroke:#000000;stroke-width:0;stroke-linecap:butt;stroke-linejoin:miter;stroke-miterlimit:10.43299961;stroke-opacity:1;stroke-dasharray:none;stroke-dashoffset:0" />
      <path
         id="path4626"
         d="m 536.33266,366.92363 -0.0638,0.18071 -0.0531,0.18071 -0.0319,0.0957 -0.0213,0.085 -0.0319,0.0957 -0.0213,0.0957 -0.0213,0.085 -0.0213,0.1063 -0.0213,0.0957 -0.0213,0.1063 -0.0106,0.1063 0,0.0532 -0.0106,0.0531 0,0.0532 0,0.0532 -0.0106,0.0638 0,0.0531 c 0,1.7433 1.47756,3.14645 3.50788,3.14645 3.70984,0 5.34685,-5.10236 5.34685,-5.66574 0,-0.48898 -0.47835,-0.48898 -0.59528,-0.48898 -0.51023,0 -0.56338,0.22323 -0.7122,0.63779 -0.8504,2.95512 -2.47677,4.48583 -3.92244,4.48583 -0.7441,0 -0.92481,-0.48897 -0.92481,-1.29685 0,-0.85039 0.26575,-1.5626 0.59528,-2.3811 0.36142,-0.98858 0.77598,-1.9878 1.17992,-2.95512 0.32953,-0.89291 1.67953,-4.2626 1.82835,-4.71968 0.0957,-0.36142 0.2126,-0.80788 0.2126,-1.1693 0,-1.75393 -1.47756,-3.14645 -3.51851,-3.14645 -3.67795,0 -5.36811,5.03858 -5.36811,5.66575 0,0.47834 0.51024,0.47834 0.62717,0.47834 0.52086,0 0.55275,-0.18071 0.66968,-0.59527 0.95669,-3.18898 2.5937,-4.51772 3.95433,-4.51772 0.59528,0 0.92481,0.29764 0.92481,1.29685 0,0.85039 -0.2126,1.41378 -1.14804,3.69921 z"
         inkscape:connector-curvature="0"
         style="font-style:normal;font-variant:normal;font-weight:normal;font-stretch:normal;letter-spacing:normal;word-spacing:normal;text-anchor:start;fill:#000000;stroke:#000000;stroke-width:0;stroke-linecap:butt;stroke-linejoin:miter;stroke-miterlimit:10.43299961;stroke-opacity:1;stroke-dasharray:none;stroke-dashoffset:0" />
    </g>
    <g
       transform="matrix(0.65448807,0,0,0.65448807,255.60753,-147.40742)"
       id="g4726">
      <path
         id="path4628"
         d="m 573.2929,341.48623 0.0319,-0.13819 0.0425,-0.15945 0.0425,-0.17008 0.0425,-0.19134 0.0638,-0.20197 0.0638,-0.22322 0.0638,-0.23386 0.0744,-0.23386 0.085,-0.24449 0.0957,-0.25512 0.1063,-0.26574 0.1063,-0.25512 0.11693,-0.26575 0.12756,-0.26575 0.13819,-0.26575 0.14882,-0.26575 0.15945,-0.25511 0.15944,-0.25512 0.18071,-0.24449 0.19134,-0.23386 0.19134,-0.23386 0.2126,-0.21259 0.22323,-0.20197 0.23386,-0.19134 0.24448,-0.17008 0.26575,-0.14882 0.12756,-0.0744 0.13819,-0.0638 0.14882,-0.0532 0.13819,-0.0531 0.14882,-0.0532 0.14882,-0.0425 0.15944,-0.0319 0.15945,-0.0319 0.15945,-0.0213 0.17008,-0.0213 0.17008,-0.0106 0.17008,0 c 0.26575,0 1.53071,0 2.63622,0.68032 -1.47756,0.26575 -2.54055,1.59449 -2.54055,2.85945 0,0.83976 0.58464,1.86023 2.00905,1.86023 1.16929,0 2.85945,-0.94606 2.85945,-3.07204 0,-2.76378 -3.1252,-3.48662 -4.92165,-3.48662 -3.07205,0 -4.93229,2.8063 -5.55945,4.01811 -1.32874,-3.48661 -4.18819,-4.01811 -5.70827,-4.01811 -5.51693,0 -8.54646,6.82441 -8.54646,8.15315 0,0.5315 0.5315,0.5315 0.64843,0.5315 0.41457,0 0.58465,-0.11693 0.68031,-0.58465 1.79646,-5.6126 5.30434,-6.94134 7.10079,-6.94134 1.00984,0 2.84882,0.46772 2.84882,3.53977 0,1.63701 -0.89291,5.19803 -2.84882,12.60708 -0.85039,3.28465 -2.7,5.5063 -5.03858,5.5063 -0.3189,0 -1.53071,0 -2.63622,-0.69094 1.32874,-0.25512 2.4874,-1.36063 2.4874,-2.85945 0,-1.42441 -1.15866,-1.83898 -1.9559,-1.83898 -1.59449,0 -2.92323,1.37126 -2.92323,3.07205 0,2.42362 2.65748,3.48661 4.9748,3.48661 3.50787,0 5.4,-3.70984 5.57008,-4.01811 0.62716,1.95591 2.54055,4.01811 5.70827,4.01811 5.46378,0 8.4933,-6.8244 8.4933,-8.15314 0,-0.5315 -0.47834,-0.5315 -0.64842,-0.5315 -0.46772,0 -0.58465,0.2126 -0.68032,0.57401 -1.7433,5.66575 -5.34685,6.94134 -7.04763,6.94134 -2.07284,0 -2.92323,-1.69015 -2.92323,-3.49724 0,-1.16929 0.31889,-2.32795 0.91417,-4.65591 z"
         inkscape:connector-curvature="0"
         style="font-style:normal;font-variant:normal;font-weight:normal;font-stretch:normal;letter-spacing:normal;word-spacing:normal;text-anchor:start;fill:#000000;stroke:#000000;stroke-width:0;stroke-linecap:butt;stroke-linejoin:miter;stroke-miterlimit:10.43299961;stroke-opacity:1;stroke-dasharray:none;stroke-dashoffset:0" />
      <path
         id="path4630"
         d="m 588.61061,336.61772 -0.0213,0.0957 -0.0213,0.0957 -0.0213,0.085 -0.0213,0.085 -0.0213,0.0744 -0.0213,0.0744 -0.0319,0.0744 -0.0213,0.0638 -0.0213,0.0638 -0.0319,0.0638 -0.0319,0.0532 -0.0213,0.0531 -0.0425,0.0532 -0.0319,0.0425 -0.0425,0.0425 -0.0425,0.0425 -0.0425,0.0319 -0.0531,0.0319 -0.0531,0.0319 -0.0532,0.0319 -0.0638,0.0213 -0.0744,0.0213 -0.0744,0.0213 -0.0744,0.0213 -0.085,0.0106 -0.0532,0.0106 -0.0425,0 -0.0425,0.0106 -0.0531,0 -0.0532,0 -0.0531,0.0106 -0.0532,0 -0.0638,0 -0.0531,0.0106 -0.0638,0 -0.0638,0 -0.0638,0 -0.0638,0 -0.0638,0 c -0.48898,0 -0.99922,0 -0.99922,0.78662 0,0.41457 0.32953,0.56338 0.51024,0.56338 0.96732,0 2.20039,-0.14881 3.18898,-0.14881 1.26496,0 2.65748,0.14881 3.89055,0.14881 0.32953,0 0.74409,-0.11692 0.74409,-0.8185 0,-0.5315 -0.53149,-0.5315 -0.95669,-0.5315 -0.82913,0 -1.82835,0 -1.82835,-0.42519 0,-0.20197 0.26575,-1.16929 0.41457,-1.71142 0.44646,-1.96654 0.95669,-3.97559 1.36063,-5.51693 0.44646,0.73347 1.59449,2.17913 3.81614,2.17913 v -1.0311 c -2.62559,0 -3.28464,-2.85945 -3.28464,-3.22086 0,-0.15945 0.0638,-0.41457 0.0957,-0.57402 l 1.86024,-7.44094 c 2.14725,-2.84882 4.00748,-3.40158 5.1874,-3.40158 1.44567,0 2.71063,1.08425 2.71063,3.59291 0,1.52008 -0.8185,5.29371 -1.93464,7.45158 -0.92481,1.80709 -2.74252,3.59291 -4.63465,3.59291 v 1.0311 c 4.51772,0 9.52441,-5.00669 9.52441,-10.51299 0,-4.337 -3.00827,-6.18661 -5.54882,-6.18661 -2.30669,0 -4.27323,1.55197 -5.27244,2.5937 -0.62716,-2.10472 -2.7,-2.5937 -3.81614,-2.5937 -1.44567,0 -2.32795,0.96732 -2.92323,1.96653 -0.74409,1.25434 -1.32874,3.46536 -1.32874,3.69922 0,0.47834 0.52087,0.47834 0.62717,0.47834 0.52086,0 0.55275,-0.11693 0.8185,-1.10551 0.55276,-2.15787 1.26496,-4.00748 2.71063,-4.00748 0.95669,0 1.21181,0.81851 1.21181,1.80709 0,0.41456 -0.0638,0.90354 -0.11693,1.11614 z"
         inkscape:connector-curvature="0"
         style="font-style:normal;font-variant:normal;font-weight:normal;font-stretch:normal;letter-spacing:normal;word-spacing:normal;text-anchor:start;fill:#000000;stroke:#000000;stroke-width:0;stroke-linecap:butt;stroke-linejoin:miter;stroke-miterlimit:10.43299961;stroke-opacity:1;stroke-dasharray:none;stroke-dashoffset:0" />
      <path
         id="path4632"
         d="m 597.84801,349.12914 0,-0.0532 -0.0106,-0.0638 0,-0.0531 -0.0106,-0.0638 -0.0106,-0.0532 -0.0213,-0.0638 -0.0106,-0.0532 -0.0213,-0.0638 -0.0319,-0.0638 -0.0213,-0.0531 -0.0319,-0.0638 -0.0319,-0.0532 -0.0319,-0.0638 -0.0425,-0.0532 -0.0319,-0.0531 -0.0532,-0.0532 -0.0425,-0.0532 -0.0531,-0.0531 -0.0532,-0.0425 -0.0531,-0.0425 -0.0638,-0.0531 -0.0638,-0.0319 -0.0638,-0.0425 -0.0638,-0.0319 -0.0744,-0.0319 -0.0744,-0.0319 -0.085,-0.0213 -0.085,-0.0213 -0.085,-0.0106 -0.085,-0.0106 -0.0957,-0.0106 -0.0957,0 c -0.99922,0 -2.07284,0.96732 -2.07284,2.04095 0,0.62716 0.47835,1.41378 1.49882,1.41378 1.06299,0 2.07283,-1.04174 2.07283,-2.04095 z"
         inkscape:connector-curvature="0"
         style="font-style:normal;font-variant:normal;font-weight:normal;font-stretch:normal;letter-spacing:normal;word-spacing:normal;text-anchor:start;fill:#000000;stroke:#000000;stroke-width:0;stroke-linecap:butt;stroke-linejoin:miter;stroke-miterlimit:10.43299961;stroke-opacity:1;stroke-dasharray:none;stroke-dashoffset:0" />
      <path
         id="path4634"
         d="m 590.29014,367.9441 -0.0531,0.18071 -0.0638,0.18071 -0.0319,0.085 -0.0213,0.0957 -0.0319,0.085 -0.0213,0.0957 -0.0213,0.0957 -0.0213,0.0957 -0.0213,0.1063 -0.0106,0.0957 -0.0213,0.1063 0,0.0532 -0.0106,0.0531 0,0.0638 0,0.0532 0,0.0532 0,0.0638 c 0,1.74331 1.47756,3.13583 3.49725,3.13583 3.70984,0 5.34685,-5.09174 5.34685,-5.66575 0,-0.47835 -0.47835,-0.47835 -0.59528,-0.47835 -0.51023,0 -0.56338,0.2126 -0.7122,0.6378 -0.8504,2.95512 -2.47677,4.47519 -3.92244,4.47519 -0.7441,0 -0.92481,-0.47834 -0.92481,-1.28622 0,-0.85039 0.26575,-1.56259 0.59528,-2.3811 0.36142,-0.99921 0.77598,-1.98779 1.17992,-2.95512 0.32953,-0.89291 1.67953,-4.27323 1.82835,-4.71968 0.0957,-0.36142 0.21259,-0.80788 0.21259,-1.17992 0,-1.74331 -1.47755,-3.13583 -3.5185,-3.13583 -3.67795,0 -5.36811,5.02795 -5.36811,5.66575 0,0.47834 0.52087,0.47834 0.62717,0.47834 0.52086,0 0.55275,-0.1807 0.66968,-0.59527 0.96732,-3.18898 2.5937,-4.51772 3.95433,-4.51772 0.59528,0 0.9248,0.29764 0.9248,1.29685 0,0.83977 -0.21259,1.41378 -1.1374,3.69922 z"
         inkscape:connector-curvature="0"
         style="font-style:normal;font-variant:normal;font-weight:normal;font-stretch:normal;letter-spacing:normal;word-spacing:normal;text-anchor:start;fill:#000000;stroke:#000000;stroke-width:0;stroke-linecap:butt;stroke-linejoin:miter;stroke-miterlimit:10.43299961;stroke-opacity:1;stroke-dasharray:none;stroke-dashoffset:0" />
    </g>
    <path
       inkscape:connector-curvature="0"
       id="path4732"
       d="m 44.941848,147.9075 646.039062,0"
       style="fill:none;stroke:#000000;stroke-width:1.5;stroke-linecap:butt;stroke-linejoin:miter;stroke-opacity:1;stroke-miterlimit:4;stroke-dasharray:none" />
    <path
       inkscape:connector-curvature="0"
       id="path4734"
       d="m 104.4898,131.0543 0,32.58284"
       style="fill:none;stroke:#000000;stroke-width:1.5;stroke-linecap:butt;stroke-linejoin:miter;stroke-opacity:1;stroke-miterlimit:4;stroke-dasharray:none" />
    <path
       style="fill:none;stroke:#000000;stroke-width:1.5;stroke-linecap:butt;stroke-linejoin:miter;stroke-opacity:1;stroke-miterlimit:4;stroke-dasharray:none"
       d="m 624.4898,131.0543 0,32.58284"
       id="path4736"
       inkscape:connector-curvature="0" />
    <path
       sodipodi:nodetypes="cc"
       inkscape:connector-curvature="0"
       id="path4738"
       d="m 45.938374,136.70116 c 8.20453,5.93844 -8.80325,13.14451 -0.93675,22.12378"
       style="fill:none;stroke:#000000;stroke-width:1;stroke-linecap:butt;stroke-linejoin:miter;stroke-miterlimit:4;stroke-opacity:1;stroke-dasharray:none" />
    <path
       style="fill:none;stroke:#000000;stroke-width:1;stroke-linecap:butt;stroke-linejoin:miter;stroke-miterlimit:4;stroke-opacity:1;stroke-dasharray:none"
       d="m 691.92911,136.78851 c 8.20454,5.93845 -8.80325,13.14452 -0.93674,22.12379"
       id="path4740"
       inkscape:connector-curvature="0"
       sodipodi:nodetypes="cc" />
    <path
       sodipodi:nodetypes="cccc"
       inkscape:connector-curvature="0"
       id="path5252"
       d="m 104.4898,105.12321 353.42119,0 m 3.87303,0 162.90766,0"
       style="fill:none;stroke:#000000;stroke-width:1px;stroke-linecap:butt;stroke-linejoin:miter;stroke-opacity:1;marker-start:url(#DotL);marker-end:url(#DotL)" />
    <path
       sodipodi:nodetypes="cc"
       inkscape:connector-curvature="0"
       id="path5990"
       d="m 357.84947,104.56144 0.368,-0.26678"
       style="fill:none;stroke:#000000;stroke-width:1px;stroke-linecap:butt;stroke-linejoin:miter;stroke-opacity:1;marker-start:url(#DotL);marker-end:none" />
    <path
       style="fill:none;stroke:#000000;stroke-width:1px;stroke-linecap:butt;stroke-linejoin:miter;stroke-opacity:1;marker-start:url(#DotL);marker-end:none"
       d="m 222.46215,104.56144 0.368,-0.26678"
       id="path6360"
       inkscape:connector-curvature="0"
       sodipodi:nodetypes="cc" />
    <path
       style="fill:none;stroke:#000000;stroke-width:1px;stroke-linecap:butt;stroke-linejoin:miter;stroke-opacity:1;marker-start:url(#DotL);marker-end:none"
       d="m 544.35814,104.56144 0.368,-0.26678"
       id="path6362"
       inkscape:connector-curvature="0"
       sodipodi:nodetypes="cc" />
    <g
       id="g6510"
       transform="matrix(0.67228677,0,0,0.67228677,312.81994,-153.2384)">
      <path
         style="font-style:normal;font-variant:normal;font-weight:normal;font-stretch:normal;letter-spacing:normal;word-spacing:normal;text-anchor:start;fill:#000000;stroke:#000000;stroke-width:0;stroke-linecap:butt;stroke-linejoin:miter;stroke-miterlimit:10.43299961;stroke-opacity:1;stroke-dasharray:none;stroke-dashoffset:0"
         inkscape:connector-curvature="0"
         d="m 315.87873,341.48623 0.0319,-0.13819 0.0425,-0.15945 0.0425,-0.17008 0.0425,-0.19134 0.0638,-0.20197 0.0638,-0.22322 0.0638,-0.23386 0.0744,-0.23386 0.085,-0.24449 0.0957,-0.25512 0.10629,-0.26574 0.1063,-0.25512 0.11693,-0.26575 0.12756,-0.26575 0.13819,-0.26575 0.14882,-0.26575 0.15945,-0.25511 0.15945,-0.25512 0.18071,-0.24449 0.19133,-0.23386 0.19134,-0.23386 0.2126,-0.21259 0.22323,-0.20197 0.23386,-0.19134 0.24449,-0.17008 0.26574,-0.14882 0.12756,-0.0744 0.13819,-0.0638 0.14882,-0.0532 0.13819,-0.0531 0.14882,-0.0532 0.14882,-0.0425 0.15945,-0.0319 0.15945,-0.0319 0.15944,-0.0213 0.17008,-0.0213 0.17008,-0.0106 0.17008,0 c 0.26575,0 1.53071,0 2.63622,0.68032 -1.47756,0.26575 -2.54055,1.59449 -2.54055,2.85945 0,0.83976 0.58465,1.86023 2.00906,1.86023 1.16929,0 2.85944,-0.94606 2.85944,-3.07204 0,-2.76378 -3.12519,-3.48662 -4.92165,-3.48662 -3.07205,0 -4.93228,2.8063 -5.55945,4.01811 -1.32874,-3.48661 -4.18819,-4.01811 -5.70827,-4.01811 -5.51692,0 -8.54645,6.82441 -8.54645,8.15315 0,0.5315 0.53149,0.5315 0.64842,0.5315 0.41457,0 0.58465,-0.11693 0.68032,-0.58465 1.79645,-5.6126 5.30433,-6.94134 7.10079,-6.94134 1.00984,0 2.84881,0.46772 2.84881,3.53977 0,1.63701 -0.89291,5.19803 -2.84881,12.60708 -0.8504,3.28465 -2.7,5.5063 -5.03859,5.5063 -0.31889,0 -1.53071,0 -2.63622,-0.69094 1.32874,-0.25512 2.4874,-1.36063 2.4874,-2.85945 0,-1.42441 -1.15866,-1.83898 -1.9559,-1.83898 -1.59449,0 -2.92323,1.37126 -2.92323,3.07205 0,2.42362 2.65748,3.48661 4.9748,3.48661 3.50788,0 5.4,-3.70984 5.57008,-4.01811 0.62717,1.95591 2.54055,4.01811 5.70827,4.01811 5.46378,0 8.49331,-6.8244 8.49331,-8.15314 0,-0.5315 -0.47835,-0.5315 -0.64843,-0.5315 -0.46772,0 -0.58464,0.2126 -0.68031,0.57401 -1.74331,5.66575 -5.34685,6.94134 -7.04764,6.94134 -2.07284,0 -2.92323,-1.69015 -2.92323,-3.49724 0,-1.16929 0.3189,-2.32795 0.91417,-4.65591 z"
         id="path6410" />
      <path
         style="font-style:normal;font-variant:normal;font-weight:normal;font-stretch:normal;letter-spacing:normal;word-spacing:normal;text-anchor:start;fill:#000000;stroke:#000000;stroke-width:0;stroke-linecap:butt;stroke-linejoin:miter;stroke-miterlimit:10.43299961;stroke-opacity:1;stroke-dasharray:none;stroke-dashoffset:0"
         inkscape:connector-curvature="0"
         d="m 331.19645,336.61772 -0.0213,0.0957 -0.0213,0.0957 -0.0213,0.085 -0.0213,0.085 -0.0213,0.0744 -0.0213,0.0744 -0.0319,0.0744 -0.0213,0.0638 -0.0213,0.0638 -0.0319,0.0638 -0.0319,0.0532 -0.0213,0.0531 -0.0425,0.0532 -0.0319,0.0425 -0.0425,0.0425 -0.0425,0.0425 -0.0425,0.0319 -0.0532,0.0319 -0.0531,0.0319 -0.0532,0.0319 -0.0638,0.0213 -0.0744,0.0213 -0.0744,0.0213 -0.0744,0.0213 -0.085,0.0106 -0.0532,0.0106 -0.0425,0 -0.0425,0.0106 -0.0531,0 -0.0532,0 -0.0532,0.0106 -0.0531,0 -0.0638,0 -0.0532,0.0106 -0.0638,0 -0.0638,0 -0.0638,0 -0.0638,0 -0.0638,0 c -0.48898,0 -0.99921,0 -0.99921,0.78662 0,0.41457 0.32952,0.56338 0.51023,0.56338 0.96733,0 2.2004,-0.14881 3.18898,-0.14881 1.26496,0 2.65748,0.14881 3.89055,0.14881 0.32953,0 0.7441,-0.11692 0.7441,-0.8185 0,-0.5315 -0.5315,-0.5315 -0.9567,-0.5315 -0.82913,0 -1.82834,0 -1.82834,-0.42519 0,-0.20197 0.26574,-1.16929 0.41456,-1.71142 0.44646,-1.96654 0.96733,-3.97559 1.36063,-5.51693 0.44646,0.73347 1.59449,2.17913 3.81614,2.17913 v -1.0311 c -2.61496,0 -3.28464,-2.85945 -3.28464,-3.22086 0,-0.15945 0.0638,-0.41457 0.0957,-0.57402 l 1.86023,-7.44094 c 2.14725,-2.84882 4.00748,-3.40158 5.18741,-3.40158 1.44566,0 2.71063,1.08425 2.71063,3.59291 0,1.52008 -0.81851,5.29371 -1.93465,7.45158 -0.9248,1.80709 -2.73189,3.59291 -4.63465,3.59291 v 1.0311 c 4.51772,0 9.52441,-5.00669 9.52441,-10.51299 0,-4.337 -3.00826,-6.18661 -5.54882,-6.18661 -2.30669,0 -4.27322,1.55197 -5.26181,2.5937 -0.63779,-2.10472 -2.71063,-2.5937 -3.82677,-2.5937 -1.44567,0 -2.32795,0.96732 -2.92323,1.96653 -0.74409,1.25434 -1.32874,3.46536 -1.32874,3.69922 0,0.47834 0.52087,0.47834 0.6378,0.47834 0.51024,0 0.54212,-0.11693 0.80787,-1.10551 0.55276,-2.15787 1.26496,-4.00748 2.71063,-4.00748 0.9567,0 1.21181,0.81851 1.21181,1.80709 0,0.41456 -0.0638,0.90354 -0.11693,1.11614 z"
         id="path6412" />
      <path
         style="font-style:normal;font-variant:normal;font-weight:normal;font-stretch:normal;letter-spacing:normal;word-spacing:normal;text-anchor:start;fill:#000000;stroke:#000000;stroke-width:0;stroke-linecap:butt;stroke-linejoin:miter;stroke-miterlimit:10.43299961;stroke-opacity:1;stroke-dasharray:none;stroke-dashoffset:0"
         inkscape:connector-curvature="0"
         d="m 377.78739,323.73426 0.0638,0 0.0531,0 0.11693,0 0.12756,-0.0106 0.0638,0 0.0638,-0.0106 0.0638,0 0.0532,-0.0106 0.0638,-0.0106 0.0638,-0.0106 0.0638,-0.0106 0.0532,-0.0106 0.0638,-0.0213 0.0532,-0.0213 0.0532,-0.0213 0.0532,-0.0213 0.0531,-0.0319 0.0425,-0.0319 0.0425,-0.0319 0.0425,-0.0425 0.0425,-0.0425 0.0213,-0.0213 0.0106,-0.0213 0.0213,-0.0213 0.0213,-0.0319 0.0106,-0.0213 0.0106,-0.0319 0.0213,-0.0213 0.0106,-0.0319 0.0106,-0.0319 0.0106,-0.0319 0,-0.0319 0.0106,-0.0319 0.0106,-0.0319 0,-0.0425 0.0106,-0.0319 0,-0.0425 0,-0.0425 0,-0.0425 c 0,-0.91418 -0.83976,-0.91418 -1.47756,-0.91418 H 355.7198 c -0.6059,0 -1.47756,0 -1.47756,0.88229 0,0.93543 0.83977,0.93543 1.47756,0.93543 z"
         id="path6414" />
      <path
         style="font-style:normal;font-variant:normal;font-weight:normal;font-stretch:normal;letter-spacing:normal;word-spacing:normal;text-anchor:start;fill:#000000;stroke:#000000;stroke-width:0;stroke-linecap:butt;stroke-linejoin:miter;stroke-miterlimit:10.43299961;stroke-opacity:1;stroke-dasharray:none;stroke-dashoffset:0"
         inkscape:connector-curvature="0"
         d="m 395.67755,308.55473 0,-0.0532 0,-0.0425 0,-0.0425 0,-0.0425 0,-0.0425 0,-0.0425 0,-0.0425 0,-0.0319 -0.0106,-0.0319 0,-0.0425 0,-0.0319 0,-0.0319 0,-0.0319 -0.0106,-0.0319 0,-0.0213 -0.0106,-0.0319 0,-0.0319 0,-0.0213 -0.0106,-0.0213 0,-0.0319 -0.0213,-0.0425 -0.0106,-0.0319 -0.0213,-0.0425 -0.0213,-0.0319 -0.0213,-0.0319 -0.0213,-0.0213 -0.0319,-0.0319 -0.0319,-0.0213 -0.0425,-0.0106 -0.0319,-0.0213 -0.0425,-0.0106 -0.0532,-0.0106 -0.0213,-0.0106 -0.0319,0 -0.0213,-0.0106 -0.0319,0 -0.0213,0 -0.0319,-0.0106 -0.0319,0 -0.0319,0 -0.0425,0 -0.0319,0 -0.0319,0 -0.0425,-0.0106 -0.0425,0 -0.0319,0 -0.0425,0 -0.0425,0 -0.0425,0 -0.0532,0 -0.0425,0 -0.0531,0 c -2.37048,2.33858 -5.72953,2.3811 -7.26024,2.3811 v 1.32874 c 0.90354,0 3.34842,0 5.36811,-1.0311 v 18.87874 c 0,1.23307 0,1.71142 -3.69921,1.71142 h -1.40315 v 1.32874 c 0.66968,-0.0319 5.21929,-0.14882 6.60118,-0.14882 1.14803,0 5.81456,0.11693 6.62244,0.14882 v -1.32874 h -1.40315 c -3.70984,0 -3.70984,-0.47835 -3.70984,-1.71142 z"
         id="path6416" />
      <path
         style="font-style:normal;font-variant:normal;font-weight:normal;font-stretch:normal;letter-spacing:normal;word-spacing:normal;text-anchor:start;fill:#000000;stroke:#000000;stroke-width:0;stroke-linecap:butt;stroke-linejoin:miter;stroke-miterlimit:10.43299961;stroke-opacity:1;stroke-dasharray:none;stroke-dashoffset:0"
         inkscape:connector-curvature="0"
         d="m 340.43385,349.12914 0,-0.0532 -0.0106,-0.0638 0,-0.0531 -0.0106,-0.0638 -0.0106,-0.0532 -0.0213,-0.0638 -0.0106,-0.0532 -0.0213,-0.0638 -0.0319,-0.0638 -0.0213,-0.0531 -0.0319,-0.0638 -0.0319,-0.0532 -0.0319,-0.0638 -0.0425,-0.0532 -0.0319,-0.0531 -0.0532,-0.0532 -0.0425,-0.0532 -0.0531,-0.0531 -0.0532,-0.0425 -0.0532,-0.0425 -0.0638,-0.0531 -0.0638,-0.0319 -0.0638,-0.0425 -0.0638,-0.0319 -0.0744,-0.0319 -0.0744,-0.0319 -0.085,-0.0213 -0.085,-0.0213 -0.085,-0.0106 -0.085,-0.0106 -0.0957,-0.0106 -0.0957,0 c -0.99921,0 -2.07284,0.96732 -2.07284,2.04095 0,0.62716 0.47835,1.41378 1.48819,1.41378 1.063,0 2.08347,-1.04174 2.08347,-2.04095 z"
         id="path6418" />
      <path
         style="font-style:normal;font-variant:normal;font-weight:normal;font-stretch:normal;letter-spacing:normal;word-spacing:normal;text-anchor:start;fill:#000000;stroke:#000000;stroke-width:0;stroke-linecap:butt;stroke-linejoin:miter;stroke-miterlimit:10.43299961;stroke-opacity:1;stroke-dasharray:none;stroke-dashoffset:0"
         inkscape:connector-curvature="0"
         d="m 332.87597,367.9441 -0.0638,0.18071 -0.0531,0.18071 -0.0319,0.085 -0.0213,0.0957 -0.0319,0.085 -0.0213,0.0957 -0.0213,0.0957 -0.0213,0.0957 -0.0213,0.1063 -0.0106,0.0957 -0.0213,0.1063 0,0.0532 -0.0106,0.0531 0,0.0638 0,0.0532 0,0.0532 0,0.0638 c 0,1.74331 1.47756,3.13583 3.49724,3.13583 3.70984,0 5.34685,-5.09174 5.34685,-5.66575 0,-0.47835 -0.47835,-0.47835 -0.59528,-0.47835 -0.51023,0 -0.56338,0.2126 -0.7122,0.6378 -0.85039,2.95512 -2.47677,4.47519 -3.92244,4.47519 -0.7441,0 -0.9248,-0.47834 -0.9248,-1.28622 0,-0.85039 0.26574,-1.56259 0.59527,-2.3811 0.36142,-0.99921 0.77599,-1.98779 1.17992,-2.95512 0.32953,-0.89291 1.67953,-4.27323 1.82835,-4.71968 0.0957,-0.36142 0.2126,-0.80788 0.2126,-1.17992 0,-1.74331 -1.47756,-3.13583 -3.51851,-3.13583 -3.66732,0 -5.36811,5.02795 -5.36811,5.66575 0,0.47834 0.52087,0.47834 0.6378,0.47834 0.51024,0 0.54212,-0.1807 0.65905,-0.59527 0.96733,-3.18898 2.5937,-4.51772 3.95433,-4.51772 0.59528,0 0.92481,0.29764 0.92481,1.29685 0,0.83977 -0.2126,1.41378 -1.1374,3.69922 z"
         id="path6420" />
    </g>
    <g
       id="g6504"
       transform="matrix(0.67228677,0,0,0.67228677,67.859654,-157.7225)">
      <path
         style="font-style:normal;font-variant:normal;font-weight:normal;font-stretch:normal;letter-spacing:normal;word-spacing:normal;text-anchor:start;fill:#000000;stroke:#000000;stroke-width:0;stroke-linecap:butt;stroke-linejoin:miter;stroke-miterlimit:10.43299961;stroke-opacity:1;stroke-dasharray:none;stroke-dashoffset:0"
         inkscape:connector-curvature="0"
         d="m 424.81416,341.48623 0.0319,-0.13819 0.0425,-0.15945 0.0425,-0.17008 0.0425,-0.19134 0.0638,-0.20197 0.0638,-0.22322 0.0638,-0.23386 0.085,-0.23386 0.085,-0.24449 0.085,-0.25512 0.1063,-0.26574 0.10629,-0.25512 0.11693,-0.26575 0.12756,-0.26575 0.13819,-0.26575 0.14882,-0.26575 0.15945,-0.25511 0.15945,-0.25512 0.18071,-0.24449 0.19134,-0.23386 0.19133,-0.23386 0.2126,-0.21259 0.22323,-0.20197 0.23386,-0.19134 0.24449,-0.17008 0.26574,-0.14882 0.12756,-0.0744 0.13819,-0.0638 0.14882,-0.0532 0.13819,-0.0531 0.14882,-0.0532 0.14882,-0.0425 0.15945,-0.0319 0.15945,-0.0319 0.15945,-0.0213 0.17007,-0.0213 0.17008,-0.0106 0.17008,0 c 0.26575,0 1.53071,0 2.63622,0.68032 -1.47756,0.26575 -2.54055,1.59449 -2.54055,2.85945 0,0.83976 0.58465,1.86023 2.00906,1.86023 1.16929,0 2.85944,-0.94606 2.85944,-3.07204 0,-2.76378 -3.12519,-3.48662 -4.92165,-3.48662 -3.07205,0 -4.93228,2.8063 -5.55945,4.01811 -1.32874,-3.48661 -4.18819,-4.01811 -5.70827,-4.01811 -5.51692,0 -8.54645,6.82441 -8.54645,8.15315 0,0.5315 0.53149,0.5315 0.64842,0.5315 0.41457,0 0.58465,-0.11693 0.68032,-0.58465 1.79646,-5.6126 5.30433,-6.94134 7.10079,-6.94134 1.00984,0 2.84881,0.46772 2.84881,3.53977 0,1.63701 -0.89291,5.19803 -2.84881,12.60708 -0.8504,3.28465 -2.68937,5.5063 -5.03859,5.5063 -0.30826,0 -1.53071,0 -2.63622,-0.69094 1.32874,-0.25512 2.4874,-1.36063 2.4874,-2.85945 0,-1.42441 -1.15866,-1.83898 -1.9559,-1.83898 -1.59449,0 -2.92323,1.37126 -2.92323,3.07205 0,2.42362 2.65748,3.48661 4.9748,3.48661 3.50788,0 5.4,-3.70984 5.57008,-4.01811 0.62717,1.95591 2.54055,4.01811 5.70827,4.01811 5.47441,0 8.49331,-6.8244 8.49331,-8.15314 0,-0.5315 -0.47835,-0.5315 -0.64843,-0.5315 -0.46772,0 -0.58464,0.2126 -0.68031,0.57401 -1.74331,5.66575 -5.34685,6.94134 -7.04764,6.94134 -2.07284,0 -2.92323,-1.69015 -2.92323,-3.49724 0,-1.16929 0.3189,-2.32795 0.91417,-4.65591 z"
         id="path6422" />
      <path
         style="font-style:normal;font-variant:normal;font-weight:normal;font-stretch:normal;letter-spacing:normal;word-spacing:normal;text-anchor:start;fill:#000000;stroke:#000000;stroke-width:0;stroke-linecap:butt;stroke-linejoin:miter;stroke-miterlimit:10.43299961;stroke-opacity:1;stroke-dasharray:none;stroke-dashoffset:0"
         inkscape:connector-curvature="0"
         d="m 456.0555,331.61103 h -1.25433 c -0.1063,0.80788 -0.47835,3.00827 -0.96733,3.36969 -0.27637,0.21259 -3.13582,0.21259 -3.65669,0.21259 h -6.82441 c 3.89055,-3.43346 5.1874,-4.46456 7.40906,-6.20787 2.74252,-2.18976 5.2937,-4.48583 5.2937,-8.00433 0,-4.48583 -3.91181,-7.22835 -8.66339,-7.22835 -4.58149,0 -7.70669,3.22087 -7.70669,6.62244 0,1.90276 1.59449,2.08347 1.97717,2.08347 0.88228,0 1.9559,-0.6378 1.9559,-1.96654 0,-0.65905 -0.26575,-1.9559 -2.18976,-1.9559 1.14803,-2.62559 3.66732,-3.43347 5.41063,-3.43347 3.70984,0 5.63385,2.87008 5.63385,5.87835 0,3.22087 -2.29606,5.77205 -3.48661,7.10079 l -8.9185,8.82283 c -0.38268,0.32953 -0.38268,0.41457 -0.38268,1.44567 h 15.26457 z"
         id="path6424" />
      <path
         style="font-style:normal;font-variant:normal;font-weight:normal;font-stretch:normal;letter-spacing:normal;word-spacing:normal;text-anchor:start;fill:#000000;stroke:#000000;stroke-width:0;stroke-linecap:butt;stroke-linejoin:miter;stroke-miterlimit:10.43299961;stroke-opacity:1;stroke-dasharray:none;stroke-dashoffset:0"
         inkscape:connector-curvature="0"
         d="m 449.36928,348.10867 0,-0.0532 -0.0106,-0.0532 0,-0.0638 -0.0106,-0.0531 -0.0106,-0.0638 -0.0213,-0.0638 -0.0106,-0.0532 -0.0213,-0.0638 -0.0319,-0.0531 -0.0213,-0.0638 -0.0319,-0.0638 -0.0319,-0.0532 -0.0319,-0.0531 -0.0425,-0.0638 -0.0319,-0.0531 -0.0532,-0.0531 -0.0425,-0.0532 -0.0532,-0.0425 -0.0532,-0.0531 -0.0532,-0.0425 -0.0638,-0.0425 -0.0638,-0.0425 -0.0638,-0.0425 -0.0638,-0.0319 -0.0744,-0.0319 -0.0744,-0.0213 -0.085,-0.0213 -0.085,-0.0213 -0.085,-0.0213 -0.085,-0.0106 -0.0957,-0.0106 -0.0957,0 c -0.98858,0 -2.07284,0.96732 -2.07284,2.04094 0,0.6378 0.47835,1.41378 1.48819,1.41378 1.063,0 2.08347,-1.04173 2.08347,-2.04094 z"
         id="path6426" />
      <path
         style="font-style:normal;font-variant:normal;font-weight:normal;font-stretch:normal;letter-spacing:normal;word-spacing:normal;text-anchor:start;fill:#000000;stroke:#000000;stroke-width:0;stroke-linecap:butt;stroke-linejoin:miter;stroke-miterlimit:10.43299961;stroke-opacity:1;stroke-dasharray:none;stroke-dashoffset:0"
         inkscape:connector-curvature="0"
         d="m 441.8114,366.92363 -0.0532,0.18071 -0.0638,0.18071 -0.0319,0.0957 -0.0213,0.085 -0.0319,0.0957 -0.0213,0.0957 -0.0213,0.085 -0.0213,0.1063 -0.0213,0.0957 -0.0106,0.1063 -0.0213,0.1063 0,0.0532 -0.0106,0.0531 0,0.0532 0,0.0532 0,0.0638 0,0.0531 c 0,1.7433 1.47756,3.14645 3.49724,3.14645 3.70984,0 5.35748,-5.10236 5.35748,-5.66574 0,-0.48898 -0.48898,-0.48898 -0.6059,-0.48898 -0.51024,0 -0.56339,0.22323 -0.71221,0.63779 -0.85039,2.95512 -2.47677,4.48583 -3.92244,4.48583 -0.74409,0 -0.9248,-0.48897 -0.9248,-1.29685 0,-0.85039 0.26574,-1.5626 0.59527,-2.3811 0.36142,-0.98858 0.78662,-1.9878 1.17992,-2.95512 0.32953,-0.89291 1.67953,-4.2626 1.82835,-4.71968 0.0957,-0.36142 0.2126,-0.80788 0.2126,-1.1693 0,-1.75393 -1.47756,-3.14645 -3.51851,-3.14645 -3.66732,0 -5.36811,5.03858 -5.36811,5.66575 0,0.47834 0.52087,0.47834 0.6378,0.47834 0.51024,0 0.54213,-0.18071 0.65905,-0.59527 0.96733,-3.18898 2.59371,-4.51772 3.95434,-4.51772 0.59527,0 0.93543,0.29764 0.93543,1.29685 0,0.85039 -0.22323,1.41378 -1.14803,3.69921 z"
         id="path6428" />
    </g>
    <path
       style="fill:none;stroke:#000000;stroke-width:1px;stroke-linecap:butt;stroke-linejoin:miter;stroke-opacity:1"
       d="m 459.2144,91.675762 c 9.45637,6.58906 -11.27757,17.703208 -2.52798,26.965108"
       id="path6518"
       inkscape:connector-curvature="0"
       sodipodi:nodetypes="cc" />
    <path
       sodipodi:nodetypes="cc"
       inkscape:connector-curvature="0"
       id="path6520"
       d="m 463.3926,91.921538 c 9.45637,6.58906 -11.27757,17.703212 -2.52798,26.965112"
       style="fill:none;stroke:#000000;stroke-width:1px;stroke-linecap:butt;stroke-linejoin:miter;stroke-opacity:1" />
  </g>
</svg>
