<?xml version="1.0" encoding="UTF-8" standalone="no"?>
<!-- Created with Inkscape (http://www.inkscape.org/) -->

<svg
   xmlns:ns0="http://www.iki.fi/pav/software/textext/"
   xmlns:dc="http://purl.org/dc/elements/1.1/"
   xmlns:cc="http://creativecommons.org/ns#"
   xmlns:rdf="http://www.w3.org/1999/02/22-rdf-syntax-ns#"
   xmlns:svg="http://www.w3.org/2000/svg"
   xmlns="http://www.w3.org/2000/svg"
   xmlns:sodipodi="http://sodipodi.sourceforge.net/DTD/sodipodi-0.dtd"
   xmlns:inkscape="http://www.inkscape.org/namespaces/inkscape"
   width="744.09448819"
   height="1052.3622047"
   id="svg2"
   version="1.1"
   inkscape:version="0.48.2 r9819"
   sodipodi:docname="Новый документ 1">
  <sodipodi:namedview
     id="base"
     pagecolor="#ffffff"
     bordercolor="#666666"
     borderopacity="1.0"
     inkscape:pageopacity="0.0"
     inkscape:pageshadow="2"
     inkscape:zoom="0.90509668"
     inkscape:cx="466.29764"
     inkscape:cy="692.90239"
     inkscape:document-units="px"
     inkscape:current-layer="g5286"
     showgrid="false"
     inkscape:window-width="1600"
     inkscape:window-height="848"
     inkscape:window-x="-8"
     inkscape:window-y="116"
     inkscape:window-maximized="1" />
  <defs
     id="defs4"><inkscape:path-effect
   steps="9"
   equidistant_spacing="true"
   trajectory="m 494.34693,220.57967 -438.742421,0.7617"
   is_visible="true"
   id="path-effect5153"
   effect="interpolate" />
<inkscape:path-effect
   steps="7"
   equidistant_spacing="true"
   trajectory="m 282.23017,346.78676 1.07722,-244.52767"
   is_visible="true"
   id="path-effect5146"
   effect="interpolate" />
<marker
   style="overflow:visible"
   id="Arrow2Lstart"
   refX="0.0"
   refY="0.0"
   orient="auto"
   inkscape:stockid="Arrow2Lstart">
  <path
     transform="scale(1.1) translate(1,0)"
     d="M 8.7185878,4.0337352 L -2.2072895,0.016013256 L 8.7185884,-4.0017078 C 6.9730900,-1.6296469 6.9831476,1.6157441 8.7185878,4.0337352 z "
     style="font-size:12.0;fill-rule:evenodd;stroke-width:0.62500000;stroke-linejoin:round"
     id="path3776" />
</marker>
<marker
   style="overflow:visible;"
   id="Arrow2Lend"
   refX="0.0"
   refY="0.0"
   orient="auto"
   inkscape:stockid="Arrow2Lend">
  <path
     transform="scale(1.1) rotate(180) translate(1,0)"
     d="M 8.7185878,4.0337352 L -2.2072895,0.016013256 L 8.7185884,-4.0017078 C 6.9730900,-1.6296469 6.9831476,1.6157441 8.7185878,4.0337352 z "
     style="font-size:12.0;fill-rule:evenodd;stroke-width:0.62500000;stroke-linejoin:round;"
     id="path3779" />
</marker>
<marker
   style="overflow:visible"
   id="TriangleOutL"
   refX="0.0"
   refY="0.0"
   orient="auto"
   inkscape:stockid="TriangleOutL">
  <path
     transform="scale(0.8)"
     style="fill-rule:evenodd;stroke:#000000;stroke-width:1.0pt;marker-start:none"
     d="M 5.77,0.0 L -2.88,5.0 L -2.88,-5.0 L 5.77,0.0 z "
     id="path3901" />
</marker>
<marker
   style="overflow:visible;"
   id="Arrow1Lend"
   refX="0.0"
   refY="0.0"
   orient="auto"
   inkscape:stockid="Arrow1Lend">
  <path
     transform="scale(0.8) rotate(180) translate(12.5,0)"
     style="fill-rule:evenodd;stroke:#000000;stroke-width:1.0pt;marker-start:none;"
     d="M 0.0,0.0 L 5.0,-5.0 L -12.5,0.0 L 5.0,5.0 L 0.0,0.0 z "
     id="path3761" />
</marker>
<marker
   style="overflow:visible"
   id="Arrow1Lstart"
   refX="0.0"
   refY="0.0"
   orient="auto"
   inkscape:stockid="Arrow1Lstart">
  <path
     transform="scale(0.8) translate(12.5,0)"
     style="fill-rule:evenodd;stroke:#000000;stroke-width:1.0pt;marker-start:none"
     d="M 0.0,0.0 L 5.0,-5.0 L -12.5,0.0 L 5.0,5.0 L 0.0,0.0 z "
     id="path3758" />
</marker>
<marker
   style="overflow:visible"
   id="Arrow2Lstart-1"
   refX="0"
   refY="0"
   orient="auto"
   inkscape:stockid="Arrow2Lstart">
  <path
     transform="matrix(1.1,0,0,1.1,1.1,0)"
     d="M 8.7185878,4.0337352 -2.2072895,0.01601326 8.7185884,-4.0017078 c -1.7454984,2.3720609 -1.7354408,5.6174519 -6e-7,8.035443 z"
     style="font-size:12px;fill-rule:evenodd;stroke-width:0.625;stroke-linejoin:round"
     id="path3776-7"
     inkscape:connector-curvature="0" />
</marker>
<marker
   style="overflow:visible"
   id="Arrow2Lend-4"
   refX="0"
   refY="0"
   orient="auto"
   inkscape:stockid="Arrow2Lend">
  <path
     transform="matrix(-1.1,0,0,-1.1,-1.1,0)"
     d="M 8.7185878,4.0337352 -2.2072895,0.01601326 8.7185884,-4.0017078 c -1.7454984,2.3720609 -1.7354408,5.6174519 -6e-7,8.035443 z"
     style="font-size:12px;fill-rule:evenodd;stroke-width:0.625;stroke-linejoin:round"
     id="path3779-0"
     inkscape:connector-curvature="0" />
</marker>



</defs>
  <metadata
     id="metadata7">
    <rdf:RDF>
      <cc:Work
         rdf:about="">
        <dc:format>image/svg+xml</dc:format>
        <dc:type
           rdf:resource="http://purl.org/dc/dcmitype/StillImage" />
        <dc:title></dc:title>
      </cc:Work>
    </rdf:RDF>
  </metadata>
  <g
     id="layer1"
     inkscape:groupmode="layer"
     inkscape:label="Layer 1">
    <path
       sodipodi:nodetypes="ccc"
       inkscape:connector-curvature="0"
       id="path2985"
       d="m 633.40206,346.78676 -577.386912,0 0,-289.770675"
       style="fill:none;stroke:#000000;stroke-width:1px;stroke-linecap:butt;stroke-linejoin:miter;stroke-opacity:1;marker-start:url(#Arrow2Lstart);marker-end:url(#Arrow2Lend)" />
    <path
       inkscape:original-d="m 54.937934,346.78676 454.584476,0 M 54.937934,102.25909 l 456.738906,0"
       inkscape:path-effect="#path-effect5146"
       d="m 54.937932,346.78676 454.584478,0 m -454.584477,-40.75461 454.943547,0 m -454.943546,-40.75461 455.302616,0 m -455.302616,-40.75462 455.661696,0 m -455.661695,-40.75461 456.020765,0 M 54.937936,143.0137 l 456.379834,0 m -456.379833,-40.75461 456.738903,0"
       style="fill:none;stroke:#000000;stroke-width:0.5;stroke-linecap:butt;stroke-linejoin:miter;stroke-opacity:1;stroke-miterlimit:4;stroke-dasharray:none"
       id="path5143" />
    <path
       inkscape:original-d="m 494.34693,345.49939 0,-249.839442 M 55.604509,346.26109 l 0,-249.839436"
       inkscape:path-effect="#path-effect5153"
       d="m 494.34693,345.49939 0,-249.839441 m -54.8428,249.934651 0,-249.839438 m -54.84281,249.934658 0,-249.839445 m -54.8428,249.934655 0,-249.839442 m -54.8428,249.934652 0,-249.83944 m -54.8428,249.93465 0,-249.839437 m -54.84281,249.934647 0,-249.839434 m -54.8428,249.934654 0,-249.839441 m -54.842801,249.934651 0,-249.839438"
       style="fill:none;stroke:#000000;stroke-width:1px;stroke-linecap:butt;stroke-linejoin:miter;stroke-opacity:1"
       id="path5150" />
    <g
       style="font-style:normal;font-variant:normal;font-weight:normal;font-stretch:normal;letter-spacing:normal;word-spacing:normal;text-anchor:start;fill:none;stroke:#000000;stroke-linecap:butt;stroke-linejoin:miter;stroke-miterlimit:10.43299961;stroke-opacity:1;stroke-dasharray:none;stroke-dashoffset:0"
       id="content"
       transform="matrix(3.9,0,0,-3.9,-321.45323,2880.0594)"
       xml:space="preserve"
       stroke-miterlimit="10.433"
       font-style="normal"
       font-variant="normal"
       font-weight="normal"
       font-stretch="normal"
       font-size-adjust="none"
       letter-spacing="normal"
       word-spacing="normal"
       ns0:text="$0$\n\n$n$\n\n$m$\n\n$u^n_m$\n"
       ns0:preamble="C:\\Users\\Uranix\\Documents\\header.inc ">
<path
   style="fill:#000000;stroke-width:0"
   inkscape:connector-curvature="0"
   d="m 93.540411,649.00737 -0.05,0 -0.05,0 -0.05,0 -0.05,0 -0.04,-0.01 -0.05,0 -0.05,-0.01 -0.04,-0.01 -0.05,-0.01 -0.04,-0.01 -0.05,-0.01 -0.04,-0.01 -0.05,-0.01 -0.04,-0.01 -0.04,-0.02 -0.04,-0.02 -0.04,-0.01 -0.04,-0.02 -0.04,-0.02 -0.04,-0.02 -0.04,-0.02 -0.04,-0.02 -0.04,-0.02 -0.03,-0.03 -0.04,-0.02 -0.04,-0.03 -0.04,-0.02 -0.03,-0.03 -0.04,-0.03 -0.03,-0.03 -0.04,-0.03 -0.03,-0.03 c -0.58,-0.56 -0.96,-1.71 -0.96,-2.87 0,-1.09 0.33,-2.25 0.8,-2.81 0.37,-0.44 0.88,-0.67 1.45,-0.67 v 0.25 c -0.85,0 -1.29,1.07 -1.29,3.14 0,2.11 0.45,3.21 1.3,3.21 h 0 c 0.84,0 1.29,-1.12 1.29,-3.2 0,-2.08 -0.44,-3.15 -1.3,-3.15 v -0.25 c 0.51,0 0.94,0.17 1.3,0.51 0.58,0.55 0.96,1.71 0.96,2.91 0,2.04 -0.91,3.44 -2.22,3.44 z"
   id="path5219" />
<path
   style="fill:#000000;stroke-width:0"
   inkscape:connector-curvature="0"
   d="m 94.915681,680.11934 -0.21,-0.25 c -0.29,-0.37 -0.47,-0.53 -0.61,-0.53 -0.08,0 -0.15,0.08 -0.15,0.16 0,0.07 0,0.07 0.13,0.62 l 0.57,2.06 c 0.05,0.2 0.09,0.42 0.09,0.56 0,0.36 -0.27,0.61 -0.66,0.61 -0.63,0 -1.26,-0.6 -2.29,-2.19 l 0.67,2.17 -0.03,0.02 c -0.54,-0.11 -0.75,-0.15 -1.62,-0.31 v -0.16 c 0.51,-0.01 0.64,-0.07 0.64,-0.27 0,-0.06 -0.01,-0.12 -0.02,-0.17 l -0.95,-3.48 h 0.74 c 0.47,1.57 0.56,1.79 1,2.47 0.6,0.91 1.11,1.41 1.48,1.41 0.14,0 0.24,-0.11 0.24,-0.29 0,-0.12 -0.07,-0.44 -0.14,-0.75 l -0.44,-1.65 c -0.13,-0.5 -0.16,-0.64 -0.16,-0.74 0,-0.38 0.14,-0.54 0.47,-0.54 0.44,0 0.7,0.21 1.39,1.13 z"
   id="path5221" />
<path
   style="fill:#000000;stroke-width:0"
   inkscape:connector-curvature="0"
   d="m 155.80775,643.03247 -0.01,-0.02 -0.02,-0.02 -0.02,-0.03 -0.02,-0.02 0,-0.01 -0.01,-0.01 -0.01,-0.01 -0.01,0 -0.01,-0.01 0,-0.01 -0.01,-0.01 -0.01,-0.01 0,-0.01 -0.01,-0.01 -0.01,0 0,-0.01 -0.01,-0.01 0,-0.01 -0.01,0 0,-0.01 -0.01,-0.01 0,0 -0.01,-0.01 0,0 -0.01,-0.01 0,0 0,-0.01 0,0 c -0.28,-0.36 -0.49,-0.53 -0.64,-0.53 -0.08,0 -0.13,0.06 -0.13,0.16 0,0.05 0.04,0.21 0.1,0.45 l 0.67,2.5 c 0.01,0.04 0.03,0.22 0.03,0.28 0,0.36 -0.24,0.62 -0.58,0.62 -0.19,0 -0.39,-0.07 -0.63,-0.21 -0.49,-0.32 -0.9,-0.8 -1.59,-1.9 0.25,0.76 0.4,1.33 0.4,1.52 0,0.34 -0.23,0.59 -0.57,0.59 -0.6,0 -1.3,-0.65 -2.22,-2.1 l 0.58,2.08 -0.03,0.02 c -0.56,-0.12 -0.77,-0.15 -1.59,-0.31 v -0.15 h 0.24 c 0.26,0 0.39,-0.07 0.39,-0.22 0,-0.11 -0.23,-1.02 -0.59,-2.28 -0.23,-0.82 -0.25,-0.92 -0.38,-1.42 h 0.74 c 0.48,1.58 0.63,1.95 0.97,2.46 0.56,0.85 1.16,1.41 1.5,1.41 0.13,0 0.19,-0.09 0.19,-0.25 0,-0.09 -0.31,-1.3 -0.94,-3.62 h 0.75 c 0.39,1.55 0.59,2.05 1.1,2.75 0.49,0.68 0.99,1.12 1.28,1.12 0.11,0 0.2,-0.1 0.2,-0.21 0,-0.05 -0.02,-0.17 -0.07,-0.35 l -0.58,-2.29 c -0.09,-0.37 -0.13,-0.56 -0.13,-0.66 0,-0.3 0.14,-0.45 0.4,-0.45 0.47,0 0.91,0.32 1.43,1.06 l 0.05,0.07 z"
   id="path5223" />
<path
   style="fill:#000000;stroke-width:0"
   inkscape:connector-curvature="0"
   d="m 159.18238,683.55262 -0.02,-0.03 -0.03,-0.03 -0.02,-0.02 -0.02,-0.03 -0.02,-0.03 -0.03,-0.02 -0.04,-0.06 -0.04,-0.04 -0.03,-0.05 -0.04,-0.04 -0.03,-0.04 -0.04,-0.04 -0.03,-0.04 -0.03,-0.03 -0.03,-0.03 -0.02,-0.03 -0.03,-0.02 -0.02,-0.03 -0.03,-0.02 -0.02,-0.02 -0.02,-0.02 -0.02,-0.02 -0.02,-0.01 -0.02,-0.02 -0.02,-0.01 -0.02,-0.01 -0.01,-0.01 -0.02,-0.01 -0.01,0 -0.02,-0.01 -0.02,0 -0.01,-0.01 -0.02,0 -0.01,0 -0.02,0 c -0.07,0 -0.11,0.06 -0.11,0.17 0,0.06 0,0.06 0.19,0.77 l 0.79,2.98 h -0.74 c -0.56,-1.54 -0.63,-1.7 -1.09,-2.43 -0.6,-0.95 -1.09,-1.45 -1.41,-1.45 -0.12,0 -0.21,0.1 -0.21,0.25 0,0.04 0,0.06 0.01,0.09 l 0.91,3.61 -0.03,0.02 c -0.57,-0.13 -0.93,-0.2 -1.5,-0.27 v -0.14 c 0.38,0 0.4,-0.01 0.49,-0.06 0.06,-0.02 0.11,-0.11 0.11,-0.18 0,-0.08 -0.05,-0.33 -0.14,-0.66 l -0.37,-1.42 c -0.18,-0.7 -0.25,-1.04 -0.25,-1.22 0,-0.36 0.18,-0.55 0.53,-0.55 0.71,0 1.24,0.54 2.39,2.46 -0.29,-1.07 -0.45,-1.75 -0.45,-1.96 0,-0.3 0.18,-0.48 0.48,-0.48 0.46,0 0.69,0.2 1.37,1.17 z"
   id="path5225" />
<path
   style="fill:#000000;stroke-width:0"
   inkscape:connector-curvature="0"
   d="m 162.77238,686.82262 -0.15,-0.18 c -0.2,-0.26 -0.32,-0.37 -0.42,-0.37 -0.06,0 -0.11,0.06 -0.11,0.11 0,0.05 0,0.05 0.1,0.44 l 0.39,1.43 c 0.04,0.15 0.06,0.3 0.06,0.4 0,0.25 -0.18,0.42 -0.45,0.42 -0.45,0 -0.89,-0.41 -1.61,-1.53 l 0.47,1.52 -0.02,0.01 c -0.38,-0.07 -0.52,-0.1 -1.13,-0.21 v -0.11 c 0.36,-0.01 0.45,-0.05 0.45,-0.19 0,-0.04 -0.01,-0.09 -0.02,-0.12 l -0.66,-2.43 h 0.52 c 0.32,1.09 0.39,1.25 0.69,1.72 0.42,0.64 0.78,0.99 1.03,0.99 0.11,0 0.17,-0.08 0.17,-0.2 0,-0.09 -0.04,-0.32 -0.1,-0.53 l -0.3,-1.15 c -0.09,-0.35 -0.11,-0.45 -0.11,-0.52 0,-0.27 0.09,-0.38 0.32,-0.38 0.32,0 0.5,0.15 0.98,0.79 z"
   id="path5227" />
<path
   style="fill:#000000;stroke-width:0"
   inkscape:connector-curvature="0"
   d="m 164.37238,680.74262 -0.02,-0.01 -0.01,-0.02 -0.01,-0.01 -0.01,-0.02 -0.01,0 0,-0.01 -0.01,-0.01 -0.01,0 0,-0.01 -0.01,-0.01 0,0 -0.01,-0.01 0,0 -0.01,-0.01 0,-0.01 0,0 -0.01,-0.01 0,0 -0.01,-0.01 0,0 0,0 -0.01,-0.01 0,0 0,-0.01 0,0 -0.01,0 0,-0.01 0,0 c -0.2,-0.25 -0.34,-0.37 -0.45,-0.37 -0.05,0 -0.09,0.04 -0.09,0.11 0,0.04 0.03,0.15 0.07,0.32 l 0.48,1.74 c 0,0.03 0.02,0.16 0.02,0.2 0,0.25 -0.18,0.43 -0.41,0.43 -0.14,0 -0.28,-0.04 -0.44,-0.15 -0.34,-0.22 -0.63,-0.55 -1.11,-1.32 0.17,0.53 0.28,0.93 0.28,1.06 0,0.24 -0.16,0.41 -0.4,0.41 -0.42,0 -0.91,-0.45 -1.55,-1.46 l 0.4,1.45 -0.02,0.01 c -0.39,-0.08 -0.53,-0.11 -1.11,-0.21 v -0.11 h 0.17 c 0.18,0 0.27,-0.05 0.27,-0.15 0,-0.08 -0.16,-0.71 -0.41,-1.6 -0.16,-0.57 -0.18,-0.64 -0.27,-0.99 h 0.52 c 0.34,1.1 0.44,1.36 0.68,1.72 0.39,0.59 0.81,0.98 1.04,0.98 0.09,0 0.14,-0.06 0.14,-0.17 0,-0.06 -0.22,-0.9 -0.66,-2.53 h 0.52 c 0.28,1.08 0.42,1.43 0.78,1.92 0.34,0.48 0.69,0.78 0.89,0.78 0.07,0 0.14,-0.07 0.14,-0.14 0,-0.04 -0.02,-0.12 -0.05,-0.25 l -0.41,-1.59 c -0.06,-0.26 -0.09,-0.39 -0.09,-0.46 0,-0.21 0.1,-0.32 0.28,-0.32 0.33,0 0.64,0.23 1.01,0.74 l 0.03,0.05 z"
   id="path5229" />
<path
   transform="matrix(0.25641026,0,0,-0.25641026,83.009832,739.0627)"
   d="m 274.97572,226.29247 c 0,1.89305 -1.19359,3.42767 -2.66597,3.42767 -1.47237,0 -2.66597,-1.53462 -2.66597,-3.42767 0,-1.89306 1.1936,-3.42768 2.66597,-3.42768 1.47238,0 2.66597,1.53462 2.66597,3.42768 z"
   sodipodi:ry="3.4276752"
   sodipodi:rx="2.6659696"
   sodipodi:cy="226.29247"
   sodipodi:cx="272.30975"
   id="path5256"
   style="fill:#000000;fill-opacity:1;stroke:#000000;stroke-width:0.5;stroke-linecap:round;stroke-miterlimit:4;stroke-opacity:1;stroke-dasharray:none;stroke-dashoffset:0"
   sodipodi:type="arc" /><g
   ns0:preamble="C:\\Users\\Uranix\\Documents\\header.inc "
   ns0:text="$M$\n\n$N$\n"
   word-spacing="normal"
   letter-spacing="normal"
   font-size-adjust="none"
   font-stretch="normal"
   font-weight="normal"
   font-variant="normal"
   font-style="normal"
   stroke-miterlimit="10.433"
   xml:space="preserve"
   transform="matrix(3.9,0,0,3.9,-756.5629,-2187.4526)"
   id="g5286"
   style="font-style:normal;font-variant:normal;font-weight:normal;font-stretch:normal;letter-spacing:normal;word-spacing:normal;text-anchor:start;fill:none;stroke:#000000;stroke-linecap:butt;stroke-linejoin:miter;stroke-miterlimit:10.43299961;stroke-opacity:1;stroke-dasharray:none;stroke-dashoffset:0">







<path
   style="font-style:normal;font-variant:normal;font-weight:normal;font-stretch:normal;letter-spacing:normal;word-spacing:normal;text-anchor:start;fill:#000000;stroke:#000000;stroke-width:0;stroke-linecap:butt;stroke-linejoin:miter;stroke-miterlimit:10.43299961;stroke-opacity:1;stroke-dasharray:none;stroke-dashoffset:0"
   inkscape:connector-curvature="0"
   id="path5487"
   d="m 248.71115,726.96688 h -0.46144 l -0.93122,-1.36208 -0.15288,1.36208 h -0.50314 v -0.0417 c 0.13899,-0.0111 0.2057,-0.0389 0.2057,-0.10285 0,-0.0222 -0.0111,-0.0639 -0.0278,-0.11397 -0.006,-0.0111 -0.0139,-0.0417 -0.025,-0.0834 -0.003,-0.008 -0.006,-0.0195 -0.008,-0.0306 l -0.29188,-1.02851 c -0.0862,-0.28909 -0.12787,-0.34469 -0.27241,-0.36137 v -0.0417 h 0.54761 v 0.0417 c -0.14177,0.0111 -0.19458,0.0445 -0.19458,0.12231 0,0.0278 0.0111,0.10007 0.025,0.14733 l 0.32524,1.19808 0.16956,-1.50941 h 0.0473 l 1.04519,1.5511 -0.35859,-1.30093 c -0.0445,-0.14732 -0.10007,-0.18902 -0.27798,-0.20848 v -0.0417 h 0.7561 v 0.0417 c -0.18903,0.0167 -0.21405,0.0334 -0.21405,0.11953 0,0.0473 0.006,0.0834 0.0306,0.16957 l 0.33913,1.22587 c 0.05,0.16679 0.0639,0.18069 0.22794,0.2057 z" /><g
   ns0:preamble="C:\\Users\\Uranix\\Documents\\header.inc "
   ns0:text="$N$ $M$\n"
   word-spacing="normal"
   letter-spacing="normal"
   font-size-adjust="none"
   font-stretch="normal"
   font-weight="normal"
   font-variant="normal"
   font-style="normal"
   stroke-miterlimit="10.433"
   xml:space="preserve"
   transform="matrix(0.27797594,0,0,0.27797594,154.23653,546.17657)"
   id="g5551"
   style="font-style:normal;font-variant:normal;font-weight:normal;font-stretch:normal;letter-spacing:normal;word-spacing:normal;text-anchor:start;fill:none;stroke:#000000;stroke-linecap:butt;stroke-linejoin:miter;stroke-miterlimit:10.43299961;stroke-opacity:1;stroke-dasharray:none;stroke-dashoffset:0">
<path
   id="path5553"
   d="m 230.93,713.62 h -1.99 v -0.15 c 0.57,-0.06 0.7,-0.15 0.7,-0.51 0,-0.12 -0.02,-0.24 -0.09,-0.44 -0.01,-0.03 -0.02,-0.07 -0.02,-0.08 l -1.01,-3.78 -2.08,4.96 h -1.6 v -0.15 c 0.47,-0.05 0.67,-0.18 0.86,-0.56 l -1.19,-4.15 c -0.38,-1.28 -0.46,-1.4 -1.03,-1.48 v -0.15 h 1.98 v 0.15 c -0.51,0.04 -0.7,0.15 -0.7,0.43 0,0.13 0.03,0.33 0.09,0.54 l 1.13,4.2 2.3,-5.47 h 0.18 l 1.43,5 c 0.37,1.29 0.41,1.35 1.04,1.49 z"
   inkscape:connector-curvature="0"
   style="fill:#000000;stroke-width:0" />

</g><path
   inkscape:connector-curvature="0"
   id="path5708"
   d="m 244.07186,730.73522 3.48672,0"
   style="fill:none;stroke:#000000;stroke-width:0.06574622px;stroke-linecap:butt;stroke-linejoin:miter;stroke-opacity:1;marker-start:url(#Arrow2Lstart);marker-end:url(#Arrow2Lend)" /><path
   sodipodi:nodetypes="cc"
   inkscape:connector-curvature="0"
   id="path5708-9"
   d="m 244.79826,735.56578 0,2.5424"
   style="font-style:normal;font-variant:normal;font-weight:normal;font-stretch:normal;letter-spacing:normal;word-spacing:normal;text-anchor:start;fill:none;stroke:#000000;stroke-width:0.06574622px;stroke-linecap:butt;stroke-linejoin:miter;stroke-miterlimit:10.43299961;stroke-opacity:1;stroke-dasharray:none;stroke-dashoffset:0;marker-start:url(#Arrow2Lstart);marker-end:url(#Arrow2Lend)" />
<path
   d="m 246.22508,737.48283 h -0.66567 c -0.20346,0 -0.345,-0.24106 -0.36712,-0.28308 h 0.0243 c 0.0133,0.0155 0.10394,0.12384 0.21894,0.12384 h 0.2477 l -0.14596,-0.47548 c -0.0221,-0.073 -0.0376,-0.13711 -0.0376,-0.18355 0,-0.0951 0.0509,-0.17472 0.15923,-0.17472 0.0509,0 0.115,0.0133 0.115,0.0929 0,0.12385 -0.11058,0.11279 -0.11058,0.21894 0,0.0221 0.002,0.0464 0.0133,0.0796 l 0.14375,0.4423 h 0.35385 z"
   id="path6160"
   inkscape:connector-curvature="0"
   style="font-style:normal;font-variant:normal;font-weight:normal;font-stretch:normal;letter-spacing:normal;word-spacing:normal;text-anchor:start;fill:#000000;stroke:#000000;stroke-width:0;stroke-linecap:butt;stroke-linejoin:miter;stroke-miterlimit:10.43299961;stroke-opacity:1;stroke-dasharray:none;stroke-dashoffset:0" /><path
   d="m 246.31917,731.32271 -0.007,-0.007 -0.004,-0.007 -0.004,-0.007 -0.007,-0.007 -0.004,-0.007 -0.004,-0.007 -0.004,-0.004 -0.004,-0.007 -0.004,-0.004 -0.004,-0.007 -0.004,-0.004 -0.004,-0.004 -0.004,-0.007 -0.004,-0.004 -0.007,-0.009 -0.009,-0.009 -0.007,-0.007 -0.007,-0.009 -0.004,-0.007 -0.007,-0.007 -0.007,-0.004 -0.004,-0.007 -0.004,-0.004 -0.004,-0.004 -0.004,-0.004 -0.004,-0.002 -0.004,-0.004 -0.004,-0.002 -0.004,-0.002 -0.002,-0.002 -0.004,-0.002 -0.002,-0.002 -0.004,0 -0.002,-0.002 -0.004,0 -0.002,0 -0.004,-0.002 -0.007,0 c -0.0199,0 -0.0354,0.0199 -0.0354,0.0398 0,0.0221 0.0354,0.16144 0.073,0.27644 0.0641,0.20788 0.10616,0.37154 0.10616,0.42461 0,0.0863 -0.0597,0.14597 -0.14597,0.14597 -0.14375,0 -0.29855,-0.14375 -0.50423,-0.46443 l 0.26539,0.98635 -0.0111,0.0111 c -0.12827,-0.0287 -0.21452,-0.0442 -0.34721,-0.0597 v -0.031 h 0.0575 c 0.002,0 0.004,0 0.007,0.002 0.031,0.0111 0.084,-0.0243 0.084,-0.0553 0,-0.031 -0.0111,-0.0862 -0.031,-0.15039 -0.002,-0.002 -0.009,-0.0332 -0.0221,-0.0818 l -0.29855,-1.12567 h 0.16586 c 0.0885,0.33837 0.11721,0.41356 0.20568,0.54625 0.115,0.17471 0.26317,0.31183 0.34057,0.31183 0.0332,0 0.0619,-0.0265 0.0619,-0.0553 0,-0.009 -0.007,-0.0376 -0.0155,-0.073 l -0.12164,-0.45558 c -0.0288,-0.10836 -0.042,-0.17692 -0.042,-0.20346 0,-0.0553 0.0354,-0.0929 0.0951,-0.0929 0.11279,0 0.19019,0.0597 0.32288,0.25211 z"
   id="path6162"
   inkscape:connector-curvature="0"
   style="font-style:normal;font-variant:normal;font-weight:normal;font-stretch:normal;letter-spacing:normal;word-spacing:normal;text-anchor:start;fill:#000000;stroke:#000000;stroke-width:0;stroke-linecap:butt;stroke-linejoin:miter;stroke-miterlimit:10.43299961;stroke-opacity:1;stroke-dasharray:none;stroke-dashoffset:0" /></g>
</g>  </g>
</svg>
