<?xml version="1.0" encoding="UTF-8" standalone="no"?>
<!-- Created with Inkscape (http://www.inkscape.org/) -->

<svg
   xmlns:dc="http://purl.org/dc/elements/1.1/"
   xmlns:cc="http://creativecommons.org/ns#"
   xmlns:rdf="http://www.w3.org/1999/02/22-rdf-syntax-ns#"
   xmlns:svg="http://www.w3.org/2000/svg"
   xmlns="http://www.w3.org/2000/svg"
   xmlns:sodipodi="http://sodipodi.sourceforge.net/DTD/sodipodi-0.dtd"
   xmlns:inkscape="http://www.inkscape.org/namespaces/inkscape"
   width="744.09448819"
   height="1052.3622047"
   id="svg2"
   version="1.1"
   inkscape:version="0.48.2 r9819"
   sodipodi:docname="Новый документ 1">
  <sodipodi:namedview
     id="base"
     pagecolor="#ffffff"
     bordercolor="#666666"
     borderopacity="1.0"
     inkscape:pageopacity="0.0"
     inkscape:pageshadow="2"
     inkscape:zoom="0.65488281"
     inkscape:cx="113.12109"
     inkscape:cy="674.33094"
     inkscape:document-units="px"
     inkscape:current-layer="layer1"
     showgrid="false"
     inkscape:window-width="1171"
     inkscape:window-height="648"
     inkscape:window-x="25"
     inkscape:window-y="25"
     inkscape:window-maximized="0" />
  <defs
     id="defs4"><marker
   style="overflow:visible"
   id="EmptyDiamondL"
   refX="0.0"
   refY="0.0"
   orient="auto"
   inkscape:stockid="EmptyDiamondL">
  <path
     transform="scale(0.8)"
     style="fill-rule:evenodd;fill:#FFFFFF;stroke:#000000;stroke-width:1.0pt;marker-start:none"
     d="M 0,-7.0710768 L -7.0710894,0 L 0,7.0710589 L 7.0710462,0 L 0,-7.0710768 z "
     id="path3865" />
</marker>
<marker
   style="overflow:visible"
   id="DotL"
   refX="0.0"
   refY="0.0"
   orient="auto"
   inkscape:stockid="DotL">
  <path
     transform="scale(0.8) translate(7.4, 1)"
     style="fill-rule:evenodd;stroke:#000000;stroke-width:1.0pt;marker-start:none;marker-end:none"
     d="M -2.5,-1.0 C -2.5,1.7600000 -4.7400000,4.0 -7.5,4.0 C -10.260000,4.0 -12.5,1.7600000 -12.5,-1.0 C -12.5,-3.7600000 -10.260000,-6.0 -7.5,-6.0 C -4.7400000,-6.0 -2.5,-3.7600000 -2.5,-1.0 z "
     id="path3820" />
</marker>














</defs>
  <metadata
     id="metadata7">
    <rdf:RDF>
      <cc:Work
         rdf:about="">
        <dc:format>image/svg+xml</dc:format>
        <dc:type
           rdf:resource="http://purl.org/dc/dcmitype/StillImage" />
        <dc:title></dc:title>
      </cc:Work>
    </rdf:RDF>
  </metadata>
  <g
     id="layer1"
     inkscape:groupmode="layer"
     inkscape:label="Layer 1">
    <path
       inkscape:connector-curvature="0"
       id="path2985"
       d="m 174.07695,476.68667 183.23889,0 0,-180.18491"
       style="fill:none;stroke:#000000;stroke-width:4;stroke-linecap:butt;stroke-linejoin:miter;stroke-opacity:1;marker-start:url(#DotL);marker-mid:url(#DotL);marker-end:url(#EmptyDiamondL);stroke-miterlimit:4;stroke-dasharray:none" />
    <path
       style="font-style:normal;font-variant:normal;font-weight:normal;font-stretch:normal;letter-spacing:normal;word-spacing:normal;text-anchor:start;fill:#000000;fill-opacity:1;fill-rule:evenodd;stroke:#000000;stroke-width:0;stroke-linecap:butt;stroke-linejoin:miter;stroke-miterlimit:10.43299961;stroke-opacity:1;stroke-dasharray:none;stroke-dashoffset:0"
       inkscape:connector-curvature="0"
       d="m 429.38349,302.28388 -0.22228,0.22228 -0.14818,0.22227 -0.14819,0.22228 -0.22227,0.22227 -0.14819,0.14819 -0.14818,0.22227 -0.29637,0.37046 -0.29636,0.37046 -0.29637,0.29637 -0.22227,0.37046 -0.29637,0.29636 -0.22228,0.22228 -0.22227,0.29636 -0.22228,0.22228 -0.22227,0.22227 -0.22228,0.22228 -0.14818,0.22227 -0.22228,0.14819 -0.14818,0.22227 -0.14818,0.14819 -0.14819,0.14818 -0.14818,0.0741 -0.14818,0.14819 -0.14819,0.0741 -0.14818,0.0741 -0.14818,0.14818 -0.14819,0.0741 -0.0741,0 -0.14818,0.0741 -0.0741,0.0741 -0.14819,0 -0.0741,0 -0.14818,0.0741 -0.14818,0 -0.0741,0 c -0.51864,0 -0.81501,-0.44455 -0.81501,-1.25956 0,-0.44455 0,-0.44455 1.40775,-5.77915 l 5.85324,-22.00524 h -5.48278 c -4.22323,11.41012 -4.74187,12.59559 -8.15009,17.93019 -4.44551,7.03871 -8.00191,10.81739 -10.37284,10.81739 -0.8891,0 -1.55593,-0.74092 -1.55593,-1.85229 0,-0.29637 0,-0.44455 0.0741,-0.66683 l 6.74235,-26.7471 -0.22228,-0.14819 c -4.22322,0.8891 -6.89053,1.40775 -11.11375,2.00048 v 0.96319 c 2.81548,0 2.96367,0.0741 3.63049,0.44455 0.44455,0.14818 0.81501,0.81501 0.81501,1.33365 0,0.59274 -0.37046,2.44503 -1.03728,4.96415 l -2.7414,10.44693 c -1.33365,5.26051 -1.85229,7.77963 -1.85229,9.11328 0,2.59321 1.33365,4.00095 3.92686,4.00095 5.26051,0 9.18737,-3.92686 17.63383,-18.15247 -2.14866,7.85372 -3.33413,12.96605 -3.33413,14.52198 0,2.14866 1.33365,3.5564 3.5564,3.5564 3.48231,0 5.18642,-1.48183 10.22466,-8.66873 z"
       id="path4578" />
    <path
       style="font-style:normal;font-variant:normal;font-weight:normal;font-stretch:normal;letter-spacing:normal;word-spacing:normal;text-anchor:start;fill:#000000;fill-opacity:1;fill-rule:evenodd;stroke:#000000;stroke-width:0;stroke-linecap:butt;stroke-linejoin:miter;stroke-miterlimit:10.43299961;stroke-opacity:1;stroke-dasharray:none;stroke-dashoffset:0"
       inkscape:connector-curvature="0"
       d="m 455.98241,278.05589 -1.11138,1.33365 c -1.48183,1.92639 -2.44502,2.7414 -3.11185,2.7414 -0.44455,0 -0.8891,-0.37046 -0.8891,-0.81501 0,-0.37046 0,-0.37046 0.74092,-3.26004 l 2.96367,-10.59511 c 0.22227,-1.03728 0.44455,-2.22275 0.44455,-2.88958 0,-1.92638 -1.40775,-3.18594 -3.40822,-3.18594 -3.26004,0 -6.52007,3.11185 -11.85468,11.33603 l 3.48232,-11.18785 -0.14819,-0.14818 c -2.81548,0.59273 -3.92686,0.81501 -8.37236,1.63002 v 0.81501 c 2.59321,0.0741 3.26003,0.37045 3.26003,1.40774 0,0.29636 0,0.59273 -0.0741,0.81501 l -4.96414,18.07837 h 3.85277 c 2.44502,-8.15008 2.88957,-9.26146 5.18642,-12.81786 3.11185,-4.74187 5.70506,-7.26099 7.63144,-7.26099 0.74092,0 1.25956,0.51864 1.25956,1.48183 0,0.59274 -0.37046,2.29685 -0.74092,3.92687 l -2.29684,8.44645 c -0.66682,2.6673 -0.81501,3.40822 -0.81501,3.92686 0,1.92639 0.74092,2.74139 2.44503,2.74139 2.29684,0 3.63049,-1.11137 7.1869,-5.85324 z"
       id="path4580" />
    <polygon
       style="font-style:normal;font-variant:normal;font-weight:normal;font-stretch:normal;letter-spacing:normal;word-spacing:normal;text-anchor:start;fill:#000000;fill-opacity:1;fill-rule:evenodd;stroke:#000000;stroke-width:0;stroke-linecap:butt;stroke-linejoin:miter;stroke-miterlimit:10.43299961;stroke-opacity:1;stroke-dasharray:none;stroke-dashoffset:0"
       points="232.33,712.72 232.33,712.33 233.92,712.33 233.92,710.74 234.31,710.74 234.31,712.33 235.9,712.33 235.9,712.72 234.31,712.72 234.31,714.29 233.92,714.29 233.92,712.72 "
       id="polygon4582"
       transform="matrix(7.4091711,0,0,-7.4091711,-1260.1298,5550.1257)" />
    <path
       style="font-style:normal;font-variant:normal;font-weight:normal;font-stretch:normal;letter-spacing:normal;word-spacing:normal;text-anchor:start;fill:#000000;fill-opacity:1;fill-rule:evenodd;stroke:#000000;stroke-width:0;stroke-linecap:butt;stroke-linejoin:miter;stroke-miterlimit:10.43299961;stroke-opacity:1;stroke-dasharray:none;stroke-dashoffset:0"
       inkscape:connector-curvature="0"
       d="m 505.92022,249.30831 -9.26146,4.66778 v 0.74091 c 0.59273,-0.29636 1.18547,-0.51864 1.40774,-0.59273 0.8891,-0.37046 1.7782,-0.51864 2.29684,-0.51864 1.11138,0 1.55593,0.74092 1.55593,2.37093 v 23.33889 c 0,1.70411 -0.44455,2.88958 -1.25956,3.33413 -0.74092,0.51864 -1.48183,0.66683 -3.63049,0.66683 v 0.815 h 14.22561 v -0.815 c -4.07505,0 -4.89006,-0.51865 -4.89006,-3.03776 V 249.3824 z"
       id="path4584" />
    <path
       style="font-style:normal;font-variant:normal;font-weight:normal;font-stretch:normal;letter-spacing:normal;word-spacing:normal;text-anchor:start;fill:#000000;fill-opacity:1;fill-rule:evenodd;stroke:#000000;stroke-width:0;stroke-linecap:butt;stroke-linejoin:miter;stroke-miterlimit:10.43299961;stroke-opacity:1;stroke-dasharray:none;stroke-dashoffset:0"
       inkscape:connector-curvature="0"
       d="m 467.76299,323.10365 -0.0741,0.14819 -0.0741,0.0741 -0.14819,0.14818 -0.0741,0.0741 0,0.0741 -0.0741,0.0741 0,0 -0.0741,0.0741 -0.0741,0.0741 0,0 -0.0741,0.0741 0,0 0,0.0741 -0.0741,0 0,0.0741 -0.0741,0.0741 0,0 -0.0741,0.0741 0,0 0,0 -0.0741,0.0741 0,0 0,0.0741 -0.0741,0 0,0 0,0.0741 0,0 0,0 c -1.48184,1.85229 -2.59321,2.74139 -3.33413,2.74139 -0.44455,0 -0.66682,-0.29637 -0.66682,-0.81501 0,-0.22228 0.22227,-1.03728 0.51864,-2.29684 l 3.48231,-12.96605 c 0.0741,-0.22228 0.14818,-1.11138 0.14818,-1.40775 0,-1.85229 -1.25956,-3.26003 -3.03776,-3.26003 -0.96319,0 -2.00048,0.37046 -3.26003,1.11138 -2.51912,1.7041 -4.59369,4.14913 -8.15009,9.7801 1.25956,-3.85277 2.00047,-6.81644 2.00047,-7.77963 0,-1.85229 -1.18546,-3.11185 -2.88957,-3.11185 -3.18595,0 -6.81644,3.40822 -11.55831,10.89148 l 3.03776,-10.81739 -0.14818,-0.0741 c -2.88958,0.59273 -4.00096,0.81501 -8.29827,1.55593 v 0.8891 h 1.33365 c 1.33365,0 2.00047,0.37045 2.00047,1.11137 0,0.59274 -1.18547,5.26051 -3.03776,11.78058 -1.18547,4.22323 -1.33365,4.74187 -2.00047,7.40917 h 3.85276 c 2.44503,-8.22418 3.26004,-10.15056 4.96415,-12.81786 2.88958,-4.37141 6.00143,-7.26099 7.77963,-7.26099 0.66682,0 1.03728,0.44455 1.03728,1.25956 0,0.51864 -1.63001,6.74235 -4.89005,18.81929 h 3.85277 c 2.07457,-8.07599 3.11185,-10.6692 5.70506,-14.2997 2.51912,-3.48231 5.11233,-5.77915 6.59416,-5.77915 0.59274,0 1.03729,0.51864 1.03729,1.11138 0,0.22227 -0.0741,0.8891 -0.37046,1.7782 l -2.96367,11.85467 c -0.44455,1.92639 -0.66683,2.88958 -0.66683,3.40822 0,1.55593 0.74092,2.37094 2.07457,2.37094 2.44503,0 4.66778,-1.70411 7.40917,-5.48279 l 0.29637,-0.37046 z"
       id="path4586" />
    <path
       style="font-style:normal;font-variant:normal;font-weight:normal;font-stretch:normal;letter-spacing:normal;word-spacing:normal;text-anchor:start;fill:#000000;fill-opacity:1;fill-rule:evenodd;stroke:#000000;stroke-width:0;stroke-linecap:butt;stroke-linejoin:miter;stroke-miterlimit:10.43299961;stroke-opacity:1;stroke-dasharray:none;stroke-dashoffset:0"
       inkscape:connector-curvature="0"
       d="m 359.97721,545.55636 -0.15103,0.22654 -0.22655,0.22655 -0.15103,0.15103 -0.15103,0.22654 -0.15103,0.22655 -0.22654,0.15103 -0.30206,0.45309 -0.30206,0.30206 -0.22655,0.37757 -0.30206,0.30206 -0.22654,0.30206 -0.30206,0.30206 -0.22655,0.22655 -0.22654,0.30206 -0.22655,0.22654 -0.15103,0.22655 -0.22654,0.15103 -0.15103,0.22654 -0.22655,0.15103 -0.15103,0.15103 -0.15103,0.15103 -0.15103,0.15103 -0.15103,0.0755 -0.15103,0.15103 -0.15103,0.0755 -0.15103,0.0755 -0.0755,0.0755 -0.15103,0.0755 -0.0755,0 -0.15103,0.0755 -0.15103,0 -0.0755,0.0755 -0.15103,0 -0.0755,0 -0.15103,0 c -0.5286,0 -0.83066,-0.45309 -0.83066,-1.28376 0,-0.45309 0,-0.45309 1.43478,-5.81465 l 5.96569,-22.50347 h -5.58811 c -4.22884,11.62931 -4.75745,12.83755 -8.23114,18.35014 -4.5309,7.09841 -8.23113,10.94968 -10.64761,10.94968 -0.90618,0 -1.58582,-0.75515 -1.58582,-1.88788 0,-0.30206 0,-0.45309 0.0755,-0.67963 l 6.87186,-27.26092 -0.22654,-0.15103 c -4.30436,0.9817 -7.0229,1.5103 -11.32725,2.03891 v 1.05721 c 2.86957,0 3.0206,0.0755 3.70023,0.45309 0.45309,0.15103 0.83067,0.83066 0.83067,1.35927 0,0.60412 -0.37758,2.49199 -1.05721,5.0595 l -2.79406,10.64762 c -1.35927,5.28605 -1.88787,7.85356 -1.88787,9.21283 0,2.71854 1.35927,4.15332 4.00229,4.15332 5.36157,0 9.36386,-4.07781 18.04809,-18.57669 -2.18994,8.08011 -3.39818,13.21513 -3.39818,14.80094 0,2.26545 1.35927,3.62472 3.62472,3.62472 3.47369,0 5.21054,-1.5103 10.34556,-8.75974 z"
       id="path4588" />
    <path
       style="font-style:normal;font-variant:normal;font-weight:normal;font-stretch:normal;letter-spacing:normal;word-spacing:normal;text-anchor:start;fill:#000000;fill-opacity:1;fill-rule:evenodd;stroke:#000000;stroke-width:0;stroke-linecap:butt;stroke-linejoin:miter;stroke-miterlimit:10.43299961;stroke-opacity:1;stroke-dasharray:none;stroke-dashoffset:0"
       inkscape:connector-curvature="0"
       d="m 387.08709,520.86295 -1.13272,1.35927 c -1.5103,1.96339 -2.41648,2.79406 -3.17163,2.79406 -0.45309,0 -0.83067,-0.45309 -0.83067,-0.83067 0,-0.37757 0,-0.37757 0.75515,-3.32266 l 2.94509,-10.79864 c 0.30206,-1.13273 0.45309,-2.26545 0.45309,-3.0206 0,-1.88788 -1.35927,-3.17163 -3.39818,-3.17163 -3.39817,0 -6.72083,3.17163 -12.15791,11.55379 l 3.5492,-11.47828 -0.15103,-0.0755 c -2.86957,0.5286 -3.92678,0.75515 -8.53319,1.58581 v 0.83067 c 2.71854,0.0755 3.39817,0.37757 3.39817,1.43478 0,0.30206 -0.0755,0.67964 -0.15103,0.90618 l -4.98399,18.35015 h 3.92678 c 2.41648,-8.30665 2.94509,-9.43938 5.21054,-12.98858 3.17163,-4.83296 5.89017,-7.47599 7.77804,-7.47599 0.83067,0 1.28376,0.60412 1.28376,1.5103 0,0.67964 -0.30206,2.41648 -0.75515,4.0023 l -2.26545,8.68422 c -0.67964,2.64303 -0.83067,3.39818 -0.83067,3.92678 0,1.96339 0.67964,2.86957 2.41648,2.86957 2.41648,0 3.77575,-1.13272 7.40047,-5.96568 z"
       id="path4590" />
    <path
       style="font-style:normal;font-variant:normal;font-weight:normal;font-stretch:normal;letter-spacing:normal;word-spacing:normal;text-anchor:start;fill:#000000;fill-opacity:1;fill-rule:evenodd;stroke:#000000;stroke-width:0;stroke-linecap:butt;stroke-linejoin:miter;stroke-miterlimit:10.43299961;stroke-opacity:1;stroke-dasharray:none;stroke-dashoffset:0"
       inkscape:connector-curvature="0"
       d="m 399.16949,566.77607 -0.15103,0.0755 -0.0755,0.15103 -0.0755,0.0755 -0.0755,0.15103 -0.0755,0 0,0.0755 -0.0755,0.0755 -0.0755,0 0,0.0755 -0.0755,0.0755 0,0 -0.0755,0.0755 0,0 -0.0755,0.0755 0,0.0755 0,0 -0.0755,0.0755 0,0 -0.0755,0.0755 0,0 0,0 -0.0755,0.0755 0,0 0,0.0755 0,0 -0.0755,0 0,0.0755 0,0 c -1.5103,1.88788 -2.56751,2.79406 -3.39818,2.79406 -0.37757,0 -0.67963,-0.37758 -0.67963,-0.83067 0,-0.30206 0.22654,-1.13272 0.5286,-2.41648 l 3.62472,-13.13961 c 0,-0.22654 0.15103,-1.20824 0.15103,-1.5103 0,-1.88787 -1.35927,-3.32266 -3.09611,-3.32266 -1.05721,0 -2.11442,0.37758 -3.32266,1.20824 -2.56751,1.66133 -4.75745,4.15333 -8.38217,9.96798 1.28376,-4.00229 2.11442,-7.02289 2.11442,-8.00459 0,-1.81236 -1.20824,-3.17163 -3.0206,-3.17163 -3.17163,0 -6.87186,3.47369 -11.70482,11.10071 l 3.0206,-10.94968 -0.15103,-0.15103 c -2.94509,0.67964 -4.0023,0.90618 -8.38217,1.66133 v 0.83067 h 1.28376 c 1.35927,0 2.0389,0.37757 2.0389,1.13272 0,0.60412 -1.20824,5.36157 -3.09611,12.0824 -1.20824,4.30436 -1.35927,4.83296 -2.03891,7.47599 h 3.92678 c 2.56751,-8.38217 3.32266,-10.27004 5.13502,-12.98858 2.94509,-4.45539 6.11672,-7.40047 7.85356,-7.40047 0.67964,0 1.05721,0.45309 1.05721,1.28375 0,0.45309 -1.66133,6.79635 -4.98399,19.1053 h 3.92678 c 2.11442,-8.15562 3.17163,-10.79865 5.89017,-14.5744 2.56751,-3.5492 5.21054,-5.81465 6.72084,-5.81465 0.5286,0 1.05721,0.5286 1.05721,1.05721 0,0.30206 -0.15103,0.90618 -0.37758,1.88787 l -3.09611,12.0824 c -0.45309,1.88788 -0.67964,2.86957 -0.67964,3.39818 0,1.58581 0.75515,2.41648 2.11442,2.41648 2.492,0 4.83296,-1.73685 7.62702,-5.58811 l 0.22654,-0.37758 z"
       id="path4592" />
    <path
       style="font-style:normal;font-variant:normal;font-weight:normal;font-stretch:normal;letter-spacing:normal;word-spacing:normal;text-anchor:start;fill:#000000;fill-opacity:1;fill-rule:evenodd;stroke:#000000;stroke-width:0;stroke-linecap:butt;stroke-linejoin:miter;stroke-miterlimit:10.43299961;stroke-opacity:1;stroke-dasharray:none;stroke-dashoffset:0"
       inkscape:connector-curvature="0"
       d="m 119.42546,542.71198 -0.15445,0.23166 -0.23166,0.23166 -0.15444,0.23166 -0.15444,0.23166 -0.15444,0.15444 -0.23166,0.23166 -0.30888,0.38611 -0.30888,0.3861 -0.23166,0.30888 -0.30888,0.3861 -0.23166,0.30888 -0.30888,0.23166 -0.23167,0.30888 -0.23166,0.23166 -0.23166,0.23166 -0.15444,0.23166 -0.23166,0.23167 -0.15444,0.15444 -0.23166,0.23166 -0.15444,0.15444 -0.15444,0.15444 -0.15444,0.0772 -0.15444,0.15444 -0.15444,0.0772 -0.15444,0.15444 -0.15444,0.0772 -0.0772,0.0772 -0.15444,0 -0.0772,0.0772 -0.15445,0.0772 -0.15444,0 -0.0772,0 -0.15444,0.0772 -0.0772,0 -0.15444,0 c -0.54054,0 -0.84942,-0.46332 -0.84942,-1.31274 0,-0.46333 0,-0.46333 1.46718,-6.02319 l 6.10041,-22.93442 h -5.7143 c -4.32434,11.89193 -4.86488,13.12745 -8.41701,18.68731 -4.63321,7.33593 -8.417007,11.27416 -10.888056,11.27416 -0.926643,0 -1.621625,-0.7722 -1.621625,-1.93051 0,-0.30888 0,-0.46332 0.07722,-0.69498 l 7.027041,-27.87652 -0.231657,-0.15444 c -4.401556,1.00387 -7.181485,1.46719 -11.583041,2.00773 v 1.08108 c 2.934371,0 3.088811,0.0772 3.783794,0.46332 0.463321,0.15445 0.849423,0.84943 0.849423,1.38997 0,0.61776 -0.386102,2.54827 -1.081084,5.17376 l -2.85715,10.88806 c -1.389965,5.48263 -1.930507,8.10812 -1.930507,9.49809 0,2.77993 1.389965,4.16989 4.092674,4.16989 5.48264,0 9.575318,-4.09267 18.455638,-18.91896 -2.23938,8.18535 -3.47491,13.51354 -3.47491,15.13517 0,2.31661 1.38997,3.62935 3.70658,3.62935 3.55212,0 5.32819,-1.46718 10.57917,-8.95755 z"
       id="path4594" />
    <path
       style="font-style:normal;font-variant:normal;font-weight:normal;font-stretch:normal;letter-spacing:normal;word-spacing:normal;text-anchor:start;fill:#000000;fill-opacity:1;fill-rule:evenodd;stroke:#000000;stroke-width:0;stroke-linecap:butt;stroke-linejoin:miter;stroke-miterlimit:10.43299961;stroke-opacity:1;stroke-dasharray:none;stroke-dashoffset:0"
       inkscape:connector-curvature="0"
       d="m 147.14753,517.53817 -1.15831,1.38997 c -1.5444,1.9305 -2.47104,2.85715 -3.24325,2.85715 -0.46332,0 -0.84942,-0.46333 -0.84942,-0.92665 0,-0.3861 0,-0.3861 0.7722,-3.32047 l 3.01159,-11.11972 c 0.30888,-1.08108 0.46332,-2.31661 0.46332,-3.01159 0,-1.93051 -1.38996,-3.32047 -3.47491,-3.32047 -3.47491,0 -6.8726,3.24325 -12.43246,11.8147 l 3.62936,-11.66026 -0.15444,-0.15444 c -2.93438,0.61776 -4.01546,0.84942 -8.7259,1.69885 v 0.84942 c 2.77993,0.0772 3.47492,0.3861 3.47492,1.46718 0,0.30889 -0.0772,0.61777 -0.15444,0.84943 l -5.09654,18.84174 h 4.01545 c 2.47105,-8.49423 3.01159,-9.65253 5.3282,-13.28188 3.24325,-5.01932 6.02318,-7.64481 7.95368,-7.64481 0.84943,0 1.31275,0.54054 1.31275,1.54441 0,0.61776 -0.30888,2.39382 -0.7722,4.09267 l -2.31661,8.88033 c -0.69498,2.70271 -0.84942,3.47491 -0.84942,4.01545 0,2.00773 0.69498,2.85715 2.47104,2.85715 2.47105,0 3.86102,-1.08108 7.56759,-6.02318 z"
       id="path4596" />
    <path
       style="font-style:normal;font-variant:normal;font-weight:normal;font-stretch:normal;letter-spacing:normal;word-spacing:normal;text-anchor:start;fill:#000000;fill-opacity:1;fill-rule:evenodd;stroke:#000000;stroke-width:0;stroke-linecap:butt;stroke-linejoin:miter;stroke-miterlimit:10.43299961;stroke-opacity:1;stroke-dasharray:none;stroke-dashoffset:0"
       inkscape:connector-curvature="0"
       d="m 159.50277,571.12904 -0.15444,0.15444 -0.0772,0.15444 -0.0772,0.0772 -0.0772,0.0772 -0.0772,0.0772 0,0.0772 -0.0772,0 -0.0772,0.0772 0,0.0772 -0.0772,0 0,0.0772 -0.0772,0.0772 0,0 -0.0772,0.0772 0,0 0,0.0772 -0.0772,0 0,0.0772 -0.0772,0 0,0.0772 0,0 -0.0772,0.0772 0,0 0,0 0,0.0772 -0.0772,0 0,0 0,0 c -1.54441,2.00773 -2.62549,2.85715 -3.47491,2.85715 -0.38611,0 -0.69499,-0.30888 -0.69499,-0.84942 0,-0.23166 0.23166,-1.08108 0.54054,-2.39383 l 3.70658,-13.51355 c 0,-0.15444 0.15444,-1.1583 0.15444,-1.46718 0,-1.93051 -1.38997,-3.39769 -3.16603,-3.39769 -1.08109,0 -2.16217,0.3861 -3.39769,1.1583 -2.62549,1.77607 -4.86488,4.32434 -8.57145,10.2703 1.31274,-4.09268 2.16216,-7.18149 2.16216,-8.18535 0,-1.93051 -1.23552,-3.24325 -3.08881,-3.24325 -3.24325,0 -7.02704,3.55213 -11.96914,11.35138 l 3.08881,-11.19694 -0.15444,-0.15444 c -3.01159,0.69498 -4.09267,0.84942 -8.57145,1.69884 v 0.84943 h 1.31275 c 1.38996,0 2.08495,0.3861 2.08495,1.1583 0,0.61776 -1.23553,5.48264 -3.16603,12.27802 -1.23553,4.40156 -1.38997,4.9421 -2.08495,7.72203 h 4.01545 c 2.62549,-8.57145 3.39769,-10.50196 5.25098,-13.35911 3.01159,-4.55599 6.25484,-7.56758 8.0309,-7.56758 0.69499,0 1.08109,0.54054 1.08109,1.38996 0,0.46332 -1.69885,6.94983 -5.09654,19.53673 h 4.01545 c 2.16217,-8.41701 3.24326,-11.0425 6.02319,-14.90351 2.62548,-3.62935 5.32819,-6.02318 6.8726,-6.02318 0.54054,0 1.08108,0.54054 1.08108,1.1583 0,0.23166 -0.15444,0.92664 -0.3861,1.85329 l -3.16603,12.35524 c -0.46332,2.00773 -0.69498,3.01159 -0.69498,3.55213 0,1.62163 0.7722,2.47105 2.16217,2.47105 2.54826,0 4.94209,-1.77606 7.79924,-5.7143 l 0.23166,-0.3861 z"
       id="path4598" />
    <polygon
       style="font-style:normal;font-variant:normal;font-weight:normal;font-stretch:normal;letter-spacing:normal;word-spacing:normal;text-anchor:start;fill:#000000;fill-opacity:1;fill-rule:evenodd;stroke:#000000;stroke-width:0;stroke-linecap:butt;stroke-linejoin:miter;stroke-miterlimit:10.43299961;stroke-opacity:1;stroke-dasharray:none;stroke-dashoffset:0"
       points="248.82,681.86 248.82,681.47 252.39,681.47 252.39,681.86 "
       id="polygon4600"
       transform="matrix(7.722027,0,0,-7.722027,-1756.7954,5827.5129)" />
    <path
       style="font-style:normal;font-variant:normal;font-weight:normal;font-stretch:normal;letter-spacing:normal;word-spacing:normal;text-anchor:start;fill:#000000;fill-opacity:1;fill-rule:evenodd;stroke:#000000;stroke-width:0;stroke-linecap:butt;stroke-linejoin:miter;stroke-miterlimit:10.43299961;stroke-opacity:1;stroke-dasharray:none;stroke-dashoffset:0"
       inkscape:connector-curvature="0"
       d="m 211.16313,541.16757 -9.65253,4.86488 v 0.7722 c 0.61776,-0.30888 1.23552,-0.46332 1.46718,-0.61776 0.92665,-0.3861 1.85329,-0.61776 2.39383,-0.61776 1.15831,0 1.62163,0.84942 1.62163,2.54827 v 24.32438 c 0,1.77607 -0.3861,3.01159 -1.31275,3.47492 -0.7722,0.54054 -1.5444,0.69498 -3.78379,0.69498 v 0.84942 h 14.82629 v -0.84942 c -4.24711,0 -5.09654,-0.54054 -5.09654,-3.16603 v -32.20086 z"
       id="path4602" />
  </g>
</svg>
