<?xml version="1.0" encoding="UTF-8" standalone="no"?>
<!-- Created with Inkscape (http://www.inkscape.org/) -->

<svg
   xmlns:dc="http://purl.org/dc/elements/1.1/"
   xmlns:cc="http://creativecommons.org/ns#"
   xmlns:rdf="http://www.w3.org/1999/02/22-rdf-syntax-ns#"
   xmlns:svg="http://www.w3.org/2000/svg"
   xmlns="http://www.w3.org/2000/svg"
   xmlns:sodipodi="http://sodipodi.sourceforge.net/DTD/sodipodi-0.dtd"
   xmlns:inkscape="http://www.inkscape.org/namespaces/inkscape"
   width="184.65579mm"
   height="111.02554mm"
   viewBox="0 0 654.29218 393.39757"
   id="svg2"
   version="1.1"
   inkscape:version="0.91 r13725"
   inkscape:export-filename="/home/uranix/compmath-slides/jupyter-slides/05-Nonlinear/bisect.png"
   inkscape:export-xdpi="300"
   inkscape:export-ydpi="300"
   sodipodi:docname="bisect.svg">
  <sodipodi:namedview
     id="base"
     pagecolor="#ffffff"
     bordercolor="#666666"
     borderopacity="1.0"
     inkscape:pageopacity="0.0"
     inkscape:pageshadow="2"
     inkscape:zoom="0.98994949"
     inkscape:cx="132.76832"
     inkscape:cy="242.19853"
     inkscape:document-units="px"
     inkscape:current-layer="layer1"
     showgrid="false"
     inkscape:window-width="1920"
     inkscape:window-height="1053"
     inkscape:window-x="1920"
     inkscape:window-y="0"
     inkscape:window-maximized="1"
     showguides="false"
     inkscape:guide-bbox="true"
     fit-margin-top="0"
     fit-margin-left="0"
     fit-margin-right="0"
     fit-margin-bottom="0">
    <sodipodi:guide
       position="177.09703,275.15122"
       orientation="1,0"
       id="guide5647" />
    <sodipodi:guide
       position="367.00571,224.64359"
       orientation="1,0"
       id="guide5649" />
    <sodipodi:guide
       position="556.91439,200.90501"
       orientation="1,0"
       id="guide5651" />
    <sodipodi:guide
       position="137.19601,317.07254"
       orientation="0,1"
       id="guide5653" />
    <sodipodi:guide
       position="367.00571,243.33141"
       orientation="0,1"
       id="guide5655" />
    <sodipodi:guide
       position="528.63012,79.181627"
       orientation="0,1"
       id="guide5657" />
  </sodipodi:namedview>
  <defs
     id="defs4">
    <marker
       inkscape:isstock="true"
       style="overflow:visible"
       id="marker5847"
       refX="0"
       refY="0"
       orient="auto"
       inkscape:stockid="DotL">
      <path
         transform="matrix(0.8,0,0,0.8,5.92,0.8)"
         style="fill:#000000;fill-opacity:1;fill-rule:evenodd;stroke:#000000;stroke-width:1pt;stroke-opacity:1"
         d="m -2.5,-1 c 0,2.76 -2.24,5 -5,5 -2.76,0 -5,-2.24 -5,-5 0,-2.76 2.24,-5 5,-5 2.76,0 5,2.24 5,5 z"
         id="path5849"
         inkscape:connector-curvature="0" />
    </marker>
    <marker
       inkscape:isstock="true"
       style="overflow:visible"
       id="marker5171"
       refX="0"
       refY="0"
       orient="auto"
       inkscape:stockid="DotL">
      <path
         transform="matrix(0.8,0,0,0.8,5.92,0.8)"
         style="fill:#000000;fill-opacity:1;fill-rule:evenodd;stroke:#000000;stroke-width:1pt;stroke-opacity:1"
         d="m -2.5,-1 c 0,2.76 -2.24,5 -5,5 -2.76,0 -5,-2.24 -5,-5 0,-2.76 2.24,-5 5,-5 2.76,0 5,2.24 5,5 z"
         id="path5173"
         inkscape:connector-curvature="0" />
    </marker>
    <marker
       inkscape:stockid="DotL"
       orient="auto"
       refY="0"
       refX="0"
       id="DotL"
       style="overflow:visible"
       inkscape:isstock="true"
       inkscape:collect="always">
      <path
         id="path4207"
         d="m -2.5,-1 c 0,2.76 -2.24,5 -5,5 -2.76,0 -5,-2.24 -5,-5 0,-2.76 2.24,-5 5,-5 2.76,0 5,2.24 5,5 z"
         style="fill:#000000;fill-opacity:1;fill-rule:evenodd;stroke:#000000;stroke-width:1pt;stroke-opacity:1"
         transform="matrix(0.8,0,0,0.8,5.92,0.8)"
         inkscape:connector-curvature="0" />
    </marker>
    <marker
       inkscape:isstock="true"
       style="overflow:visible"
       id="marker4454"
       refX="0"
       refY="0"
       orient="auto"
       inkscape:stockid="Arrow2Lend">
      <path
         transform="matrix(-1.1,0,0,-1.1,-1.1,0)"
         d="M 8.7185878,4.0337352 -2.2072895,0.01601326 8.7185884,-4.0017078 c -1.7454984,2.3720609 -1.7354408,5.6174519 -6e-7,8.035443 z"
         style="fill:#000000;fill-opacity:1;fill-rule:evenodd;stroke:#000000;stroke-width:0.625;stroke-linejoin:round;stroke-opacity:1"
         id="path4456"
         inkscape:connector-curvature="0" />
    </marker>
    <marker
       inkscape:stockid="Arrow2Lend"
       orient="auto"
       refY="0"
       refX="0"
       id="Arrow2Lend"
       style="overflow:visible"
       inkscape:isstock="true"
       inkscape:collect="always">
      <path
         id="path4167"
         style="fill:#000000;fill-opacity:1;fill-rule:evenodd;stroke:#000000;stroke-width:0.625;stroke-linejoin:round;stroke-opacity:1"
         d="M 8.7185878,4.0337352 -2.2072895,0.01601326 8.7185884,-4.0017078 c -1.7454984,2.3720609 -1.7354408,5.6174519 -6e-7,8.035443 z"
         transform="matrix(-1.1,0,0,-1.1,-1.1,0)"
         inkscape:connector-curvature="0" />
    </marker>
    <marker
       inkscape:stockid="Arrow1Lend"
       orient="auto"
       refY="0"
       refX="0"
       id="Arrow1Lend"
       style="overflow:visible"
       inkscape:isstock="true">
      <path
         id="path4149"
         d="M 0,0 5,-5 -12.5,0 5,5 0,0 Z"
         style="fill:#000000;fill-opacity:1;fill-rule:evenodd;stroke:#000000;stroke-width:1pt;stroke-opacity:1"
         transform="matrix(-0.8,0,0,-0.8,-10,0)"
         inkscape:connector-curvature="0" />
    </marker>
  </defs>
  <metadata
     id="metadata7">
    <rdf:RDF>
      <cc:Work
         rdf:about="">
        <dc:format>image/svg+xml</dc:format>
        <dc:type
           rdf:resource="http://purl.org/dc/dcmitype/StillImage" />
        <dc:title></dc:title>
      </cc:Work>
    </rdf:RDF>
  </metadata>
  <g
     inkscape:label="Layer 1"
     inkscape:groupmode="layer"
     id="layer1"
     transform="translate(-19.377635,-11.341525)">
    <path
       style="fill:none;fill-rule:evenodd;stroke:#000000;stroke-width:0.80000001;stroke-linecap:butt;stroke-linejoin:miter;stroke-miterlimit:4;stroke-dasharray:none;stroke-opacity:1;marker-end:url(#marker4454)"
       d="m 56.568543,236.15895 613.162597,0"
       id="path4136"
       inkscape:connector-curvature="0" />
    <path
       style="fill:none;fill-rule:evenodd;stroke:#000000;stroke-width:0.80000001;stroke-linecap:butt;stroke-linejoin:miter;stroke-miterlimit:4;stroke-dasharray:none;stroke-opacity:1;marker-end:url(#Arrow2Lend)"
       d="m 84.852814,404.73908 0,-377.681709"
       id="path4140"
       inkscape:connector-curvature="0"
       sodipodi:nodetypes="cc" />
    <path
       style="fill:none;fill-rule:evenodd;stroke:#000000;stroke-width:1px;stroke-linecap:butt;stroke-linejoin:miter;stroke-opacity:1"
       d="m 196.42857,230.93363 0,11.03369"
       id="path4494"
       inkscape:connector-curvature="0" />
    <path
       inkscape:connector-curvature="0"
       id="path4496"
       d="m 196.42857,230.93363 0,11.03369"
       style="fill:none;fill-rule:evenodd;stroke:#000000;stroke-width:1px;stroke-linecap:butt;stroke-linejoin:miter;stroke-opacity:1" />
    <path
       style="fill:none;fill-rule:evenodd;stroke:#000000;stroke-width:1px;stroke-linecap:butt;stroke-linejoin:miter;stroke-opacity:1"
       d="m 576.42857,230.93363 0,11.03369"
       id="path4498"
       inkscape:connector-curvature="0" />
    <g
       id="g4569">
      <path
         d="m 386.42857,230.93363 c 0,0 0,11.03369 0,11.03369"
         style="fill:none;fill-rule:evenodd;stroke:#000000;stroke-width:1;stroke-linecap:butt;stroke-linejoin:miter;stroke-opacity:1"
         id="path4571"
         inkscape:connector-curvature="0" />
    </g>
    <path
       sodipodi:nodetypes="cc"
       inkscape:connector-curvature="0"
       id="path4589"
       d="m 140.71429,126.6479 c 184.5033,-196.929116 406.36484,317.38647 455.71429,175"
       style="fill:none;fill-rule:evenodd;stroke:#000000;stroke-width:2;stroke-linecap:butt;stroke-linejoin:miter;stroke-miterlimit:4;stroke-dasharray:none;stroke-opacity:1" />
    <path
       id="path4613"
       d="m 200.09282,249.57928 -0.0608,-0.11489 -0.0608,-0.11488 -0.0608,-0.10813 -0.0608,-0.10813 -0.0676,-0.10813 -0.0676,-0.10813 -0.0743,-0.10137 -0.0743,-0.0946 -0.0743,-0.10137 -0.0811,-0.0879 -0.0811,-0.0946 -0.0811,-0.0879 -0.0878,-0.0811 -0.0879,-0.0811 -0.0946,-0.0743 -0.0946,-0.0743 -0.0946,-0.0743 -0.10137,-0.0608 -0.10137,-0.0676 -0.10137,-0.0541 -0.10813,-0.0541 -0.11489,-0.0541 -0.11488,-0.0405 -0.11489,-0.0473 -0.11489,-0.0338 -0.12164,-0.0338 -0.12841,-0.027 -0.1284,-0.0203 -0.1284,-0.0203 -0.13516,-0.0135 -0.13517,-0.007 -0.14191,0 0.0338,0.73663 c 2.18285,0 2.65592,2.75729 2.65592,2.95328 0,0.21626 -0.0608,0.41224 -0.0946,0.58119 l -1.68951,6.60263 c -0.16896,0.60147 -0.16896,0.66229 -0.67581,1.24349 -1.47326,1.85171 -2.85866,2.38559 -3.79803,2.38559 -1.68276,0 -2.15583,-1.84495 -2.15583,-3.16277 0,-1.68276 1.07454,-5.8187 1.85171,-7.37305 1.04075,-1.98687 2.56131,-3.23036 3.90617,-3.23036 l -0.0338,-0.73663 c -3.93996,0 -8.10968,4.94015 -8.10968,9.86002 0,3.16954 1.84495,5.38618 4.47384,5.38618 0.66904,0 2.35856,-0.14192 4.37246,-2.52752 0.27709,1.4192 1.44623,2.52752 3.06141,2.52752 1.18266,0 1.95984,-0.77042 2.49372,-1.85171 0.57444,-1.20969 1.01371,-3.2709 1.01371,-3.33173 0,-0.3379 -0.30411,-0.3379 -0.39872,-0.3379 -0.3379,0 -0.37169,0.13516 -0.47307,0.60823 -0.57443,2.18961 -1.18266,4.16972 -2.5613,4.16972 -0.90558,0 -1.01371,-0.87179 -1.01371,-1.54759 0,-0.74339 0.0676,-1.00696 0.43251,-2.49373 0.38521,-1.41244 0.44604,-1.75034 0.75015,-3.02761 l 1.20969,-4.71038 c 0.23653,-0.93937 0.23653,-1.0137 0.23653,-1.14211 0,-0.58119 -0.40548,-0.9191 -0.97991,-0.9191 -0.80421,0 -1.31107,0.75015 -1.41244,1.48678 z"
       inkscape:connector-curvature="0"
       style="font-style:normal;font-variant:normal;font-weight:normal;font-stretch:normal;letter-spacing:normal;word-spacing:normal;text-anchor:start;fill:#000000;fill-opacity:1;fill-rule:evenodd;stroke:#000000;stroke-width:0;stroke-linecap:butt;stroke-linejoin:miter;stroke-miterlimit:10.43299961;stroke-dasharray:none;stroke-dashoffset:0;stroke-opacity:1" />
    <path
       id="path4615"
       d="m 390.05876,248.07637 -0.10137,0 -0.0946,0 -0.10137,0.007 -0.0946,0 -0.0946,0.007 -0.0946,0.0135 -0.0473,0.007 -0.0473,0.007 -0.0473,0.0135 -0.0473,0.007 -0.0405,0.0135 -0.0473,0.0135 -0.0473,0.0135 -0.0473,0.0135 -0.0405,0.0203 -0.0473,0.0203 -0.0473,0.0203 -0.0405,0.027 -0.0473,0.027 -0.0473,0.027 -0.0405,0.0338 -0.0473,0.027 -0.0405,0.0405 -0.0473,0.0338 -0.0473,0.0405 -0.0405,0.0473 c -0.54065,0.50686 -0.60147,1.07454 -0.60147,1.30431 0,0.81773 0.60147,1.18266 1.24349,1.18266 0.97316,0 1.89225,-0.81097 1.89225,-2.14906 0,-1.64897 -1.58814,-2.89246 -3.9805,-2.89246 -4.54142,0 -9.02201,4.81175 -9.02201,9.55591 0,3.02761 1.95308,5.69029 5.45375,5.69029 4.81175,0 7.64338,-3.56826 7.64338,-3.97374 0,-0.19599 -0.20274,-0.43928 -0.40549,-0.43928 -0.16219,0 -0.22977,0.0743 -0.43927,0.33791 -2.66268,3.33172 -6.32555,3.33172 -6.72428,3.33172 -2.12203,0 -3.03437,-1.64221 -3.03437,-3.66963 0,-1.37188 0.66905,-4.64955 1.81792,-6.73103 1.0475,-1.91929 2.89245,-3.36552 4.73741,-3.36552 1.15563,0 2.4329,0.43252 2.90596,1.3381 z"
       inkscape:connector-curvature="0"
       style="font-style:normal;font-variant:normal;font-weight:normal;font-stretch:normal;letter-spacing:normal;word-spacing:normal;text-anchor:start;fill:#000000;fill-opacity:1;fill-rule:evenodd;stroke:#000000;stroke-width:0;stroke-linecap:butt;stroke-linejoin:miter;stroke-miterlimit:10.43299961;stroke-dasharray:none;stroke-dashoffset:0;stroke-opacity:1" />
    <path
       id="path4617"
       d="m 574.36462,244.30702 0,0 0,-0.007 0,0 0,-0.007 0,-0.0135 0,-0.007 0,-0.0135 -0.007,-0.0135 0,-0.0135 0,-0.0135 -0.007,-0.0135 -0.007,-0.0135 0,-0.0135 -0.007,-0.0203 -0.007,-0.0135 -0.0135,-0.0203 -0.007,-0.0135 -0.0135,-0.0203 -0.007,-0.0135 -0.0135,-0.0135 -0.0203,-0.0203 -0.007,-0.007 -0.007,-0.007 -0.007,-0.007 -0.0135,-0.007 -0.007,-0.007 -0.0135,-0.007 -0.007,-0.007 -0.0135,-0.007 -0.0135,-0.007 -0.007,-0.007 -0.0135,0 -0.0135,-0.007 -0.0135,-0.007 -0.0135,0 -0.0203,-0.007 -0.0135,-0.007 -0.0135,0 -0.0203,0 -0.0135,-0.007 -0.0203,0 -0.0135,0 -0.0203,-0.007 -0.0203,0 -0.0203,0 c -0.78393,0 -3.23035,0.27708 -4.1089,0.3379 -0.27032,0.0338 -0.64202,0.0676 -0.64202,0.67581 0,0.40548 0.30412,0.40548 0.81097,0.40548 1.61518,0 1.68276,0.22977 1.68276,0.56768 0,0.24329 -0.31087,1.3854 -0.47982,2.08824 l -2.75053,10.9751 c -0.40549,1.68951 -0.54065,2.23016 -0.54065,3.39931 0,3.19656 1.78413,5.29156 4.27786,5.29156 l 0,-0.74339 c -1.15563,0 -2.26396,-0.90558 -2.26396,-3.3993 0,-0.64202 0,-1.27728 0.54065,-3.39931 l 0.73663,-3.10195 c 0.20274,-0.74339 0.20274,-0.80421 0.50685,-1.17591 1.64897,-2.18285 3.16954,-2.68971 4.04808,-2.68971 1.21646,0 2.12204,1.0002 2.12204,3.16954 0,1.98011 -1.12184,5.84572 -1.72331,7.13651 -1.10832,2.25044 -2.66268,3.46013 -3.96698,3.46013 l 0,0.74339 c 3.96698,0 8.10967,-5.01448 8.10967,-9.86678 0,-3.0614 -1.78412,-5.37942 -4.48059,-5.37942 -1.54084,0 -2.92625,0.96641 -3.93996,2.01391 z"
       inkscape:connector-curvature="0"
       style="font-style:normal;font-variant:normal;font-weight:normal;font-stretch:normal;letter-spacing:normal;word-spacing:normal;text-anchor:start;fill:#000000;fill-opacity:1;fill-rule:evenodd;stroke:#000000;stroke-width:0;stroke-linecap:butt;stroke-linejoin:miter;stroke-miterlimit:10.43299961;stroke-dasharray:none;stroke-dashoffset:0;stroke-opacity:1" />
    <g
       id="g4733"
       transform="translate(-127.85714,-327.85715)">
      <path
         style="font-style:normal;font-variant:normal;font-weight:normal;font-stretch:normal;letter-spacing:normal;word-spacing:normal;text-anchor:start;fill:#000000;fill-opacity:1;fill-rule:evenodd;stroke:#000000;stroke-width:0;stroke-linecap:butt;stroke-linejoin:miter;stroke-miterlimit:10.43299961;stroke-dasharray:none;stroke-dashoffset:0;stroke-opacity:1"
         inkscape:connector-curvature="0"
         d="m 158.81903,411.69979 2.89921,0 c 0.6758,0 1.01371,0 1.01371,-0.67581 0,-0.37169 -0.33791,-0.37169 -0.91234,-0.37169 l -2.79784,0 0.7096,-3.84534 c 0.13516,-0.70284 0.60822,-3.08844 0.81096,-3.49392 0.30412,-0.64202 0.87855,-1.14887 1.58815,-1.14887 0.12164,0 1.00019,0 1.64221,0.61498 -1.47326,0.12165 -1.81116,1.30431 -1.81116,1.81116 0,0.77042 0.60147,1.17591 1.24348,1.17591 0.87855,0 1.84495,-0.74339 1.84495,-2.02066 0,-1.5476 -1.54759,-2.31802 -2.91948,-2.31802 -1.15563,0 -3.27766,0.60147 -4.27786,3.93319 -0.20274,0.7096 -0.30411,1.0475 -1.10832,5.29157 l -2.32477,0 c -0.64202,0 -1.01371,0 -1.01371,0.63526 0,0.41224 0.30411,0.41224 0.93937,0.41224 l 2.23016,0 -2.53428,13.29312 c -0.60146,3.26414 -1.1759,6.33906 -2.92624,6.33906 -0.13516,0 -0.97316,0 -1.61518,-0.61498 1.5476,-0.0946 1.84496,-1.31107 1.84496,-1.81792 0,-0.77042 -0.60147,-1.18266 -1.24349,-1.18266 -0.87855,0 -1.84495,0.74338 -1.84495,2.02742 0,1.5138 1.47326,2.32477 2.85866,2.32477 1.84495,0 3.19657,-1.98687 3.79804,-3.2709 1.08129,-2.12204 1.85846,-6.19039 1.89225,-6.43368 z"
         id="path4619" />
      <path
         style="font-style:normal;font-variant:normal;font-weight:normal;font-stretch:normal;letter-spacing:normal;word-spacing:normal;text-anchor:start;fill:#000000;fill-opacity:1;fill-rule:evenodd;stroke:#000000;stroke-width:0;stroke-linecap:butt;stroke-linejoin:miter;stroke-miterlimit:10.43299961;stroke-dasharray:none;stroke-dashoffset:0;stroke-opacity:1"
         inkscape:connector-curvature="0"
         d="m 177.72134,433.23775 0,-0.0135 0,-0.0203 0,-0.007 -0.007,-0.0135 0,-0.007 0,-0.0135 -0.007,-0.007 -0.007,-0.0135 0,-0.0135 -0.007,-0.0135 -0.0135,-0.0135 -0.007,-0.0203 -0.0135,-0.0135 -0.0135,-0.0203 -0.0135,-0.0203 -0.0135,-0.0203 -0.0203,-0.0203 -0.0203,-0.027 -0.007,-0.0135 -0.0135,-0.0135 -0.0135,-0.0135 -0.007,-0.0135 -0.0135,-0.0135 -0.0135,-0.0203 -0.0135,-0.0135 -0.0203,-0.0135 -0.0135,-0.0203 -0.0135,-0.0135 -0.0203,-0.0203 -0.0135,-0.0203 -0.0203,-0.0203 -0.0203,-0.0203 -0.0203,-0.0203 -0.0203,-0.0203 -0.0203,-0.0203 -0.0203,-0.0203 -0.0203,-0.027 -0.027,-0.0203 -0.0203,-0.027 -0.027,-0.0203 -0.027,-0.027 -0.0203,-0.027 c -4.20352,-4.24407 -5.28481,-10.60341 -5.28481,-15.75305 0,-5.85925 1.27728,-11.72525 5.41997,-15.92201 0.43252,-0.41224 0.43252,-0.47982 0.43252,-0.58119 0,-0.23653 -0.12841,-0.33115 -0.32439,-0.33115 -0.3379,0 -3.37227,2.28423 -5.35915,6.55533 -1.71654,3.71018 -2.12203,7.44739 -2.12203,10.27902 0,2.62888 0.37169,6.69048 2.21665,10.50203 2.02066,4.14269 4.92663,6.32555 5.26453,6.32555 0.19598,0 0.32439,-0.0946 0.32439,-0.3379 z"
         id="path4621" />
      <path
         style="font-style:normal;font-variant:normal;font-weight:normal;font-stretch:normal;letter-spacing:normal;word-spacing:normal;text-anchor:start;fill:#000000;fill-opacity:1;fill-rule:evenodd;stroke:#000000;stroke-width:0;stroke-linecap:butt;stroke-linejoin:miter;stroke-miterlimit:10.43299961;stroke-dasharray:none;stroke-dashoffset:0;stroke-opacity:1"
         inkscape:connector-curvature="0"
         d="m 192.19036,412.43642 -0.0608,-0.11489 -0.0541,-0.11488 -0.0676,-0.10813 -0.0608,-0.10813 -0.0676,-0.10813 -0.0676,-0.10813 -0.0743,-0.10137 -0.0743,-0.0946 -0.0743,-0.10137 -0.0811,-0.0879 -0.0811,-0.0946 -0.0811,-0.0879 -0.0879,-0.0811 -0.0879,-0.0811 -0.0946,-0.0743 -0.0946,-0.0743 -0.0946,-0.0743 -0.10137,-0.0608 -0.10137,-0.0676 -0.10137,-0.0541 -0.10813,-0.0541 -0.11489,-0.0541 -0.10813,-0.0405 -0.12164,-0.0473 -0.11489,-0.0338 -0.12165,-0.0338 -0.1284,-0.027 -0.1284,-0.0203 -0.12841,-0.0203 -0.13516,-0.0135 -0.13516,-0.007 -0.14192,0 0.0338,0.73663 c 2.18286,0 2.66268,2.75729 2.66268,2.95328 0,0.21626 -0.0676,0.41224 -0.0946,0.58119 l -1.68952,6.60263 c -0.16895,0.60147 -0.16895,0.66229 -0.67581,1.24349 -1.48001,1.85171 -2.86542,2.38559 -3.80479,2.38559 -1.676,0 -2.15582,-1.84495 -2.15582,-3.16277 0,-1.68276 1.08129,-5.8187 1.85171,-7.37305 1.0475,-1.98687 2.56807,-3.23036 3.90616,-3.23036 l -0.0338,-0.73663 c -3.93995,0 -8.10968,4.94015 -8.10968,9.86002 0,3.16954 1.85171,5.38618 4.4806,5.38618 0.66229,0 2.35181,-0.14192 4.37247,-2.52752 0.27032,1.4192 1.44623,2.52752 3.0614,2.52752 1.18266,0 1.95308,-0.77042 2.49373,-1.85171 0.56768,-1.20969 1.01371,-3.2709 1.01371,-3.33173 0,-0.3379 -0.31087,-0.3379 -0.40548,-0.3379 -0.33791,0 -0.3717,0.13516 -0.47307,0.60823 -0.57444,2.18961 -1.18266,4.16972 -2.55455,4.16972 -0.91234,0 -1.01371,-0.87179 -1.01371,-1.54759 0,-0.74339 0.0608,-1.00696 0.43252,-2.49373 0.37845,-1.41244 0.43927,-1.75034 0.75014,-3.02761 l 1.20294,-4.71038 c 0.24329,-0.93937 0.24329,-1.0137 0.24329,-1.14211 0,-0.58119 -0.41224,-0.9191 -0.98668,-0.9191 -0.79745,0 -1.3043,0.75015 -1.41243,1.48678 z"
         id="path4623" />
      <path
         style="font-style:normal;font-variant:normal;font-weight:normal;font-stretch:normal;letter-spacing:normal;word-spacing:normal;text-anchor:start;fill:#000000;fill-opacity:1;fill-rule:evenodd;stroke:#000000;stroke-width:0;stroke-linecap:butt;stroke-linejoin:miter;stroke-miterlimit:10.43299961;stroke-dasharray:none;stroke-dashoffset:0;stroke-opacity:1"
         inkscape:connector-curvature="0"
         d="m 207.11892,416.74807 0,-0.25005 -0.007,-0.26357 -0.007,-0.26356 -0.007,-0.27708 -0.027,-0.56768 -0.0405,-0.59471 -0.0541,-0.62174 -0.0743,-0.64202 -0.0879,-0.65553 -0.11489,-0.68257 -0.1284,-0.68932 -0.15544,-0.69608 -0.18246,-0.7096 -0.20275,-0.71635 -0.23653,-0.72311 -0.27032,-0.72312 -0.14192,-0.35817 -0.14868,-0.35818 -0.16219,-0.35818 -0.16895,-0.35818 c -2.02066,-4.13593 -4.91312,-6.32555 -5.25102,-6.32555 -0.19598,0 -0.3379,0.12841 -0.3379,0.33115 0,0.10137 0,0.16895 0.63526,0.77718 3.30469,3.32496 5.22398,8.68411 5.22398,15.72602 0,5.75111 -1.24348,11.67793 -5.42673,15.922 -0.43251,0.39872 -0.43251,0.47306 -0.43251,0.56768 0,0.20274 0.14192,0.3379 0.3379,0.3379 0.3379,0 3.35876,-2.29099 5.35915,-6.56208 1.70979,-3.69666 2.10851,-7.43388 2.10851,-10.2655 z"
         id="path4625" />
    </g>
    <g
       id="g5135"
       transform="translate(-192.85714,-91.428572)">
      <path
         style="font-style:normal;font-variant:normal;font-weight:normal;font-stretch:normal;letter-spacing:normal;word-spacing:normal;text-anchor:start;fill:#000000;fill-opacity:1;fill-rule:evenodd;stroke:#000000;stroke-width:0;stroke-linecap:butt;stroke-linejoin:miter;stroke-miterlimit:10.43299961;stroke-dasharray:none;stroke-dashoffset:0;stroke-opacity:1"
         inkscape:connector-curvature="0"
         d="m 222.80439,411.69979 2.89246,0 c 0.6758,0 1.01371,0 1.01371,-0.67581 0,-0.37169 -0.33791,-0.37169 -0.90558,-0.37169 l -2.8046,0 0.70959,-3.84534 c 0.13517,-0.70284 0.61499,-3.08844 0.81097,-3.49392 0.31087,-0.64202 0.87855,-1.14887 1.58815,-1.14887 0.12164,0 1.00019,0 1.64221,0.61498 -1.47326,0.12165 -1.81116,1.30431 -1.81116,1.81116 0,0.77042 0.60146,1.17591 1.24348,1.17591 0.87855,0 1.85171,-0.74339 1.85171,-2.02066 0,-1.5476 -1.55435,-2.31802 -2.92624,-2.31802 -1.14887,0 -3.27766,0.60147 -4.27786,3.93319 -0.20274,0.7096 -0.30411,1.0475 -1.10832,5.29157 l -2.32477,0 c -0.64202,0 -1.01371,0 -1.01371,0.63526 0,0.41224 0.31087,0.41224 0.93937,0.41224 l 2.23016,0 -2.53428,13.29312 c -0.60146,3.26414 -1.16914,6.33906 -2.92624,6.33906 -0.13516,0 -0.97316,0 -1.61518,-0.61498 1.55436,-0.0946 1.85171,-1.31107 1.85171,-1.81792 0,-0.77042 -0.60822,-1.18266 -1.25024,-1.18266 -0.87855,0 -1.84495,0.74338 -1.84495,2.02742 0,1.5138 1.47326,2.32477 2.85866,2.32477 1.84495,0 3.19657,-1.98687 3.80479,-3.2709 1.07453,-2.12204 1.85847,-6.19039 1.8855,-6.43368 z"
         id="path4627" />
      <path
         style="font-style:normal;font-variant:normal;font-weight:normal;font-stretch:normal;letter-spacing:normal;word-spacing:normal;text-anchor:start;fill:#000000;fill-opacity:1;fill-rule:evenodd;stroke:#000000;stroke-width:0;stroke-linecap:butt;stroke-linejoin:miter;stroke-miterlimit:10.43299961;stroke-dasharray:none;stroke-dashoffset:0;stroke-opacity:1"
         inkscape:connector-curvature="0"
         d="m 241.69995,433.23775 0,-0.0135 0,-0.0203 -0.007,-0.007 0,-0.0135 0,-0.007 -0.007,-0.0135 0,-0.007 -0.007,-0.0135 -0.007,-0.0135 -0.007,-0.0135 -0.007,-0.0135 -0.007,-0.0203 -0.0135,-0.0135 -0.0135,-0.0203 -0.0135,-0.0203 -0.0135,-0.0203 -0.0203,-0.0203 -0.0203,-0.027 -0.007,-0.0135 -0.0135,-0.0135 -0.0135,-0.0135 -0.0135,-0.0135 -0.0135,-0.0135 -0.0135,-0.0203 -0.0135,-0.0135 -0.0135,-0.0135 -0.0135,-0.0203 -0.0135,-0.0135 -0.0203,-0.0203 -0.0135,-0.0203 -0.0203,-0.0203 -0.0203,-0.0203 -0.0203,-0.0203 -0.0203,-0.0203 -0.0203,-0.0203 -0.0203,-0.0203 -0.0203,-0.027 -0.027,-0.0203 -0.0203,-0.027 -0.027,-0.0203 -0.027,-0.027 -0.027,-0.027 c -4.20352,-4.24407 -5.27805,-10.60341 -5.27805,-15.75305 0,-5.85925 1.27728,-11.72525 5.41997,-15.92201 0.43252,-0.41224 0.43252,-0.47982 0.43252,-0.58119 0,-0.23653 -0.12841,-0.33115 -0.33115,-0.33115 -0.3379,0 -3.36552,2.28423 -5.35239,6.55533 -1.71655,3.71018 -2.12203,7.44739 -2.12203,10.27902 0,2.62888 0.37169,6.69048 2.21665,10.50203 2.02066,4.14269 4.91987,6.32555 5.25777,6.32555 0.20274,0 0.33115,-0.0946 0.33115,-0.3379 z"
         id="path4629" />
      <path
         style="font-style:normal;font-variant:normal;font-weight:normal;font-stretch:normal;letter-spacing:normal;word-spacing:normal;text-anchor:start;fill:#000000;fill-opacity:1;fill-rule:evenodd;stroke:#000000;stroke-width:0;stroke-linecap:butt;stroke-linejoin:miter;stroke-miterlimit:10.43299961;stroke-dasharray:none;stroke-dashoffset:0;stroke-opacity:1"
         inkscape:connector-curvature="0"
         d="m 251.66134,402.16416 0,0 0,-0.007 0,0 0,-0.007 -0.007,-0.0135 0,-0.007 0,-0.0135 0,-0.0135 0,-0.0135 -0.007,-0.0135 0,-0.0135 -0.007,-0.0135 -0.007,-0.0135 -0.007,-0.0203 -0.007,-0.0135 -0.007,-0.0203 -0.007,-0.0135 -0.0135,-0.0203 -0.0135,-0.0135 -0.0135,-0.0135 -0.0135,-0.0203 -0.007,-0.007 -0.007,-0.007 -0.0135,-0.007 -0.007,-0.007 -0.0135,-0.007 -0.007,-0.007 -0.0135,-0.007 -0.007,-0.007 -0.0135,-0.007 -0.0135,-0.007 -0.0135,0 -0.0135,-0.007 -0.0135,-0.007 -0.0135,0 -0.0135,-0.007 -0.0135,-0.007 -0.0203,0 -0.0135,0 -0.0203,-0.007 -0.0135,0 -0.0203,0 -0.0203,-0.007 -0.0135,0 -0.0203,0 c -0.78394,0 -3.23711,0.27708 -4.10891,0.3379 -0.27708,0.0338 -0.64877,0.0676 -0.64877,0.67581 0,0.40548 0.31087,0.40548 0.81773,0.40548 1.61517,0 1.676,0.22977 1.676,0.56768 0,0.24329 -0.30412,1.3854 -0.47307,2.08824 l -2.75729,10.9751 c -0.39872,1.68951 -0.54064,2.23016 -0.54064,3.39931 0,3.19656 1.78413,5.29156 4.27785,5.29156 l 0,-0.74339 c -1.14887,0 -2.25719,-0.90558 -2.25719,-3.3993 0,-0.64202 0,-1.27728 0.53388,-3.39931 l 0.74339,-3.10195 c 0.20274,-0.74339 0.20274,-0.80421 0.50686,-1.17591 1.64897,-2.18285 3.16953,-2.68971 4.04132,-2.68971 1.21645,0 2.12203,1.0002 2.12203,3.16954 0,1.98011 -1.11508,5.84572 -1.71655,7.13651 -1.10832,2.25044 -2.66267,3.46013 -3.97374,3.46013 l 0,0.74339 c 3.97374,0 8.10968,-5.01448 8.10968,-9.86678 0,-3.0614 -1.78413,-5.37942 -4.47384,-5.37942 -1.54084,0 -2.92624,0.96641 -3.93995,2.01391 z"
         id="path4631" />
      <path
         style="font-style:normal;font-variant:normal;font-weight:normal;font-stretch:normal;letter-spacing:normal;word-spacing:normal;text-anchor:start;fill:#000000;fill-opacity:1;fill-rule:evenodd;stroke:#000000;stroke-width:0;stroke-linecap:butt;stroke-linejoin:miter;stroke-miterlimit:10.43299961;stroke-dasharray:none;stroke-dashoffset:0;stroke-opacity:1"
         inkscape:connector-curvature="0"
         d="m 267.77256,416.74807 0,-0.25005 -0.007,-0.26357 -0.007,-0.26356 -0.007,-0.27708 -0.027,-0.56768 -0.0405,-0.59471 -0.0541,-0.62174 -0.0743,-0.64202 -0.0879,-0.65553 -0.11489,-0.68257 -0.1284,-0.68932 -0.15543,-0.69608 -0.18247,-0.7096 -0.20274,-0.71635 -0.23654,-0.72311 -0.27032,-0.72312 -0.14192,-0.35817 -0.14868,-0.35818 -0.16219,-0.35818 -0.16895,-0.35818 c -2.02066,-4.13593 -4.91312,-6.32555 -5.25102,-6.32555 -0.19598,0 -0.3379,0.12841 -0.3379,0.33115 0,0.10137 0,0.16895 0.63526,0.77718 3.30469,3.32496 5.23074,8.68411 5.23074,15.72602 0,5.75111 -1.25024,11.67793 -5.43349,15.922 -0.43251,0.39872 -0.43251,0.47306 -0.43251,0.56768 0,0.20274 0.14192,0.3379 0.3379,0.3379 0.3379,0 3.35876,-2.29099 5.35239,-6.56208 1.71655,-3.69666 2.11527,-7.43388 2.11527,-10.2655 z"
         id="path4633" />
    </g>
    <g
       id="g5141"
       transform="translate(-250,-256.42857)">
      <path
         style="font-style:normal;font-variant:normal;font-weight:normal;font-stretch:normal;letter-spacing:normal;word-spacing:normal;text-anchor:start;fill:#000000;fill-opacity:1;fill-rule:evenodd;stroke:#000000;stroke-width:0;stroke-linecap:butt;stroke-linejoin:miter;stroke-miterlimit:10.43299961;stroke-dasharray:none;stroke-dashoffset:0;stroke-opacity:1"
         inkscape:connector-curvature="0"
         d="m 283.45803,411.69979 2.89246,0 c 0.6758,0 1.01371,0 1.01371,-0.67581 0,-0.37169 -0.33791,-0.37169 -0.90558,-0.37169 l -2.8046,0 0.7096,-3.84534 c 0.13516,-0.70284 0.61498,-3.08844 0.81096,-3.49392 0.31087,-0.64202 0.87855,-1.14887 1.58815,-1.14887 0.12164,0 1.00019,0 1.64221,0.61498 -1.47326,0.12165 -1.81116,1.30431 -1.81116,1.81116 0,0.77042 0.60147,1.17591 1.24348,1.17591 0.87855,0 1.85171,-0.74339 1.85171,-2.02066 0,-1.5476 -1.55435,-2.31802 -2.92624,-2.31802 -1.14887,0 -3.27766,0.60147 -4.27786,3.93319 -0.20274,0.7096 -0.30411,1.0475 -1.10832,5.29157 l -2.32477,0 c -0.64202,0 -1.01371,0 -1.01371,0.63526 0,0.41224 0.31087,0.41224 0.93937,0.41224 l 2.23016,0 -2.53428,13.29312 c -0.60146,3.26414 -1.16914,6.33906 -2.92624,6.33906 -0.13516,0 -0.97316,0 -1.61518,-0.61498 1.55436,-0.0946 1.85171,-1.31107 1.85171,-1.81792 0,-0.77042 -0.60822,-1.18266 -1.25024,-1.18266 -0.87855,0 -1.84495,0.74338 -1.84495,2.02742 0,1.5138 1.47326,2.32477 2.85866,2.32477 1.84495,0 3.19657,-1.98687 3.80479,-3.2709 1.07454,-2.12204 1.85847,-6.19039 1.8855,-6.43368 z"
         id="path4635" />
      <path
         style="font-style:normal;font-variant:normal;font-weight:normal;font-stretch:normal;letter-spacing:normal;word-spacing:normal;text-anchor:start;fill:#000000;fill-opacity:1;fill-rule:evenodd;stroke:#000000;stroke-width:0;stroke-linecap:butt;stroke-linejoin:miter;stroke-miterlimit:10.43299961;stroke-dasharray:none;stroke-dashoffset:0;stroke-opacity:1"
         inkscape:connector-curvature="0"
         d="m 302.35359,433.23775 0,-0.0135 0,-0.0203 -0.007,-0.007 0,-0.0135 0,-0.007 -0.007,-0.0135 0,-0.007 -0.007,-0.0135 -0.007,-0.0135 -0.007,-0.0135 -0.007,-0.0135 -0.007,-0.0203 -0.0135,-0.0135 -0.0135,-0.0203 -0.0135,-0.0203 -0.0135,-0.0203 -0.0203,-0.0203 -0.0203,-0.027 -0.007,-0.0135 -0.0135,-0.0135 -0.0135,-0.0135 -0.0135,-0.0135 -0.0135,-0.0135 -0.0135,-0.0203 -0.0135,-0.0135 -0.0135,-0.0135 -0.0135,-0.0203 -0.0135,-0.0135 -0.0203,-0.0203 -0.0135,-0.0203 -0.0203,-0.0203 -0.0203,-0.0203 -0.0203,-0.0203 -0.0203,-0.0203 -0.0203,-0.0203 -0.0203,-0.0203 -0.0203,-0.027 -0.027,-0.0203 -0.0203,-0.027 -0.027,-0.0203 -0.027,-0.027 -0.027,-0.027 c -4.20352,-4.24407 -5.27805,-10.60341 -5.27805,-15.75305 0,-5.85925 1.27728,-11.72525 5.41997,-15.92201 0.43252,-0.41224 0.43252,-0.47982 0.43252,-0.58119 0,-0.23653 -0.12841,-0.33115 -0.33115,-0.33115 -0.3379,0 -3.36552,2.28423 -5.35239,6.55533 -1.71655,3.71018 -2.12203,7.44739 -2.12203,10.27902 0,2.62888 0.37169,6.69048 2.21665,10.50203 2.02066,4.14269 4.91987,6.32555 5.25777,6.32555 0.20274,0 0.33115,-0.0946 0.33115,-0.3379 z"
         id="path4637" />
      <path
         style="font-style:normal;font-variant:normal;font-weight:normal;font-stretch:normal;letter-spacing:normal;word-spacing:normal;text-anchor:start;fill:#000000;fill-opacity:1;fill-rule:evenodd;stroke:#000000;stroke-width:0;stroke-linecap:butt;stroke-linejoin:miter;stroke-miterlimit:10.43299961;stroke-dasharray:none;stroke-dashoffset:0;stroke-opacity:1"
         inkscape:connector-curvature="0"
         d="m 317.59978,412.36208 -0.0946,0 -0.10137,0 -0.0946,0.007 -0.10137,0 -0.0946,0.007 -0.0946,0.0135 -0.0473,0.007 -0.0473,0.007 -0.0405,0.0135 -0.0473,0.007 -0.0473,0.0135 -0.0473,0.0135 -0.0473,0.0135 -0.0405,0.0135 -0.0473,0.0203 -0.0473,0.0203 -0.0405,0.0203 -0.0473,0.027 -0.0473,0.027 -0.0405,0.027 -0.0473,0.0338 -0.0473,0.027 -0.0405,0.0405 -0.0473,0.0338 -0.0405,0.0405 -0.0473,0.0473 c -0.54065,0.50686 -0.60147,1.07454 -0.60147,1.30431 0,0.81773 0.60147,1.18266 1.24348,1.18266 0.97317,0 1.89226,-0.81097 1.89226,-2.14906 0,-1.64897 -1.58138,-2.89246 -3.9805,-2.89246 -4.54142,0 -9.01526,4.81175 -9.01526,9.55591 0,3.02761 1.95308,5.69029 5.447,5.69029 4.81175,0 7.64338,-3.56826 7.64338,-3.97374 0,-0.19599 -0.19599,-0.43928 -0.39873,-0.43928 -0.16895,0 -0.23653,0.0743 -0.44603,0.33791 -2.66268,3.33172 -6.32555,3.33172 -6.72428,3.33172 -2.12203,0 -3.03437,-1.64221 -3.03437,-3.66963 0,-1.37188 0.66905,-4.64955 1.81792,-6.73103 1.0475,-1.91929 2.89245,-3.36552 4.74416,-3.36552 1.14887,0 2.42615,0.43252 2.89921,1.3381 z"
         id="path4639" />
      <path
         style="font-style:normal;font-variant:normal;font-weight:normal;font-stretch:normal;letter-spacing:normal;word-spacing:normal;text-anchor:start;fill:#000000;fill-opacity:1;fill-rule:evenodd;stroke:#000000;stroke-width:0;stroke-linecap:butt;stroke-linejoin:miter;stroke-miterlimit:10.43299961;stroke-dasharray:none;stroke-dashoffset:0;stroke-opacity:1"
         inkscape:connector-curvature="0"
         d="m 328.5884,416.74807 0,-0.25005 -0.007,-0.26357 -0.007,-0.26356 -0.007,-0.27708 -0.027,-0.56768 -0.0405,-0.59471 -0.0541,-0.62174 -0.0743,-0.64202 -0.0879,-0.65553 -0.11489,-0.68257 -0.12841,-0.68932 -0.15543,-0.69608 -0.18247,-0.7096 -0.2095,-0.71635 -0.23653,-0.72311 -0.26357,-0.72312 -0.14191,-0.35817 -0.15544,-0.35818 -0.15544,-0.35818 -0.16895,-0.35818 c -2.02066,-4.13593 -4.91311,-6.32555 -5.25101,-6.32555 -0.19599,0 -0.33791,0.12841 -0.33791,0.33115 0,0.10137 0,0.16895 0.63526,0.77718 3.30469,3.32496 5.22399,8.68411 5.22399,15.72602 0,5.75111 -1.24349,11.67793 -5.42673,15.922 -0.43252,0.39872 -0.43252,0.47306 -0.43252,0.56768 0,0.20274 0.14192,0.3379 0.33791,0.3379 0.3379,0 3.35875,-2.29099 5.35238,-6.56208 1.71655,-3.69666 2.11528,-7.43388 2.11528,-10.2655 z"
         id="path4641" />
    </g>
    <g
       id="g5147"
       transform="translate(-237.85714,-388.57142)">
      <path
         style="font-style:normal;font-variant:normal;font-weight:normal;font-stretch:normal;letter-spacing:normal;word-spacing:normal;text-anchor:start;fill:#000000;fill-opacity:1;fill-rule:evenodd;stroke:#000000;stroke-width:0;stroke-linecap:butt;stroke-linejoin:miter;stroke-miterlimit:10.43299961;stroke-dasharray:none;stroke-dashoffset:0;stroke-opacity:1"
         inkscape:connector-curvature="0"
         d="m 344.27387,411.69979 2.89245,0 c 0.67581,0 1.01371,0 1.01371,-0.67581 0,-0.37169 -0.3379,-0.37169 -0.91234,-0.37169 l -2.79784,0 0.7096,-3.84534 c 0.13516,-0.70284 0.61498,-3.08844 0.81097,-3.49392 0.31087,-0.64202 0.87855,-1.14887 1.58814,-1.14887 0.12165,0 1.0002,0 1.64221,0.61498 -1.47326,0.12165 -1.81116,1.30431 -1.81116,1.81116 0,0.77042 0.60147,1.17591 1.24349,1.17591 0.87854,0 1.84495,-0.74339 1.84495,-2.02066 0,-1.5476 -1.5476,-2.31802 -2.91949,-2.31802 -1.15563,0 -3.27766,0.60147 -4.27785,3.93319 -0.20274,0.7096 -0.31087,1.0475 -1.10833,5.29157 l -2.32477,0 c -0.64202,0 -1.01371,0 -1.01371,0.63526 0,0.41224 0.30411,0.41224 0.93937,0.41224 l 2.23016,0 -2.53427,13.29312 c -0.60147,3.26414 -1.17591,6.33906 -2.92624,6.33906 -0.13517,0 -0.97317,0 -1.61518,-0.61498 1.55435,-0.0946 1.84495,-1.31107 1.84495,-1.81792 0,-0.77042 -0.60147,-1.18266 -1.24348,-1.18266 -0.87855,0 -1.85171,0.74338 -1.85171,2.02742 0,1.5138 1.48001,2.32477 2.86542,2.32477 1.84495,0 3.19656,-1.98687 3.79803,-3.2709 1.08129,-2.12204 1.85847,-6.19039 1.89226,-6.43368 z"
         id="path4643" />
      <path
         style="font-style:normal;font-variant:normal;font-weight:normal;font-stretch:normal;letter-spacing:normal;word-spacing:normal;text-anchor:start;fill:#000000;fill-opacity:1;fill-rule:evenodd;stroke:#000000;stroke-width:0;stroke-linecap:butt;stroke-linejoin:miter;stroke-miterlimit:10.43299961;stroke-dasharray:none;stroke-dashoffset:0;stroke-opacity:1"
         inkscape:connector-curvature="0"
         d="m 363.16942,433.23775 0,-0.0135 0,-0.0203 0,-0.007 -0.007,-0.0135 0,-0.007 0,-0.0135 -0.007,-0.007 -0.007,-0.0135 0,-0.0135 -0.007,-0.0135 -0.0135,-0.0135 -0.007,-0.0203 -0.0135,-0.0135 -0.0135,-0.0203 -0.0135,-0.0203 -0.0135,-0.0203 -0.0203,-0.0203 -0.0203,-0.027 -0.007,-0.0135 -0.0135,-0.0135 -0.0135,-0.0135 -0.007,-0.0135 -0.0135,-0.0135 -0.0135,-0.0203 -0.0135,-0.0135 -0.0203,-0.0135 -0.0135,-0.0203 -0.0135,-0.0135 -0.0203,-0.0203 -0.0135,-0.0203 -0.0203,-0.0203 -0.0203,-0.0203 -0.0203,-0.0203 -0.0203,-0.0203 -0.0203,-0.0203 -0.0203,-0.0203 -0.0203,-0.027 -0.027,-0.0203 -0.0203,-0.027 -0.027,-0.0203 -0.027,-0.027 -0.0203,-0.027 c -4.20351,-4.24407 -5.2848,-10.60341 -5.2848,-15.75305 0,-5.85925 1.28403,-11.72525 5.41996,-15.92201 0.43252,-0.41224 0.43252,-0.47982 0.43252,-0.58119 0,-0.23653 -0.1284,-0.33115 -0.32439,-0.33115 -0.3379,0 -3.37227,2.28423 -5.35914,6.55533 -1.71655,3.71018 -2.12204,7.44739 -2.12204,10.27902 0,2.62888 0.3717,6.69048 2.22341,10.50203 2.0139,4.14269 4.91987,6.32555 5.25777,6.32555 0.19599,0 0.32439,-0.0946 0.32439,-0.3379 z"
         id="path4645" />
      <path
         style="font-style:normal;font-variant:normal;font-weight:normal;font-stretch:normal;letter-spacing:normal;word-spacing:normal;text-anchor:start;fill:#000000;fill-opacity:1;fill-rule:evenodd;stroke:#000000;stroke-width:0;stroke-linecap:butt;stroke-linejoin:miter;stroke-miterlimit:10.43299961;stroke-dasharray:none;stroke-dashoffset:0;stroke-opacity:1"
         inkscape:connector-curvature="0"
         d="m 376.32737,414.99097 0.0203,-0.0879 0.027,-0.10137 0.027,-0.10813 0.0338,-0.12164 0.0338,-0.12841 0.0405,-0.14191 0.0405,-0.14868 0.0541,-0.14868 0.0541,-0.15543 0.0541,-0.1622 0.0676,-0.16895 0.0676,-0.16219 0.0743,-0.16896 0.0811,-0.16895 0.0879,-0.16895 0.0946,-0.16895 0.10137,-0.16219 0.10137,-0.1622 0.11489,-0.15543 0.12164,-0.14868 0.12841,-0.14868 0.1284,-0.13516 0.14192,-0.1284 0.14868,-0.12165 0.16219,-0.10813 0.16219,-0.0946 0.0879,-0.0473 0.0879,-0.0405 0.0879,-0.0338 0.0946,-0.0338 0.0879,-0.0338 0.10137,-0.027 0.0946,-0.0203 0.10137,-0.0203 0.10137,-0.0135 0.10813,-0.0135 0.10813,-0.007 0.10813,0 c 0.16895,0 0.97316,0 1.676,0.43252 -0.93937,0.16895 -1.61518,1.01371 -1.61518,1.81792 0,0.53389 0.3717,1.18266 1.27728,1.18266 0.74338,0 1.81792,-0.60147 1.81792,-1.95308 0,-1.7571 -1.98688,-2.21665 -3.12223,-2.21665 -1.95308,0 -3.13574,1.78413 -3.54123,2.55455 -0.84475,-2.21664 -2.65592,-2.55455 -3.62908,-2.55455 -3.50743,0 -5.42672,4.33868 -5.42672,5.18344 0,0.3379 0.3379,0.3379 0.41224,0.3379 0.26356,0 0.36493,-0.0743 0.43251,-0.37169 1.13536,-3.56826 3.36552,-4.41302 4.50763,-4.41302 0.64202,0 1.81792,0.29736 1.81792,2.25044 0,1.04074 -0.57443,3.30469 -1.81792,8.01507 -0.54064,2.08824 -1.70979,3.50067 -3.20332,3.50067 -0.19598,0 -0.9664,0 -1.676,-0.43927 0.84476,-0.16219 1.58139,-0.86503 1.58139,-1.81792 0,-0.90558 -0.73663,-1.16915 -1.24349,-1.16915 -1.01371,0 -1.85847,0.87179 -1.85847,1.95309 0,1.54083 1.68952,2.21664 3.16954,2.21664 2.2234,0 3.4331,-2.35856 3.53447,-2.55455 0.40548,1.24349 1.61517,2.55455 3.63584,2.55455 3.47364,0 5.39293,-4.33868 5.39293,-5.18344 0,-0.3379 -0.30411,-0.3379 -0.41224,-0.3379 -0.29735,0 -0.37169,0.13516 -0.43252,0.36494 -1.10832,3.60205 -3.3993,4.41301 -4.47384,4.41301 -1.32458,0 -1.85846,-1.07453 -1.85846,-2.2234 0,-0.74339 0.19598,-1.48002 0.58119,-2.96003 z"
         id="path4647" />
      <path
         style="font-style:normal;font-variant:normal;font-weight:normal;font-stretch:normal;letter-spacing:normal;word-spacing:normal;text-anchor:start;fill:#000000;fill-opacity:1;fill-rule:evenodd;stroke:#000000;stroke-width:0;stroke-linecap:butt;stroke-linejoin:miter;stroke-miterlimit:10.43299961;stroke-dasharray:none;stroke-dashoffset:0;stroke-opacity:1"
         inkscape:connector-curvature="0"
         d="m 394.02675,416.74807 0,-0.25005 -0.007,-0.26357 -0.007,-0.26356 -0.007,-0.27708 -0.027,-0.56768 -0.0405,-0.59471 -0.0541,-0.62174 -0.0743,-0.64202 -0.0879,-0.65553 -0.11489,-0.68257 -0.1284,-0.68932 -0.15544,-0.69608 -0.18247,-0.7096 -0.20274,-0.71635 -0.23653,-0.72311 -0.27032,-0.72312 -0.14192,-0.35817 -0.14868,-0.35818 -0.16219,-0.35818 -0.16896,-0.35818 c -2.02066,-4.13593 -4.91311,-6.32555 -5.25101,-6.32555 -0.19599,0 -0.33791,0.12841 -0.33791,0.33115 0,0.10137 0,0.16895 0.63526,0.77718 3.3047,3.32496 5.23074,8.68411 5.23074,15.72602 0,5.75111 -1.25024,11.67793 -5.43348,15.922 -0.43252,0.39872 -0.43252,0.47306 -0.43252,0.56768 0,0.20274 0.14192,0.3379 0.33791,0.3379 0.3379,0 3.35876,-2.29099 5.35914,-6.56208 1.70979,-3.69666 2.10852,-7.43388 2.10852,-10.2655 z"
         id="path4649" />
    </g>
    <path
       id="path4651"
       d="m 667.17533,209.27668 0.0203,-0.0879 0.0203,-0.10137 0.027,-0.10813 0.0338,-0.12164 0.0338,-0.12841 0.0405,-0.14191 0.0473,-0.14868 0.0473,-0.14868 0.0541,-0.15543 0.0608,-0.1622 0.0608,-0.16895 0.0743,-0.16219 0.0743,-0.16896 0.0811,-0.16895 0.0879,-0.16895 0.0878,-0.16895 0.10137,-0.16219 0.10813,-0.1622 0.11489,-0.15543 0.11489,-0.14868 0.1284,-0.14868 0.13516,-0.13516 0.14192,-0.1284 0.14868,-0.12165 0.15543,-0.10813 0.1622,-0.0946 0.0879,-0.0473 0.0879,-0.0405 0.0879,-0.0338 0.0946,-0.0338 0.0946,-0.0338 0.0946,-0.027 0.10137,-0.0203 0.10137,-0.0203 0.10137,-0.0135 0.10138,-0.0135 0.10812,-0.007 0.10813,0 c 0.16896,0 0.97317,0 1.68276,0.43252 -0.93937,0.16895 -1.61518,1.01371 -1.61518,1.81792 0,0.53389 0.3717,1.18266 1.27728,1.18266 0.73663,0 1.81792,-0.60147 1.81792,-1.95308 0,-1.7571 -1.98687,-2.21665 -3.12899,-2.21665 -1.95308,0 -3.13574,1.78413 -3.53446,2.55455 -0.84476,-2.21664 -2.66268,-2.55455 -3.63584,-2.55455 -3.50744,0 -5.42673,4.33868 -5.42673,5.18344 0,0.3379 0.3379,0.3379 0.41224,0.3379 0.26357,0 0.37169,-0.0743 0.43252,-0.37169 1.14211,-3.56826 3.37227,-4.41302 4.50763,-4.41302 0.64201,0 1.81792,0.29736 1.81792,2.25044 0,1.04074 -0.56768,3.30469 -1.81792,8.01507 -0.54065,2.08824 -1.70979,3.50067 -3.19657,3.50067 -0.20274,0 -0.97316,0 -1.68276,-0.43927 0.84476,-0.16219 1.58815,-0.86503 1.58815,-1.81792 0,-0.90558 -0.74339,-1.16915 -1.25024,-1.16915 -1.01371,0 -1.85847,0.87179 -1.85847,1.95309 0,1.54083 1.68952,2.21664 3.16953,2.21664 2.23016,0 3.4331,-2.35856 3.53447,-2.55455 0.40548,1.24349 1.62194,2.55455 3.63584,2.55455 3.47365,0 5.39969,-4.33868 5.39969,-5.18344 0,-0.3379 -0.31087,-0.3379 -0.419,-0.3379 -0.29059,0 -0.36493,0.13516 -0.42575,0.36494 -1.11508,3.60205 -3.40607,4.41301 -4.4806,4.41301 -1.31782,0 -1.85847,-1.07453 -1.85847,-2.2234 0,-0.74339 0.20274,-1.48002 0.58119,-2.96003 z"
       inkscape:connector-curvature="0"
       style="font-style:normal;font-variant:normal;font-weight:normal;font-stretch:normal;letter-spacing:normal;word-spacing:normal;text-anchor:start;fill:#000000;fill-opacity:1;fill-rule:evenodd;stroke:#000000;stroke-width:0;stroke-linecap:butt;stroke-linejoin:miter;stroke-miterlimit:10.43299961;stroke-dasharray:none;stroke-dashoffset:0;stroke-opacity:1" />
    <path
       style="fill:none;fill-rule:evenodd;stroke:#000000;stroke-width:1px;stroke-linecap:butt;stroke-linejoin:miter;stroke-opacity:1;marker-start:url(#DotL)"
       d="m 576.26652,326.44018 0.26785,0.22322"
       id="path5153"
       inkscape:connector-curvature="0"
       sodipodi:nodetypes="cc" />
    <path
       sodipodi:nodetypes="cc"
       inkscape:connector-curvature="0"
       id="path5169"
       d="m 196.95423,88.549252 0.26785,0.22322"
       style="fill:none;fill-rule:evenodd;stroke:#000000;stroke-width:1px;stroke-linecap:butt;stroke-linejoin:miter;stroke-opacity:1;marker-start:url(#marker5171)" />
    <path
       sodipodi:nodetypes="cc"
       inkscape:connector-curvature="0"
       id="path5845"
       d="m 386.35784,160.77516 0.26785,0.22322"
       style="fill:none;fill-rule:evenodd;stroke:#000000;stroke-width:1px;stroke-linecap:butt;stroke-linejoin:miter;stroke-opacity:1;marker-start:url(#marker5847)" />
    <path
       style="fill:none;fill-rule:evenodd;stroke:#000000;stroke-width:0.5;stroke-linecap:butt;stroke-linejoin:miter;stroke-miterlimit:4;stroke-dasharray:4, 2;stroke-dashoffset:0;stroke-opacity:1"
       d="m 196.47467,87.666503 -112.126932,0"
       id="path6703"
       inkscape:connector-curvature="0" />
    <path
       style="fill:none;fill-rule:evenodd;stroke:#000000;stroke-width:0.5;stroke-linecap:butt;stroke-linejoin:miter;stroke-miterlimit:4;stroke-dasharray:4, 2;stroke-dashoffset:0;stroke-opacity:1"
       d="m 386.38335,161.40764 -301.530536,0"
       id="path6705"
       inkscape:connector-curvature="0" />
    <path
       style="fill:none;fill-rule:evenodd;stroke:#000000;stroke-width:0.5;stroke-linecap:butt;stroke-linejoin:miter;stroke-miterlimit:4;stroke-dasharray:4, 2;stroke-dashoffset:0;stroke-opacity:1"
       d="m 576.29203,325.55743 -491.944292,0"
       id="path6707"
       inkscape:connector-curvature="0" />
  </g>
</svg>
