<?xml version="1.0" encoding="UTF-8" standalone="no"?>
<!-- Created with Inkscape (http://www.inkscape.org/) -->

<svg
   xmlns:dc="http://purl.org/dc/elements/1.1/"
   xmlns:cc="http://creativecommons.org/ns#"
   xmlns:rdf="http://www.w3.org/1999/02/22-rdf-syntax-ns#"
   xmlns:svg="http://www.w3.org/2000/svg"
   xmlns="http://www.w3.org/2000/svg"
   xmlns:sodipodi="http://sodipodi.sourceforge.net/DTD/sodipodi-0.dtd"
   xmlns:inkscape="http://www.inkscape.org/namespaces/inkscape"
   width="181.61755mm"
   height="24.959156mm"
   viewBox="0 0 181.61755 24.959156"
   version="1.1"
   id="svg8"
   inkscape:version="0.92.1 r15371"
   sodipodi:docname="stencil.svg">
  <sodipodi:namedview
     id="base"
     pagecolor="#ffffff"
     bordercolor="#666666"
     borderopacity="1.0"
     inkscape:pageopacity="0.0"
     inkscape:pageshadow="2"
     inkscape:zoom="0.98994949"
     inkscape:cx="367.91816"
     inkscape:cy="75.362754"
     inkscape:document-units="mm"
     inkscape:current-layer="layer1"
     showgrid="false"
     showguides="true"
     inkscape:guide-bbox="true"
     inkscape:window-width="1920"
     inkscape:window-height="1053"
     inkscape:window-x="1920"
     inkscape:window-y="0"
     inkscape:window-maximized="1"
     fit-margin-top="0"
     fit-margin-left="0"
     fit-margin-right="0"
     fit-margin-bottom="0">
    <sodipodi:guide
       inkscape:locked="false"
       id="guide4817"
       orientation="0,1"
       position="-2.2330634e-07,12.745606" />
  </sodipodi:namedview>
  <defs
     id="defs2">
    <marker
       inkscape:isstock="true"
       style="overflow:visible"
       id="EmptyDiamondLend"
       refX="0"
       refY="0"
       orient="auto"
       inkscape:stockid="EmptyDiamondLend">
      <path
         transform="matrix(0.8,0,0,0.8,-5.6,0)"
         style="fill:#ffffff;fill-rule:evenodd;stroke:#000000;stroke-width:1.00000003pt;stroke-opacity:1"
         d="M 0,-7.0710768 -7.0710894,0 0,7.0710589 7.0710462,0 Z"
         id="path4617"
         inkscape:connector-curvature="0" />
    </marker>
    <marker
       inkscape:isstock="true"
       style="overflow:visible"
       id="marker7545"
       refX="0"
       refY="0"
       orient="auto"
       inkscape:stockid="DotL">
      <path
         transform="matrix(0.8,0,0,0.8,5.92,0.8)"
         style="fill:#000000;fill-opacity:1;fill-rule:evenodd;stroke:#000000;stroke-width:1.00000003pt;stroke-opacity:1"
         d="m -2.5,-1 c 0,2.76 -2.24,5 -5,5 -2.76,0 -5,-2.24 -5,-5 0,-2.76 2.24,-5 5,-5 2.76,0 5,2.24 5,5 z"
         id="path7543"
         inkscape:connector-curvature="0" />
    </marker>
    <marker
       inkscape:isstock="true"
       style="overflow:visible"
       id="marker7499"
       refX="0"
       refY="0"
       orient="auto"
       inkscape:stockid="DotL">
      <path
         transform="matrix(0.8,0,0,0.8,5.92,0.8)"
         style="fill:#000000;fill-opacity:1;fill-rule:evenodd;stroke:#000000;stroke-width:1.00000003pt;stroke-opacity:1"
         d="m -2.5,-1 c 0,2.76 -2.24,5 -5,5 -2.76,0 -5,-2.24 -5,-5 0,-2.76 2.24,-5 5,-5 2.76,0 5,2.24 5,5 z"
         id="path7497"
         inkscape:connector-curvature="0" />
    </marker>
    <inkscape:path-effect
       only_selected="false"
       apply_with_weight="true"
       apply_no_weight="true"
       helper_size="0"
       steps="2"
       weight="33.333333"
       is_visible="true"
       id="path-effect7495"
       effect="bspline" />
    <marker
       inkscape:collect="always"
       inkscape:stockid="DotL"
       orient="auto"
       refY="0"
       refX="0"
       id="marker5439"
       style="overflow:visible"
       inkscape:isstock="true">
      <path
         id="path5437"
         d="m -2.5,-1 c 0,2.76 -2.24,5 -5,5 -2.76,0 -5,-2.24 -5,-5 0,-2.76 2.24,-5 5,-5 2.76,0 5,2.24 5,5 z"
         style="fill:#000000;fill-opacity:1;fill-rule:evenodd;stroke:#000000;stroke-width:1.00000003pt;stroke-opacity:1"
         transform="matrix(0.8,0,0,0.8,5.92,0.8)"
         inkscape:connector-curvature="0" />
    </marker>
    <marker
       inkscape:collect="always"
       inkscape:stockid="DotL"
       orient="auto"
       refY="0"
       refX="0"
       id="marker5405"
       style="overflow:visible"
       inkscape:isstock="true">
      <path
         id="path5403"
         d="m -2.5,-1 c 0,2.76 -2.24,5 -5,5 -2.76,0 -5,-2.24 -5,-5 0,-2.76 2.24,-5 5,-5 2.76,0 5,2.24 5,5 z"
         style="fill:#000000;fill-opacity:1;fill-rule:evenodd;stroke:#000000;stroke-width:1.00000003pt;stroke-opacity:1"
         transform="matrix(0.8,0,0,0.8,5.92,0.8)"
         inkscape:connector-curvature="0" />
    </marker>
    <inkscape:path-effect
       effect="bspline"
       id="path-effect5401"
       is_visible="true"
       weight="33.333333"
       steps="2"
       helper_size="0"
       apply_no_weight="true"
       apply_with_weight="true"
       only_selected="false" />
    <marker
       inkscape:stockid="DotL"
       orient="auto"
       refY="0"
       refX="0"
       id="marker4881"
       style="overflow:visible"
       inkscape:isstock="true">
      <path
         id="path4879"
         d="m -2.5,-1 c 0,2.76 -2.24,5 -5,5 -2.76,0 -5,-2.24 -5,-5 0,-2.76 2.24,-5 5,-5 2.76,0 5,2.24 5,5 z"
         style="fill:#000000;fill-opacity:1;fill-rule:evenodd;stroke:#000000;stroke-width:1.00000003pt;stroke-opacity:1"
         transform="matrix(0.8,0,0,0.8,5.92,0.8)"
         inkscape:connector-curvature="0" />
    </marker>
    <marker
       inkscape:stockid="DotL"
       orient="auto"
       refY="0"
       refX="0"
       id="marker4859"
       style="overflow:visible"
       inkscape:isstock="true">
      <path
         id="path4857"
         d="m -2.5,-1 c 0,2.76 -2.24,5 -5,5 -2.76,0 -5,-2.24 -5,-5 0,-2.76 2.24,-5 5,-5 2.76,0 5,2.24 5,5 z"
         style="fill:#000000;fill-opacity:1;fill-rule:evenodd;stroke:#000000;stroke-width:1.00000003pt;stroke-opacity:1"
         transform="matrix(0.8,0,0,0.8,5.92,0.8)"
         inkscape:connector-curvature="0" />
    </marker>
    <inkscape:path-effect
       effect="bspline"
       id="path-effect4855"
       is_visible="true"
       weight="33.333333"
       steps="2"
       helper_size="0"
       apply_no_weight="true"
       apply_with_weight="true"
       only_selected="false" />
    <inkscape:path-effect
       only_selected="false"
       apply_with_weight="true"
       apply_no_weight="true"
       helper_size="0"
       steps="2"
       weight="33.333333"
       is_visible="true"
       id="path-effect4821"
       effect="bspline" />
    <marker
       inkscape:collect="always"
       inkscape:isstock="true"
       style="overflow:visible"
       id="DotL"
       refX="0"
       refY="0"
       orient="auto"
       inkscape:stockid="DotL">
      <path
         transform="matrix(0.8,0,0,0.8,5.92,0.8)"
         style="fill:#000000;fill-opacity:1;fill-rule:evenodd;stroke:#000000;stroke-width:1.00000003pt;stroke-opacity:1"
         d="m -2.5,-1 c 0,2.76 -2.24,5 -5,5 -2.76,0 -5,-2.24 -5,-5 0,-2.76 2.24,-5 5,-5 2.76,0 5,2.24 5,5 z"
         id="path4554"
         inkscape:connector-curvature="0" />
    </marker>
    <inkscape:path-effect
       only_selected="false"
       apply_with_weight="true"
       apply_no_weight="true"
       helper_size="0"
       steps="2"
       weight="33.333333"
       is_visible="true"
       id="path-effect4491"
       effect="bspline" />
    <inkscape:path-effect
       only_selected="false"
       apply_with_weight="true"
       apply_no_weight="true"
       helper_size="0"
       steps="2"
       weight="33.333333"
       is_visible="true"
       id="path-effect4487"
       effect="bspline" />
  </defs>
  <metadata
     id="metadata5">
    <rdf:RDF>
      <cc:Work
         rdf:about="">
        <dc:format>image/svg+xml</dc:format>
        <dc:type
           rdf:resource="http://purl.org/dc/dcmitype/StillImage" />
        <dc:title></dc:title>
      </cc:Work>
    </rdf:RDF>
  </metadata>
  <g
     id="layer1"
     inkscape:groupmode="layer"
     inkscape:label="Layer 1"
     transform="translate(-8.8824405,-9.2418005)">
    <path
       inkscape:original-d="M 8.8824405,21.455357 C 69.42189,21.455092 129.96108,21.455092 190.5,21.455357"
       inkscape:path-effect="#path-effect4487"
       inkscape:connector-curvature="0"
       id="path4485"
       d="m 8.8824405,21.455357 c 60.5394495,0 121.0786395,0 181.6175595,0"
       style="fill:none;fill-rule:evenodd;stroke:#000000;stroke-width:0.26458332px;stroke-linecap:butt;stroke-linejoin:miter;stroke-opacity:1" />
    <path
       inkscape:original-d="m 25.891369,21.45535 c 24.253736,-2.62e-4 48.507209,-2.64e-4 72.760415,0"
       inkscape:path-effect="#path-effect4821"
       inkscape:connector-curvature="0"
       id="path4819"
       d="m 25.891369,21.45535 c 24.253736,0 48.507209,0 72.760415,0"
       style="fill:none;fill-rule:evenodd;stroke:#000000;stroke-width:0.26458332px;stroke-linecap:butt;stroke-linejoin:miter;stroke-opacity:1;marker-start:url(#DotL);marker-end:url(#DotL)" />
    <path
       style="fill:none;fill-rule:evenodd;stroke:#000000;stroke-width:0.26458332px;stroke-linecap:butt;stroke-linejoin:miter;stroke-opacity:1;marker-start:url(#marker5405);marker-end:url(#marker5439)"
       d="m 98.654512,21.45535 c 24.253798,0 48.507408,0 72.760748,0"
       id="path5399"
       inkscape:connector-curvature="0"
       inkscape:path-effect="#path-effect5401"
       inkscape:original-d="m 98.654512,21.45535 c 24.253798,-2.62e-4 48.507408,-2.64e-4 72.760748,0" />
    <path
       sodipodi:nodetypes="cc"
       inkscape:original-d="m 61.627596,21.455351 c 25.590554,-2.65e-4 51.180974,-2.65e-4 76.771214,0"
       inkscape:path-effect="#path-effect7495"
       inkscape:connector-curvature="0"
       id="path7493"
       d="m 61.627596,21.455351 c 25.590554,0 51.180974,0 76.771214,0"
       style="fill:none;fill-rule:evenodd;stroke:#000000;stroke-width:0.26458332px;stroke-linecap:butt;stroke-linejoin:miter;stroke-opacity:1;marker-start:url(#EmptyDiamondLend);marker-end:url(#EmptyDiamondLend)" />
    <path
       id="path9331"
       d="m 19.276307,11.607227 0.0022,-0.0088 0.0022,-0.0066 0.0022,-0.01315 0.0044,-0.01096 0.0022,-0.01315 0.0022,-0.01096 0.0044,-0.0088 0.0022,-0.01096 0.0022,-0.0088 0.0022,-0.0088 v -0.0088 l 0.0022,-0.0088 0.0022,-0.0088 0.0022,-0.0066 v -0.0066 l 0.0022,-0.0066 v -0.0066 l 0.0022,-0.0066 v -0.0066 l 0.0022,-0.01096 v -0.01315 -0.01096 -0.01096 l 0.0022,-0.01096 v -0.0066 -0.0066 -0.0066 -0.0066 c 0,-0.199412 -0.151202,-0.295831 -0.315553,-0.295831 -0.109567,0 -0.284875,0.06574 -0.383485,0.230091 -0.02191,0.05478 -0.109567,0.390059 -0.151203,0.589471 -0.07889,0.282683 -0.153394,0.578514 -0.219134,0.872154 l -0.493052,1.965634 c -0.04163,0.164351 -0.510583,0.926938 -1.231534,0.926938 -0.556601,0 -0.679316,-0.477713 -0.679316,-0.883111 0,-0.501817 0.188455,-1.181133 0.558792,-2.13875 0.175307,-0.449225 0.219134,-0.569749 0.219134,-0.788883 0,-0.488669 -0.348423,-0.891876 -0.896259,-0.891876 -1.038696,0 -1.441903,1.579957 -1.441903,1.680759 0,0.109567 0.109567,0.109567 0.133672,0.109567 0.109567,0 0.118333,-0.0241 0.173116,-0.199412 0.295831,-1.027739 0.729717,-1.352058 1.102245,-1.352058 0.08765,0 0.273918,0 0.273918,0.348423 0,0.273918 -0.109567,0.55441 -0.186264,0.764779 -0.436077,1.157028 -0.635489,1.77937 -0.635489,2.294335 0,0.968573 0.690272,1.297275 1.332336,1.297275 0.429503,0 0.797648,-0.186264 1.102245,-0.490861 -0.140246,0.565366 -0.269535,1.102245 -0.707804,1.682951 -0.284874,0.368145 -0.699038,0.688081 -1.200855,0.688081 -0.151203,0 -0.644255,-0.03506 -0.830519,-0.460182 0.175307,0 0.319936,0 0.468947,-0.133671 0.109567,-0.09423 0.219135,-0.238857 0.219135,-0.444843 0,-0.339658 -0.29364,-0.383485 -0.403207,-0.383485 -0.249813,0 -0.613576,0.175308 -0.613576,0.709995 0,0.547836 0.484286,0.951043 1.15922,0.951043 1.12635,0 2.248317,-0.997061 2.557296,-2.228595 z"
       inkscape:connector-curvature="0"
       style="font-style:normal;font-variant:normal;font-weight:normal;font-stretch:normal;letter-spacing:normal;word-spacing:normal;text-anchor:start;fill:#000000;fill-opacity:1;fill-rule:evenodd;stroke:#000000;stroke-width:0;stroke-linecap:butt;stroke-linejoin:miter;stroke-miterlimit:10.43299961;stroke-dasharray:none;stroke-dashoffset:0;stroke-opacity:1" />
    <path
       id="path9333"
       d="m 22.646591,16.776604 -0.0022,0.01534 -0.0044,0.01534 -0.0044,0.01534 -0.0044,0.01534 -0.0022,0.01753 -0.0044,0.01753 -0.0088,0.03287 -0.0088,0.03725 -0.0088,0.03506 -0.0088,0.03506 -0.0044,0.01534 -0.0044,0.01753 -0.0044,0.01753 -0.0044,0.01534 -0.0022,0.01534 -0.0044,0.01534 -0.0044,0.01534 -0.0022,0.01315 -0.0044,0.01315 -0.0022,0.01315 -0.0022,0.01096 -0.0022,0.01096 -0.0022,0.0088 -0.0022,0.0088 v 0.0088 l -0.0022,0.0066 v 0.0044 0.0044 c 0,0.168733 0.138054,0.243239 0.256387,0.243239 0.140246,0 0.260769,-0.09861 0.298022,-0.166542 0.04164,-0.07012 0.09861,-0.313362 0.140246,-0.47333 0.03725,-0.144628 0.120524,-0.497435 0.168733,-0.688081 0.04383,-0.168734 0.08765,-0.335276 0.12929,-0.510583 0.08327,-0.328701 0.08327,-0.341849 0.236665,-0.580706 0.243239,-0.374719 0.626723,-0.808605 1.218386,-0.808605 0.429503,0 0.453608,0.352806 0.453608,0.534688 0,0.45799 -0.328702,1.303848 -0.453608,1.625975 -0.08108,0.214752 -0.111759,0.282684 -0.111759,0.414164 0,0.403207 0.335276,0.65302 0.725335,0.65302 0.762587,0 1.097862,-1.049653 1.097862,-1.167985 0,-0.09861 -0.09861,-0.09861 -0.122715,-0.09861 -0.105185,0 -0.111759,0.04383 -0.142437,0.129289 -0.175308,0.611385 -0.504009,0.924747 -0.808606,0.924747 -0.162159,0 -0.192838,-0.105185 -0.192838,-0.267344 0,-0.173116 0.03944,-0.273918 0.175308,-0.617958 0.09204,-0.236665 0.403207,-1.045271 0.403207,-1.472582 0,-0.122715 0,-0.444843 -0.280492,-0.663977 -0.129289,-0.100802 -0.352806,-0.205986 -0.712186,-0.205986 -0.683699,0 -1.104437,0.449225 -1.347676,0.769161 -0.06136,-0.648637 -0.607002,-0.769161 -0.992678,-0.769161 -0.633298,0 -1.062801,0.385676 -1.2907,0.692464 -0.05697,-0.525922 -0.504009,-0.692464 -0.819562,-0.692464 -0.328702,0 -0.504009,0.236665 -0.60262,0.409781 -0.168733,0.282683 -0.273917,0.720951 -0.273917,0.758204 0,0.09861 0.105184,0.09861 0.129289,0.09861 0.107376,0 0.11395,-0.0241 0.168733,-0.230091 0.11395,-0.451417 0.26077,-0.823945 0.558793,-0.823945 0.19722,0 0.249813,0.166542 0.249813,0.372528 0,0.14682 -0.06793,0.427312 -0.124907,0.633298 -0.0504,0.208178 -0.124906,0.52154 -0.166542,0.688082 l -0.243239,0.979529 c -0.03068,0.09642 -0.07451,0.287066 -0.07451,0.311171 0,0.168733 0.135864,0.243239 0.258579,0.243239 0.138054,0 0.258578,-0.09861 0.298022,-0.166542 0.03725,-0.07012 0.100802,-0.313362 0.138055,-0.47333 0.03725,-0.144628 0.118332,-0.497435 0.166542,-0.688081 0.04602,-0.168734 0.09423,-0.335276 0.13148,-0.510583 0.08108,-0.315553 0.09861,-0.372528 0.317745,-0.688081 0.216943,-0.304597 0.576323,-0.70123 1.146072,-0.70123 0.442651,0 0.449225,0.390059 0.449225,0.534688 0,0.190646 -0.01972,0.289257 -0.129289,0.71876 z"
       inkscape:connector-curvature="0"
       style="font-style:normal;font-variant:normal;font-weight:normal;font-stretch:normal;letter-spacing:normal;word-spacing:normal;text-anchor:start;fill:#000000;fill-opacity:1;fill-rule:evenodd;stroke:#000000;stroke-width:0;stroke-linecap:butt;stroke-linejoin:miter;stroke-miterlimit:10.43299961;stroke-dasharray:none;stroke-dashoffset:0;stroke-opacity:1" />
    <path
       id="path9335"
       d="m 32.770592,15.669976 h 0.01096 0.01315 0.0241 0.0263 l 0.01315,-0.0022 h 0.01096 l 0.01315,-0.0022 h 0.01315 l 0.01315,-0.0022 0.01315,-0.0022 0.01096,-0.0022 0.01315,-0.0044 0.01096,-0.0022 0.01315,-0.0044 0.01096,-0.0044 0.01096,-0.0066 0.0088,-0.0044 0.01096,-0.0066 0.0088,-0.0088 0.0088,-0.0066 0.0088,-0.0088 0.0044,-0.0044 0.0022,-0.0044 0.0044,-0.0066 0.0022,-0.0044 0.0044,-0.0044 0.0022,-0.0066 0.0022,-0.0066 0.0022,-0.0044 0.0022,-0.0066 0.0022,-0.0066 0.0022,-0.0066 0.0022,-0.0066 0.0022,-0.0088 v -0.0066 l 0.0022,-0.0088 v -0.0066 -0.0088 -0.0088 c 0,-0.188455 -0.175308,-0.188455 -0.304597,-0.188455 h -4.551418 c -0.122715,0 -0.304596,0 -0.304596,0.181881 0,0.190647 0.175307,0.190647 0.304596,0.190647 z"
       inkscape:connector-curvature="0"
       style="font-style:normal;font-variant:normal;font-weight:normal;font-stretch:normal;letter-spacing:normal;word-spacing:normal;text-anchor:start;fill:#000000;fill-opacity:1;fill-rule:evenodd;stroke:#000000;stroke-width:0;stroke-linecap:butt;stroke-linejoin:miter;stroke-miterlimit:10.43299961;stroke-dasharray:none;stroke-dashoffset:0;stroke-opacity:1" />
    <path
       id="path9337"
       d="m 36.458621,12.540739 v -0.0088 -0.0088 -0.01096 -0.0088 -0.0066 -0.0088 l -0.0022,-0.0088 v -0.0066 -0.0088 -0.0066 -0.0066 -0.0066 l -0.0022,-0.0066 v -0.0066 -0.0066 l -0.0022,-0.0044 v -0.0066 l -0.0022,-0.0044 v -0.0066 l -0.0022,-0.0044 -0.0022,-0.0088 -0.0022,-0.0088 -0.0044,-0.0066 -0.0044,-0.0066 -0.0044,-0.0066 -0.0066,-0.0066 -0.0044,-0.0044 -0.0066,-0.0044 -0.0088,-0.0044 -0.0066,-0.0022 -0.01096,-0.0022 -0.0088,-0.0044 h -0.0044 -0.0066 l -0.0044,-0.0022 h -0.0066 l -0.0066,-0.0022 h -0.0066 -0.0066 -0.0066 -0.0066 l -0.0066,-0.0022 h -0.0088 -0.0066 -0.0088 -0.0066 -0.0088 -0.0088 -0.01096 -0.0088 -0.0088 -0.01096 c -0.488669,0.482095 -1.181133,0.488669 -1.496687,0.488669 v 0.273918 c 0.186264,0 0.688082,0 1.106628,-0.212561 v 3.894016 c 0,0.254195 0,0.352806 -0.762587,0.352806 h -0.289257 v 0.273917 c 0.138054,-0.0066 1.075949,-0.03068 1.360823,-0.03068 0.234474,0 1.198664,0.0241 1.365206,0.03068 v -0.273917 h -0.291448 c -0.762587,0 -0.762587,-0.09861 -0.762587,-0.352806 z"
       inkscape:connector-curvature="0"
       style="font-style:normal;font-variant:normal;font-weight:normal;font-stretch:normal;letter-spacing:normal;word-spacing:normal;text-anchor:start;fill:#000000;fill-opacity:1;fill-rule:evenodd;stroke:#000000;stroke-width:0;stroke-linecap:butt;stroke-linejoin:miter;stroke-miterlimit:10.43299961;stroke-dasharray:none;stroke-dashoffset:0;stroke-opacity:1" />
    <g
       id="g9503"
       transform="translate(49.703869,-27.025298)">
      <path
         style="font-style:normal;font-variant:normal;font-weight:normal;font-stretch:normal;letter-spacing:normal;word-spacing:normal;text-anchor:start;fill:#000000;fill-opacity:1;fill-rule:evenodd;stroke:#000000;stroke-width:0;stroke-linecap:butt;stroke-linejoin:miter;stroke-miterlimit:10.43299961;stroke-dasharray:none;stroke-dashoffset:0;stroke-opacity:1"
         inkscape:connector-curvature="0"
         d="m 47.690605,37.876572 0.0022,-0.0088 0.0022,-0.0066 0.0022,-0.01315 0.0044,-0.01096 0.0022,-0.01315 0.0022,-0.01096 0.0044,-0.0088 0.0022,-0.01096 0.0022,-0.0088 0.0022,-0.0088 0.0022,-0.0088 v -0.0088 l 0.0022,-0.0088 0.0022,-0.0066 v -0.0066 l 0.0022,-0.0066 v -0.0066 l 0.0022,-0.0066 v -0.0066 l 0.0022,-0.01096 v -0.01315 -0.01096 l 0.0022,-0.01096 v -0.01096 -0.0066 -0.0066 -0.0066 -0.0066 c 0,-0.199412 -0.151203,-0.295831 -0.315554,-0.295831 -0.109567,0 -0.284874,0.06574 -0.383485,0.230091 -0.01972,0.05478 -0.109567,0.390059 -0.151202,0.589471 -0.07889,0.282683 -0.153394,0.578514 -0.219134,0.872154 l -0.493052,1.965634 c -0.03945,0.164351 -0.510583,0.926938 -1.231535,0.926938 -0.554409,0 -0.679316,-0.477713 -0.679316,-0.883111 0,-0.501817 0.188456,-1.181133 0.558793,-2.13875 0.175307,-0.449225 0.219134,-0.569749 0.219134,-0.788883 0,-0.488669 -0.348424,-0.891876 -0.896259,-0.891876 -1.038696,0 -1.441903,1.579957 -1.441903,1.680759 0,0.109567 0.109567,0.109567 0.133671,0.109567 0.109568,0 0.120524,-0.0241 0.175308,-0.199412 0.29364,-1.027739 0.727525,-1.352058 1.102245,-1.352058 0.08546,0 0.273918,0 0.273918,0.348423 0,0.273918 -0.109567,0.55441 -0.188456,0.764779 -0.436077,1.157028 -0.633298,1.77937 -0.633298,2.294335 0,0.968573 0.688082,1.297275 1.330145,1.297275 0.429503,0 0.79984,-0.186264 1.102245,-0.490861 -0.138054,0.565366 -0.269535,1.102245 -0.707803,1.682951 -0.284875,0.368145 -0.699038,0.688081 -1.200856,0.688081 -0.151202,0 -0.644254,-0.03506 -0.830518,-0.460182 0.175307,0 0.319935,0 0.471138,-0.133671 0.109567,-0.09423 0.219134,-0.238857 0.219134,-0.444843 0,-0.339658 -0.295831,-0.383485 -0.405398,-0.383485 -0.249813,0 -0.613576,0.175308 -0.613576,0.709995 0,0.547836 0.484287,0.951043 1.15922,0.951043 1.12635,0 2.248317,-0.997061 2.557297,-2.228595 z"
         id="path9339" />
      <path
         style="font-style:normal;font-variant:normal;font-weight:normal;font-stretch:normal;letter-spacing:normal;word-spacing:normal;text-anchor:start;fill:#000000;fill-opacity:1;fill-rule:evenodd;stroke:#000000;stroke-width:0;stroke-linecap:butt;stroke-linejoin:miter;stroke-miterlimit:10.43299961;stroke-dasharray:none;stroke-dashoffset:0;stroke-opacity:1"
         inkscape:connector-curvature="0"
         d="m 51.063081,43.045949 -0.0044,0.01534 -0.0044,0.01534 -0.0044,0.01534 -0.0022,0.01534 -0.0044,0.01753 -0.0044,0.01753 -0.0088,0.03287 -0.0088,0.03725 -0.0088,0.03506 -0.0088,0.03506 -0.0044,0.01534 -0.0044,0.01753 -0.0044,0.01753 -0.0044,0.01534 -0.0022,0.01534 -0.0044,0.01534 -0.0044,0.01534 -0.0022,0.01315 -0.0022,0.01315 -0.0044,0.01315 -0.0022,0.01096 -0.0022,0.01096 -0.0022,0.0088 v 0.0088 l -0.0022,0.0088 v 0.0066 l -0.0022,0.0044 v 0.0044 c 0,0.168733 0.138055,0.243239 0.256387,0.243239 0.140246,0 0.26077,-0.09861 0.298023,-0.166542 0.04163,-0.07012 0.100801,-0.313362 0.140245,-0.47333 0.03945,-0.144628 0.120524,-0.497435 0.168734,-0.688081 0.04383,-0.168734 0.08984,-0.335276 0.129289,-0.510583 0.08327,-0.328701 0.08327,-0.341849 0.236665,-0.580706 0.243239,-0.374719 0.626724,-0.808605 1.218386,-0.808605 0.429503,0 0.453608,0.352806 0.453608,0.534688 0,0.45799 -0.328701,1.303848 -0.453608,1.625975 -0.08108,0.214752 -0.111758,0.282684 -0.111758,0.414164 0,0.403207 0.335275,0.65302 0.725334,0.65302 0.764779,0 1.100054,-1.049653 1.100054,-1.167985 0,-0.09861 -0.100802,-0.09861 -0.124907,-0.09861 -0.105184,0 -0.111758,0.04383 -0.142437,0.129289 -0.175307,0.611385 -0.504009,0.924747 -0.808605,0.924747 -0.159968,0 -0.192838,-0.105185 -0.192838,-0.267344 0,-0.173116 0.03944,-0.273918 0.175307,-0.617958 0.09204,-0.236665 0.405398,-1.045271 0.405398,-1.472582 0,-0.122715 0,-0.444843 -0.282683,-0.663977 -0.129289,-0.100802 -0.350614,-0.205986 -0.712186,-0.205986 -0.683699,0 -1.104436,0.449225 -1.347675,0.769161 -0.06136,-0.648637 -0.607002,-0.769161 -0.992678,-0.769161 -0.633298,0 -1.062801,0.385676 -1.290701,0.692464 -0.05478,-0.525922 -0.504009,-0.692464 -0.819562,-0.692464 -0.328701,0 -0.504009,0.236665 -0.602619,0.409781 -0.166542,0.282683 -0.273918,0.720951 -0.273918,0.758204 0,0.09861 0.107376,0.09861 0.131481,0.09861 0.105184,0 0.111758,-0.0241 0.166542,-0.230091 0.113949,-0.451417 0.260769,-0.823945 0.558792,-0.823945 0.197221,0 0.249813,0.166542 0.249813,0.372528 0,0.14682 -0.06793,0.427312 -0.122715,0.633298 -0.05259,0.208178 -0.127098,0.52154 -0.168734,0.688082 L 48.6789,43.186194 c -0.03068,0.09642 -0.07451,0.287066 -0.07451,0.311171 0,0.168733 0.135863,0.243239 0.26077,0.243239 0.135863,0 0.256387,-0.09861 0.295831,-0.166542 0.03944,-0.07012 0.100802,-0.313362 0.138054,-0.47333 0.03725,-0.144628 0.120524,-0.497435 0.166542,-0.688081 0.04602,-0.168734 0.09423,-0.335276 0.131481,-0.510583 0.08108,-0.315553 0.09861,-0.372528 0.317744,-0.688081 0.216943,-0.304597 0.576323,-0.70123 1.148264,-0.70123 0.44046,0 0.447034,0.390059 0.447034,0.534688 0,0.190646 -0.01972,0.289257 -0.12929,0.71876 z"
         id="path9341" />
    </g>
    <g
       id="g9499"
       transform="translate(103.75446,-27.970238)">
      <path
         style="font-style:normal;font-variant:normal;font-weight:normal;font-stretch:normal;letter-spacing:normal;word-spacing:normal;text-anchor:start;fill:#000000;fill-opacity:1;fill-rule:evenodd;stroke:#000000;stroke-width:0;stroke-linecap:butt;stroke-linejoin:miter;stroke-miterlimit:10.43299961;stroke-dasharray:none;stroke-dashoffset:0;stroke-opacity:1"
         inkscape:connector-curvature="0"
         d="m 61.338284,37.876572 0.0022,-0.0088 v -0.0066 l 0.0044,-0.01315 0.0022,-0.01096 0.0044,-0.01315 0.0022,-0.01096 0.0022,-0.0088 0.0022,-0.01096 0.0044,-0.0088 v -0.0088 l 0.0022,-0.0088 0.0022,-0.0088 0.0022,-0.0088 v -0.0066 l 0.0022,-0.0066 0.0022,-0.0066 v -0.0066 -0.0066 l 0.0022,-0.0066 v -0.01096 l 0.0022,-0.01315 v -0.01096 -0.01096 -0.01096 -0.0066 -0.0066 -0.0066 -0.0066 c 0,-0.199412 -0.149012,-0.295831 -0.313362,-0.295831 -0.109568,0 -0.284875,0.06574 -0.383485,0.230091 -0.02191,0.05478 -0.109567,0.390059 -0.151203,0.589471 -0.07889,0.282683 -0.153394,0.578514 -0.219134,0.872154 l -0.493052,1.965634 c -0.04164,0.164351 -0.510583,0.926938 -1.233726,0.926938 -0.554409,0 -0.677125,-0.477713 -0.677125,-0.883111 0,-0.501817 0.188456,-1.181133 0.558793,-2.13875 0.173116,-0.449225 0.219134,-0.569749 0.219134,-0.788883 0,-0.488669 -0.350615,-0.891876 -0.89845,-0.891876 -1.036505,0 -1.439712,1.579957 -1.439712,1.680759 0,0.109567 0.109567,0.109567 0.13148,0.109567 0.109567,0 0.120524,-0.0241 0.175308,-0.199412 0.295831,-1.027739 0.729717,-1.352058 1.102245,-1.352058 0.08546,0 0.273918,0 0.273918,0.348423 0,0.273918 -0.109567,0.55441 -0.188456,0.764779 -0.433886,1.157028 -0.633298,1.77937 -0.633298,2.294335 0,0.968573 0.688082,1.297275 1.332336,1.297275 0.427312,0 0.797649,-0.186264 1.102246,-0.490861 -0.140246,0.565366 -0.269536,1.102245 -0.707804,1.682951 -0.284875,0.368145 -0.699038,0.688081 -1.203047,0.688081 -0.149011,0 -0.642063,-0.03506 -0.828327,-0.460182 0.175307,0 0.319936,0 0.468947,-0.133671 0.109567,-0.09423 0.219134,-0.238857 0.219134,-0.444843 0,-0.339658 -0.29364,-0.383485 -0.403207,-0.383485 -0.249813,0 -0.613576,0.175308 -0.613576,0.709995 0,0.547836 0.484287,0.951043 1.157029,0.951043 1.12635,0 2.250509,-0.997061 2.559488,-2.228595 z"
         id="path9343" />
      <path
         style="font-style:normal;font-variant:normal;font-weight:normal;font-stretch:normal;letter-spacing:normal;word-spacing:normal;text-anchor:start;fill:#000000;fill-opacity:1;fill-rule:evenodd;stroke:#000000;stroke-width:0;stroke-linecap:butt;stroke-linejoin:miter;stroke-miterlimit:10.43299961;stroke-dasharray:none;stroke-dashoffset:0;stroke-opacity:1"
         inkscape:connector-curvature="0"
         d="m 64.708569,43.045949 -0.0022,0.01534 -0.0044,0.01534 -0.0044,0.01534 -0.0044,0.01534 -0.0044,0.01753 -0.0022,0.01753 -0.0088,0.03287 -0.0088,0.03725 -0.01096,0.03506 -0.0066,0.03506 -0.0044,0.01534 -0.0044,0.01753 -0.0044,0.01753 -0.0044,0.01534 -0.0044,0.01534 -0.0022,0.01534 -0.0044,0.01534 -0.0022,0.01315 -0.0044,0.01315 -0.0022,0.01315 -0.0022,0.01096 -0.0022,0.01096 -0.0022,0.0088 -0.0022,0.0088 v 0.0088 l -0.0022,0.0066 v 0.0044 0.0044 c 0,0.168733 0.135863,0.243239 0.256387,0.243239 0.140246,0 0.26077,-0.09861 0.298023,-0.166542 0.04163,-0.07012 0.09861,-0.313362 0.140246,-0.47333 0.03725,-0.144628 0.120524,-0.497435 0.168733,-0.688081 0.04383,-0.168734 0.08765,-0.335276 0.129289,-0.510583 0.08108,-0.328701 0.08108,-0.341849 0.236665,-0.580706 0.243239,-0.374719 0.626724,-0.808605 1.218386,-0.808605 0.427312,0 0.451417,0.352806 0.451417,0.534688 0,0.45799 -0.328701,1.303848 -0.451417,1.625975 -0.08108,0.214752 -0.113949,0.282684 -0.113949,0.414164 0,0.403207 0.337466,0.65302 0.727525,0.65302 0.762587,0 1.097863,-1.049653 1.097863,-1.167985 0,-0.09861 -0.09861,-0.09861 -0.122715,-0.09861 -0.105185,0 -0.11395,0.04383 -0.142438,0.129289 -0.175307,0.611385 -0.504008,0.924747 -0.808605,0.924747 -0.162159,0 -0.192838,-0.105185 -0.192838,-0.267344 0,-0.173116 0.03725,-0.273918 0.175307,-0.617958 0.09204,-0.236665 0.403207,-1.045271 0.403207,-1.472582 0,-0.122715 0,-0.444843 -0.280492,-0.663977 -0.129289,-0.100802 -0.352806,-0.205986 -0.712186,-0.205986 -0.683698,0 -1.104436,0.449225 -1.349867,0.769161 -0.06136,-0.648637 -0.60481,-0.769161 -0.992678,-0.769161 -0.633297,0 -1.060609,0.385676 -1.2907,0.692464 -0.05478,-0.525922 -0.501817,-0.692464 -0.817371,-0.692464 -0.328701,0 -0.504008,0.236665 -0.602619,0.409781 -0.168733,0.282683 -0.273918,0.720951 -0.273918,0.758204 0,0.09861 0.105185,0.09861 0.12929,0.09861 0.107375,0 0.113949,-0.0241 0.168733,-0.230091 0.111758,-0.451417 0.26077,-0.823945 0.556601,-0.823945 0.199412,0 0.252004,0.166542 0.252004,0.372528 0,0.14682 -0.07012,0.427312 -0.124906,0.633298 -0.0504,0.208178 -0.127098,0.52154 -0.166542,0.688082 l -0.243239,0.979529 c -0.03068,0.09642 -0.07451,0.287066 -0.07451,0.311171 0,0.168733 0.135863,0.243239 0.258578,0.243239 0.138055,0 0.256387,-0.09861 0.298023,-0.166542 0.03725,-0.07012 0.100802,-0.313362 0.138055,-0.47333 0.03725,-0.144628 0.118332,-0.497435 0.166542,-0.688081 0.04383,-0.168734 0.09204,-0.335276 0.13148,-0.510583 0.08108,-0.315553 0.09861,-0.372528 0.317745,-0.688081 0.214751,-0.304597 0.574131,-0.70123 1.146072,-0.70123 0.442651,0 0.449225,0.390059 0.449225,0.534688 0,0.190646 -0.01972,0.289257 -0.129289,0.71876 z"
         id="path9345" />
      <path
         style="font-style:normal;font-variant:normal;font-weight:normal;font-stretch:normal;letter-spacing:normal;word-spacing:normal;text-anchor:start;fill:#000000;fill-opacity:1;fill-rule:evenodd;stroke:#000000;stroke-width:0;stroke-linecap:butt;stroke-linejoin:miter;stroke-miterlimit:10.43299961;stroke-dasharray:none;stroke-dashoffset:0;stroke-opacity:1"
         inkscape:connector-curvature="0"
         d="m 72.689437,41.939321 h 2.333779 c 0.100802,0 0.280492,0 0.280492,-0.184073 0,-0.188455 -0.173116,-0.188455 -0.280492,-0.188455 h -2.333779 v -2.344737 c 0,-0.100801 0,-0.280491 -0.186264,-0.280491 -0.190647,0 -0.190647,0.173116 -0.190647,0.280491 v 2.344737 h -2.342545 c -0.09861,0 -0.282683,0 -0.282683,0.181881 0,0.190647 0.173116,0.190647 0.282683,0.190647 h 2.342545 v 2.346927 c 0,0.09861 0,0.280492 0.184073,0.280492 0.192838,0 0.192838,-0.175307 0.192838,-0.280492 z"
         id="path9347" />
      <path
         style="font-style:normal;font-variant:normal;font-weight:normal;font-stretch:normal;letter-spacing:normal;word-spacing:normal;text-anchor:start;fill:#000000;fill-opacity:1;fill-rule:evenodd;stroke:#000000;stroke-width:0;stroke-linecap:butt;stroke-linejoin:miter;stroke-miterlimit:10.43299961;stroke-dasharray:none;stroke-dashoffset:0;stroke-opacity:1"
         inkscape:connector-curvature="0"
         d="m 78.415414,38.810084 v -0.0088 -0.0088 -0.01096 -0.0088 -0.0066 l -0.0022,-0.0088 v -0.0088 -0.0066 -0.0088 -0.0066 -0.0066 l -0.0022,-0.0066 v -0.0066 -0.0066 -0.0066 l -0.0022,-0.0044 v -0.0066 l -0.0022,-0.0044 v -0.0066 l -0.0022,-0.0044 -0.0022,-0.0088 -0.0022,-0.0088 -0.0044,-0.0066 -0.0044,-0.0066 -0.0044,-0.0066 -0.0066,-0.0066 -0.0044,-0.0044 -0.0088,-0.0044 -0.0066,-0.0044 -0.0088,-0.0022 -0.0088,-0.0022 -0.0088,-0.0044 h -0.0044 -0.0066 l -0.0044,-0.0022 h -0.0066 l -0.0066,-0.0022 h -0.0066 -0.0066 -0.0066 -0.0066 l -0.0066,-0.0022 h -0.0088 -0.0066 -0.0088 -0.0088 -0.0088 -0.0088 -0.0088 -0.0088 -0.0088 -0.01096 c -0.488669,0.482095 -1.181133,0.488669 -1.496687,0.488669 v 0.273918 c 0.186265,0 0.688082,0 1.106628,-0.212561 v 3.894016 c 0,0.254195 0,0.352806 -0.764778,0.352806 H 76.74342 v 0.273917 c 0.138055,-0.0066 1.075949,-0.03068 1.358632,-0.03068 0.236665,0 1.198664,0.0241 1.367398,0.03068 v -0.273917 h -0.291449 c -0.762587,0 -0.762587,-0.09861 -0.762587,-0.352806 z"
         id="path9349" />
    </g>
    <g
       id="g9493"
       transform="translate(39.498512,-12.473214)">
      <path
         style="font-style:normal;font-variant:normal;font-weight:normal;font-stretch:normal;letter-spacing:normal;word-spacing:normal;text-anchor:start;fill:#000000;fill-opacity:1;fill-rule:evenodd;stroke:#000000;stroke-width:0;stroke-linecap:butt;stroke-linejoin:miter;stroke-miterlimit:10.43299961;stroke-dasharray:none;stroke-dashoffset:0;stroke-opacity:1"
         inkscape:connector-curvature="0"
         d="m 81.213758,43.368076 -0.0088,0.03287 -0.0066,0.03287 -0.0088,0.03068 -0.0066,0.02849 -0.0066,0.02849 -0.0088,0.0241 -0.0066,0.0263 -0.0088,0.02191 -0.0088,0.02191 -0.0088,0.01972 -0.0088,0.01972 -0.01096,0.01753 -0.0088,0.01534 -0.01315,0.01534 -0.01315,0.01534 -0.01315,0.01315 -0.01534,0.01096 -0.01534,0.01096 -0.01753,0.0088 -0.01972,0.0088 -0.01972,0.0088 -0.02191,0.0066 -0.0241,0.0066 -0.0263,0.0044 -0.0263,0.0044 -0.01534,0.0022 -0.01534,0.0022 -0.01534,0.0022 -0.01534,0.0022 h -0.01753 l -0.01753,0.0022 h -0.01753 l -0.01972,0.0022 h -0.01753 -0.01972 -0.01972 -0.02191 l -0.02191,0.0022 h -0.02191 c -0.129289,0 -0.249813,0 -0.249813,0.203795 0,0.08984 0.05478,0.133672 0.140246,0.133672 0.298022,0 0.611384,-0.03287 0.918172,-0.03287 0.35938,0 0.731909,0.03287 1.080332,0.03287 0.05478,0 0.19503,0 0.19503,-0.219134 0,-0.118333 -0.109568,-0.118333 -0.258579,-0.118333 -0.547835,0 -0.547835,-0.07889 -0.547835,-0.175307 0,-0.133672 0.45799,-1.910851 0.536878,-2.184769 0.140246,0.315554 0.444843,0.699039 1.003635,0.699039 l -0.01096,-0.241048 c -0.723142,0 -0.863388,-0.907216 -0.863388,-0.970765 0,-0.02191 0,-0.04602 0.03068,-0.175307 l 0.539071,-2.140941 c 0.07451,-0.29364 0.370336,-0.598237 0.563175,-0.762587 0.383484,-0.339658 0.70342,-0.414164 0.887493,-0.414164 0.436077,0 0.699038,0.379102 0.699038,1.027739 0,0.642064 -0.35938,1.895511 -0.558792,2.314058 -0.370337,0.762587 -0.891876,1.121967 -1.297275,1.121967 l 0.01096,0.241048 c 1.266596,0 2.629611,-1.593106 2.629611,-3.19936 0,-1.025548 -0.62015,-1.744308 -1.45286,-1.744308 -0.543453,0 -1.067184,0.390059 -1.426564,0.81737 -0.109567,-0.589471 -0.578514,-0.81737 -0.983913,-0.81737 -0.501817,0 -0.712186,0.422929 -0.808605,0.617958 -0.197221,0.37472 -0.337466,1.02774 -0.337466,1.062801 0,0.109567 0.109567,0.109567 0.129289,0.109567 0.109567,0 0.120524,-0.01534 0.186264,-0.254195 0.186264,-0.773544 0.403207,-1.297275 0.797648,-1.297275 0.184073,0 0.337467,0.08546 0.337467,0.499626 0,0.254196 -0.03287,0.372528 -0.07451,0.558792 z"
         id="path9351" />
      <path
         style="font-style:normal;font-variant:normal;font-weight:normal;font-stretch:normal;letter-spacing:normal;word-spacing:normal;text-anchor:start;fill:#000000;fill-opacity:1;fill-rule:evenodd;stroke:#000000;stroke-width:0;stroke-linecap:butt;stroke-linejoin:miter;stroke-miterlimit:10.43299961;stroke-dasharray:none;stroke-dashoffset:0;stroke-opacity:1"
         inkscape:connector-curvature="0"
         d="m 89.534284,43.387798 -0.0044,0.01534 -0.0044,0.01534 -0.0044,0.01534 -0.0044,0.01753 -0.0022,0.01534 -0.0044,0.01753 -0.0088,0.03506 -0.0088,0.03506 -0.0088,0.03506 -0.0088,0.03506 -0.0044,0.01753 -0.0044,0.01534 -0.0044,0.01753 -0.0044,0.01534 -0.0044,0.01534 -0.0022,0.01534 -0.0044,0.01534 -0.0022,0.01315 -0.0044,0.01315 -0.0022,0.01315 -0.0022,0.01096 -0.0022,0.01096 -0.0022,0.01096 -0.0022,0.0088 v 0.0066 l -0.0022,0.0066 v 0.0066 0.0044 c 0,0.166542 0.135863,0.241047 0.256387,0.241047 0.140246,0 0.260769,-0.09861 0.298022,-0.166542 0.04164,-0.06793 0.100802,-0.31117 0.140246,-0.473329 0.03725,-0.142438 0.120524,-0.495244 0.168734,-0.688082 0.04383,-0.166542 0.08765,-0.335275 0.129289,-0.510583 0.08327,-0.328701 0.08327,-0.341849 0.236665,-0.580705 0.243239,-0.37472 0.626724,-0.808606 1.218386,-0.808606 0.427312,0 0.453608,0.352806 0.453608,0.534688 0,0.45799 -0.328702,1.303848 -0.453608,1.625976 -0.08108,0.214751 -0.111759,0.284874 -0.111759,0.414163 0,0.403207 0.335276,0.65302 0.725335,0.65302 0.762587,0 1.100054,-1.049652 1.100054,-1.165794 0,-0.100801 -0.100802,-0.100801 -0.124907,-0.100801 -0.105184,0 -0.111758,0.04602 -0.142437,0.13148 -0.175308,0.609193 -0.504009,0.924747 -0.808605,0.924747 -0.16216,0 -0.192839,-0.107376 -0.192839,-0.267344 0,-0.175308 0.03725,-0.273918 0.175308,-0.62015 0.09204,-0.236665 0.403207,-1.04527 0.403207,-1.472582 0,-0.122715 0,-0.444842 -0.280492,-0.663977 -0.129289,-0.09861 -0.352806,-0.205986 -0.712186,-0.205986 -0.683699,0 -1.104437,0.449225 -1.347676,0.771353 -0.06355,-0.650829 -0.607002,-0.771353 -0.994869,-0.771353 -0.631107,0 -1.06061,0.387868 -1.288509,0.692464 -0.05478,-0.52373 -0.504009,-0.692464 -0.819562,-0.692464 -0.328702,0 -0.504009,0.236665 -0.602619,0.411973 -0.166542,0.280491 -0.273918,0.71876 -0.273918,0.756013 0,0.09861 0.107376,0.09861 0.129289,0.09861 0.107376,0 0.11395,-0.0241 0.168733,-0.2279 0.111759,-0.453607 0.26077,-0.826136 0.558793,-0.826136 0.19722,0 0.249813,0.168734 0.249813,0.372529 0,0.149011 -0.06793,0.429503 -0.122716,0.633297 -0.05259,0.210369 -0.127097,0.52154 -0.168733,0.688082 l -0.243239,0.97953 c -0.03068,0.09642 -0.07451,0.289257 -0.07451,0.313362 0,0.166542 0.135863,0.241047 0.258578,0.241047 0.138054,0 0.256387,-0.09861 0.298022,-0.166542 0.03945,-0.06793 0.100802,-0.31117 0.138055,-0.473329 0.03725,-0.142438 0.120524,-0.495244 0.166542,-0.688082 0.04602,-0.166542 0.09204,-0.335275 0.131481,-0.510583 0.08108,-0.313362 0.09861,-0.372528 0.317744,-0.688081 0.216943,-0.304597 0.574132,-0.70123 1.148263,-0.70123 0.44046,0 0.447034,0.390059 0.447034,0.534688 0,0.190647 -0.01972,0.291448 -0.129289,0.71876 z"
         id="path9353" />
      <path
         style="font-style:normal;font-variant:normal;font-weight:normal;font-stretch:normal;letter-spacing:normal;word-spacing:normal;text-anchor:start;fill:#000000;fill-opacity:1;fill-rule:evenodd;stroke:#000000;stroke-width:0;stroke-linecap:butt;stroke-linejoin:miter;stroke-miterlimit:10.43299961;stroke-dasharray:none;stroke-dashoffset:0;stroke-opacity:1"
         inkscape:connector-curvature="0"
         d="m 97.512961,42.283362 h 2.33378 c 0.100802,0 0.282679,0 0.282679,-0.186265 0,-0.188455 -0.175303,-0.188455 -0.282679,-0.188455 h -2.33378 v -2.344736 c 0,-0.09861 0,-0.280492 -0.186264,-0.280492 -0.190646,0 -0.190646,0.175307 -0.190646,0.280492 v 2.344736 h -2.342545 c -0.09861,0 -0.282683,0 -0.282683,0.181881 0,0.192839 0.173116,0.192839 0.282683,0.192839 h 2.342545 v 2.344736 c 0,0.09861 0,0.280491 0.184072,0.280491 0.192838,0 0.192838,-0.175307 0.192838,-0.280491 z"
         id="path9355" />
      <path
         style="font-style:normal;font-variant:normal;font-weight:normal;font-stretch:normal;letter-spacing:normal;word-spacing:normal;text-anchor:start;fill:#000000;fill-opacity:1;fill-rule:evenodd;stroke:#000000;stroke-width:0;stroke-linecap:butt;stroke-linejoin:miter;stroke-miterlimit:10.43299961;stroke-dasharray:none;stroke-dashoffset:0;stroke-opacity:1"
         inkscape:connector-curvature="0"
         d="m 103.23894,39.151934 v -0.0088 -0.0088 -0.0088 -0.0088 -0.0088 -0.0088 l -0.002,-0.0088 v -0.0066 -0.0088 -0.0066 -0.0066 -0.0066 l -0.002,-0.0066 v -0.0066 -0.0066 l -0.002,-0.0044 v -0.0066 l -0.002,-0.0044 v -0.0044 l -0.002,-0.0066 -0.002,-0.0088 -0.002,-0.0088 -0.004,-0.0066 -0.004,-0.0066 -0.004,-0.0066 -0.007,-0.0066 -0.004,-0.0044 -0.007,-0.0044 -0.009,-0.0022 -0.009,-0.0044 -0.009,-0.0022 -0.009,-0.0022 -0.011,-0.0022 -0.004,-0.0022 h -0.007 -0.007 l -0.007,-0.0022 h -0.007 -0.007 -0.007 -0.007 l -0.009,-0.0022 h -0.007 -0.009 -0.009 -0.007 -0.011 -0.009 -0.009 -0.009 -0.011 c -0.48867,0.482095 -1.18114,0.488669 -1.49669,0.488669 v 0.273918 c 0.18627,0 0.68808,0 1.10663,-0.210369 v 3.891824 c 0,0.254196 0,0.352806 -0.76259,0.352806 h -0.28926 V 44.0071 c 0.13806,-0.0066 1.07595,-0.03068 1.36083,-0.03068 0.23447,0 1.19647,0.0241 1.3652,0.03068 v -0.27307 h -0.29144 c -0.76259,0 -0.76259,-0.09861 -0.76259,-0.352806 z"
         id="path9357" />
      <path
         style="font-style:normal;font-variant:normal;font-weight:normal;font-stretch:normal;letter-spacing:normal;word-spacing:normal;text-anchor:start;fill:#000000;fill-opacity:1;fill-rule:evenodd;stroke:#000000;stroke-width:0;stroke-linecap:butt;stroke-linejoin:miter;stroke-miterlimit:10.43299961;stroke-dasharray:none;stroke-dashoffset:0;stroke-opacity:1"
         inkscape:connector-curvature="0"
         d="m 108.84439,38.619437 0.002,-0.0044 0.002,-0.0044 0.002,-0.0044 v -0.0044 l 0.002,-0.0044 0.002,-0.0044 0.002,-0.0044 0.002,-0.0044 0.002,-0.0022 v -0.0044 l 0.004,-0.0066 0.002,-0.0066 0.002,-0.0066 0.002,-0.0066 0.002,-0.0044 0.002,-0.0066 0.002,-0.0044 0.002,-0.0044 0.002,-0.0044 v -0.0044 l 0.002,-0.0044 v -0.0022 l 0.002,-0.0044 v -0.0022 -0.0044 l 0.002,-0.0022 v -0.0044 -0.0022 -0.0022 -0.0066 -0.0044 -0.0066 -0.0044 c 0,-0.120523 -0.0986,-0.192838 -0.18407,-0.192838 -0.12929,0 -0.16654,0.09204 -0.20599,0.192838 l -2.84874,7.106523 c -0.0438,0.100802 -0.0438,0.116141 -0.0438,0.14682 0,0.120524 0.0986,0.192838 0.18188,0.192838 0.12929,0 0.16654,-0.09204 0.20599,-0.192838 z"
         id="path9359" />
      <path
         style="font-style:normal;font-variant:normal;font-weight:normal;font-stretch:normal;letter-spacing:normal;word-spacing:normal;text-anchor:start;fill:#000000;fill-opacity:1;fill-rule:evenodd;stroke:#000000;stroke-width:0;stroke-linecap:butt;stroke-linejoin:miter;stroke-miterlimit:10.43299961;stroke-dasharray:none;stroke-dashoffset:0;stroke-opacity:1"
         inkscape:connector-curvature="0"
         d="m 113.34322,42.618637 h -0.25858 c -0.0219,0.166542 -0.1008,0.62015 -0.19941,0.694655 -0.057,0.04383 -0.64645,0.04383 -0.75382,0.04383 h -1.40685 c 0.80203,-0.707803 1.06938,-0.920364 1.52737,-1.279744 0.56537,-0.451416 1.09129,-0.924746 1.09129,-1.65008 0,-0.924747 -0.80642,-1.490113 -1.78595,-1.490113 -0.94446,0 -1.58872,0.663977 -1.58872,1.365206 0,0.39225 0.3287,0.429503 0.40759,0.429503 0.18188,0 0.40321,-0.13148 0.40321,-0.405398 0,-0.135863 -0.0548,-0.403207 -0.45142,-0.403207 0.23667,-0.541262 0.75601,-0.707804 1.11539,-0.707804 0.76478,0 1.16142,0.591663 1.16142,1.211813 0,0.663976 -0.47333,1.189898 -0.71877,1.463816 l -1.83853,1.818814 c -0.0789,0.06793 -0.0789,0.08546 -0.0789,0.298023 h 3.14677 z"
         id="path9361" />
    </g>
    <g
       id="g9485"
       transform="translate(-70.49256,-11.717262)">
      <path
         style="font-style:normal;font-variant:normal;font-weight:normal;font-stretch:normal;letter-spacing:normal;word-spacing:normal;text-anchor:start;fill:#000000;fill-opacity:1;fill-rule:evenodd;stroke:#000000;stroke-width:0;stroke-linecap:butt;stroke-linejoin:miter;stroke-miterlimit:10.43299961;stroke-dasharray:none;stroke-dashoffset:0;stroke-opacity:1"
         inkscape:connector-curvature="0"
         d="m 114.87058,43.368076 -0.007,0.03287 -0.009,0.03287 -0.007,0.03068 -0.007,0.02849 -0.009,0.02849 -0.007,0.0241 -0.009,0.0263 -0.007,0.02191 -0.009,0.02191 -0.009,0.01972 -0.009,0.01972 -0.011,0.01753 -0.0109,0.01534 -0.011,0.01534 -0.0132,0.01534 -0.0131,0.01315 -0.0153,0.01096 -0.0153,0.01096 -0.0175,0.0088 -0.0197,0.0088 -0.0197,0.0088 -0.0219,0.0066 -0.0241,0.0066 -0.0263,0.0044 -0.0285,0.0044 -0.0131,0.0022 -0.0153,0.0022 -0.0153,0.0022 -0.0175,0.0022 h -0.0153 l -0.0175,0.0022 h -0.0175 l -0.0197,0.0022 h -0.0197 -0.0197 -0.0197 -0.0197 l -0.0219,0.0022 h -0.0219 c -0.13148,0 -0.24981,0 -0.24981,0.203795 0,0.08984 0.0548,0.133672 0.14025,0.133672 0.29802,0 0.61138,-0.03287 0.91598,-0.03287 0.35938,0 0.7341,0.03287 1.08252,0.03287 0.0548,0 0.19503,0 0.19503,-0.219134 0,-0.118333 -0.10957,-0.118333 -0.26077,-0.118333 -0.54784,0 -0.54784,-0.07889 -0.54784,-0.175307 0,-0.133672 0.46019,-1.910851 0.53907,-2.184769 0.14025,0.315554 0.44485,0.699039 1.00364,0.699039 l -0.011,-0.241048 c -0.72314,0 -0.86339,-0.907216 -0.86339,-0.970765 0,-0.02191 0,-0.04602 0.0307,-0.175307 l 0.53907,-2.140941 c 0.0745,-0.29364 0.36815,-0.598237 0.56318,-0.762587 0.38348,-0.339658 0.70342,-0.414164 0.88749,-0.414164 0.43389,0 0.69904,0.379102 0.69904,1.027739 0,0.642064 -0.35938,1.895511 -0.55879,2.314058 -0.37034,0.762587 -0.89407,1.121967 -1.29728,1.121967 l 0.011,0.241048 c 1.2666,0 2.62961,-1.593106 2.62961,-3.19936 0,-1.025548 -0.62015,-1.744308 -1.45286,-1.744308 -0.54345,0 -1.06718,0.390059 -1.42876,0.81737 -0.10956,-0.589471 -0.57851,-0.81737 -0.98172,-0.81737 -0.50401,0 -0.71218,0.422929 -0.8086,0.617958 -0.19722,0.37472 -0.33747,1.02774 -0.33747,1.062801 0,0.109567 0.10957,0.109567 0.12929,0.109567 0.10957,0 0.12052,-0.01534 0.18407,-0.254195 0.18846,-0.773544 0.4054,-1.297275 0.79765,-1.297275 0.18627,0 0.33966,0.08546 0.33966,0.499626 0,0.254196 -0.0329,0.372528 -0.0745,0.558792 z"
         id="path9363" />
      <path
         style="font-style:normal;font-variant:normal;font-weight:normal;font-stretch:normal;letter-spacing:normal;word-spacing:normal;text-anchor:start;fill:#000000;fill-opacity:1;fill-rule:evenodd;stroke:#000000;stroke-width:0;stroke-linecap:butt;stroke-linejoin:miter;stroke-miterlimit:10.43299961;stroke-dasharray:none;stroke-dashoffset:0;stroke-opacity:1"
         inkscape:connector-curvature="0"
         d="m 123.1933,43.387798 -0.004,0.01534 -0.004,0.01534 -0.004,0.01534 -0.002,0.01753 -0.004,0.01534 -0.004,0.01753 -0.009,0.03506 -0.009,0.03506 -0.009,0.03506 -0.009,0.03506 -0.004,0.01753 -0.004,0.01534 -0.004,0.01753 -0.004,0.01534 -0.002,0.01534 -0.004,0.01534 -0.004,0.01534 -0.002,0.01315 -0.002,0.01315 -0.004,0.01315 -0.002,0.01096 -0.002,0.01096 -0.002,0.01096 v 0.0088 l -0.002,0.0066 v 0.0066 l -0.002,0.0066 v 0.0044 c 0,0.166542 0.13806,0.241047 0.25639,0.241047 0.14244,0 0.26077,-0.09861 0.29802,-0.166542 0.0416,-0.06793 0.10081,-0.31117 0.14025,-0.473329 0.0394,-0.142438 0.12052,-0.495244 0.16873,-0.688082 0.0438,-0.166542 0.0898,-0.335275 0.12929,-0.510583 0.0833,-0.328701 0.0833,-0.341849 0.23667,-0.580705 0.24324,-0.37472 0.62672,-0.808606 1.21838,-0.808606 0.42951,0 0.45361,0.352806 0.45361,0.534688 0,0.45799 -0.3287,1.303848 -0.45361,1.625976 -0.0811,0.214751 -0.11175,0.284874 -0.11175,0.414163 0,0.403207 0.33527,0.65302 0.72533,0.65302 0.76259,0 1.10005,-1.049652 1.10005,-1.165794 0,-0.100801 -0.1008,-0.100801 -0.1249,-0.100801 -0.10519,0 -0.11176,0.04602 -0.14244,0.13148 -0.17531,0.609193 -0.50401,0.924747 -0.80861,0.924747 -0.15996,0 -0.19283,-0.107376 -0.19283,-0.267344 0,-0.175308 0.0394,-0.273918 0.1753,-0.62015 0.092,-0.236665 0.4054,-1.04527 0.4054,-1.472582 0,-0.122715 0,-0.444842 -0.28049,-0.663977 -0.13148,-0.09861 -0.355,-0.205986 -0.71219,-0.205986 -0.68589,0 -1.10662,0.449225 -1.34986,0.771353 -0.0614,-0.650829 -0.607,-0.771353 -0.99268,-0.771353 -0.6333,0 -1.0628,0.387868 -1.2907,0.692464 -0.0548,-0.52373 -0.50401,-0.692464 -0.81956,-0.692464 -0.3287,0 -0.50401,0.236665 -0.60262,0.411973 -0.16654,0.280491 -0.27392,0.71876 -0.27392,0.756013 0,0.09861 0.10738,0.09861 0.13148,0.09861 0.10518,0 0.11176,-0.0241 0.16654,-0.2279 0.11395,-0.453607 0.26077,-0.826136 0.55879,-0.826136 0.19942,0 0.24982,0.168734 0.24982,0.372529 0,0.149011 -0.0679,0.429503 -0.12272,0.633297 -0.0526,0.210369 -0.1271,0.52154 -0.16873,0.688082 l -0.24324,0.97953 c -0.0307,0.09642 -0.0745,0.289257 -0.0745,0.313362 0,0.166542 0.13587,0.241047 0.25858,0.241047 0.13806,0 0.25858,-0.09861 0.30022,-0.166542 0.0373,-0.06793 0.0986,-0.31117 0.13586,-0.473329 0.0373,-0.142438 0.12052,-0.495244 0.16654,-0.688082 0.046,-0.166542 0.0942,-0.335275 0.13148,-0.510583 0.0811,-0.313362 0.0986,-0.372528 0.31775,-0.688081 0.21694,-0.304597 0.57632,-0.70123 1.14826,-0.70123 0.44046,0 0.44703,0.390059 0.44703,0.534688 0,0.190647 -0.0197,0.291448 -0.12928,0.71876 z"
         id="path9365" />
      <path
         style="font-style:normal;font-variant:normal;font-weight:normal;font-stretch:normal;letter-spacing:normal;word-spacing:normal;text-anchor:start;fill:#000000;fill-opacity:1;fill-rule:evenodd;stroke:#000000;stroke-width:0;stroke-linecap:butt;stroke-linejoin:miter;stroke-miterlimit:10.43299961;stroke-dasharray:none;stroke-dashoffset:0;stroke-opacity:1"
         inkscape:connector-curvature="0"
         d="m 133.31511,42.283362 h 0.0131 0.011 l 0.0241,-0.0022 h 0.0263 0.0131 l 0.0131,-0.0022 h 0.011 l 0.0131,-0.0022 0.0131,-0.0022 0.0131,-0.0022 0.0131,-0.0022 0.011,-0.0022 0.011,-0.0044 0.0131,-0.0044 0.011,-0.0044 0.011,-0.0044 0.011,-0.0066 0.009,-0.0066 0.009,-0.0066 0.009,-0.0088 0.009,-0.0088 0.004,-0.0044 0.002,-0.0044 0.004,-0.0044 0.002,-0.0066 0.004,-0.0044 0.002,-0.0066 0.002,-0.0044 0.004,-0.0066 0.002,-0.0066 0.002,-0.0066 v -0.0066 l 0.002,-0.0066 0.002,-0.0088 v -0.0066 l 0.002,-0.0066 v -0.0088 -0.0088 -0.0088 c 0,-0.188455 -0.17531,-0.188455 -0.3046,-0.188455 h -4.54923 c -0.1249,0 -0.30678,0 -0.30678,0.181881 0,0.192839 0.1753,0.192839 0.30678,0.192839 z"
         id="path9367" />
      <path
         style="font-style:normal;font-variant:normal;font-weight:normal;font-stretch:normal;letter-spacing:normal;word-spacing:normal;text-anchor:start;fill:#000000;fill-opacity:1;fill-rule:evenodd;stroke:#000000;stroke-width:0;stroke-linecap:butt;stroke-linejoin:miter;stroke-miterlimit:10.43299961;stroke-dasharray:none;stroke-dashoffset:0;stroke-opacity:1"
         inkscape:connector-curvature="0"
         d="m 137.00533,39.151934 v -0.0088 -0.0088 -0.0088 -0.0088 -0.0088 -0.0088 -0.0088 -0.0066 -0.0088 -0.0066 -0.0066 -0.0066 -0.0066 -0.0066 -0.0066 -0.0044 -0.0066 -0.0044 -0.0044 l -0.0219,-0.0066 v -0.0088 -0.0088 -0.0066 -0.0066 -0.0066 l -0.0219,-0.0066 v -0.0044 -0.0044 l -0.0219,-0.0022 v -0.0044 -0.0022 l -0.0219,-0.0022 v -0.0022 0 l -0.0219,-0.0022 v 0 0 -0.0022 h -0.0219 v 0 h -0.007 -0.007 l -0.007,-0.0022 h -0.009 -0.009 -0.007 -0.009 -0.009 -0.009 -0.011 -0.009 -0.0109 c -0.48867,0.482095 -1.18114,0.488669 -1.4945,0.488669 v 0.273918 c 0.18408,0 0.68589,0 1.10444,-0.210369 v 3.891824 c 0,0.254196 0,0.352806 -0.76259,0.352806 h -0.28706 V 44.0071 c 0.13586,-0.0066 1.07375,-0.03068 1.35863,-0.03068 0.22571,0 1.1899,0.0241 1.3652,0.03068 v -0.27307 h -0.28487 c -0.76697,0 -0.76697,-0.09861 -0.76697,-0.352806 z"
         id="path9369" />
      <path
         style="font-style:normal;font-variant:normal;font-weight:normal;font-stretch:normal;letter-spacing:normal;word-spacing:normal;text-anchor:start;fill:#000000;fill-opacity:1;fill-rule:evenodd;stroke:#000000;stroke-width:0;stroke-linecap:butt;stroke-linejoin:miter;stroke-miterlimit:10.43299961;stroke-dasharray:none;stroke-dashoffset:0;stroke-opacity:1"
         inkscape:connector-curvature="0"
         d="m 142.61517,38.619437 v -0.0044 -0.0044 -0.0044 -0.0044 -0.0044 -0.0044 -0.0044 -0.0044 l 0.0219,-0.0022 v -0.0044 -0.0066 -0.0066 -0.0066 -0.0066 -0.0044 -0.0066 -0.0044 -0.0044 l 0.0219,-0.0044 v -0.0044 -0.0044 -0.0022 -0.0044 -0.0022 -0.0044 -0.0022 -0.0044 -0.0022 -0.0022 -0.0066 -0.0044 -0.0066 -0.0044 c 0,-0.120523 -0.10956,-0.192838 -0.19722,-0.192838 -0.13148,0 -0.15339,0.09204 -0.19722,0.192838 l -2.84874,7.106523 c -0.0438,0.100802 -0.0438,0.116141 -0.0438,0.14682 0,0.120524 0.10957,0.192838 0.17531,0.192838 0.13148,0 0.1753,-0.09204 0.21913,-0.192838 z"
         id="path9371" />
      <path
         style="font-style:normal;font-variant:normal;font-weight:normal;font-stretch:normal;letter-spacing:normal;word-spacing:normal;text-anchor:start;fill:#000000;fill-opacity:1;fill-rule:evenodd;stroke:#000000;stroke-width:0;stroke-linecap:butt;stroke-linejoin:miter;stroke-miterlimit:10.43299961;stroke-dasharray:none;stroke-dashoffset:0;stroke-opacity:1"
         inkscape:connector-curvature="0"
         d="m 147.10742,42.618637 h -0.26296 c -0.0219,0.166542 -0.0877,0.62015 -0.19722,0.694655 -0.0657,0.04383 -0.63549,0.04383 -0.74506,0.04383 h -1.40246 c 0.78888,-0.707803 1.05185,-0.920364 1.51203,-1.279744 0.56975,-0.451416 1.09567,-0.924746 1.09567,-1.65008 0,-0.924747 -0.8108,-1.490113 -1.77499,-1.490113 -0.96419,0 -1.59968,0.663977 -1.59968,1.365206 0,0.39225 0.3287,0.429503 0.41636,0.429503 0.1753,0 0.39444,-0.13148 0.39444,-0.405398 0,-0.135863 -0.0438,-0.403207 -0.46018,-0.403207 0.24104,-0.541262 0.76697,-0.707804 1.11758,-0.707804 0.76697,0 1.16141,0.591663 1.16141,1.211813 0,0.663976 -0.46018,1.189898 -0.70123,1.463816 l -1.84073,1.818814 c -0.0876,0.06793 -0.0876,0.08546 -0.0876,0.298023 h 3.15553 z"
         id="path9373" />
    </g>
  </g>
</svg>
